G04 #@! TF.GenerationSoftware,KiCad,Pcbnew,7.0.6-0*
G04 #@! TF.CreationDate,2023-08-07T07:56:58+08:00*
G04 #@! TF.ProjectId,aes17_filter_25,61657331-375f-4666-996c-7465725f3235,rev?*
G04 #@! TF.SameCoordinates,Original*
G04 #@! TF.FileFunction,Copper,L2,Bot*
G04 #@! TF.FilePolarity,Positive*
%FSLAX46Y46*%
G04 Gerber Fmt 4.6, Leading zero omitted, Abs format (unit mm)*
G04 Created by KiCad (PCBNEW 7.0.6-0) date 2023-08-07 07:56:58*
%MOMM*%
%LPD*%
G01*
G04 APERTURE LIST*
G04 #@! TA.AperFunction,WasherPad*
%ADD10C,1.700000*%
G04 #@! TD*
G04 #@! TA.AperFunction,ComponentPad*
%ADD11C,3.500000*%
G04 #@! TD*
G04 #@! TA.AperFunction,ComponentPad*
%ADD12C,2.400000*%
G04 #@! TD*
G04 #@! TA.AperFunction,ComponentPad*
%ADD13O,2.400000X2.400000*%
G04 #@! TD*
G04 #@! TA.AperFunction,ComponentPad*
%ADD14C,3.400000*%
G04 #@! TD*
G04 #@! TA.AperFunction,ComponentPad*
%ADD15C,2.900000*%
G04 #@! TD*
G04 #@! TA.AperFunction,ComponentPad*
%ADD16C,1.600000*%
G04 #@! TD*
G04 #@! TA.AperFunction,ComponentPad*
%ADD17C,2.600000*%
G04 #@! TD*
G04 #@! TA.AperFunction,ComponentPad*
%ADD18R,2.200000X2.200000*%
G04 #@! TD*
G04 #@! TA.AperFunction,ComponentPad*
%ADD19O,2.200000X2.200000*%
G04 #@! TD*
G04 #@! TA.AperFunction,ComponentPad*
%ADD20O,1.600000X1.600000*%
G04 #@! TD*
G04 #@! TA.AperFunction,ComponentPad*
%ADD21R,1.700000X1.700000*%
G04 #@! TD*
G04 #@! TA.AperFunction,ComponentPad*
%ADD22O,1.700000X1.700000*%
G04 #@! TD*
G04 #@! TA.AperFunction,ViaPad*
%ADD23C,1.000000*%
G04 #@! TD*
G04 #@! TA.AperFunction,Conductor*
%ADD24C,2.000000*%
G04 #@! TD*
G04 #@! TA.AperFunction,Conductor*
%ADD25C,1.000000*%
G04 #@! TD*
G04 APERTURE END LIST*
D10*
X124460000Y-121920000D03*
X134620000Y-121920000D03*
X124460000Y-111760000D03*
X134620000Y-111760000D03*
D11*
X129540000Y-115560000D03*
D12*
X200660000Y-70880000D03*
X185660000Y-70880000D03*
X73660000Y-109220000D03*
D13*
X73660000Y-88900000D03*
D14*
X157480000Y-121920000D03*
X165100000Y-121920000D03*
D15*
X161290000Y-121920000D03*
X161290000Y-127000000D03*
D16*
X96520000Y-76200000D03*
X96520000Y-71200000D03*
D12*
X220980000Y-81280000D03*
D13*
X220980000Y-101600000D03*
D12*
X160020000Y-58420000D03*
D13*
X185420000Y-58420000D03*
D14*
X81280000Y-127000000D03*
X73660000Y-126365000D03*
D15*
X77470000Y-122550000D03*
X85720000Y-132720000D03*
D17*
X106760000Y-71120000D03*
X111760000Y-71120000D03*
D16*
X121920000Y-55960000D03*
X121920000Y-60960000D03*
D12*
X160020000Y-99060000D03*
D13*
X185420000Y-99060000D03*
D17*
X106760000Y-86360000D03*
X111760000Y-86360000D03*
D18*
X187960000Y-129540000D03*
D19*
X187960000Y-119380000D03*
D12*
X121920000Y-86360000D03*
X136920000Y-86360000D03*
D16*
X129540000Y-101520000D03*
X129540000Y-96520000D03*
D12*
X213360000Y-81280000D03*
D13*
X213360000Y-101600000D03*
D12*
X142207136Y-83314162D03*
D13*
X162527136Y-83314162D03*
D12*
X185420000Y-86360000D03*
X200420000Y-86360000D03*
D16*
X223520000Y-109220000D03*
D20*
X223520000Y-124460000D03*
D18*
X200660000Y-119380000D03*
D19*
X200660000Y-129540000D03*
D21*
X193040000Y-124460000D03*
D22*
X195580000Y-121920000D03*
X195580000Y-124460000D03*
X193040000Y-121920000D03*
D17*
X170260000Y-71120000D03*
X175260000Y-71120000D03*
D12*
X81280000Y-109220000D03*
D13*
X81280000Y-88900000D03*
D16*
X129540000Y-55960000D03*
X129540000Y-60960000D03*
D12*
X142240000Y-73660000D03*
D13*
X162560000Y-73660000D03*
D16*
X210820000Y-109220000D03*
D20*
X210820000Y-124460000D03*
D17*
X170260000Y-86360000D03*
X175260000Y-86360000D03*
D10*
X104140000Y-121920000D03*
X114300000Y-121920000D03*
X104140000Y-111760000D03*
X114300000Y-111760000D03*
D11*
X109220000Y-115560000D03*
D16*
X96520000Y-86360000D03*
X96520000Y-81360000D03*
D22*
X215900000Y-124460000D03*
D21*
X215900000Y-119380000D03*
D22*
X215900000Y-121920000D03*
X218440000Y-124460000D03*
X218440000Y-119380000D03*
X218440000Y-121920000D03*
D12*
X137160000Y-70880000D03*
X122160000Y-70880000D03*
X91440000Y-58420000D03*
D13*
X111760000Y-58420000D03*
D12*
X91440000Y-99060000D03*
D13*
X111760000Y-99060000D03*
D16*
X121920000Y-101520000D03*
X121920000Y-96520000D03*
D23*
X157480000Y-116840000D03*
D24*
X137160000Y-86120000D02*
X136920000Y-86360000D01*
X200660000Y-86120000D02*
X200420000Y-86360000D01*
D25*
X165100000Y-121920000D02*
X160020000Y-116840000D01*
X160020000Y-116840000D02*
X157480000Y-116840000D01*
G04 #@! TA.AperFunction,Conductor*
G36*
X226003039Y-48279685D02*
G01*
X226048794Y-48332489D01*
X226060000Y-48384000D01*
X226060000Y-134496000D01*
X226040315Y-134563039D01*
X225987511Y-134608794D01*
X225936000Y-134620000D01*
X86796146Y-134620000D01*
X86729107Y-134600315D01*
X86683352Y-134547511D01*
X86673408Y-134478353D01*
X86702433Y-134414797D01*
X86736719Y-134387168D01*
X86762907Y-134372867D01*
X86777213Y-134365056D01*
X87000568Y-134197855D01*
X87197855Y-134000568D01*
X87365056Y-133777213D01*
X87498769Y-133532337D01*
X87596271Y-133270923D01*
X87655578Y-132998294D01*
X87675482Y-132720000D01*
X87655578Y-132441706D01*
X87596271Y-132169077D01*
X87498769Y-131907663D01*
X87431916Y-131785232D01*
X87365059Y-131662792D01*
X87365054Y-131662784D01*
X87197861Y-131439439D01*
X87197845Y-131439421D01*
X87000578Y-131242154D01*
X87000560Y-131242138D01*
X86777215Y-131074945D01*
X86777207Y-131074940D01*
X86532342Y-130941233D01*
X86532338Y-130941231D01*
X86374411Y-130882328D01*
X86270923Y-130843729D01*
X86270919Y-130843728D01*
X86270916Y-130843727D01*
X86115873Y-130809999D01*
X156424417Y-130809999D01*
X156444699Y-131015932D01*
X156465285Y-131083796D01*
X156504768Y-131213954D01*
X156602315Y-131396450D01*
X156602317Y-131396452D01*
X156733589Y-131556410D01*
X156830209Y-131635702D01*
X156893550Y-131687685D01*
X157076046Y-131785232D01*
X157274066Y-131845300D01*
X157274065Y-131845300D01*
X157312647Y-131849100D01*
X157428392Y-131860500D01*
X157428395Y-131860500D01*
X157531605Y-131860500D01*
X157531608Y-131860500D01*
X157685934Y-131845300D01*
X157883954Y-131785232D01*
X158066450Y-131687685D01*
X158226410Y-131556410D01*
X158357685Y-131396450D01*
X158455232Y-131213954D01*
X158515300Y-131015934D01*
X158535583Y-130810000D01*
X158523554Y-130687870D01*
X186359500Y-130687870D01*
X186359501Y-130687876D01*
X186365908Y-130747483D01*
X186416202Y-130882328D01*
X186416206Y-130882335D01*
X186502452Y-130997544D01*
X186502455Y-130997547D01*
X186617664Y-131083793D01*
X186617671Y-131083797D01*
X186752517Y-131134091D01*
X186752516Y-131134091D01*
X186759444Y-131134835D01*
X186812127Y-131140500D01*
X189107872Y-131140499D01*
X189167483Y-131134091D01*
X189302331Y-131083796D01*
X189417546Y-130997546D01*
X189503796Y-130882331D01*
X189554091Y-130747483D01*
X189560500Y-130687873D01*
X189560499Y-129539999D01*
X199054551Y-129539999D01*
X199074317Y-129791151D01*
X199133126Y-130036110D01*
X199229533Y-130268859D01*
X199361160Y-130483653D01*
X199361161Y-130483656D01*
X199361164Y-130483659D01*
X199524776Y-130675224D01*
X199673066Y-130801875D01*
X199716343Y-130838838D01*
X199716346Y-130838839D01*
X199931140Y-130970466D01*
X200163888Y-131066873D01*
X200163889Y-131066873D01*
X200408852Y-131125683D01*
X200660000Y-131145449D01*
X200911148Y-131125683D01*
X201156111Y-131066873D01*
X201388859Y-130970466D01*
X201603659Y-130838836D01*
X201795224Y-130675224D01*
X201958836Y-130483659D01*
X202090466Y-130268859D01*
X202186873Y-130036111D01*
X202245683Y-129791148D01*
X202265449Y-129540000D01*
X202245683Y-129288852D01*
X202186873Y-129043889D01*
X202090466Y-128811141D01*
X202090466Y-128811140D01*
X201958839Y-128596346D01*
X201958838Y-128596343D01*
X201920413Y-128551353D01*
X201795224Y-128404776D01*
X201643014Y-128274776D01*
X201603656Y-128241161D01*
X201603653Y-128241160D01*
X201388859Y-128109533D01*
X201156110Y-128013126D01*
X200911151Y-127954317D01*
X200660000Y-127934551D01*
X200408848Y-127954317D01*
X200163889Y-128013126D01*
X199931140Y-128109533D01*
X199716346Y-128241160D01*
X199716343Y-128241161D01*
X199524776Y-128404776D01*
X199361161Y-128596343D01*
X199361160Y-128596346D01*
X199229533Y-128811140D01*
X199133126Y-129043889D01*
X199074317Y-129288848D01*
X199054551Y-129539999D01*
X189560499Y-129539999D01*
X189560499Y-128392128D01*
X189554091Y-128332517D01*
X189534715Y-128280568D01*
X189503797Y-128197671D01*
X189503793Y-128197664D01*
X189417547Y-128082455D01*
X189417544Y-128082452D01*
X189302335Y-127996206D01*
X189302328Y-127996202D01*
X189167482Y-127945908D01*
X189167483Y-127945908D01*
X189107883Y-127939501D01*
X189107881Y-127939500D01*
X189107873Y-127939500D01*
X189107864Y-127939500D01*
X186812129Y-127939500D01*
X186812123Y-127939501D01*
X186752516Y-127945908D01*
X186617671Y-127996202D01*
X186617664Y-127996206D01*
X186502455Y-128082452D01*
X186502452Y-128082455D01*
X186416206Y-128197664D01*
X186416202Y-128197671D01*
X186365908Y-128332517D01*
X186359501Y-128392116D01*
X186359501Y-128392123D01*
X186359500Y-128392135D01*
X186359500Y-130687870D01*
X158523554Y-130687870D01*
X158515300Y-130604066D01*
X158455232Y-130406046D01*
X158357685Y-130223550D01*
X158305702Y-130160209D01*
X158226410Y-130063589D01*
X158066452Y-129932317D01*
X158066453Y-129932317D01*
X158066450Y-129932315D01*
X157883954Y-129834768D01*
X157685934Y-129774700D01*
X157685932Y-129774699D01*
X157685934Y-129774699D01*
X157566805Y-129762966D01*
X157531608Y-129759500D01*
X157428392Y-129759500D01*
X157390298Y-129763251D01*
X157274067Y-129774699D01*
X157076043Y-129834769D01*
X156965897Y-129893643D01*
X156893550Y-129932315D01*
X156893548Y-129932316D01*
X156893547Y-129932317D01*
X156733589Y-130063589D01*
X156602317Y-130223547D01*
X156504769Y-130406043D01*
X156444699Y-130604067D01*
X156424417Y-130809999D01*
X86115873Y-130809999D01*
X85998299Y-130784422D01*
X85720001Y-130764518D01*
X85719999Y-130764518D01*
X85441700Y-130784422D01*
X85169083Y-130843727D01*
X85169078Y-130843728D01*
X85169077Y-130843729D01*
X85105875Y-130867301D01*
X84907661Y-130941231D01*
X84907657Y-130941233D01*
X84662792Y-131074940D01*
X84662784Y-131074945D01*
X84439439Y-131242138D01*
X84439421Y-131242154D01*
X84242154Y-131439421D01*
X84242138Y-131439439D01*
X84074945Y-131662784D01*
X84074940Y-131662792D01*
X83941233Y-131907657D01*
X83941231Y-131907661D01*
X83843727Y-132169083D01*
X83784422Y-132441700D01*
X83764518Y-132719998D01*
X83764518Y-132720001D01*
X83784422Y-132998299D01*
X83843727Y-133270916D01*
X83843729Y-133270923D01*
X83904266Y-133433230D01*
X83941231Y-133532338D01*
X83941233Y-133532342D01*
X84074940Y-133777207D01*
X84074945Y-133777215D01*
X84242138Y-134000560D01*
X84242154Y-134000578D01*
X84439421Y-134197845D01*
X84439439Y-134197861D01*
X84662784Y-134365054D01*
X84662792Y-134365059D01*
X84703281Y-134387168D01*
X84752686Y-134436573D01*
X84767538Y-134504846D01*
X84743121Y-134570311D01*
X84687187Y-134612182D01*
X84643854Y-134620000D01*
X63624000Y-134620000D01*
X63556961Y-134600315D01*
X63511206Y-134547511D01*
X63500000Y-134496000D01*
X63500000Y-130810000D01*
X72604417Y-130810000D01*
X72624699Y-131015932D01*
X72645285Y-131083796D01*
X72684768Y-131213954D01*
X72782315Y-131396450D01*
X72782317Y-131396452D01*
X72913589Y-131556410D01*
X73010209Y-131635702D01*
X73073550Y-131687685D01*
X73256046Y-131785232D01*
X73454066Y-131845300D01*
X73454065Y-131845300D01*
X73492647Y-131849100D01*
X73608392Y-131860500D01*
X73608395Y-131860500D01*
X73711605Y-131860500D01*
X73711608Y-131860500D01*
X73865934Y-131845300D01*
X74063954Y-131785232D01*
X74246450Y-131687685D01*
X74406410Y-131556410D01*
X74537685Y-131396450D01*
X74635232Y-131213954D01*
X74695300Y-131015934D01*
X74715583Y-130810000D01*
X74695300Y-130604066D01*
X74635232Y-130406046D01*
X74537685Y-130223550D01*
X74485702Y-130160209D01*
X74406410Y-130063589D01*
X74246452Y-129932317D01*
X74246453Y-129932317D01*
X74246450Y-129932315D01*
X74063954Y-129834768D01*
X73865934Y-129774700D01*
X73865932Y-129774699D01*
X73865934Y-129774699D01*
X73746805Y-129762966D01*
X73711608Y-129759500D01*
X73608392Y-129759500D01*
X73570298Y-129763251D01*
X73454067Y-129774699D01*
X73256043Y-129834769D01*
X73145897Y-129893643D01*
X73073550Y-129932315D01*
X73073548Y-129932316D01*
X73073547Y-129932317D01*
X72913589Y-130063589D01*
X72782317Y-130223547D01*
X72684769Y-130406043D01*
X72624699Y-130604067D01*
X72604417Y-130810000D01*
X63500000Y-130810000D01*
X63500000Y-126365000D01*
X71454778Y-126365000D01*
X71473644Y-126652837D01*
X71473646Y-126652849D01*
X71529917Y-126935745D01*
X71529921Y-126935760D01*
X71622642Y-127208905D01*
X71750219Y-127467606D01*
X71750223Y-127467613D01*
X71910478Y-127707452D01*
X72100672Y-127924327D01*
X72317546Y-128114520D01*
X72557389Y-128274778D01*
X72816098Y-128402359D01*
X73089247Y-128495081D01*
X73372161Y-128551356D01*
X73660000Y-128570222D01*
X73947839Y-128551356D01*
X74230753Y-128495081D01*
X74503902Y-128402359D01*
X74762611Y-128274778D01*
X75002454Y-128114520D01*
X75219327Y-127924327D01*
X75409520Y-127707454D01*
X75569778Y-127467611D01*
X75697359Y-127208902D01*
X75768270Y-127000007D01*
X79075280Y-127000007D01*
X79094140Y-127287757D01*
X79094144Y-127287784D01*
X79150402Y-127570615D01*
X79150407Y-127570635D01*
X79243100Y-127843702D01*
X79243104Y-127843712D01*
X79370653Y-128102356D01*
X79530873Y-128342141D01*
X79530878Y-128342147D01*
X79555837Y-128370607D01*
X80563337Y-127363107D01*
X80650577Y-127501948D01*
X80778052Y-127629423D01*
X80916891Y-127716661D01*
X79909391Y-128724161D01*
X79909391Y-128724162D01*
X79937852Y-128749121D01*
X79937858Y-128749126D01*
X80177643Y-128909346D01*
X80436287Y-129036895D01*
X80436297Y-129036899D01*
X80709364Y-129129592D01*
X80709384Y-129129597D01*
X80992215Y-129185855D01*
X80992242Y-129185859D01*
X81279993Y-129204720D01*
X81280007Y-129204720D01*
X81567757Y-129185859D01*
X81567784Y-129185855D01*
X81850615Y-129129597D01*
X81850635Y-129129592D01*
X82123702Y-129036899D01*
X82123712Y-129036895D01*
X82382356Y-128909346D01*
X82622146Y-128749122D01*
X82650607Y-128724161D01*
X82650607Y-128724160D01*
X81643108Y-127716661D01*
X81781948Y-127629423D01*
X81909423Y-127501948D01*
X81996661Y-127363108D01*
X83004160Y-128370607D01*
X83004161Y-128370607D01*
X83029122Y-128342146D01*
X83189346Y-128102356D01*
X83316895Y-127843712D01*
X83316899Y-127843702D01*
X83409592Y-127570635D01*
X83409597Y-127570615D01*
X83465855Y-127287784D01*
X83465859Y-127287757D01*
X83484720Y-127000007D01*
X83484720Y-127000001D01*
X159334518Y-127000001D01*
X159354422Y-127278299D01*
X159403075Y-127501948D01*
X159413729Y-127550923D01*
X159443008Y-127629423D01*
X159511231Y-127812338D01*
X159511233Y-127812342D01*
X159644940Y-128057207D01*
X159644945Y-128057215D01*
X159812138Y-128280560D01*
X159812154Y-128280578D01*
X160009421Y-128477845D01*
X160009439Y-128477861D01*
X160232784Y-128645054D01*
X160232792Y-128645059D01*
X160477657Y-128778766D01*
X160477661Y-128778768D01*
X160477663Y-128778769D01*
X160739077Y-128876271D01*
X160875391Y-128905924D01*
X161011700Y-128935577D01*
X161011702Y-128935577D01*
X161011706Y-128935578D01*
X161259014Y-128953265D01*
X161289999Y-128955482D01*
X161290000Y-128955482D01*
X161290001Y-128955482D01*
X161317881Y-128953487D01*
X161568294Y-128935578D01*
X161840923Y-128876271D01*
X162102337Y-128778769D01*
X162347213Y-128645056D01*
X162570568Y-128477855D01*
X162767855Y-128280568D01*
X162935056Y-128057213D01*
X163068769Y-127812337D01*
X163166271Y-127550923D01*
X163223514Y-127287784D01*
X163225577Y-127278299D01*
X163225577Y-127278298D01*
X163225578Y-127278294D01*
X163243487Y-127027881D01*
X163245482Y-127000001D01*
X163245482Y-126999998D01*
X163232669Y-126820857D01*
X163225578Y-126721706D01*
X163223519Y-126712242D01*
X163166272Y-126449083D01*
X163166271Y-126449077D01*
X163068769Y-126187663D01*
X163051636Y-126156287D01*
X162935059Y-125942792D01*
X162935054Y-125942784D01*
X162767861Y-125719439D01*
X162767845Y-125719421D01*
X162570578Y-125522154D01*
X162570560Y-125522138D01*
X162347215Y-125354945D01*
X162347207Y-125354940D01*
X162102342Y-125221233D01*
X162102338Y-125221231D01*
X162003230Y-125184266D01*
X161840923Y-125123729D01*
X161840919Y-125123728D01*
X161840916Y-125123727D01*
X161568299Y-125064422D01*
X161290001Y-125044518D01*
X161289999Y-125044518D01*
X161011700Y-125064422D01*
X160739083Y-125123727D01*
X160739078Y-125123728D01*
X160739077Y-125123729D01*
X160701271Y-125137830D01*
X160477661Y-125221231D01*
X160477657Y-125221233D01*
X160232792Y-125354940D01*
X160232784Y-125354945D01*
X160009439Y-125522138D01*
X160009421Y-125522154D01*
X159812154Y-125719421D01*
X159812138Y-125719439D01*
X159644945Y-125942784D01*
X159644940Y-125942792D01*
X159511233Y-126187657D01*
X159511231Y-126187661D01*
X159413727Y-126449083D01*
X159354422Y-126721700D01*
X159334518Y-126999998D01*
X159334518Y-127000001D01*
X83484720Y-127000001D01*
X83484720Y-126999992D01*
X83465859Y-126712242D01*
X83465855Y-126712215D01*
X83409597Y-126429384D01*
X83409592Y-126429364D01*
X83316899Y-126156297D01*
X83316895Y-126156287D01*
X83189346Y-125897643D01*
X83029126Y-125657858D01*
X83029121Y-125657852D01*
X83004161Y-125629391D01*
X81996661Y-126636891D01*
X81909423Y-126498052D01*
X81781948Y-126370577D01*
X81643107Y-126283337D01*
X82650607Y-125275837D01*
X82650607Y-125275836D01*
X82622147Y-125250878D01*
X82622141Y-125250873D01*
X82382356Y-125090653D01*
X82123712Y-124963104D01*
X82123702Y-124963100D01*
X81850635Y-124870407D01*
X81850615Y-124870402D01*
X81567784Y-124814144D01*
X81567757Y-124814140D01*
X81280007Y-124795280D01*
X81279993Y-124795280D01*
X80992242Y-124814140D01*
X80992215Y-124814144D01*
X80709384Y-124870402D01*
X80709364Y-124870407D01*
X80436297Y-124963100D01*
X80436287Y-124963104D01*
X80177643Y-125090653D01*
X79937853Y-125250876D01*
X79937847Y-125250881D01*
X79909391Y-125275835D01*
X79909391Y-125275838D01*
X80916891Y-126283338D01*
X80778052Y-126370577D01*
X80650577Y-126498052D01*
X80563338Y-126636891D01*
X79555838Y-125629391D01*
X79555835Y-125629391D01*
X79530881Y-125657847D01*
X79530876Y-125657853D01*
X79370653Y-125897643D01*
X79243104Y-126156287D01*
X79243100Y-126156297D01*
X79150407Y-126429364D01*
X79150402Y-126429384D01*
X79094144Y-126712215D01*
X79094140Y-126712242D01*
X79075280Y-126999992D01*
X79075280Y-127000007D01*
X75768270Y-127000007D01*
X75790081Y-126935753D01*
X75846356Y-126652839D01*
X75865222Y-126365000D01*
X75846356Y-126077161D01*
X75790081Y-125794247D01*
X75697359Y-125521098D01*
X75569778Y-125262389D01*
X75479011Y-125126546D01*
X75409521Y-125022547D01*
X75219327Y-124805672D01*
X75002452Y-124615478D01*
X74762613Y-124455223D01*
X74762606Y-124455219D01*
X74503905Y-124327642D01*
X74230760Y-124234921D01*
X74230754Y-124234919D01*
X74230753Y-124234919D01*
X74230751Y-124234918D01*
X74230745Y-124234917D01*
X73947849Y-124178646D01*
X73947839Y-124178644D01*
X73660000Y-124159778D01*
X73659999Y-124159778D01*
X73516080Y-124169210D01*
X73372161Y-124178644D01*
X73372155Y-124178645D01*
X73372150Y-124178646D01*
X73089254Y-124234917D01*
X73089239Y-124234921D01*
X72816094Y-124327642D01*
X72557393Y-124455219D01*
X72557386Y-124455223D01*
X72317547Y-124615478D01*
X72100672Y-124805672D01*
X71910478Y-125022547D01*
X71750223Y-125262386D01*
X71750219Y-125262393D01*
X71622642Y-125521094D01*
X71529921Y-125794239D01*
X71529917Y-125794254D01*
X71473646Y-126077150D01*
X71473644Y-126077161D01*
X71460699Y-126274664D01*
X71454778Y-126365000D01*
X63500000Y-126365000D01*
X63500000Y-122550001D01*
X75514518Y-122550001D01*
X75534422Y-122828299D01*
X75593727Y-123100916D01*
X75593729Y-123100923D01*
X75630892Y-123200560D01*
X75691231Y-123362338D01*
X75691233Y-123362342D01*
X75824940Y-123607207D01*
X75824945Y-123607215D01*
X75992138Y-123830560D01*
X75992154Y-123830578D01*
X76189421Y-124027845D01*
X76189439Y-124027861D01*
X76412784Y-124195054D01*
X76412792Y-124195059D01*
X76657657Y-124328766D01*
X76657661Y-124328768D01*
X76657663Y-124328769D01*
X76919077Y-124426271D01*
X77052148Y-124455219D01*
X77191700Y-124485577D01*
X77191702Y-124485577D01*
X77191706Y-124485578D01*
X77439014Y-124503265D01*
X77469999Y-124505482D01*
X77470000Y-124505482D01*
X77470001Y-124505482D01*
X77497881Y-124503487D01*
X77748294Y-124485578D01*
X78020923Y-124426271D01*
X78282337Y-124328769D01*
X78527213Y-124195056D01*
X78750568Y-124027855D01*
X78947855Y-123830568D01*
X79115056Y-123607213D01*
X79248769Y-123362337D01*
X79346271Y-123100923D01*
X79405578Y-122828294D01*
X79425482Y-122550000D01*
X79405578Y-122271706D01*
X79405055Y-122269303D01*
X79346272Y-121999083D01*
X79346271Y-121999077D01*
X79316777Y-121920000D01*
X102784341Y-121920000D01*
X102804936Y-122155403D01*
X102804938Y-122155413D01*
X102866094Y-122383655D01*
X102866096Y-122383659D01*
X102866097Y-122383663D01*
X102943662Y-122550001D01*
X102965965Y-122597830D01*
X102965967Y-122597834D01*
X102999229Y-122645336D01*
X103101505Y-122791401D01*
X103268599Y-122958495D01*
X103295334Y-122977215D01*
X103462165Y-123094032D01*
X103462167Y-123094033D01*
X103462170Y-123094035D01*
X103676337Y-123193903D01*
X103676343Y-123193904D01*
X103676344Y-123193905D01*
X103731285Y-123208626D01*
X103904592Y-123255063D01*
X104092918Y-123271539D01*
X104139999Y-123275659D01*
X104140000Y-123275659D01*
X104140001Y-123275659D01*
X104179234Y-123272226D01*
X104375408Y-123255063D01*
X104603663Y-123193903D01*
X104817830Y-123094035D01*
X105011401Y-122958495D01*
X105178495Y-122791401D01*
X105314035Y-122597830D01*
X105413903Y-122383663D01*
X105475063Y-122155408D01*
X105495659Y-121920000D01*
X112944341Y-121920000D01*
X112964936Y-122155403D01*
X112964938Y-122155413D01*
X113026094Y-122383655D01*
X113026096Y-122383659D01*
X113026097Y-122383663D01*
X113103662Y-122550001D01*
X113125965Y-122597830D01*
X113125967Y-122597834D01*
X113159229Y-122645336D01*
X113261505Y-122791401D01*
X113428599Y-122958495D01*
X113455334Y-122977215D01*
X113622165Y-123094032D01*
X113622167Y-123094033D01*
X113622170Y-123094035D01*
X113836337Y-123193903D01*
X113836343Y-123193904D01*
X113836344Y-123193905D01*
X113891285Y-123208626D01*
X114064592Y-123255063D01*
X114252918Y-123271539D01*
X114299999Y-123275659D01*
X114300000Y-123275659D01*
X114300001Y-123275659D01*
X114339234Y-123272226D01*
X114535408Y-123255063D01*
X114763663Y-123193903D01*
X114977830Y-123094035D01*
X115171401Y-122958495D01*
X115338495Y-122791401D01*
X115474035Y-122597830D01*
X115573903Y-122383663D01*
X115635063Y-122155408D01*
X115655659Y-121920000D01*
X123104341Y-121920000D01*
X123124936Y-122155403D01*
X123124938Y-122155413D01*
X123186094Y-122383655D01*
X123186096Y-122383659D01*
X123186097Y-122383663D01*
X123263662Y-122550001D01*
X123285965Y-122597830D01*
X123285967Y-122597834D01*
X123319229Y-122645336D01*
X123421505Y-122791401D01*
X123588599Y-122958495D01*
X123615334Y-122977215D01*
X123782165Y-123094032D01*
X123782167Y-123094033D01*
X123782170Y-123094035D01*
X123996337Y-123193903D01*
X123996343Y-123193904D01*
X123996344Y-123193905D01*
X124051285Y-123208626D01*
X124224592Y-123255063D01*
X124412918Y-123271539D01*
X124459999Y-123275659D01*
X124460000Y-123275659D01*
X124460001Y-123275659D01*
X124499234Y-123272226D01*
X124695408Y-123255063D01*
X124923663Y-123193903D01*
X125137830Y-123094035D01*
X125331401Y-122958495D01*
X125498495Y-122791401D01*
X125634035Y-122597830D01*
X125733903Y-122383663D01*
X125795063Y-122155408D01*
X125815659Y-121920000D01*
X133264341Y-121920000D01*
X133284936Y-122155403D01*
X133284938Y-122155413D01*
X133346094Y-122383655D01*
X133346096Y-122383659D01*
X133346097Y-122383663D01*
X133423662Y-122550001D01*
X133445965Y-122597830D01*
X133445967Y-122597834D01*
X133479229Y-122645336D01*
X133581505Y-122791401D01*
X133748599Y-122958495D01*
X133775334Y-122977215D01*
X133942165Y-123094032D01*
X133942167Y-123094033D01*
X133942170Y-123094035D01*
X134156337Y-123193903D01*
X134156343Y-123193904D01*
X134156344Y-123193905D01*
X134211285Y-123208626D01*
X134384592Y-123255063D01*
X134572918Y-123271539D01*
X134619999Y-123275659D01*
X134620000Y-123275659D01*
X134620001Y-123275659D01*
X134659234Y-123272226D01*
X134855408Y-123255063D01*
X135083663Y-123193903D01*
X135297830Y-123094035D01*
X135491401Y-122958495D01*
X135658495Y-122791401D01*
X135794035Y-122597830D01*
X135893903Y-122383663D01*
X135955063Y-122155408D01*
X135975658Y-121920007D01*
X155275280Y-121920007D01*
X155294140Y-122207757D01*
X155294144Y-122207784D01*
X155350402Y-122490615D01*
X155350407Y-122490635D01*
X155443100Y-122763702D01*
X155443104Y-122763712D01*
X155570653Y-123022356D01*
X155730873Y-123262141D01*
X155730878Y-123262147D01*
X155755837Y-123290607D01*
X156763337Y-122283107D01*
X156850577Y-122421948D01*
X156978052Y-122549423D01*
X157116891Y-122636661D01*
X156109391Y-123644161D01*
X156109391Y-123644162D01*
X156137852Y-123669121D01*
X156137858Y-123669126D01*
X156377643Y-123829346D01*
X156636287Y-123956895D01*
X156636297Y-123956899D01*
X156909364Y-124049592D01*
X156909384Y-124049597D01*
X157192215Y-124105855D01*
X157192242Y-124105859D01*
X157479993Y-124124720D01*
X157480007Y-124124720D01*
X157767757Y-124105859D01*
X157767784Y-124105855D01*
X158050615Y-124049597D01*
X158050635Y-124049592D01*
X158323702Y-123956899D01*
X158323712Y-123956895D01*
X158582356Y-123829346D01*
X158822146Y-123669122D01*
X158850607Y-123644161D01*
X158850607Y-123644160D01*
X157843108Y-122636661D01*
X157981948Y-122549423D01*
X158109423Y-122421948D01*
X158196661Y-122283108D01*
X159204160Y-123290607D01*
X159204161Y-123290607D01*
X159229122Y-123262146D01*
X159389344Y-123022359D01*
X159416727Y-122966832D01*
X159464033Y-122915412D01*
X159531628Y-122897730D01*
X159598052Y-122919399D01*
X159636772Y-122962248D01*
X159644940Y-122977207D01*
X159644945Y-122977215D01*
X159812138Y-123200560D01*
X159812154Y-123200578D01*
X160009421Y-123397845D01*
X160009439Y-123397861D01*
X160232784Y-123565054D01*
X160232792Y-123565059D01*
X160477657Y-123698766D01*
X160477661Y-123698768D01*
X160477663Y-123698769D01*
X160739077Y-123796271D01*
X160826722Y-123815337D01*
X161011700Y-123855577D01*
X161011702Y-123855577D01*
X161011706Y-123855578D01*
X161259014Y-123873265D01*
X161289999Y-123875482D01*
X161290000Y-123875482D01*
X161290001Y-123875482D01*
X161317881Y-123873487D01*
X161568294Y-123855578D01*
X161840923Y-123796271D01*
X162102337Y-123698769D01*
X162347213Y-123565056D01*
X162570568Y-123397855D01*
X162767855Y-123200568D01*
X162935056Y-122977213D01*
X162942932Y-122962788D01*
X162992333Y-122913382D01*
X163060605Y-122898526D01*
X163126071Y-122922940D01*
X163162978Y-122967366D01*
X163190222Y-123022611D01*
X163190223Y-123022613D01*
X163350478Y-123262452D01*
X163540672Y-123479327D01*
X163757547Y-123669521D01*
X163979437Y-123817783D01*
X163997389Y-123829778D01*
X164256098Y-123957359D01*
X164529247Y-124050081D01*
X164812161Y-124106356D01*
X165100000Y-124125222D01*
X165387839Y-124106356D01*
X165670753Y-124050081D01*
X165943902Y-123957359D01*
X166202611Y-123829778D01*
X166442454Y-123669520D01*
X166659327Y-123479327D01*
X166849520Y-123262454D01*
X167009778Y-123022611D01*
X167137359Y-122763902D01*
X167230081Y-122490753D01*
X167286356Y-122207839D01*
X167305222Y-121920000D01*
X191684341Y-121920000D01*
X191704936Y-122155403D01*
X191704938Y-122155413D01*
X191766094Y-122383655D01*
X191766096Y-122383659D01*
X191766097Y-122383663D01*
X191843662Y-122550001D01*
X191865965Y-122597830D01*
X191865967Y-122597834D01*
X191899229Y-122645336D01*
X192001501Y-122791396D01*
X192001506Y-122791402D01*
X192123430Y-122913326D01*
X192156915Y-122974649D01*
X192151931Y-123044341D01*
X192110059Y-123100274D01*
X192079083Y-123117189D01*
X191947669Y-123166203D01*
X191947664Y-123166206D01*
X191832455Y-123252452D01*
X191832452Y-123252455D01*
X191746206Y-123367664D01*
X191746202Y-123367671D01*
X191695908Y-123502517D01*
X191689501Y-123562116D01*
X191689500Y-123562135D01*
X191689500Y-125357870D01*
X191689501Y-125357876D01*
X191695908Y-125417483D01*
X191746202Y-125552328D01*
X191746206Y-125552335D01*
X191832452Y-125667544D01*
X191832455Y-125667547D01*
X191947664Y-125753793D01*
X191947671Y-125753797D01*
X192082517Y-125804091D01*
X192082516Y-125804091D01*
X192089444Y-125804835D01*
X192142127Y-125810500D01*
X193937872Y-125810499D01*
X193997483Y-125804091D01*
X194132331Y-125753796D01*
X194247546Y-125667546D01*
X194333796Y-125552331D01*
X194382810Y-125420916D01*
X194424681Y-125364984D01*
X194490145Y-125340566D01*
X194558418Y-125355417D01*
X194586673Y-125376569D01*
X194708599Y-125498495D01*
X194805384Y-125566264D01*
X194902165Y-125634032D01*
X194902167Y-125634033D01*
X194902170Y-125634035D01*
X195116337Y-125733903D01*
X195344592Y-125795063D01*
X195521034Y-125810500D01*
X195579999Y-125815659D01*
X195580000Y-125815659D01*
X195580001Y-125815659D01*
X195638966Y-125810500D01*
X195815408Y-125795063D01*
X196043663Y-125733903D01*
X196257830Y-125634035D01*
X196451401Y-125498495D01*
X196618495Y-125331401D01*
X196754035Y-125137830D01*
X196853903Y-124923663D01*
X196915063Y-124695408D01*
X196935659Y-124460001D01*
X209514532Y-124460001D01*
X209534364Y-124686686D01*
X209534366Y-124686697D01*
X209593258Y-124906488D01*
X209593261Y-124906497D01*
X209689431Y-125112732D01*
X209689432Y-125112734D01*
X209819954Y-125299141D01*
X209980858Y-125460045D01*
X209980861Y-125460047D01*
X210167266Y-125590568D01*
X210373504Y-125686739D01*
X210593308Y-125745635D01*
X210755230Y-125759801D01*
X210819998Y-125765468D01*
X210820000Y-125765468D01*
X210820002Y-125765468D01*
X210876673Y-125760509D01*
X211046692Y-125745635D01*
X211266496Y-125686739D01*
X211472734Y-125590568D01*
X211659139Y-125460047D01*
X211820047Y-125299139D01*
X211950568Y-125112734D01*
X212046739Y-124906496D01*
X212105635Y-124686692D01*
X212125468Y-124460000D01*
X214544341Y-124460000D01*
X214564936Y-124695403D01*
X214564938Y-124695413D01*
X214626094Y-124923655D01*
X214626096Y-124923659D01*
X214626097Y-124923663D01*
X214682453Y-125044518D01*
X214725965Y-125137830D01*
X214725967Y-125137834D01*
X214805121Y-125250876D01*
X214861505Y-125331401D01*
X215028599Y-125498495D01*
X215125384Y-125566264D01*
X215222165Y-125634032D01*
X215222167Y-125634033D01*
X215222170Y-125634035D01*
X215436337Y-125733903D01*
X215664592Y-125795063D01*
X215841034Y-125810500D01*
X215899999Y-125815659D01*
X215900000Y-125815659D01*
X215900001Y-125815659D01*
X215958966Y-125810500D01*
X216135408Y-125795063D01*
X216363663Y-125733903D01*
X216577830Y-125634035D01*
X216771401Y-125498495D01*
X216938495Y-125331401D01*
X217068424Y-125145842D01*
X217123002Y-125102217D01*
X217192500Y-125095023D01*
X217254855Y-125126546D01*
X217271575Y-125145842D01*
X217401500Y-125331395D01*
X217401505Y-125331401D01*
X217568599Y-125498495D01*
X217665384Y-125566264D01*
X217762165Y-125634032D01*
X217762167Y-125634033D01*
X217762170Y-125634035D01*
X217976337Y-125733903D01*
X218204592Y-125795063D01*
X218381034Y-125810500D01*
X218439999Y-125815659D01*
X218440000Y-125815659D01*
X218440001Y-125815659D01*
X218498966Y-125810500D01*
X218675408Y-125795063D01*
X218903663Y-125733903D01*
X219117830Y-125634035D01*
X219311401Y-125498495D01*
X219478495Y-125331401D01*
X219614035Y-125137830D01*
X219713903Y-124923663D01*
X219775063Y-124695408D01*
X219795659Y-124460001D01*
X222214532Y-124460001D01*
X222234364Y-124686686D01*
X222234366Y-124686697D01*
X222293258Y-124906488D01*
X222293261Y-124906497D01*
X222389431Y-125112732D01*
X222389432Y-125112734D01*
X222519954Y-125299141D01*
X222680858Y-125460045D01*
X222680861Y-125460047D01*
X222867266Y-125590568D01*
X223073504Y-125686739D01*
X223293308Y-125745635D01*
X223455230Y-125759801D01*
X223519998Y-125765468D01*
X223520000Y-125765468D01*
X223520002Y-125765468D01*
X223576672Y-125760509D01*
X223746692Y-125745635D01*
X223966496Y-125686739D01*
X224172734Y-125590568D01*
X224359139Y-125460047D01*
X224520047Y-125299139D01*
X224650568Y-125112734D01*
X224746739Y-124906496D01*
X224805635Y-124686692D01*
X224825468Y-124460000D01*
X224805635Y-124233308D01*
X224746739Y-124013504D01*
X224650568Y-123807266D01*
X224520047Y-123620861D01*
X224520045Y-123620858D01*
X224359141Y-123459954D01*
X224172734Y-123329432D01*
X224172732Y-123329431D01*
X223966497Y-123233261D01*
X223966488Y-123233258D01*
X223746697Y-123174366D01*
X223746693Y-123174365D01*
X223746692Y-123174365D01*
X223746691Y-123174364D01*
X223746686Y-123174364D01*
X223520002Y-123154532D01*
X223519998Y-123154532D01*
X223293313Y-123174364D01*
X223293302Y-123174366D01*
X223073511Y-123233258D01*
X223073502Y-123233261D01*
X222867267Y-123329431D01*
X222867265Y-123329432D01*
X222680858Y-123459954D01*
X222519954Y-123620858D01*
X222389432Y-123807265D01*
X222389431Y-123807267D01*
X222293261Y-124013502D01*
X222293258Y-124013511D01*
X222234366Y-124233302D01*
X222234364Y-124233313D01*
X222214532Y-124459998D01*
X222214532Y-124460001D01*
X219795659Y-124460001D01*
X219795659Y-124460000D01*
X219775063Y-124224592D01*
X219713903Y-123996337D01*
X219614035Y-123782171D01*
X219608425Y-123774158D01*
X219478494Y-123588597D01*
X219311402Y-123421506D01*
X219311401Y-123421505D01*
X219125842Y-123291575D01*
X219125841Y-123291574D01*
X219082216Y-123236997D01*
X219075024Y-123167498D01*
X219106546Y-123105144D01*
X219125836Y-123088428D01*
X219311401Y-122958495D01*
X219478495Y-122791401D01*
X219614035Y-122597830D01*
X219713903Y-122383663D01*
X219775063Y-122155408D01*
X219795659Y-121920000D01*
X219775063Y-121684592D01*
X219713903Y-121456337D01*
X219614035Y-121242171D01*
X219608425Y-121234158D01*
X219478494Y-121048597D01*
X219311402Y-120881506D01*
X219311396Y-120881501D01*
X219125842Y-120751575D01*
X219082217Y-120696998D01*
X219075023Y-120627500D01*
X219106546Y-120565145D01*
X219125842Y-120548425D01*
X219173259Y-120515223D01*
X219311401Y-120418495D01*
X219478495Y-120251401D01*
X219614035Y-120057830D01*
X219713903Y-119843663D01*
X219775063Y-119615408D01*
X219795659Y-119380000D01*
X219775063Y-119144592D01*
X219713903Y-118916337D01*
X219614035Y-118702171D01*
X219478495Y-118508599D01*
X219478494Y-118508597D01*
X219311402Y-118341506D01*
X219311395Y-118341501D01*
X219117834Y-118205967D01*
X219117830Y-118205965D01*
X219117828Y-118205964D01*
X218903663Y-118106097D01*
X218903659Y-118106096D01*
X218903655Y-118106094D01*
X218675413Y-118044938D01*
X218675403Y-118044936D01*
X218440001Y-118024341D01*
X218439999Y-118024341D01*
X218204596Y-118044936D01*
X218204586Y-118044938D01*
X217976344Y-118106094D01*
X217976335Y-118106098D01*
X217762171Y-118205964D01*
X217762169Y-118205965D01*
X217568600Y-118341503D01*
X217446673Y-118463430D01*
X217385350Y-118496914D01*
X217315658Y-118491930D01*
X217259725Y-118450058D01*
X217242810Y-118419081D01*
X217193797Y-118287671D01*
X217193793Y-118287664D01*
X217107547Y-118172455D01*
X217107544Y-118172452D01*
X216992335Y-118086206D01*
X216992328Y-118086202D01*
X216857482Y-118035908D01*
X216857483Y-118035908D01*
X216797883Y-118029501D01*
X216797881Y-118029500D01*
X216797873Y-118029500D01*
X216797864Y-118029500D01*
X215002129Y-118029500D01*
X215002123Y-118029501D01*
X214942516Y-118035908D01*
X214807671Y-118086202D01*
X214807664Y-118086206D01*
X214692455Y-118172452D01*
X214692452Y-118172455D01*
X214606206Y-118287664D01*
X214606202Y-118287671D01*
X214555908Y-118422517D01*
X214549501Y-118482116D01*
X214549500Y-118482135D01*
X214549500Y-120277870D01*
X214549501Y-120277876D01*
X214555908Y-120337483D01*
X214606202Y-120472328D01*
X214606206Y-120472335D01*
X214692452Y-120587544D01*
X214692455Y-120587547D01*
X214807664Y-120673793D01*
X214807671Y-120673797D01*
X214939081Y-120722810D01*
X214995015Y-120764681D01*
X215019432Y-120830145D01*
X215004580Y-120898418D01*
X214983430Y-120926673D01*
X214861503Y-121048600D01*
X214725965Y-121242169D01*
X214725964Y-121242171D01*
X214626098Y-121456335D01*
X214626094Y-121456344D01*
X214564938Y-121684586D01*
X214564936Y-121684596D01*
X214544341Y-121919999D01*
X214544341Y-121920000D01*
X214564936Y-122155403D01*
X214564938Y-122155413D01*
X214626094Y-122383655D01*
X214626096Y-122383659D01*
X214626097Y-122383663D01*
X214703662Y-122550001D01*
X214725965Y-122597830D01*
X214725967Y-122597834D01*
X214759229Y-122645336D01*
X214861501Y-122791396D01*
X214861506Y-122791402D01*
X215028597Y-122958493D01*
X215028603Y-122958498D01*
X215214158Y-123088425D01*
X215257783Y-123143002D01*
X215264977Y-123212500D01*
X215233454Y-123274855D01*
X215214158Y-123291575D01*
X215028597Y-123421505D01*
X214861505Y-123588597D01*
X214725965Y-123782169D01*
X214725964Y-123782171D01*
X214626098Y-123996335D01*
X214626094Y-123996344D01*
X214564938Y-124224586D01*
X214564936Y-124224596D01*
X214544341Y-124459999D01*
X214544341Y-124460000D01*
X212125468Y-124460000D01*
X212105635Y-124233308D01*
X212046739Y-124013504D01*
X211950568Y-123807266D01*
X211820047Y-123620861D01*
X211820045Y-123620858D01*
X211659141Y-123459954D01*
X211472734Y-123329432D01*
X211472732Y-123329431D01*
X211266497Y-123233261D01*
X211266488Y-123233258D01*
X211046697Y-123174366D01*
X211046693Y-123174365D01*
X211046692Y-123174365D01*
X211046691Y-123174364D01*
X211046686Y-123174364D01*
X210820002Y-123154532D01*
X210819998Y-123154532D01*
X210593313Y-123174364D01*
X210593302Y-123174366D01*
X210373511Y-123233258D01*
X210373502Y-123233261D01*
X210167267Y-123329431D01*
X210167265Y-123329432D01*
X209980858Y-123459954D01*
X209819954Y-123620858D01*
X209689432Y-123807265D01*
X209689431Y-123807267D01*
X209593261Y-124013502D01*
X209593258Y-124013511D01*
X209534366Y-124233302D01*
X209534364Y-124233313D01*
X209514532Y-124459998D01*
X209514532Y-124460001D01*
X196935659Y-124460001D01*
X196935659Y-124460000D01*
X196915063Y-124224592D01*
X196853903Y-123996337D01*
X196754035Y-123782171D01*
X196748425Y-123774158D01*
X196618494Y-123588597D01*
X196451402Y-123421506D01*
X196451401Y-123421505D01*
X196265842Y-123291575D01*
X196265841Y-123291574D01*
X196222216Y-123236997D01*
X196215024Y-123167498D01*
X196246546Y-123105144D01*
X196265836Y-123088428D01*
X196451401Y-122958495D01*
X196618495Y-122791401D01*
X196754035Y-122597830D01*
X196853903Y-122383663D01*
X196915063Y-122155408D01*
X196935659Y-121920000D01*
X196915063Y-121684592D01*
X196853903Y-121456337D01*
X196754035Y-121242171D01*
X196748425Y-121234158D01*
X196618494Y-121048597D01*
X196451402Y-120881506D01*
X196451395Y-120881501D01*
X196446042Y-120877753D01*
X196388618Y-120837544D01*
X196257834Y-120745967D01*
X196257830Y-120745965D01*
X196244448Y-120739725D01*
X196043663Y-120646097D01*
X196043659Y-120646096D01*
X196043655Y-120646094D01*
X195815413Y-120584938D01*
X195815403Y-120584936D01*
X195580001Y-120564341D01*
X195579999Y-120564341D01*
X195344596Y-120584936D01*
X195344586Y-120584938D01*
X195116344Y-120646094D01*
X195116335Y-120646098D01*
X194902171Y-120745964D01*
X194902169Y-120745965D01*
X194708597Y-120881505D01*
X194541505Y-121048597D01*
X194411575Y-121234158D01*
X194356998Y-121277783D01*
X194287500Y-121284977D01*
X194225145Y-121253454D01*
X194208425Y-121234158D01*
X194078494Y-121048597D01*
X193911402Y-120881506D01*
X193911395Y-120881501D01*
X193906042Y-120877753D01*
X193848618Y-120837544D01*
X193717834Y-120745967D01*
X193717830Y-120745965D01*
X193704448Y-120739725D01*
X193503663Y-120646097D01*
X193503659Y-120646096D01*
X193503655Y-120646094D01*
X193275413Y-120584938D01*
X193275403Y-120584936D01*
X193040001Y-120564341D01*
X193039999Y-120564341D01*
X192804596Y-120584936D01*
X192804586Y-120584938D01*
X192576344Y-120646094D01*
X192576335Y-120646098D01*
X192362171Y-120745964D01*
X192362169Y-120745965D01*
X192168597Y-120881505D01*
X192001505Y-121048597D01*
X191865965Y-121242169D01*
X191865964Y-121242171D01*
X191766098Y-121456335D01*
X191766094Y-121456344D01*
X191704938Y-121684586D01*
X191704936Y-121684596D01*
X191684341Y-121919999D01*
X191684341Y-121920000D01*
X167305222Y-121920000D01*
X167286356Y-121632161D01*
X167230081Y-121349247D01*
X167137359Y-121076098D01*
X167041396Y-120881505D01*
X167009780Y-120817393D01*
X167009776Y-120817386D01*
X166849521Y-120577547D01*
X166659327Y-120360672D01*
X166442452Y-120170478D01*
X166202613Y-120010223D01*
X166202606Y-120010219D01*
X165943905Y-119882642D01*
X165670760Y-119789921D01*
X165670754Y-119789919D01*
X165670753Y-119789919D01*
X165670751Y-119789918D01*
X165670745Y-119789917D01*
X165387849Y-119733646D01*
X165387839Y-119733644D01*
X165100000Y-119714778D01*
X164812161Y-119733644D01*
X164812155Y-119733645D01*
X164812150Y-119733646D01*
X164529255Y-119789917D01*
X164529242Y-119789920D01*
X164494447Y-119801731D01*
X164424638Y-119804638D01*
X164366912Y-119771991D01*
X163974921Y-119380000D01*
X186354551Y-119380000D01*
X186374317Y-119631151D01*
X186433126Y-119876110D01*
X186529533Y-120108859D01*
X186661160Y-120323653D01*
X186661161Y-120323656D01*
X186692776Y-120360672D01*
X186824776Y-120515224D01*
X186927551Y-120603002D01*
X187016343Y-120678838D01*
X187016346Y-120678839D01*
X187231140Y-120810466D01*
X187393587Y-120877753D01*
X187463889Y-120906873D01*
X187708852Y-120965683D01*
X187960000Y-120985449D01*
X188211148Y-120965683D01*
X188456111Y-120906873D01*
X188688859Y-120810466D01*
X188903659Y-120678836D01*
X189080417Y-120527870D01*
X199059500Y-120527870D01*
X199059501Y-120527876D01*
X199065908Y-120587483D01*
X199116202Y-120722328D01*
X199116206Y-120722335D01*
X199202452Y-120837544D01*
X199202455Y-120837547D01*
X199317664Y-120923793D01*
X199317671Y-120923797D01*
X199452517Y-120974091D01*
X199452516Y-120974091D01*
X199459444Y-120974835D01*
X199512127Y-120980500D01*
X201807872Y-120980499D01*
X201867483Y-120974091D01*
X202002331Y-120923796D01*
X202117546Y-120837546D01*
X202203796Y-120722331D01*
X202254091Y-120587483D01*
X202260500Y-120527873D01*
X202260499Y-118232128D01*
X202254091Y-118172517D01*
X202229318Y-118106098D01*
X202203797Y-118037671D01*
X202203793Y-118037664D01*
X202117547Y-117922455D01*
X202117544Y-117922452D01*
X202002335Y-117836206D01*
X202002328Y-117836202D01*
X201867482Y-117785908D01*
X201867483Y-117785908D01*
X201807883Y-117779501D01*
X201807881Y-117779500D01*
X201807873Y-117779500D01*
X201807864Y-117779500D01*
X199512129Y-117779500D01*
X199512123Y-117779501D01*
X199452516Y-117785908D01*
X199317671Y-117836202D01*
X199317664Y-117836206D01*
X199202455Y-117922452D01*
X199202452Y-117922455D01*
X199116206Y-118037664D01*
X199116202Y-118037671D01*
X199065908Y-118172517D01*
X199059501Y-118232116D01*
X199059501Y-118232123D01*
X199059500Y-118232135D01*
X199059500Y-120527870D01*
X189080417Y-120527870D01*
X189095224Y-120515224D01*
X189258836Y-120323659D01*
X189390466Y-120108859D01*
X189486873Y-119876111D01*
X189545683Y-119631148D01*
X189565449Y-119380000D01*
X189545683Y-119128852D01*
X189486873Y-118883889D01*
X189425341Y-118735337D01*
X189390466Y-118651140D01*
X189258839Y-118436346D01*
X189258838Y-118436343D01*
X189177838Y-118341505D01*
X189095224Y-118244776D01*
X188932852Y-118106097D01*
X188903656Y-118081161D01*
X188903653Y-118081160D01*
X188688859Y-117949533D01*
X188456110Y-117853126D01*
X188211151Y-117794317D01*
X187960000Y-117774551D01*
X187708848Y-117794317D01*
X187463889Y-117853126D01*
X187231140Y-117949533D01*
X187016346Y-118081160D01*
X187016343Y-118081161D01*
X186824776Y-118244776D01*
X186661161Y-118436343D01*
X186661160Y-118436346D01*
X186529533Y-118651140D01*
X186433126Y-118883889D01*
X186374317Y-119128848D01*
X186354551Y-119380000D01*
X163974921Y-119380000D01*
X160736452Y-116141532D01*
X160675061Y-116076949D01*
X160675060Y-116076948D01*
X160675059Y-116076947D01*
X160647204Y-116057559D01*
X160624709Y-116041902D01*
X160620946Y-116039064D01*
X160573413Y-116000305D01*
X160573406Y-116000300D01*
X160542959Y-115984397D01*
X160536251Y-115980334D01*
X160508049Y-115960705D01*
X160508046Y-115960703D01*
X160508045Y-115960703D01*
X160508041Y-115960701D01*
X160451680Y-115936514D01*
X160447424Y-115934493D01*
X160393057Y-115906094D01*
X160393050Y-115906091D01*
X160393049Y-115906091D01*
X160387008Y-115904362D01*
X160360030Y-115896642D01*
X160352630Y-115894008D01*
X160321057Y-115880459D01*
X160321058Y-115880459D01*
X160260966Y-115868109D01*
X160256391Y-115866986D01*
X160197420Y-115850113D01*
X160197425Y-115850113D01*
X160163158Y-115847503D01*
X160155380Y-115846412D01*
X160121742Y-115839500D01*
X160121741Y-115839500D01*
X160060402Y-115839500D01*
X160055695Y-115839321D01*
X160050121Y-115838896D01*
X159994524Y-115834662D01*
X159974589Y-115837201D01*
X159960440Y-115839003D01*
X159952611Y-115839500D01*
X157532200Y-115839500D01*
X157526119Y-115839201D01*
X157480000Y-115834659D01*
X157434001Y-115839189D01*
X157431062Y-115839408D01*
X157429260Y-115839499D01*
X157380336Y-115844474D01*
X157283860Y-115853976D01*
X157283558Y-115854037D01*
X157277767Y-115854904D01*
X157277576Y-115854923D01*
X157277551Y-115854928D01*
X157185007Y-115883965D01*
X157095271Y-115911185D01*
X157088515Y-115913984D01*
X157083460Y-115915820D01*
X157083413Y-115915840D01*
X157001351Y-115961387D01*
X156921461Y-116004090D01*
X156916402Y-116007471D01*
X156916268Y-116007270D01*
X156905566Y-116014542D01*
X156905504Y-116014586D01*
X156836694Y-116073656D01*
X156769118Y-116129114D01*
X156769109Y-116129123D01*
X156768864Y-116129423D01*
X156753821Y-116144801D01*
X156751111Y-116147128D01*
X156751106Y-116147132D01*
X156697545Y-116216326D01*
X156644094Y-116281455D01*
X156644085Y-116281469D01*
X156642224Y-116284951D01*
X156630937Y-116302374D01*
X156626555Y-116308035D01*
X156626554Y-116308037D01*
X156589412Y-116383757D01*
X156551184Y-116455275D01*
X156548998Y-116462483D01*
X156541672Y-116481079D01*
X156536943Y-116490721D01*
X156536939Y-116490731D01*
X156516599Y-116569288D01*
X156493976Y-116643866D01*
X156492885Y-116654938D01*
X156489527Y-116673848D01*
X156485937Y-116687715D01*
X156482060Y-116764123D01*
X156481841Y-116767057D01*
X156474659Y-116839995D01*
X156474659Y-116840003D01*
X156476099Y-116854630D01*
X156476537Y-116873053D01*
X156475631Y-116890936D01*
X156482068Y-116932955D01*
X156486703Y-116963214D01*
X156487119Y-116966524D01*
X156493975Y-117036131D01*
X156499282Y-117053626D01*
X156503189Y-117070831D01*
X156506443Y-117092068D01*
X156506445Y-117092075D01*
X156530670Y-117157483D01*
X156531860Y-117161019D01*
X156551186Y-117224728D01*
X156563478Y-117247724D01*
X156566943Y-117255426D01*
X156571832Y-117268627D01*
X156577114Y-117282887D01*
X156577115Y-117282888D01*
X156577116Y-117282892D01*
X156601364Y-117321793D01*
X156612243Y-117339247D01*
X156614299Y-117342806D01*
X156644090Y-117398538D01*
X156662776Y-117421308D01*
X156667469Y-117427850D01*
X156684748Y-117455571D01*
X156728194Y-117501276D01*
X156731172Y-117504647D01*
X156769117Y-117550883D01*
X156794502Y-117571717D01*
X156800093Y-117576914D01*
X156824941Y-117603053D01*
X156873918Y-117637143D01*
X156877810Y-117640086D01*
X156921462Y-117675910D01*
X156953399Y-117692980D01*
X156959585Y-117696767D01*
X156979563Y-117710673D01*
X156991950Y-117719295D01*
X156991952Y-117719296D01*
X157043683Y-117741495D01*
X157048446Y-117743784D01*
X157095273Y-117768814D01*
X157133166Y-117780308D01*
X157139599Y-117782656D01*
X157178942Y-117799540D01*
X157230776Y-117810192D01*
X157236296Y-117811593D01*
X157283868Y-117826024D01*
X157326644Y-117830236D01*
X157333026Y-117831204D01*
X157347700Y-117834219D01*
X157378256Y-117840500D01*
X157378259Y-117840500D01*
X157427800Y-117840500D01*
X157433881Y-117840799D01*
X157443930Y-117841788D01*
X157480000Y-117845341D01*
X157516069Y-117841788D01*
X157526119Y-117840799D01*
X157532200Y-117840500D01*
X159554217Y-117840500D01*
X159621256Y-117860185D01*
X159641898Y-117876819D01*
X160681423Y-118916344D01*
X161528378Y-119763298D01*
X161561863Y-119824621D01*
X161556879Y-119894313D01*
X161515007Y-119950246D01*
X161449543Y-119974663D01*
X161431851Y-119974663D01*
X161290001Y-119964518D01*
X161289999Y-119964518D01*
X161011700Y-119984422D01*
X160739083Y-120043727D01*
X160739078Y-120043728D01*
X160739077Y-120043729D01*
X160701271Y-120057830D01*
X160477661Y-120141231D01*
X160477657Y-120141233D01*
X160232792Y-120274940D01*
X160232784Y-120274945D01*
X160009439Y-120442138D01*
X160009421Y-120442154D01*
X159812154Y-120639421D01*
X159812138Y-120639439D01*
X159644945Y-120862784D01*
X159644940Y-120862792D01*
X159636771Y-120877753D01*
X159587364Y-120927158D01*
X159519091Y-120942008D01*
X159453627Y-120917589D01*
X159416728Y-120873168D01*
X159389346Y-120817643D01*
X159229126Y-120577858D01*
X159229121Y-120577852D01*
X159204161Y-120549391D01*
X158196661Y-121556890D01*
X158109423Y-121418052D01*
X157981948Y-121290577D01*
X157843107Y-121203338D01*
X158850607Y-120195837D01*
X158850607Y-120195836D01*
X158822147Y-120170878D01*
X158822141Y-120170873D01*
X158582356Y-120010653D01*
X158323712Y-119883104D01*
X158323702Y-119883100D01*
X158050635Y-119790407D01*
X158050615Y-119790402D01*
X157767784Y-119734144D01*
X157767757Y-119734140D01*
X157480007Y-119715280D01*
X157479993Y-119715280D01*
X157192242Y-119734140D01*
X157192215Y-119734144D01*
X156909384Y-119790402D01*
X156909364Y-119790407D01*
X156636297Y-119883100D01*
X156636287Y-119883104D01*
X156377643Y-120010653D01*
X156137853Y-120170876D01*
X156137847Y-120170881D01*
X156109391Y-120195835D01*
X156109391Y-120195838D01*
X157116891Y-121203338D01*
X156978052Y-121290577D01*
X156850577Y-121418052D01*
X156763338Y-121556891D01*
X155755838Y-120549391D01*
X155755835Y-120549391D01*
X155730881Y-120577847D01*
X155730876Y-120577853D01*
X155570653Y-120817643D01*
X155443104Y-121076287D01*
X155443100Y-121076297D01*
X155350407Y-121349364D01*
X155350402Y-121349384D01*
X155294144Y-121632215D01*
X155294140Y-121632242D01*
X155275280Y-121919992D01*
X155275280Y-121920007D01*
X135975658Y-121920007D01*
X135975659Y-121920000D01*
X135955063Y-121684592D01*
X135893903Y-121456337D01*
X135794035Y-121242171D01*
X135788425Y-121234158D01*
X135658494Y-121048597D01*
X135491402Y-120881506D01*
X135491395Y-120881501D01*
X135486042Y-120877753D01*
X135428618Y-120837544D01*
X135297834Y-120745967D01*
X135297830Y-120745965D01*
X135284448Y-120739725D01*
X135083663Y-120646097D01*
X135083659Y-120646096D01*
X135083655Y-120646094D01*
X134855413Y-120584938D01*
X134855403Y-120584936D01*
X134620001Y-120564341D01*
X134619999Y-120564341D01*
X134384596Y-120584936D01*
X134384586Y-120584938D01*
X134156344Y-120646094D01*
X134156335Y-120646098D01*
X133942171Y-120745964D01*
X133942169Y-120745965D01*
X133748597Y-120881505D01*
X133581505Y-121048597D01*
X133445965Y-121242169D01*
X133445964Y-121242171D01*
X133346098Y-121456335D01*
X133346094Y-121456344D01*
X133284938Y-121684586D01*
X133284936Y-121684596D01*
X133264341Y-121919999D01*
X133264341Y-121920000D01*
X125815659Y-121920000D01*
X125795063Y-121684592D01*
X125733903Y-121456337D01*
X125634035Y-121242171D01*
X125628425Y-121234158D01*
X125498494Y-121048597D01*
X125331402Y-120881506D01*
X125331395Y-120881501D01*
X125326042Y-120877753D01*
X125268618Y-120837544D01*
X125137834Y-120745967D01*
X125137830Y-120745965D01*
X125124448Y-120739725D01*
X124923663Y-120646097D01*
X124923659Y-120646096D01*
X124923655Y-120646094D01*
X124695413Y-120584938D01*
X124695403Y-120584936D01*
X124460001Y-120564341D01*
X124459999Y-120564341D01*
X124224596Y-120584936D01*
X124224586Y-120584938D01*
X123996344Y-120646094D01*
X123996335Y-120646098D01*
X123782171Y-120745964D01*
X123782169Y-120745965D01*
X123588597Y-120881505D01*
X123421505Y-121048597D01*
X123285965Y-121242169D01*
X123285964Y-121242171D01*
X123186098Y-121456335D01*
X123186094Y-121456344D01*
X123124938Y-121684586D01*
X123124936Y-121684596D01*
X123104341Y-121919999D01*
X123104341Y-121920000D01*
X115655659Y-121920000D01*
X115635063Y-121684592D01*
X115573903Y-121456337D01*
X115474035Y-121242171D01*
X115468425Y-121234158D01*
X115338494Y-121048597D01*
X115171402Y-120881506D01*
X115171395Y-120881501D01*
X115166042Y-120877753D01*
X115108618Y-120837544D01*
X114977834Y-120745967D01*
X114977830Y-120745965D01*
X114964448Y-120739725D01*
X114763663Y-120646097D01*
X114763659Y-120646096D01*
X114763655Y-120646094D01*
X114535413Y-120584938D01*
X114535403Y-120584936D01*
X114300001Y-120564341D01*
X114299999Y-120564341D01*
X114064596Y-120584936D01*
X114064586Y-120584938D01*
X113836344Y-120646094D01*
X113836335Y-120646098D01*
X113622171Y-120745964D01*
X113622169Y-120745965D01*
X113428597Y-120881505D01*
X113261505Y-121048597D01*
X113125965Y-121242169D01*
X113125964Y-121242171D01*
X113026098Y-121456335D01*
X113026094Y-121456344D01*
X112964938Y-121684586D01*
X112964936Y-121684596D01*
X112944341Y-121919999D01*
X112944341Y-121920000D01*
X105495659Y-121920000D01*
X105475063Y-121684592D01*
X105413903Y-121456337D01*
X105314035Y-121242171D01*
X105308425Y-121234158D01*
X105178494Y-121048597D01*
X105011402Y-120881506D01*
X105011395Y-120881501D01*
X105006042Y-120877753D01*
X104948618Y-120837544D01*
X104817834Y-120745967D01*
X104817830Y-120745965D01*
X104804448Y-120739725D01*
X104603663Y-120646097D01*
X104603659Y-120646096D01*
X104603655Y-120646094D01*
X104375413Y-120584938D01*
X104375403Y-120584936D01*
X104140001Y-120564341D01*
X104139999Y-120564341D01*
X103904596Y-120584936D01*
X103904586Y-120584938D01*
X103676344Y-120646094D01*
X103676335Y-120646098D01*
X103462171Y-120745964D01*
X103462169Y-120745965D01*
X103268597Y-120881505D01*
X103101505Y-121048597D01*
X102965965Y-121242169D01*
X102965964Y-121242171D01*
X102866098Y-121456335D01*
X102866094Y-121456344D01*
X102804938Y-121684586D01*
X102804936Y-121684596D01*
X102784341Y-121919999D01*
X102784341Y-121920000D01*
X79316777Y-121920000D01*
X79248769Y-121737663D01*
X79196372Y-121641706D01*
X79115059Y-121492792D01*
X79115054Y-121492784D01*
X78947861Y-121269439D01*
X78947845Y-121269421D01*
X78750578Y-121072154D01*
X78750560Y-121072138D01*
X78527215Y-120904945D01*
X78527207Y-120904940D01*
X78282342Y-120771233D01*
X78282338Y-120771231D01*
X78183230Y-120734266D01*
X78020923Y-120673729D01*
X78020919Y-120673728D01*
X78020916Y-120673727D01*
X77748299Y-120614422D01*
X77470001Y-120594518D01*
X77469999Y-120594518D01*
X77191700Y-120614422D01*
X76919083Y-120673727D01*
X76919078Y-120673728D01*
X76919077Y-120673729D01*
X76905377Y-120678839D01*
X76657661Y-120771231D01*
X76657657Y-120771233D01*
X76412792Y-120904940D01*
X76412784Y-120904945D01*
X76189439Y-121072138D01*
X76189421Y-121072154D01*
X75992154Y-121269421D01*
X75992138Y-121269439D01*
X75824945Y-121492784D01*
X75824940Y-121492792D01*
X75691233Y-121737657D01*
X75691231Y-121737661D01*
X75593727Y-121999083D01*
X75534422Y-122271700D01*
X75514518Y-122549998D01*
X75514518Y-122550001D01*
X63500000Y-122550001D01*
X63500000Y-115560007D01*
X106964671Y-115560007D01*
X106983964Y-115854363D01*
X106983965Y-115854373D01*
X106983966Y-115854380D01*
X107041083Y-116141532D01*
X107041518Y-116143716D01*
X107041521Y-116143730D01*
X107136349Y-116423080D01*
X107266825Y-116687660D01*
X107266829Y-116687667D01*
X107430725Y-116932955D01*
X107625241Y-117154758D01*
X107847044Y-117349274D01*
X108006129Y-117455571D01*
X108092335Y-117513172D01*
X108356923Y-117643652D01*
X108636278Y-117738481D01*
X108925620Y-117796034D01*
X108953888Y-117797886D01*
X109219993Y-117815329D01*
X109220000Y-117815329D01*
X109220007Y-117815329D01*
X109455675Y-117799881D01*
X109514380Y-117796034D01*
X109803722Y-117738481D01*
X110083077Y-117643652D01*
X110347665Y-117513172D01*
X110592957Y-117349273D01*
X110814758Y-117154758D01*
X111009273Y-116932957D01*
X111173172Y-116687665D01*
X111303652Y-116423077D01*
X111398481Y-116143722D01*
X111456034Y-115854380D01*
X111475329Y-115560007D01*
X127284671Y-115560007D01*
X127303964Y-115854363D01*
X127303965Y-115854373D01*
X127303966Y-115854380D01*
X127361083Y-116141532D01*
X127361518Y-116143716D01*
X127361521Y-116143730D01*
X127456349Y-116423080D01*
X127586825Y-116687660D01*
X127586829Y-116687667D01*
X127750725Y-116932955D01*
X127945241Y-117154758D01*
X128167044Y-117349274D01*
X128326129Y-117455571D01*
X128412335Y-117513172D01*
X128676923Y-117643652D01*
X128956278Y-117738481D01*
X129245620Y-117796034D01*
X129273888Y-117797886D01*
X129539993Y-117815329D01*
X129540000Y-117815329D01*
X129540007Y-117815329D01*
X129775675Y-117799881D01*
X129834380Y-117796034D01*
X130123722Y-117738481D01*
X130403077Y-117643652D01*
X130667665Y-117513172D01*
X130912957Y-117349273D01*
X131134758Y-117154758D01*
X131329273Y-116932957D01*
X131493172Y-116687665D01*
X131623652Y-116423077D01*
X131718481Y-116143722D01*
X131776034Y-115854380D01*
X131795329Y-115560000D01*
X131795329Y-115559992D01*
X131776035Y-115265636D01*
X131776034Y-115265620D01*
X131718481Y-114976278D01*
X131623652Y-114696923D01*
X131493172Y-114432336D01*
X131329273Y-114187043D01*
X131286655Y-114138447D01*
X131134758Y-113965241D01*
X130912955Y-113770725D01*
X130667667Y-113606829D01*
X130667660Y-113606825D01*
X130403080Y-113476349D01*
X130123730Y-113381521D01*
X130123724Y-113381519D01*
X130123722Y-113381519D01*
X129834380Y-113323966D01*
X129834373Y-113323965D01*
X129834363Y-113323964D01*
X129540007Y-113304671D01*
X129539993Y-113304671D01*
X129245636Y-113323964D01*
X129245624Y-113323965D01*
X129245620Y-113323966D01*
X129245612Y-113323967D01*
X129245609Y-113323968D01*
X128956283Y-113381518D01*
X128956269Y-113381521D01*
X128676919Y-113476349D01*
X128412334Y-113606828D01*
X128167041Y-113770728D01*
X127945241Y-113965241D01*
X127750728Y-114187041D01*
X127586828Y-114432334D01*
X127456349Y-114696919D01*
X127361521Y-114976269D01*
X127361518Y-114976283D01*
X127303968Y-115265609D01*
X127303964Y-115265636D01*
X127284671Y-115559992D01*
X127284671Y-115560007D01*
X111475329Y-115560007D01*
X111475329Y-115560000D01*
X111475329Y-115559992D01*
X111456035Y-115265636D01*
X111456034Y-115265620D01*
X111398481Y-114976278D01*
X111303652Y-114696923D01*
X111173172Y-114432336D01*
X111009273Y-114187043D01*
X110966655Y-114138447D01*
X110814758Y-113965241D01*
X110592955Y-113770725D01*
X110347667Y-113606829D01*
X110347660Y-113606825D01*
X110083080Y-113476349D01*
X109803730Y-113381521D01*
X109803724Y-113381519D01*
X109803722Y-113381519D01*
X109514380Y-113323966D01*
X109514373Y-113323965D01*
X109514363Y-113323964D01*
X109220007Y-113304671D01*
X109219993Y-113304671D01*
X108925636Y-113323964D01*
X108925624Y-113323965D01*
X108925620Y-113323966D01*
X108925612Y-113323967D01*
X108925609Y-113323968D01*
X108636283Y-113381518D01*
X108636269Y-113381521D01*
X108356919Y-113476349D01*
X108092334Y-113606828D01*
X107847041Y-113770728D01*
X107625241Y-113965241D01*
X107430728Y-114187041D01*
X107266828Y-114432334D01*
X107136349Y-114696919D01*
X107041521Y-114976269D01*
X107041518Y-114976283D01*
X106983968Y-115265609D01*
X106983964Y-115265636D01*
X106964671Y-115559992D01*
X106964671Y-115560007D01*
X63500000Y-115560007D01*
X63500000Y-111760000D01*
X102784341Y-111760000D01*
X102804936Y-111995403D01*
X102804938Y-111995413D01*
X102866094Y-112223655D01*
X102866096Y-112223659D01*
X102866097Y-112223663D01*
X102965965Y-112437829D01*
X102965965Y-112437830D01*
X102965967Y-112437834D01*
X103074281Y-112592521D01*
X103101505Y-112631401D01*
X103268599Y-112798495D01*
X103365384Y-112866265D01*
X103462165Y-112934032D01*
X103462167Y-112934033D01*
X103462170Y-112934035D01*
X103676337Y-113033903D01*
X103904592Y-113095063D01*
X104092918Y-113111539D01*
X104139999Y-113115659D01*
X104140000Y-113115659D01*
X104140001Y-113115659D01*
X104179234Y-113112226D01*
X104375408Y-113095063D01*
X104603663Y-113033903D01*
X104817830Y-112934035D01*
X105011401Y-112798495D01*
X105178495Y-112631401D01*
X105314035Y-112437830D01*
X105413903Y-112223663D01*
X105475063Y-111995408D01*
X105495659Y-111760000D01*
X112944341Y-111760000D01*
X112964936Y-111995403D01*
X112964938Y-111995413D01*
X113026094Y-112223655D01*
X113026096Y-112223659D01*
X113026097Y-112223663D01*
X113125965Y-112437830D01*
X113125967Y-112437834D01*
X113234281Y-112592521D01*
X113261505Y-112631401D01*
X113428599Y-112798495D01*
X113525384Y-112866265D01*
X113622165Y-112934032D01*
X113622167Y-112934033D01*
X113622170Y-112934035D01*
X113836337Y-113033903D01*
X114064592Y-113095063D01*
X114252918Y-113111539D01*
X114299999Y-113115659D01*
X114300000Y-113115659D01*
X114300001Y-113115659D01*
X114339234Y-113112226D01*
X114535408Y-113095063D01*
X114763663Y-113033903D01*
X114977830Y-112934035D01*
X115171401Y-112798495D01*
X115338495Y-112631401D01*
X115474035Y-112437830D01*
X115573903Y-112223663D01*
X115635063Y-111995408D01*
X115655659Y-111760000D01*
X123104341Y-111760000D01*
X123124936Y-111995403D01*
X123124938Y-111995413D01*
X123186094Y-112223655D01*
X123186096Y-112223659D01*
X123186097Y-112223663D01*
X123285965Y-112437829D01*
X123285965Y-112437830D01*
X123285967Y-112437834D01*
X123394281Y-112592521D01*
X123421505Y-112631401D01*
X123588599Y-112798495D01*
X123685384Y-112866265D01*
X123782165Y-112934032D01*
X123782167Y-112934033D01*
X123782170Y-112934035D01*
X123996337Y-113033903D01*
X124224592Y-113095063D01*
X124412918Y-113111539D01*
X124459999Y-113115659D01*
X124460000Y-113115659D01*
X124460001Y-113115659D01*
X124499234Y-113112226D01*
X124695408Y-113095063D01*
X124923663Y-113033903D01*
X125137830Y-112934035D01*
X125331401Y-112798495D01*
X125498495Y-112631401D01*
X125634035Y-112437830D01*
X125733903Y-112223663D01*
X125795063Y-111995408D01*
X125815659Y-111760000D01*
X133264341Y-111760000D01*
X133284936Y-111995403D01*
X133284938Y-111995413D01*
X133346094Y-112223655D01*
X133346096Y-112223659D01*
X133346097Y-112223663D01*
X133445965Y-112437830D01*
X133445967Y-112437834D01*
X133554281Y-112592521D01*
X133581505Y-112631401D01*
X133748599Y-112798495D01*
X133845384Y-112866264D01*
X133942165Y-112934032D01*
X133942167Y-112934033D01*
X133942170Y-112934035D01*
X134156337Y-113033903D01*
X134384592Y-113095063D01*
X134572918Y-113111539D01*
X134619999Y-113115659D01*
X134620000Y-113115659D01*
X134620001Y-113115659D01*
X134659234Y-113112226D01*
X134855408Y-113095063D01*
X135083663Y-113033903D01*
X135297830Y-112934035D01*
X135491401Y-112798495D01*
X135658495Y-112631401D01*
X135794035Y-112437830D01*
X135893903Y-112223663D01*
X135955063Y-111995408D01*
X135975659Y-111760000D01*
X135955063Y-111524592D01*
X135893903Y-111296337D01*
X135794035Y-111082171D01*
X135680833Y-110920500D01*
X135658494Y-110888597D01*
X135491402Y-110721506D01*
X135491395Y-110721501D01*
X135297834Y-110585967D01*
X135297830Y-110585965D01*
X135227632Y-110553231D01*
X135083663Y-110486097D01*
X135083659Y-110486096D01*
X135083655Y-110486094D01*
X134855413Y-110424938D01*
X134855403Y-110424936D01*
X134620001Y-110404341D01*
X134619999Y-110404341D01*
X134384596Y-110424936D01*
X134384586Y-110424938D01*
X134156344Y-110486094D01*
X134156335Y-110486098D01*
X133942171Y-110585964D01*
X133942169Y-110585965D01*
X133748597Y-110721505D01*
X133581505Y-110888597D01*
X133445965Y-111082169D01*
X133445964Y-111082171D01*
X133346098Y-111296335D01*
X133346094Y-111296344D01*
X133284938Y-111524586D01*
X133284936Y-111524596D01*
X133264341Y-111759999D01*
X133264341Y-111760000D01*
X125815659Y-111760000D01*
X125795063Y-111524592D01*
X125733903Y-111296337D01*
X125634035Y-111082171D01*
X125520833Y-110920500D01*
X125498494Y-110888597D01*
X125331402Y-110721506D01*
X125331395Y-110721501D01*
X125137834Y-110585967D01*
X125137830Y-110585965D01*
X125067632Y-110553231D01*
X124923663Y-110486097D01*
X124923659Y-110486096D01*
X124923655Y-110486094D01*
X124695413Y-110424938D01*
X124695403Y-110424936D01*
X124460001Y-110404341D01*
X124459999Y-110404341D01*
X124224596Y-110424936D01*
X124224586Y-110424938D01*
X123996344Y-110486094D01*
X123996335Y-110486098D01*
X123782171Y-110585964D01*
X123782169Y-110585965D01*
X123588597Y-110721505D01*
X123421505Y-110888597D01*
X123285965Y-111082169D01*
X123285964Y-111082171D01*
X123186098Y-111296335D01*
X123186094Y-111296344D01*
X123124938Y-111524586D01*
X123124936Y-111524596D01*
X123104341Y-111759999D01*
X123104341Y-111760000D01*
X115655659Y-111760000D01*
X115635063Y-111524592D01*
X115573903Y-111296337D01*
X115474035Y-111082171D01*
X115360833Y-110920500D01*
X115338494Y-110888597D01*
X115171402Y-110721506D01*
X115171395Y-110721501D01*
X114977834Y-110585967D01*
X114977830Y-110585965D01*
X114907632Y-110553231D01*
X114763663Y-110486097D01*
X114763659Y-110486096D01*
X114763655Y-110486094D01*
X114535413Y-110424938D01*
X114535403Y-110424936D01*
X114300001Y-110404341D01*
X114299999Y-110404341D01*
X114064596Y-110424936D01*
X114064586Y-110424938D01*
X113836344Y-110486094D01*
X113836335Y-110486098D01*
X113622171Y-110585964D01*
X113622169Y-110585965D01*
X113428597Y-110721505D01*
X113261505Y-110888597D01*
X113125965Y-111082169D01*
X113125964Y-111082171D01*
X113026098Y-111296335D01*
X113026094Y-111296344D01*
X112964938Y-111524586D01*
X112964936Y-111524596D01*
X112944341Y-111759999D01*
X112944341Y-111760000D01*
X105495659Y-111760000D01*
X105475063Y-111524592D01*
X105413903Y-111296337D01*
X105314035Y-111082171D01*
X105200833Y-110920500D01*
X105178494Y-110888597D01*
X105011402Y-110721506D01*
X105011395Y-110721501D01*
X104817834Y-110585967D01*
X104817830Y-110585965D01*
X104747632Y-110553231D01*
X104603663Y-110486097D01*
X104603659Y-110486096D01*
X104603655Y-110486094D01*
X104375413Y-110424938D01*
X104375403Y-110424936D01*
X104140001Y-110404341D01*
X104139999Y-110404341D01*
X103904596Y-110424936D01*
X103904586Y-110424938D01*
X103676344Y-110486094D01*
X103676335Y-110486098D01*
X103462171Y-110585964D01*
X103462169Y-110585965D01*
X103268597Y-110721505D01*
X103101505Y-110888597D01*
X102965965Y-111082169D01*
X102965964Y-111082171D01*
X102866098Y-111296335D01*
X102866094Y-111296344D01*
X102804938Y-111524586D01*
X102804936Y-111524596D01*
X102784341Y-111759999D01*
X102784341Y-111760000D01*
X63500000Y-111760000D01*
X63500000Y-109220004D01*
X71954732Y-109220004D01*
X71973777Y-109474154D01*
X71973778Y-109474157D01*
X72030492Y-109722637D01*
X72123607Y-109959888D01*
X72251041Y-110180612D01*
X72409950Y-110379877D01*
X72596783Y-110553232D01*
X72807366Y-110696805D01*
X72807371Y-110696807D01*
X72807372Y-110696808D01*
X72807373Y-110696809D01*
X72929328Y-110755538D01*
X73036992Y-110807387D01*
X73036993Y-110807387D01*
X73036996Y-110807389D01*
X73280542Y-110882513D01*
X73532565Y-110920500D01*
X73787435Y-110920500D01*
X74039458Y-110882513D01*
X74283004Y-110807389D01*
X74512634Y-110696805D01*
X74723217Y-110553232D01*
X74910050Y-110379877D01*
X75068959Y-110180612D01*
X75196393Y-109959888D01*
X75289508Y-109722637D01*
X75346222Y-109474157D01*
X75365268Y-109220004D01*
X79574732Y-109220004D01*
X79593777Y-109474154D01*
X79593778Y-109474157D01*
X79650492Y-109722637D01*
X79743607Y-109959888D01*
X79871041Y-110180612D01*
X80029950Y-110379877D01*
X80216783Y-110553232D01*
X80427366Y-110696805D01*
X80427371Y-110696807D01*
X80427372Y-110696808D01*
X80427373Y-110696809D01*
X80549328Y-110755538D01*
X80656992Y-110807387D01*
X80656993Y-110807387D01*
X80656996Y-110807389D01*
X80900542Y-110882513D01*
X81152565Y-110920500D01*
X81407435Y-110920500D01*
X81659458Y-110882513D01*
X81903004Y-110807389D01*
X82132634Y-110696805D01*
X82343217Y-110553232D01*
X82530050Y-110379877D01*
X82688959Y-110180612D01*
X82816393Y-109959888D01*
X82909508Y-109722637D01*
X82966222Y-109474157D01*
X82985268Y-109220001D01*
X209514532Y-109220001D01*
X209534364Y-109446686D01*
X209534366Y-109446697D01*
X209593258Y-109666488D01*
X209593261Y-109666497D01*
X209689431Y-109872732D01*
X209689432Y-109872734D01*
X209819954Y-110059141D01*
X209980858Y-110220045D01*
X209980861Y-110220047D01*
X210167266Y-110350568D01*
X210373504Y-110446739D01*
X210593308Y-110505635D01*
X210755230Y-110519801D01*
X210819998Y-110525468D01*
X210820000Y-110525468D01*
X210820002Y-110525468D01*
X210876673Y-110520509D01*
X211046692Y-110505635D01*
X211266496Y-110446739D01*
X211472734Y-110350568D01*
X211659139Y-110220047D01*
X211820047Y-110059139D01*
X211950568Y-109872734D01*
X212046739Y-109666496D01*
X212105635Y-109446692D01*
X212125468Y-109220001D01*
X222214532Y-109220001D01*
X222234364Y-109446686D01*
X222234366Y-109446697D01*
X222293258Y-109666488D01*
X222293261Y-109666497D01*
X222389431Y-109872732D01*
X222389432Y-109872734D01*
X222519954Y-110059141D01*
X222680858Y-110220045D01*
X222680861Y-110220047D01*
X222867266Y-110350568D01*
X223073504Y-110446739D01*
X223293308Y-110505635D01*
X223455230Y-110519801D01*
X223519998Y-110525468D01*
X223520000Y-110525468D01*
X223520002Y-110525468D01*
X223576672Y-110520509D01*
X223746692Y-110505635D01*
X223966496Y-110446739D01*
X224172734Y-110350568D01*
X224359139Y-110220047D01*
X224520047Y-110059139D01*
X224650568Y-109872734D01*
X224746739Y-109666496D01*
X224805635Y-109446692D01*
X224825468Y-109220000D01*
X224805635Y-108993308D01*
X224746739Y-108773504D01*
X224650568Y-108567266D01*
X224520047Y-108380861D01*
X224520045Y-108380858D01*
X224359141Y-108219954D01*
X224172734Y-108089432D01*
X224172732Y-108089431D01*
X223966497Y-107993261D01*
X223966488Y-107993258D01*
X223746697Y-107934366D01*
X223746693Y-107934365D01*
X223746692Y-107934365D01*
X223746691Y-107934364D01*
X223746686Y-107934364D01*
X223520002Y-107914532D01*
X223519998Y-107914532D01*
X223293313Y-107934364D01*
X223293302Y-107934366D01*
X223073511Y-107993258D01*
X223073502Y-107993261D01*
X222867267Y-108089431D01*
X222867265Y-108089432D01*
X222680858Y-108219954D01*
X222519954Y-108380858D01*
X222389432Y-108567265D01*
X222389431Y-108567267D01*
X222293261Y-108773502D01*
X222293258Y-108773511D01*
X222234366Y-108993302D01*
X222234364Y-108993313D01*
X222214532Y-109219998D01*
X222214532Y-109220001D01*
X212125468Y-109220001D01*
X212125468Y-109220000D01*
X212105635Y-108993308D01*
X212046739Y-108773504D01*
X211950568Y-108567266D01*
X211820047Y-108380861D01*
X211820045Y-108380858D01*
X211659141Y-108219954D01*
X211472734Y-108089432D01*
X211472732Y-108089431D01*
X211266497Y-107993261D01*
X211266488Y-107993258D01*
X211046697Y-107934366D01*
X211046693Y-107934365D01*
X211046692Y-107934365D01*
X211046691Y-107934364D01*
X211046686Y-107934364D01*
X210820002Y-107914532D01*
X210819998Y-107914532D01*
X210593313Y-107934364D01*
X210593302Y-107934366D01*
X210373511Y-107993258D01*
X210373502Y-107993261D01*
X210167267Y-108089431D01*
X210167265Y-108089432D01*
X209980858Y-108219954D01*
X209819954Y-108380858D01*
X209689432Y-108567265D01*
X209689431Y-108567267D01*
X209593261Y-108773502D01*
X209593258Y-108773511D01*
X209534366Y-108993302D01*
X209534364Y-108993313D01*
X209514532Y-109219998D01*
X209514532Y-109220001D01*
X82985268Y-109220001D01*
X82985268Y-109220000D01*
X82966222Y-108965843D01*
X82909508Y-108717363D01*
X82816393Y-108480112D01*
X82688959Y-108259388D01*
X82530050Y-108060123D01*
X82343217Y-107886768D01*
X82132634Y-107743195D01*
X82132630Y-107743193D01*
X82132627Y-107743191D01*
X82132626Y-107743190D01*
X81903006Y-107632612D01*
X81903008Y-107632612D01*
X81659466Y-107557489D01*
X81659462Y-107557488D01*
X81659458Y-107557487D01*
X81538231Y-107539214D01*
X81407440Y-107519500D01*
X81407435Y-107519500D01*
X81152565Y-107519500D01*
X81152559Y-107519500D01*
X80995609Y-107543157D01*
X80900542Y-107557487D01*
X80900538Y-107557488D01*
X80900539Y-107557488D01*
X80900533Y-107557489D01*
X80656992Y-107632612D01*
X80427373Y-107743190D01*
X80427372Y-107743191D01*
X80216782Y-107886768D01*
X80029952Y-108060121D01*
X80029950Y-108060123D01*
X79871041Y-108259388D01*
X79743608Y-108480109D01*
X79650492Y-108717362D01*
X79650490Y-108717369D01*
X79593777Y-108965845D01*
X79574732Y-109219995D01*
X79574732Y-109220004D01*
X75365268Y-109220004D01*
X75365268Y-109220000D01*
X75346222Y-108965843D01*
X75289508Y-108717363D01*
X75196393Y-108480112D01*
X75068959Y-108259388D01*
X74910050Y-108060123D01*
X74723217Y-107886768D01*
X74512634Y-107743195D01*
X74512630Y-107743193D01*
X74512627Y-107743191D01*
X74512626Y-107743190D01*
X74283006Y-107632612D01*
X74283008Y-107632612D01*
X74039466Y-107557489D01*
X74039462Y-107557488D01*
X74039458Y-107557487D01*
X73918231Y-107539214D01*
X73787440Y-107519500D01*
X73787435Y-107519500D01*
X73532565Y-107519500D01*
X73532559Y-107519500D01*
X73375609Y-107543157D01*
X73280542Y-107557487D01*
X73280538Y-107557488D01*
X73280539Y-107557488D01*
X73280533Y-107557489D01*
X73036992Y-107632612D01*
X72807373Y-107743190D01*
X72807372Y-107743191D01*
X72596782Y-107886768D01*
X72409952Y-108060121D01*
X72409950Y-108060123D01*
X72251041Y-108259388D01*
X72123608Y-108480109D01*
X72030492Y-108717362D01*
X72030490Y-108717369D01*
X71973777Y-108965845D01*
X71954732Y-109219995D01*
X71954732Y-109220004D01*
X63500000Y-109220004D01*
X63500000Y-101520001D01*
X120614532Y-101520001D01*
X120634364Y-101746686D01*
X120634366Y-101746697D01*
X120693258Y-101966488D01*
X120693261Y-101966497D01*
X120789431Y-102172732D01*
X120789432Y-102172734D01*
X120919954Y-102359141D01*
X121080858Y-102520045D01*
X121080861Y-102520047D01*
X121267266Y-102650568D01*
X121473504Y-102746739D01*
X121693308Y-102805635D01*
X121855230Y-102819801D01*
X121919998Y-102825468D01*
X121920000Y-102825468D01*
X121920002Y-102825468D01*
X121976673Y-102820509D01*
X122146692Y-102805635D01*
X122366496Y-102746739D01*
X122572734Y-102650568D01*
X122759139Y-102520047D01*
X122920047Y-102359139D01*
X123050568Y-102172734D01*
X123146739Y-101966496D01*
X123205635Y-101746692D01*
X123225468Y-101520001D01*
X128234532Y-101520001D01*
X128254364Y-101746686D01*
X128254366Y-101746697D01*
X128313258Y-101966488D01*
X128313261Y-101966497D01*
X128409431Y-102172732D01*
X128409432Y-102172734D01*
X128539954Y-102359141D01*
X128700858Y-102520045D01*
X128700861Y-102520047D01*
X128887266Y-102650568D01*
X129093504Y-102746739D01*
X129313308Y-102805635D01*
X129475230Y-102819801D01*
X129539998Y-102825468D01*
X129540000Y-102825468D01*
X129540002Y-102825468D01*
X129596673Y-102820509D01*
X129766692Y-102805635D01*
X129986496Y-102746739D01*
X130192734Y-102650568D01*
X130379139Y-102520047D01*
X130540047Y-102359139D01*
X130670568Y-102172734D01*
X130766739Y-101966496D01*
X130825635Y-101746692D01*
X130838469Y-101600004D01*
X211654732Y-101600004D01*
X211673777Y-101854154D01*
X211699418Y-101966496D01*
X211730492Y-102102637D01*
X211823607Y-102339888D01*
X211951041Y-102560612D01*
X212109950Y-102759877D01*
X212296783Y-102933232D01*
X212507366Y-103076805D01*
X212507371Y-103076807D01*
X212507372Y-103076808D01*
X212507373Y-103076809D01*
X212629328Y-103135538D01*
X212736992Y-103187387D01*
X212736993Y-103187387D01*
X212736996Y-103187389D01*
X212980542Y-103262513D01*
X213232565Y-103300500D01*
X213487435Y-103300500D01*
X213739458Y-103262513D01*
X213983004Y-103187389D01*
X214212634Y-103076805D01*
X214423217Y-102933232D01*
X214610050Y-102759877D01*
X214768959Y-102560612D01*
X214896393Y-102339888D01*
X214989508Y-102102637D01*
X215046222Y-101854157D01*
X215065268Y-101600004D01*
X219274732Y-101600004D01*
X219293777Y-101854154D01*
X219319418Y-101966496D01*
X219350492Y-102102637D01*
X219443607Y-102339888D01*
X219571041Y-102560612D01*
X219729950Y-102759877D01*
X219916783Y-102933232D01*
X220127366Y-103076805D01*
X220127371Y-103076807D01*
X220127372Y-103076808D01*
X220127373Y-103076809D01*
X220249328Y-103135538D01*
X220356992Y-103187387D01*
X220356993Y-103187387D01*
X220356996Y-103187389D01*
X220600542Y-103262513D01*
X220852565Y-103300500D01*
X221107435Y-103300500D01*
X221359458Y-103262513D01*
X221603004Y-103187389D01*
X221832634Y-103076805D01*
X222043217Y-102933232D01*
X222230050Y-102759877D01*
X222388959Y-102560612D01*
X222516393Y-102339888D01*
X222609508Y-102102637D01*
X222666222Y-101854157D01*
X222685268Y-101600000D01*
X222666222Y-101345843D01*
X222609508Y-101097363D01*
X222516393Y-100860112D01*
X222388959Y-100639388D01*
X222230050Y-100440123D01*
X222043217Y-100266768D01*
X221832634Y-100123195D01*
X221832630Y-100123193D01*
X221832627Y-100123191D01*
X221832626Y-100123190D01*
X221603006Y-100012612D01*
X221603008Y-100012612D01*
X221359466Y-99937489D01*
X221359462Y-99937488D01*
X221359458Y-99937487D01*
X221238231Y-99919214D01*
X221107440Y-99899500D01*
X221107435Y-99899500D01*
X220852565Y-99899500D01*
X220852559Y-99899500D01*
X220695609Y-99923157D01*
X220600542Y-99937487D01*
X220600538Y-99937488D01*
X220600539Y-99937488D01*
X220600533Y-99937489D01*
X220356992Y-100012612D01*
X220127373Y-100123190D01*
X220127372Y-100123191D01*
X219916782Y-100266768D01*
X219729952Y-100440121D01*
X219729950Y-100440123D01*
X219571041Y-100639388D01*
X219443608Y-100860109D01*
X219350492Y-101097362D01*
X219350490Y-101097369D01*
X219293777Y-101345845D01*
X219274732Y-101599995D01*
X219274732Y-101600004D01*
X215065268Y-101600004D01*
X215065268Y-101600000D01*
X215046222Y-101345843D01*
X214989508Y-101097363D01*
X214896393Y-100860112D01*
X214768959Y-100639388D01*
X214610050Y-100440123D01*
X214423217Y-100266768D01*
X214212634Y-100123195D01*
X214212630Y-100123193D01*
X214212627Y-100123191D01*
X214212626Y-100123190D01*
X213983006Y-100012612D01*
X213983008Y-100012612D01*
X213739466Y-99937489D01*
X213739462Y-99937488D01*
X213739458Y-99937487D01*
X213618231Y-99919214D01*
X213487440Y-99899500D01*
X213487435Y-99899500D01*
X213232565Y-99899500D01*
X213232559Y-99899500D01*
X213075609Y-99923157D01*
X212980542Y-99937487D01*
X212980538Y-99937488D01*
X212980539Y-99937488D01*
X212980533Y-99937489D01*
X212736992Y-100012612D01*
X212507373Y-100123190D01*
X212507372Y-100123191D01*
X212296782Y-100266768D01*
X212109952Y-100440121D01*
X212109950Y-100440123D01*
X211951041Y-100639388D01*
X211823608Y-100860109D01*
X211730492Y-101097362D01*
X211730490Y-101097369D01*
X211673777Y-101345845D01*
X211654732Y-101599995D01*
X211654732Y-101600004D01*
X130838469Y-101600004D01*
X130845468Y-101520000D01*
X130825635Y-101293308D01*
X130766739Y-101073504D01*
X130670568Y-100867266D01*
X130540047Y-100680861D01*
X130540045Y-100680858D01*
X130379141Y-100519954D01*
X130192734Y-100389432D01*
X130192732Y-100389431D01*
X129986497Y-100293261D01*
X129986488Y-100293258D01*
X129766697Y-100234366D01*
X129766693Y-100234365D01*
X129766692Y-100234365D01*
X129766691Y-100234364D01*
X129766686Y-100234364D01*
X129540002Y-100214532D01*
X129539998Y-100214532D01*
X129313313Y-100234364D01*
X129313302Y-100234366D01*
X129093511Y-100293258D01*
X129093502Y-100293261D01*
X128887267Y-100389431D01*
X128887265Y-100389432D01*
X128700858Y-100519954D01*
X128539954Y-100680858D01*
X128409432Y-100867265D01*
X128409431Y-100867267D01*
X128313261Y-101073502D01*
X128313258Y-101073511D01*
X128254366Y-101293302D01*
X128254364Y-101293313D01*
X128234532Y-101519998D01*
X128234532Y-101520001D01*
X123225468Y-101520001D01*
X123225468Y-101520000D01*
X123205635Y-101293308D01*
X123146739Y-101073504D01*
X123050568Y-100867266D01*
X122920047Y-100680861D01*
X122920045Y-100680858D01*
X122759141Y-100519954D01*
X122572734Y-100389432D01*
X122572732Y-100389431D01*
X122366497Y-100293261D01*
X122366488Y-100293258D01*
X122146697Y-100234366D01*
X122146693Y-100234365D01*
X122146692Y-100234365D01*
X122146691Y-100234364D01*
X122146686Y-100234364D01*
X121920002Y-100214532D01*
X121919998Y-100214532D01*
X121693313Y-100234364D01*
X121693302Y-100234366D01*
X121473511Y-100293258D01*
X121473502Y-100293261D01*
X121267267Y-100389431D01*
X121267265Y-100389432D01*
X121080858Y-100519954D01*
X120919954Y-100680858D01*
X120789432Y-100867265D01*
X120789431Y-100867267D01*
X120693261Y-101073502D01*
X120693258Y-101073511D01*
X120634366Y-101293302D01*
X120634364Y-101293313D01*
X120614532Y-101519998D01*
X120614532Y-101520001D01*
X63500000Y-101520001D01*
X63500000Y-99060004D01*
X89734732Y-99060004D01*
X89753777Y-99314154D01*
X89753778Y-99314157D01*
X89810492Y-99562637D01*
X89903607Y-99799888D01*
X90031041Y-100020612D01*
X90189950Y-100219877D01*
X90376783Y-100393232D01*
X90587366Y-100536805D01*
X90587371Y-100536807D01*
X90587372Y-100536808D01*
X90587373Y-100536809D01*
X90709328Y-100595538D01*
X90816992Y-100647387D01*
X90816993Y-100647387D01*
X90816996Y-100647389D01*
X91060542Y-100722513D01*
X91312565Y-100760500D01*
X91567435Y-100760500D01*
X91819458Y-100722513D01*
X92063004Y-100647389D01*
X92292634Y-100536805D01*
X92503217Y-100393232D01*
X92690050Y-100219877D01*
X92848959Y-100020612D01*
X92976393Y-99799888D01*
X93069508Y-99562637D01*
X93126222Y-99314157D01*
X93145268Y-99060004D01*
X110054732Y-99060004D01*
X110073777Y-99314154D01*
X110073778Y-99314157D01*
X110130492Y-99562637D01*
X110223607Y-99799888D01*
X110351041Y-100020612D01*
X110509950Y-100219877D01*
X110696783Y-100393232D01*
X110907366Y-100536805D01*
X110907371Y-100536807D01*
X110907372Y-100536808D01*
X110907373Y-100536809D01*
X111029328Y-100595538D01*
X111136992Y-100647387D01*
X111136993Y-100647387D01*
X111136996Y-100647389D01*
X111380542Y-100722513D01*
X111632565Y-100760500D01*
X111887435Y-100760500D01*
X112139458Y-100722513D01*
X112383004Y-100647389D01*
X112612634Y-100536805D01*
X112823217Y-100393232D01*
X113010050Y-100219877D01*
X113168959Y-100020612D01*
X113296393Y-99799888D01*
X113389508Y-99562637D01*
X113446222Y-99314157D01*
X113465268Y-99060004D01*
X158314732Y-99060004D01*
X158333777Y-99314154D01*
X158333778Y-99314157D01*
X158390492Y-99562637D01*
X158483607Y-99799888D01*
X158611041Y-100020612D01*
X158769950Y-100219877D01*
X158956783Y-100393232D01*
X159167366Y-100536805D01*
X159167371Y-100536807D01*
X159167372Y-100536808D01*
X159167373Y-100536809D01*
X159289328Y-100595538D01*
X159396992Y-100647387D01*
X159396993Y-100647387D01*
X159396996Y-100647389D01*
X159640542Y-100722513D01*
X159892565Y-100760500D01*
X160147435Y-100760500D01*
X160399458Y-100722513D01*
X160643004Y-100647389D01*
X160872634Y-100536805D01*
X161083217Y-100393232D01*
X161270050Y-100219877D01*
X161428959Y-100020612D01*
X161556393Y-99799888D01*
X161649508Y-99562637D01*
X161706222Y-99314157D01*
X161725268Y-99060004D01*
X183714732Y-99060004D01*
X183733777Y-99314154D01*
X183733778Y-99314157D01*
X183790492Y-99562637D01*
X183883607Y-99799888D01*
X184011041Y-100020612D01*
X184169950Y-100219877D01*
X184356783Y-100393232D01*
X184567366Y-100536805D01*
X184567371Y-100536807D01*
X184567372Y-100536808D01*
X184567373Y-100536809D01*
X184689328Y-100595538D01*
X184796992Y-100647387D01*
X184796993Y-100647387D01*
X184796996Y-100647389D01*
X185040542Y-100722513D01*
X185292565Y-100760500D01*
X185547435Y-100760500D01*
X185799458Y-100722513D01*
X186043004Y-100647389D01*
X186272634Y-100536805D01*
X186483217Y-100393232D01*
X186670050Y-100219877D01*
X186828959Y-100020612D01*
X186956393Y-99799888D01*
X187049508Y-99562637D01*
X187106222Y-99314157D01*
X187125268Y-99060000D01*
X187106222Y-98805843D01*
X187049508Y-98557363D01*
X186956393Y-98320112D01*
X186828959Y-98099388D01*
X186670050Y-97900123D01*
X186483217Y-97726768D01*
X186272634Y-97583195D01*
X186272630Y-97583193D01*
X186272627Y-97583191D01*
X186272626Y-97583190D01*
X186043006Y-97472612D01*
X186043008Y-97472612D01*
X185799466Y-97397489D01*
X185799462Y-97397488D01*
X185799458Y-97397487D01*
X185678231Y-97379214D01*
X185547440Y-97359500D01*
X185547435Y-97359500D01*
X185292565Y-97359500D01*
X185292559Y-97359500D01*
X185135609Y-97383157D01*
X185040542Y-97397487D01*
X185040538Y-97397488D01*
X185040539Y-97397488D01*
X185040533Y-97397489D01*
X184796992Y-97472612D01*
X184567373Y-97583190D01*
X184567372Y-97583191D01*
X184356782Y-97726768D01*
X184169952Y-97900121D01*
X184169950Y-97900123D01*
X184011041Y-98099388D01*
X183883608Y-98320109D01*
X183790492Y-98557362D01*
X183790490Y-98557369D01*
X183733777Y-98805845D01*
X183714732Y-99059995D01*
X183714732Y-99060004D01*
X161725268Y-99060004D01*
X161725268Y-99060000D01*
X161706222Y-98805843D01*
X161649508Y-98557363D01*
X161556393Y-98320112D01*
X161428959Y-98099388D01*
X161270050Y-97900123D01*
X161083217Y-97726768D01*
X160872634Y-97583195D01*
X160872630Y-97583193D01*
X160872627Y-97583191D01*
X160872626Y-97583190D01*
X160643006Y-97472612D01*
X160643008Y-97472612D01*
X160399466Y-97397489D01*
X160399462Y-97397488D01*
X160399458Y-97397487D01*
X160278231Y-97379214D01*
X160147440Y-97359500D01*
X160147435Y-97359500D01*
X159892565Y-97359500D01*
X159892559Y-97359500D01*
X159735609Y-97383157D01*
X159640542Y-97397487D01*
X159640538Y-97397488D01*
X159640539Y-97397488D01*
X159640533Y-97397489D01*
X159396992Y-97472612D01*
X159167373Y-97583190D01*
X159167372Y-97583191D01*
X158956782Y-97726768D01*
X158769952Y-97900121D01*
X158769950Y-97900123D01*
X158611041Y-98099388D01*
X158483608Y-98320109D01*
X158390492Y-98557362D01*
X158390490Y-98557369D01*
X158333777Y-98805845D01*
X158314732Y-99059995D01*
X158314732Y-99060004D01*
X113465268Y-99060004D01*
X113465268Y-99060000D01*
X113446222Y-98805843D01*
X113389508Y-98557363D01*
X113296393Y-98320112D01*
X113168959Y-98099388D01*
X113010050Y-97900123D01*
X112823217Y-97726768D01*
X112612634Y-97583195D01*
X112612630Y-97583193D01*
X112612627Y-97583191D01*
X112612626Y-97583190D01*
X112383006Y-97472612D01*
X112383008Y-97472612D01*
X112139466Y-97397489D01*
X112139462Y-97397488D01*
X112139458Y-97397487D01*
X112018231Y-97379214D01*
X111887440Y-97359500D01*
X111887435Y-97359500D01*
X111632565Y-97359500D01*
X111632559Y-97359500D01*
X111475609Y-97383157D01*
X111380542Y-97397487D01*
X111380538Y-97397488D01*
X111380539Y-97397488D01*
X111380533Y-97397489D01*
X111136992Y-97472612D01*
X110907373Y-97583190D01*
X110907372Y-97583191D01*
X110696782Y-97726768D01*
X110509952Y-97900121D01*
X110509950Y-97900123D01*
X110351041Y-98099388D01*
X110223608Y-98320109D01*
X110130492Y-98557362D01*
X110130490Y-98557369D01*
X110073777Y-98805845D01*
X110054732Y-99059995D01*
X110054732Y-99060004D01*
X93145268Y-99060004D01*
X93145268Y-99060000D01*
X93126222Y-98805843D01*
X93069508Y-98557363D01*
X92976393Y-98320112D01*
X92848959Y-98099388D01*
X92690050Y-97900123D01*
X92503217Y-97726768D01*
X92292634Y-97583195D01*
X92292630Y-97583193D01*
X92292627Y-97583191D01*
X92292626Y-97583190D01*
X92063006Y-97472612D01*
X92063008Y-97472612D01*
X91819466Y-97397489D01*
X91819462Y-97397488D01*
X91819458Y-97397487D01*
X91698231Y-97379214D01*
X91567440Y-97359500D01*
X91567435Y-97359500D01*
X91312565Y-97359500D01*
X91312559Y-97359500D01*
X91155609Y-97383157D01*
X91060542Y-97397487D01*
X91060538Y-97397488D01*
X91060539Y-97397488D01*
X91060533Y-97397489D01*
X90816992Y-97472612D01*
X90587373Y-97583190D01*
X90587372Y-97583191D01*
X90376782Y-97726768D01*
X90189952Y-97900121D01*
X90189950Y-97900123D01*
X90031041Y-98099388D01*
X89903608Y-98320109D01*
X89810492Y-98557362D01*
X89810490Y-98557369D01*
X89753777Y-98805845D01*
X89734732Y-99059995D01*
X89734732Y-99060004D01*
X63500000Y-99060004D01*
X63500000Y-96520001D01*
X120614532Y-96520001D01*
X120634364Y-96746686D01*
X120634366Y-96746697D01*
X120693258Y-96966488D01*
X120693261Y-96966497D01*
X120789431Y-97172732D01*
X120789432Y-97172734D01*
X120919954Y-97359141D01*
X121080858Y-97520045D01*
X121080861Y-97520047D01*
X121267266Y-97650568D01*
X121473504Y-97746739D01*
X121693308Y-97805635D01*
X121855230Y-97819801D01*
X121919998Y-97825468D01*
X121920000Y-97825468D01*
X121920002Y-97825468D01*
X121976673Y-97820509D01*
X122146692Y-97805635D01*
X122366496Y-97746739D01*
X122572734Y-97650568D01*
X122759139Y-97520047D01*
X122920047Y-97359139D01*
X123050568Y-97172734D01*
X123146739Y-96966496D01*
X123205635Y-96746692D01*
X123225468Y-96520001D01*
X128234532Y-96520001D01*
X128254364Y-96746686D01*
X128254366Y-96746697D01*
X128313258Y-96966488D01*
X128313261Y-96966497D01*
X128409431Y-97172732D01*
X128409432Y-97172734D01*
X128539954Y-97359141D01*
X128700858Y-97520045D01*
X128700861Y-97520047D01*
X128887266Y-97650568D01*
X129093504Y-97746739D01*
X129313308Y-97805635D01*
X129475230Y-97819801D01*
X129539998Y-97825468D01*
X129540000Y-97825468D01*
X129540002Y-97825468D01*
X129596673Y-97820509D01*
X129766692Y-97805635D01*
X129986496Y-97746739D01*
X130192734Y-97650568D01*
X130379139Y-97520047D01*
X130540047Y-97359139D01*
X130670568Y-97172734D01*
X130766739Y-96966496D01*
X130825635Y-96746692D01*
X130845468Y-96520000D01*
X130825635Y-96293308D01*
X130766739Y-96073504D01*
X130670568Y-95867266D01*
X130540047Y-95680861D01*
X130540045Y-95680858D01*
X130379141Y-95519954D01*
X130192734Y-95389432D01*
X130192732Y-95389431D01*
X129986497Y-95293261D01*
X129986488Y-95293258D01*
X129766697Y-95234366D01*
X129766693Y-95234365D01*
X129766692Y-95234365D01*
X129766691Y-95234364D01*
X129766686Y-95234364D01*
X129540002Y-95214532D01*
X129539998Y-95214532D01*
X129313313Y-95234364D01*
X129313302Y-95234366D01*
X129093511Y-95293258D01*
X129093502Y-95293261D01*
X128887267Y-95389431D01*
X128887265Y-95389432D01*
X128700858Y-95519954D01*
X128539954Y-95680858D01*
X128409432Y-95867265D01*
X128409431Y-95867267D01*
X128313261Y-96073502D01*
X128313258Y-96073511D01*
X128254366Y-96293302D01*
X128254364Y-96293313D01*
X128234532Y-96519998D01*
X128234532Y-96520001D01*
X123225468Y-96520001D01*
X123225468Y-96520000D01*
X123205635Y-96293308D01*
X123146739Y-96073504D01*
X123050568Y-95867266D01*
X122920047Y-95680861D01*
X122920045Y-95680858D01*
X122759141Y-95519954D01*
X122572734Y-95389432D01*
X122572732Y-95389431D01*
X122366497Y-95293261D01*
X122366488Y-95293258D01*
X122146697Y-95234366D01*
X122146693Y-95234365D01*
X122146692Y-95234365D01*
X122146691Y-95234364D01*
X122146686Y-95234364D01*
X121920002Y-95214532D01*
X121919998Y-95214532D01*
X121693313Y-95234364D01*
X121693302Y-95234366D01*
X121473511Y-95293258D01*
X121473502Y-95293261D01*
X121267267Y-95389431D01*
X121267265Y-95389432D01*
X121080858Y-95519954D01*
X120919954Y-95680858D01*
X120789432Y-95867265D01*
X120789431Y-95867267D01*
X120693261Y-96073502D01*
X120693258Y-96073511D01*
X120634366Y-96293302D01*
X120634364Y-96293313D01*
X120614532Y-96519998D01*
X120614532Y-96520001D01*
X63500000Y-96520001D01*
X63500000Y-88900004D01*
X71954732Y-88900004D01*
X71973777Y-89154154D01*
X71973778Y-89154157D01*
X72030492Y-89402637D01*
X72123607Y-89639888D01*
X72251041Y-89860612D01*
X72409950Y-90059877D01*
X72596783Y-90233232D01*
X72807366Y-90376805D01*
X72807371Y-90376807D01*
X72807372Y-90376808D01*
X72807373Y-90376809D01*
X72929328Y-90435538D01*
X73036992Y-90487387D01*
X73036993Y-90487387D01*
X73036996Y-90487389D01*
X73280542Y-90562513D01*
X73532565Y-90600500D01*
X73787435Y-90600500D01*
X74039458Y-90562513D01*
X74283004Y-90487389D01*
X74512634Y-90376805D01*
X74723217Y-90233232D01*
X74910050Y-90059877D01*
X75068959Y-89860612D01*
X75196393Y-89639888D01*
X75289508Y-89402637D01*
X75346222Y-89154157D01*
X75365268Y-88900004D01*
X79574732Y-88900004D01*
X79593777Y-89154154D01*
X79593778Y-89154157D01*
X79650492Y-89402637D01*
X79743607Y-89639888D01*
X79871041Y-89860612D01*
X80029950Y-90059877D01*
X80216783Y-90233232D01*
X80427366Y-90376805D01*
X80427371Y-90376807D01*
X80427372Y-90376808D01*
X80427373Y-90376809D01*
X80549328Y-90435538D01*
X80656992Y-90487387D01*
X80656993Y-90487387D01*
X80656996Y-90487389D01*
X80900542Y-90562513D01*
X81152565Y-90600500D01*
X81407435Y-90600500D01*
X81659458Y-90562513D01*
X81903004Y-90487389D01*
X82132634Y-90376805D01*
X82343217Y-90233232D01*
X82530050Y-90059877D01*
X82688959Y-89860612D01*
X82816393Y-89639888D01*
X82909508Y-89402637D01*
X82966222Y-89154157D01*
X82985268Y-88900000D01*
X82966222Y-88645843D01*
X82909508Y-88397363D01*
X82816393Y-88160112D01*
X82688959Y-87939388D01*
X82530050Y-87740123D01*
X82343217Y-87566768D01*
X82132634Y-87423195D01*
X82132630Y-87423193D01*
X82132627Y-87423191D01*
X82132626Y-87423190D01*
X81903006Y-87312612D01*
X81903008Y-87312612D01*
X81659466Y-87237489D01*
X81659462Y-87237488D01*
X81659458Y-87237487D01*
X81538231Y-87219214D01*
X81407440Y-87199500D01*
X81407435Y-87199500D01*
X81152565Y-87199500D01*
X81152559Y-87199500D01*
X80995609Y-87223157D01*
X80900542Y-87237487D01*
X80900538Y-87237488D01*
X80900539Y-87237488D01*
X80900533Y-87237489D01*
X80656992Y-87312612D01*
X80427373Y-87423190D01*
X80427372Y-87423191D01*
X80216782Y-87566768D01*
X80029952Y-87740121D01*
X80029950Y-87740123D01*
X79871041Y-87939388D01*
X79743608Y-88160109D01*
X79650492Y-88397362D01*
X79650490Y-88397369D01*
X79593777Y-88645845D01*
X79574732Y-88899995D01*
X79574732Y-88900004D01*
X75365268Y-88900004D01*
X75365268Y-88900000D01*
X75346222Y-88645843D01*
X75289508Y-88397363D01*
X75196393Y-88160112D01*
X75068959Y-87939388D01*
X74910050Y-87740123D01*
X74723217Y-87566768D01*
X74512634Y-87423195D01*
X74512630Y-87423193D01*
X74512627Y-87423191D01*
X74512626Y-87423190D01*
X74283006Y-87312612D01*
X74283008Y-87312612D01*
X74039466Y-87237489D01*
X74039462Y-87237488D01*
X74039458Y-87237487D01*
X73918231Y-87219214D01*
X73787440Y-87199500D01*
X73787435Y-87199500D01*
X73532565Y-87199500D01*
X73532559Y-87199500D01*
X73375609Y-87223157D01*
X73280542Y-87237487D01*
X73280538Y-87237488D01*
X73280539Y-87237488D01*
X73280533Y-87237489D01*
X73036992Y-87312612D01*
X72807373Y-87423190D01*
X72807372Y-87423191D01*
X72596782Y-87566768D01*
X72409952Y-87740121D01*
X72409950Y-87740123D01*
X72251041Y-87939388D01*
X72123608Y-88160109D01*
X72030492Y-88397362D01*
X72030490Y-88397369D01*
X71973777Y-88645845D01*
X71954732Y-88899995D01*
X71954732Y-88900004D01*
X63500000Y-88900004D01*
X63500000Y-86360001D01*
X95214532Y-86360001D01*
X95234364Y-86586686D01*
X95234366Y-86586697D01*
X95293258Y-86806488D01*
X95293261Y-86806497D01*
X95389431Y-87012732D01*
X95389432Y-87012734D01*
X95519954Y-87199141D01*
X95680858Y-87360045D01*
X95680861Y-87360047D01*
X95867266Y-87490568D01*
X96073504Y-87586739D01*
X96293308Y-87645635D01*
X96455230Y-87659801D01*
X96519998Y-87665468D01*
X96520000Y-87665468D01*
X96520002Y-87665468D01*
X96576672Y-87660509D01*
X96746692Y-87645635D01*
X96966496Y-87586739D01*
X97172734Y-87490568D01*
X97359139Y-87360047D01*
X97520047Y-87199139D01*
X97650568Y-87012734D01*
X97746739Y-86806496D01*
X97805635Y-86586692D01*
X97825468Y-86360004D01*
X104954451Y-86360004D01*
X104974616Y-86629101D01*
X105034664Y-86892188D01*
X105034666Y-86892195D01*
X105081974Y-87012734D01*
X105133257Y-87143398D01*
X105268185Y-87377102D01*
X105382044Y-87519876D01*
X105436442Y-87588089D01*
X105585870Y-87726737D01*
X105634259Y-87771635D01*
X105857226Y-87923651D01*
X106100359Y-88040738D01*
X106358228Y-88120280D01*
X106358229Y-88120280D01*
X106358232Y-88120281D01*
X106625063Y-88160499D01*
X106625068Y-88160499D01*
X106625071Y-88160500D01*
X106625072Y-88160500D01*
X106894928Y-88160500D01*
X106894929Y-88160500D01*
X106894936Y-88160499D01*
X107161767Y-88120281D01*
X107161768Y-88120280D01*
X107161772Y-88120280D01*
X107419641Y-88040738D01*
X107662775Y-87923651D01*
X107885741Y-87771635D01*
X108083561Y-87588085D01*
X108251815Y-87377102D01*
X108386743Y-87143398D01*
X108485334Y-86892195D01*
X108545383Y-86629103D01*
X108565549Y-86360004D01*
X109954451Y-86360004D01*
X109974616Y-86629101D01*
X110034664Y-86892188D01*
X110034666Y-86892195D01*
X110081974Y-87012734D01*
X110133257Y-87143398D01*
X110268185Y-87377102D01*
X110382044Y-87519876D01*
X110436442Y-87588089D01*
X110585870Y-87726737D01*
X110634259Y-87771635D01*
X110857226Y-87923651D01*
X111100359Y-88040738D01*
X111358228Y-88120280D01*
X111358229Y-88120280D01*
X111358232Y-88120281D01*
X111625063Y-88160499D01*
X111625068Y-88160499D01*
X111625071Y-88160500D01*
X111625072Y-88160500D01*
X111894928Y-88160500D01*
X111894929Y-88160500D01*
X111894936Y-88160499D01*
X112161767Y-88120281D01*
X112161768Y-88120280D01*
X112161772Y-88120280D01*
X112419641Y-88040738D01*
X112662775Y-87923651D01*
X112885741Y-87771635D01*
X113083561Y-87588085D01*
X113251815Y-87377102D01*
X113386743Y-87143398D01*
X113485334Y-86892195D01*
X113545383Y-86629103D01*
X113565549Y-86360004D01*
X120214732Y-86360004D01*
X120233777Y-86614154D01*
X120256464Y-86713553D01*
X120290492Y-86862637D01*
X120383607Y-87099888D01*
X120511041Y-87320612D01*
X120669950Y-87519877D01*
X120856783Y-87693232D01*
X121067366Y-87836805D01*
X121067371Y-87836807D01*
X121067372Y-87836808D01*
X121067373Y-87836809D01*
X121189328Y-87895538D01*
X121296992Y-87947387D01*
X121296993Y-87947387D01*
X121296996Y-87947389D01*
X121540542Y-88022513D01*
X121792565Y-88060500D01*
X122047435Y-88060500D01*
X122299458Y-88022513D01*
X122543004Y-87947389D01*
X122772634Y-87836805D01*
X122983217Y-87693232D01*
X123170050Y-87519877D01*
X123328959Y-87320612D01*
X123456393Y-87099888D01*
X123549508Y-86862637D01*
X123606222Y-86614157D01*
X123625268Y-86360004D01*
X135215233Y-86360004D01*
X135234273Y-86614079D01*
X135290968Y-86862477D01*
X135290973Y-86862494D01*
X135384058Y-87099671D01*
X135384057Y-87099671D01*
X135511457Y-87320332D01*
X135553452Y-87372993D01*
X135553453Y-87372993D01*
X136357226Y-86569219D01*
X136395901Y-86662588D01*
X136492075Y-86787925D01*
X136617412Y-86884099D01*
X136710779Y-86922772D01*
X135906813Y-87726737D01*
X136067623Y-87836375D01*
X136067624Y-87836376D01*
X136297176Y-87946921D01*
X136297174Y-87946921D01*
X136540652Y-88022024D01*
X136540658Y-88022026D01*
X136792595Y-88059999D01*
X136792604Y-88060000D01*
X137047396Y-88060000D01*
X137047404Y-88059999D01*
X137299341Y-88022026D01*
X137299347Y-88022024D01*
X137542824Y-87946921D01*
X137772381Y-87836373D01*
X137933185Y-87726737D01*
X137129220Y-86922772D01*
X137222588Y-86884099D01*
X137347925Y-86787925D01*
X137444099Y-86662589D01*
X137482772Y-86569220D01*
X138286545Y-87372993D01*
X138328545Y-87320327D01*
X138455941Y-87099671D01*
X138549026Y-86862494D01*
X138549031Y-86862477D01*
X138605726Y-86614079D01*
X138624767Y-86360004D01*
X168454451Y-86360004D01*
X168474616Y-86629101D01*
X168534664Y-86892188D01*
X168534666Y-86892195D01*
X168581974Y-87012734D01*
X168633257Y-87143398D01*
X168768185Y-87377102D01*
X168882044Y-87519876D01*
X168936442Y-87588089D01*
X169085870Y-87726737D01*
X169134259Y-87771635D01*
X169357226Y-87923651D01*
X169600359Y-88040738D01*
X169858228Y-88120280D01*
X169858229Y-88120280D01*
X169858232Y-88120281D01*
X170125063Y-88160499D01*
X170125068Y-88160499D01*
X170125071Y-88160500D01*
X170125072Y-88160500D01*
X170394928Y-88160500D01*
X170394929Y-88160500D01*
X170394936Y-88160499D01*
X170661767Y-88120281D01*
X170661768Y-88120280D01*
X170661772Y-88120280D01*
X170919641Y-88040738D01*
X171162775Y-87923651D01*
X171385741Y-87771635D01*
X171583561Y-87588085D01*
X171751815Y-87377102D01*
X171886743Y-87143398D01*
X171985334Y-86892195D01*
X172045383Y-86629103D01*
X172065549Y-86360004D01*
X173454451Y-86360004D01*
X173474616Y-86629101D01*
X173534664Y-86892188D01*
X173534666Y-86892195D01*
X173581974Y-87012734D01*
X173633257Y-87143398D01*
X173768185Y-87377102D01*
X173882044Y-87519876D01*
X173936442Y-87588089D01*
X174085870Y-87726737D01*
X174134259Y-87771635D01*
X174357226Y-87923651D01*
X174600359Y-88040738D01*
X174858228Y-88120280D01*
X174858229Y-88120280D01*
X174858232Y-88120281D01*
X175125063Y-88160499D01*
X175125068Y-88160499D01*
X175125071Y-88160500D01*
X175125072Y-88160500D01*
X175394928Y-88160500D01*
X175394929Y-88160500D01*
X175394936Y-88160499D01*
X175661767Y-88120281D01*
X175661768Y-88120280D01*
X175661772Y-88120280D01*
X175919641Y-88040738D01*
X176162775Y-87923651D01*
X176385741Y-87771635D01*
X176583561Y-87588085D01*
X176751815Y-87377102D01*
X176886743Y-87143398D01*
X176985334Y-86892195D01*
X177045383Y-86629103D01*
X177065549Y-86360004D01*
X183714732Y-86360004D01*
X183733777Y-86614154D01*
X183756464Y-86713553D01*
X183790492Y-86862637D01*
X183883607Y-87099888D01*
X184011041Y-87320612D01*
X184169950Y-87519877D01*
X184356783Y-87693232D01*
X184567366Y-87836805D01*
X184567371Y-87836807D01*
X184567372Y-87836808D01*
X184567373Y-87836809D01*
X184689328Y-87895538D01*
X184796992Y-87947387D01*
X184796993Y-87947387D01*
X184796996Y-87947389D01*
X185040542Y-88022513D01*
X185292565Y-88060500D01*
X185547435Y-88060500D01*
X185799458Y-88022513D01*
X186043004Y-87947389D01*
X186272634Y-87836805D01*
X186483217Y-87693232D01*
X186670050Y-87519877D01*
X186828959Y-87320612D01*
X186956393Y-87099888D01*
X187049508Y-86862637D01*
X187106222Y-86614157D01*
X187125268Y-86360004D01*
X198715233Y-86360004D01*
X198734273Y-86614079D01*
X198790968Y-86862477D01*
X198790973Y-86862494D01*
X198884058Y-87099671D01*
X198884057Y-87099671D01*
X199011457Y-87320332D01*
X199053452Y-87372993D01*
X199053453Y-87372993D01*
X199857226Y-86569219D01*
X199895901Y-86662588D01*
X199992075Y-86787925D01*
X200117412Y-86884099D01*
X200210779Y-86922772D01*
X199406813Y-87726737D01*
X199567623Y-87836375D01*
X199567624Y-87836376D01*
X199797176Y-87946921D01*
X199797174Y-87946921D01*
X200040652Y-88022024D01*
X200040658Y-88022026D01*
X200292595Y-88059999D01*
X200292604Y-88060000D01*
X200547396Y-88060000D01*
X200547404Y-88059999D01*
X200799341Y-88022026D01*
X200799347Y-88022024D01*
X201042824Y-87946921D01*
X201272381Y-87836373D01*
X201433185Y-87726737D01*
X200629220Y-86922772D01*
X200722588Y-86884099D01*
X200847925Y-86787925D01*
X200944099Y-86662589D01*
X200982772Y-86569220D01*
X201786545Y-87372993D01*
X201828545Y-87320327D01*
X201955941Y-87099671D01*
X202049026Y-86862494D01*
X202049031Y-86862477D01*
X202105726Y-86614079D01*
X202124767Y-86360004D01*
X202124767Y-86359995D01*
X202105726Y-86105920D01*
X202049031Y-85857522D01*
X202049026Y-85857505D01*
X201955941Y-85620328D01*
X201955942Y-85620328D01*
X201828544Y-85399671D01*
X201786546Y-85347006D01*
X200982772Y-86150779D01*
X200944099Y-86057412D01*
X200847925Y-85932075D01*
X200722588Y-85835901D01*
X200629220Y-85797227D01*
X201433185Y-84993261D01*
X201272377Y-84883624D01*
X201272376Y-84883623D01*
X201042823Y-84773078D01*
X201042825Y-84773078D01*
X200799347Y-84697975D01*
X200799341Y-84697973D01*
X200547404Y-84660000D01*
X200292595Y-84660000D01*
X200040658Y-84697973D01*
X200040652Y-84697975D01*
X199797175Y-84773078D01*
X199567624Y-84883623D01*
X199567616Y-84883628D01*
X199406813Y-84993261D01*
X200210779Y-85797227D01*
X200117412Y-85835901D01*
X199992075Y-85932075D01*
X199895901Y-86057411D01*
X199857226Y-86150779D01*
X199053453Y-85347006D01*
X199011455Y-85399670D01*
X198884058Y-85620328D01*
X198790973Y-85857505D01*
X198790968Y-85857522D01*
X198734273Y-86105920D01*
X198715233Y-86359995D01*
X198715233Y-86360004D01*
X187125268Y-86360004D01*
X187125268Y-86360000D01*
X187106222Y-86105843D01*
X187049508Y-85857363D01*
X186956393Y-85620112D01*
X186828959Y-85399388D01*
X186670050Y-85200123D01*
X186483217Y-85026768D01*
X186272634Y-84883195D01*
X186272630Y-84883193D01*
X186272627Y-84883191D01*
X186272626Y-84883190D01*
X186043006Y-84772612D01*
X186043008Y-84772612D01*
X185799466Y-84697489D01*
X185799462Y-84697488D01*
X185799458Y-84697487D01*
X185678231Y-84679214D01*
X185547440Y-84659500D01*
X185547435Y-84659500D01*
X185292565Y-84659500D01*
X185292559Y-84659500D01*
X185135609Y-84683157D01*
X185040542Y-84697487D01*
X185040538Y-84697488D01*
X185040539Y-84697488D01*
X185040533Y-84697489D01*
X184796992Y-84772612D01*
X184567373Y-84883190D01*
X184567372Y-84883191D01*
X184356782Y-85026768D01*
X184169952Y-85200121D01*
X184169950Y-85200123D01*
X184011041Y-85399388D01*
X183883608Y-85620109D01*
X183790492Y-85857362D01*
X183790490Y-85857369D01*
X183733777Y-86105845D01*
X183714732Y-86359995D01*
X183714732Y-86360004D01*
X177065549Y-86360004D01*
X177065549Y-86360000D01*
X177053811Y-86203369D01*
X177045383Y-86090898D01*
X177004894Y-85913504D01*
X176985334Y-85827805D01*
X176886743Y-85576602D01*
X176751815Y-85342898D01*
X176583561Y-85131915D01*
X176583560Y-85131914D01*
X176583557Y-85131910D01*
X176385741Y-84948365D01*
X176162775Y-84796349D01*
X176162769Y-84796346D01*
X176162768Y-84796345D01*
X176162767Y-84796344D01*
X175919643Y-84679263D01*
X175919645Y-84679263D01*
X175661773Y-84599720D01*
X175661767Y-84599718D01*
X175394936Y-84559500D01*
X175394929Y-84559500D01*
X175125071Y-84559500D01*
X175125063Y-84559500D01*
X174858232Y-84599718D01*
X174858226Y-84599720D01*
X174600358Y-84679262D01*
X174357230Y-84796346D01*
X174134258Y-84948365D01*
X173936442Y-85131910D01*
X173768185Y-85342898D01*
X173633258Y-85576599D01*
X173633256Y-85576603D01*
X173534666Y-85827804D01*
X173534664Y-85827811D01*
X173474616Y-86090898D01*
X173454451Y-86359995D01*
X173454451Y-86360004D01*
X172065549Y-86360004D01*
X172065549Y-86360000D01*
X172053811Y-86203369D01*
X172045383Y-86090898D01*
X172004894Y-85913504D01*
X171985334Y-85827805D01*
X171886743Y-85576602D01*
X171751815Y-85342898D01*
X171583561Y-85131915D01*
X171583560Y-85131914D01*
X171583557Y-85131910D01*
X171385741Y-84948365D01*
X171162775Y-84796349D01*
X171162769Y-84796346D01*
X171162768Y-84796345D01*
X171162767Y-84796344D01*
X170919643Y-84679263D01*
X170919645Y-84679263D01*
X170661773Y-84599720D01*
X170661767Y-84599718D01*
X170394936Y-84559500D01*
X170394929Y-84559500D01*
X170125071Y-84559500D01*
X170125063Y-84559500D01*
X169858232Y-84599718D01*
X169858226Y-84599720D01*
X169600358Y-84679262D01*
X169357230Y-84796346D01*
X169134258Y-84948365D01*
X168936442Y-85131910D01*
X168768185Y-85342898D01*
X168633258Y-85576599D01*
X168633256Y-85576603D01*
X168534666Y-85827804D01*
X168534664Y-85827811D01*
X168474616Y-86090898D01*
X168454451Y-86359995D01*
X168454451Y-86360004D01*
X138624767Y-86360004D01*
X138624767Y-86359995D01*
X138605726Y-86105920D01*
X138549031Y-85857522D01*
X138549026Y-85857505D01*
X138455941Y-85620328D01*
X138455942Y-85620328D01*
X138328544Y-85399671D01*
X138286546Y-85347006D01*
X137482772Y-86150779D01*
X137444099Y-86057412D01*
X137347925Y-85932075D01*
X137222588Y-85835901D01*
X137129220Y-85797227D01*
X137933185Y-84993261D01*
X137772377Y-84883624D01*
X137772376Y-84883623D01*
X137542823Y-84773078D01*
X137542825Y-84773078D01*
X137299347Y-84697975D01*
X137299341Y-84697973D01*
X137047404Y-84660000D01*
X136792595Y-84660000D01*
X136540658Y-84697973D01*
X136540652Y-84697975D01*
X136297175Y-84773078D01*
X136067624Y-84883623D01*
X136067616Y-84883628D01*
X135906813Y-84993261D01*
X136710779Y-85797227D01*
X136617412Y-85835901D01*
X136492075Y-85932075D01*
X136395901Y-86057411D01*
X136357227Y-86150779D01*
X135553453Y-85347006D01*
X135511455Y-85399670D01*
X135384058Y-85620328D01*
X135290973Y-85857505D01*
X135290968Y-85857522D01*
X135234273Y-86105920D01*
X135215233Y-86359995D01*
X135215233Y-86360004D01*
X123625268Y-86360004D01*
X123625268Y-86360000D01*
X123606222Y-86105843D01*
X123549508Y-85857363D01*
X123456393Y-85620112D01*
X123328959Y-85399388D01*
X123170050Y-85200123D01*
X122983217Y-85026768D01*
X122772634Y-84883195D01*
X122772630Y-84883193D01*
X122772627Y-84883191D01*
X122772626Y-84883190D01*
X122543006Y-84772612D01*
X122543008Y-84772612D01*
X122299466Y-84697489D01*
X122299462Y-84697488D01*
X122299458Y-84697487D01*
X122178231Y-84679214D01*
X122047440Y-84659500D01*
X122047435Y-84659500D01*
X121792565Y-84659500D01*
X121792559Y-84659500D01*
X121635609Y-84683157D01*
X121540542Y-84697487D01*
X121540538Y-84697488D01*
X121540539Y-84697488D01*
X121540533Y-84697489D01*
X121296992Y-84772612D01*
X121067373Y-84883190D01*
X121067372Y-84883191D01*
X120856782Y-85026768D01*
X120669952Y-85200121D01*
X120669950Y-85200123D01*
X120511041Y-85399388D01*
X120383608Y-85620109D01*
X120290492Y-85857362D01*
X120290490Y-85857369D01*
X120233777Y-86105845D01*
X120214732Y-86359995D01*
X120214732Y-86360004D01*
X113565549Y-86360004D01*
X113565549Y-86360000D01*
X113553811Y-86203369D01*
X113545383Y-86090898D01*
X113504894Y-85913504D01*
X113485334Y-85827805D01*
X113386743Y-85576602D01*
X113251815Y-85342898D01*
X113083561Y-85131915D01*
X113083560Y-85131914D01*
X113083557Y-85131910D01*
X112885741Y-84948365D01*
X112885741Y-84948364D01*
X112662775Y-84796349D01*
X112662769Y-84796346D01*
X112662768Y-84796345D01*
X112662767Y-84796344D01*
X112419643Y-84679263D01*
X112419645Y-84679263D01*
X112161773Y-84599720D01*
X112161767Y-84599718D01*
X111894936Y-84559500D01*
X111894929Y-84559500D01*
X111625071Y-84559500D01*
X111625063Y-84559500D01*
X111358232Y-84599718D01*
X111358226Y-84599720D01*
X111100358Y-84679262D01*
X110857230Y-84796346D01*
X110634258Y-84948365D01*
X110436442Y-85131910D01*
X110268185Y-85342898D01*
X110133258Y-85576599D01*
X110133256Y-85576603D01*
X110034666Y-85827804D01*
X110034664Y-85827811D01*
X109974616Y-86090898D01*
X109954451Y-86359995D01*
X109954451Y-86360004D01*
X108565549Y-86360004D01*
X108565549Y-86360000D01*
X108553811Y-86203369D01*
X108545383Y-86090898D01*
X108504894Y-85913504D01*
X108485334Y-85827805D01*
X108386743Y-85576602D01*
X108251815Y-85342898D01*
X108083561Y-85131915D01*
X108083560Y-85131914D01*
X108083557Y-85131910D01*
X107885741Y-84948365D01*
X107662775Y-84796349D01*
X107662769Y-84796346D01*
X107662768Y-84796345D01*
X107662767Y-84796344D01*
X107419643Y-84679263D01*
X107419645Y-84679263D01*
X107161773Y-84599720D01*
X107161767Y-84599718D01*
X106894936Y-84559500D01*
X106894929Y-84559500D01*
X106625071Y-84559500D01*
X106625063Y-84559500D01*
X106358232Y-84599718D01*
X106358226Y-84599720D01*
X106100358Y-84679262D01*
X105857230Y-84796346D01*
X105634258Y-84948365D01*
X105436442Y-85131910D01*
X105268185Y-85342898D01*
X105133258Y-85576599D01*
X105133256Y-85576603D01*
X105034666Y-85827804D01*
X105034664Y-85827811D01*
X104974616Y-86090898D01*
X104954451Y-86359995D01*
X104954451Y-86360004D01*
X97825468Y-86360004D01*
X97825468Y-86360000D01*
X97805635Y-86133308D01*
X97746739Y-85913504D01*
X97650568Y-85707266D01*
X97520047Y-85520861D01*
X97520045Y-85520858D01*
X97359141Y-85359954D01*
X97172734Y-85229432D01*
X97172732Y-85229431D01*
X96966497Y-85133261D01*
X96966488Y-85133258D01*
X96746697Y-85074366D01*
X96746693Y-85074365D01*
X96746692Y-85074365D01*
X96746691Y-85074364D01*
X96746686Y-85074364D01*
X96520002Y-85054532D01*
X96519998Y-85054532D01*
X96293313Y-85074364D01*
X96293302Y-85074366D01*
X96073511Y-85133258D01*
X96073502Y-85133261D01*
X95867267Y-85229431D01*
X95867265Y-85229432D01*
X95680858Y-85359954D01*
X95519954Y-85520858D01*
X95389432Y-85707265D01*
X95389431Y-85707267D01*
X95293261Y-85913502D01*
X95293258Y-85913511D01*
X95234366Y-86133302D01*
X95234364Y-86133313D01*
X95214532Y-86359998D01*
X95214532Y-86360001D01*
X63500000Y-86360001D01*
X63500000Y-83314166D01*
X140501868Y-83314166D01*
X140520913Y-83568316D01*
X140520914Y-83568319D01*
X140577628Y-83816799D01*
X140670743Y-84054050D01*
X140798177Y-84274774D01*
X140957086Y-84474039D01*
X141143919Y-84647394D01*
X141354502Y-84790967D01*
X141354507Y-84790969D01*
X141354508Y-84790970D01*
X141354509Y-84790971D01*
X141476464Y-84849700D01*
X141584128Y-84901549D01*
X141584129Y-84901549D01*
X141584132Y-84901551D01*
X141827678Y-84976675D01*
X142079701Y-85014662D01*
X142334571Y-85014662D01*
X142586594Y-84976675D01*
X142830140Y-84901551D01*
X143048594Y-84796349D01*
X143059762Y-84790971D01*
X143059762Y-84790970D01*
X143059770Y-84790967D01*
X143270353Y-84647394D01*
X143457186Y-84474039D01*
X143616095Y-84274774D01*
X143743529Y-84054050D01*
X143836644Y-83816799D01*
X143893358Y-83568319D01*
X143912404Y-83314166D01*
X160821868Y-83314166D01*
X160840913Y-83568316D01*
X160840914Y-83568319D01*
X160897628Y-83816799D01*
X160990743Y-84054050D01*
X161118177Y-84274774D01*
X161277086Y-84474039D01*
X161463919Y-84647394D01*
X161674502Y-84790967D01*
X161674507Y-84790969D01*
X161674508Y-84790970D01*
X161674509Y-84790971D01*
X161796464Y-84849700D01*
X161904128Y-84901549D01*
X161904129Y-84901549D01*
X161904132Y-84901551D01*
X162147678Y-84976675D01*
X162399701Y-85014662D01*
X162654571Y-85014662D01*
X162906594Y-84976675D01*
X163150140Y-84901551D01*
X163368594Y-84796349D01*
X163379762Y-84790971D01*
X163379762Y-84790970D01*
X163379770Y-84790967D01*
X163590353Y-84647394D01*
X163777186Y-84474039D01*
X163936095Y-84274774D01*
X164063529Y-84054050D01*
X164156644Y-83816799D01*
X164213358Y-83568319D01*
X164232404Y-83314162D01*
X164213358Y-83060005D01*
X164156644Y-82811525D01*
X164063529Y-82574274D01*
X163936095Y-82353550D01*
X163777186Y-82154285D01*
X163590353Y-81980930D01*
X163379770Y-81837357D01*
X163379766Y-81837355D01*
X163379763Y-81837353D01*
X163379762Y-81837352D01*
X163150142Y-81726774D01*
X163150144Y-81726774D01*
X162906602Y-81651651D01*
X162906598Y-81651650D01*
X162906594Y-81651649D01*
X162785367Y-81633376D01*
X162654576Y-81613662D01*
X162654571Y-81613662D01*
X162399701Y-81613662D01*
X162399695Y-81613662D01*
X162242745Y-81637319D01*
X162147678Y-81651649D01*
X162147674Y-81651650D01*
X162147675Y-81651650D01*
X162147669Y-81651651D01*
X161904128Y-81726774D01*
X161674509Y-81837352D01*
X161674508Y-81837353D01*
X161463918Y-81980930D01*
X161277088Y-82154283D01*
X161277086Y-82154285D01*
X161118177Y-82353550D01*
X160990744Y-82574271D01*
X160897628Y-82811524D01*
X160897626Y-82811531D01*
X160840913Y-83060007D01*
X160821868Y-83314157D01*
X160821868Y-83314166D01*
X143912404Y-83314166D01*
X143912404Y-83314162D01*
X143893358Y-83060005D01*
X143836644Y-82811525D01*
X143743529Y-82574274D01*
X143616095Y-82353550D01*
X143457186Y-82154285D01*
X143270353Y-81980930D01*
X143059770Y-81837357D01*
X143059766Y-81837355D01*
X143059763Y-81837353D01*
X143059762Y-81837352D01*
X142830142Y-81726774D01*
X142830144Y-81726774D01*
X142586602Y-81651651D01*
X142586598Y-81651650D01*
X142586594Y-81651649D01*
X142465367Y-81633376D01*
X142334576Y-81613662D01*
X142334571Y-81613662D01*
X142079701Y-81613662D01*
X142079695Y-81613662D01*
X141922745Y-81637319D01*
X141827678Y-81651649D01*
X141827674Y-81651650D01*
X141827675Y-81651650D01*
X141827669Y-81651651D01*
X141584128Y-81726774D01*
X141354509Y-81837352D01*
X141354508Y-81837353D01*
X141143918Y-81980930D01*
X140957088Y-82154283D01*
X140957086Y-82154285D01*
X140798177Y-82353550D01*
X140670744Y-82574271D01*
X140577628Y-82811524D01*
X140577626Y-82811531D01*
X140520913Y-83060007D01*
X140501868Y-83314157D01*
X140501868Y-83314166D01*
X63500000Y-83314166D01*
X63500000Y-81360002D01*
X95215034Y-81360002D01*
X95234858Y-81586599D01*
X95234860Y-81586610D01*
X95293730Y-81806317D01*
X95293734Y-81806326D01*
X95389865Y-82012481D01*
X95389866Y-82012483D01*
X95440973Y-82085471D01*
X95440974Y-82085472D01*
X96122046Y-81404399D01*
X96134835Y-81485148D01*
X96192359Y-81598045D01*
X96281955Y-81687641D01*
X96394852Y-81745165D01*
X96475599Y-81757953D01*
X95794526Y-82439025D01*
X95794526Y-82439026D01*
X95867512Y-82490131D01*
X95867516Y-82490133D01*
X96073673Y-82586265D01*
X96073682Y-82586269D01*
X96293389Y-82645139D01*
X96293400Y-82645141D01*
X96519998Y-82664966D01*
X96520002Y-82664966D01*
X96746599Y-82645141D01*
X96746610Y-82645139D01*
X96966317Y-82586269D01*
X96966331Y-82586264D01*
X97172478Y-82490136D01*
X97245472Y-82439025D01*
X96564401Y-81757953D01*
X96645148Y-81745165D01*
X96758045Y-81687641D01*
X96847641Y-81598045D01*
X96905165Y-81485148D01*
X96917953Y-81404399D01*
X97599025Y-82085472D01*
X97650136Y-82012478D01*
X97746264Y-81806331D01*
X97746269Y-81806317D01*
X97805139Y-81586610D01*
X97805141Y-81586599D01*
X97824966Y-81360002D01*
X97824966Y-81359997D01*
X97817967Y-81280004D01*
X211654732Y-81280004D01*
X211673777Y-81534154D01*
X211717741Y-81726774D01*
X211730492Y-81782637D01*
X211823607Y-82019888D01*
X211951041Y-82240612D01*
X212109950Y-82439877D01*
X212296783Y-82613232D01*
X212507366Y-82756805D01*
X212507371Y-82756807D01*
X212507372Y-82756808D01*
X212507373Y-82756809D01*
X212620991Y-82811524D01*
X212736992Y-82867387D01*
X212736993Y-82867387D01*
X212736996Y-82867389D01*
X212980542Y-82942513D01*
X213232565Y-82980500D01*
X213487435Y-82980500D01*
X213739458Y-82942513D01*
X213983004Y-82867389D01*
X214212634Y-82756805D01*
X214423217Y-82613232D01*
X214610050Y-82439877D01*
X214768959Y-82240612D01*
X214896393Y-82019888D01*
X214989508Y-81782637D01*
X215046222Y-81534157D01*
X215065268Y-81280004D01*
X219274732Y-81280004D01*
X219293777Y-81534154D01*
X219337741Y-81726774D01*
X219350492Y-81782637D01*
X219443607Y-82019888D01*
X219571041Y-82240612D01*
X219729950Y-82439877D01*
X219916783Y-82613232D01*
X220127366Y-82756805D01*
X220127371Y-82756807D01*
X220127372Y-82756808D01*
X220127373Y-82756809D01*
X220240991Y-82811524D01*
X220356992Y-82867387D01*
X220356993Y-82867387D01*
X220356996Y-82867389D01*
X220600542Y-82942513D01*
X220852565Y-82980500D01*
X221107435Y-82980500D01*
X221359458Y-82942513D01*
X221603004Y-82867389D01*
X221832634Y-82756805D01*
X222043217Y-82613232D01*
X222230050Y-82439877D01*
X222388959Y-82240612D01*
X222516393Y-82019888D01*
X222609508Y-81782637D01*
X222666222Y-81534157D01*
X222685268Y-81280000D01*
X222666222Y-81025843D01*
X222609508Y-80777363D01*
X222516393Y-80540112D01*
X222388959Y-80319388D01*
X222230050Y-80120123D01*
X222043217Y-79946768D01*
X221832634Y-79803195D01*
X221832630Y-79803193D01*
X221832627Y-79803191D01*
X221832626Y-79803190D01*
X221603006Y-79692612D01*
X221603008Y-79692612D01*
X221359466Y-79617489D01*
X221359462Y-79617488D01*
X221359458Y-79617487D01*
X221238231Y-79599214D01*
X221107440Y-79579500D01*
X221107435Y-79579500D01*
X220852565Y-79579500D01*
X220852559Y-79579500D01*
X220695609Y-79603157D01*
X220600542Y-79617487D01*
X220600538Y-79617488D01*
X220600539Y-79617488D01*
X220600533Y-79617489D01*
X220356992Y-79692612D01*
X220127373Y-79803190D01*
X220127372Y-79803191D01*
X219916782Y-79946768D01*
X219729952Y-80120121D01*
X219729950Y-80120123D01*
X219571041Y-80319388D01*
X219443608Y-80540109D01*
X219350492Y-80777362D01*
X219350490Y-80777369D01*
X219293777Y-81025845D01*
X219274732Y-81279995D01*
X219274732Y-81280004D01*
X215065268Y-81280004D01*
X215065268Y-81280000D01*
X215046222Y-81025843D01*
X214989508Y-80777363D01*
X214896393Y-80540112D01*
X214768959Y-80319388D01*
X214610050Y-80120123D01*
X214423217Y-79946768D01*
X214212634Y-79803195D01*
X214212630Y-79803193D01*
X214212627Y-79803191D01*
X214212626Y-79803190D01*
X213983006Y-79692612D01*
X213983008Y-79692612D01*
X213739466Y-79617489D01*
X213739462Y-79617488D01*
X213739458Y-79617487D01*
X213618231Y-79599214D01*
X213487440Y-79579500D01*
X213487435Y-79579500D01*
X213232565Y-79579500D01*
X213232559Y-79579500D01*
X213075609Y-79603157D01*
X212980542Y-79617487D01*
X212980538Y-79617488D01*
X212980539Y-79617488D01*
X212980533Y-79617489D01*
X212736992Y-79692612D01*
X212507373Y-79803190D01*
X212507372Y-79803191D01*
X212296782Y-79946768D01*
X212109952Y-80120121D01*
X212109950Y-80120123D01*
X211951041Y-80319388D01*
X211823608Y-80540109D01*
X211730492Y-80777362D01*
X211730490Y-80777369D01*
X211673777Y-81025845D01*
X211654732Y-81279995D01*
X211654732Y-81280004D01*
X97817967Y-81280004D01*
X97805141Y-81133400D01*
X97805139Y-81133389D01*
X97746269Y-80913682D01*
X97746265Y-80913673D01*
X97650133Y-80707516D01*
X97650131Y-80707512D01*
X97599026Y-80634526D01*
X97599025Y-80634526D01*
X96917953Y-81315597D01*
X96905165Y-81234852D01*
X96847641Y-81121955D01*
X96758045Y-81032359D01*
X96645148Y-80974835D01*
X96564400Y-80962046D01*
X97245472Y-80280974D01*
X97245471Y-80280973D01*
X97172483Y-80229866D01*
X97172481Y-80229865D01*
X96966326Y-80133734D01*
X96966317Y-80133730D01*
X96746610Y-80074860D01*
X96746599Y-80074858D01*
X96520002Y-80055034D01*
X96519998Y-80055034D01*
X96293400Y-80074858D01*
X96293389Y-80074860D01*
X96073682Y-80133730D01*
X96073673Y-80133734D01*
X95867513Y-80229868D01*
X95794527Y-80280972D01*
X95794526Y-80280973D01*
X96475600Y-80962046D01*
X96394852Y-80974835D01*
X96281955Y-81032359D01*
X96192359Y-81121955D01*
X96134835Y-81234852D01*
X96122046Y-81315599D01*
X95440973Y-80634526D01*
X95440972Y-80634527D01*
X95389868Y-80707513D01*
X95293734Y-80913673D01*
X95293730Y-80913682D01*
X95234860Y-81133389D01*
X95234858Y-81133400D01*
X95215034Y-81359997D01*
X95215034Y-81360002D01*
X63500000Y-81360002D01*
X63500000Y-76200002D01*
X95215034Y-76200002D01*
X95234858Y-76426599D01*
X95234860Y-76426610D01*
X95293730Y-76646317D01*
X95293734Y-76646326D01*
X95389865Y-76852481D01*
X95389866Y-76852483D01*
X95440973Y-76925471D01*
X95440974Y-76925472D01*
X96122046Y-76244399D01*
X96134835Y-76325148D01*
X96192359Y-76438045D01*
X96281955Y-76527641D01*
X96394852Y-76585165D01*
X96475599Y-76597953D01*
X95794526Y-77279025D01*
X95794526Y-77279026D01*
X95867512Y-77330131D01*
X95867516Y-77330133D01*
X96073673Y-77426265D01*
X96073682Y-77426269D01*
X96293389Y-77485139D01*
X96293400Y-77485141D01*
X96519998Y-77504966D01*
X96520002Y-77504966D01*
X96746599Y-77485141D01*
X96746610Y-77485139D01*
X96966317Y-77426269D01*
X96966331Y-77426264D01*
X97172478Y-77330136D01*
X97245472Y-77279025D01*
X96564401Y-76597953D01*
X96645148Y-76585165D01*
X96758045Y-76527641D01*
X96847641Y-76438045D01*
X96905165Y-76325148D01*
X96917953Y-76244400D01*
X97599025Y-76925472D01*
X97650136Y-76852478D01*
X97746264Y-76646331D01*
X97746269Y-76646317D01*
X97805139Y-76426610D01*
X97805141Y-76426599D01*
X97824966Y-76200002D01*
X97824966Y-76199997D01*
X97805141Y-75973400D01*
X97805139Y-75973389D01*
X97746269Y-75753682D01*
X97746265Y-75753673D01*
X97650133Y-75547516D01*
X97650131Y-75547512D01*
X97599026Y-75474526D01*
X97599025Y-75474526D01*
X96917953Y-76155598D01*
X96905165Y-76074852D01*
X96847641Y-75961955D01*
X96758045Y-75872359D01*
X96645148Y-75814835D01*
X96564400Y-75802046D01*
X97245472Y-75120974D01*
X97245471Y-75120973D01*
X97172483Y-75069866D01*
X97172481Y-75069865D01*
X96966326Y-74973734D01*
X96966317Y-74973730D01*
X96746610Y-74914860D01*
X96746599Y-74914858D01*
X96520002Y-74895034D01*
X96519998Y-74895034D01*
X96293400Y-74914858D01*
X96293389Y-74914860D01*
X96073682Y-74973730D01*
X96073673Y-74973734D01*
X95867513Y-75069868D01*
X95794527Y-75120972D01*
X95794526Y-75120973D01*
X96475600Y-75802046D01*
X96394852Y-75814835D01*
X96281955Y-75872359D01*
X96192359Y-75961955D01*
X96134835Y-76074852D01*
X96122046Y-76155599D01*
X95440973Y-75474526D01*
X95440972Y-75474527D01*
X95389868Y-75547513D01*
X95293734Y-75753673D01*
X95293730Y-75753682D01*
X95234860Y-75973389D01*
X95234858Y-75973400D01*
X95215034Y-76199997D01*
X95215034Y-76200002D01*
X63500000Y-76200002D01*
X63500000Y-73660004D01*
X140534732Y-73660004D01*
X140553777Y-73914154D01*
X140553778Y-73914157D01*
X140610492Y-74162637D01*
X140703607Y-74399888D01*
X140831041Y-74620612D01*
X140989950Y-74819877D01*
X141176783Y-74993232D01*
X141387366Y-75136805D01*
X141387371Y-75136807D01*
X141387372Y-75136808D01*
X141387373Y-75136809D01*
X141509328Y-75195538D01*
X141616992Y-75247387D01*
X141616993Y-75247387D01*
X141616996Y-75247389D01*
X141860542Y-75322513D01*
X142112565Y-75360500D01*
X142367435Y-75360500D01*
X142619458Y-75322513D01*
X142863004Y-75247389D01*
X143092634Y-75136805D01*
X143303217Y-74993232D01*
X143490050Y-74819877D01*
X143648959Y-74620612D01*
X143776393Y-74399888D01*
X143869508Y-74162637D01*
X143926222Y-73914157D01*
X143945268Y-73660004D01*
X160854732Y-73660004D01*
X160873777Y-73914154D01*
X160873778Y-73914157D01*
X160930492Y-74162637D01*
X161023607Y-74399888D01*
X161151041Y-74620612D01*
X161309950Y-74819877D01*
X161496783Y-74993232D01*
X161707366Y-75136805D01*
X161707371Y-75136807D01*
X161707372Y-75136808D01*
X161707373Y-75136809D01*
X161829328Y-75195538D01*
X161936992Y-75247387D01*
X161936993Y-75247387D01*
X161936996Y-75247389D01*
X162180542Y-75322513D01*
X162432565Y-75360500D01*
X162687435Y-75360500D01*
X162939458Y-75322513D01*
X163183004Y-75247389D01*
X163412634Y-75136805D01*
X163623217Y-74993232D01*
X163810050Y-74819877D01*
X163968959Y-74620612D01*
X164096393Y-74399888D01*
X164189508Y-74162637D01*
X164246222Y-73914157D01*
X164265268Y-73660000D01*
X164246222Y-73405843D01*
X164189508Y-73157363D01*
X164096393Y-72920112D01*
X163968959Y-72699388D01*
X163810050Y-72500123D01*
X163623217Y-72326768D01*
X163412634Y-72183195D01*
X163412630Y-72183193D01*
X163412627Y-72183191D01*
X163412626Y-72183190D01*
X163183006Y-72072612D01*
X163183008Y-72072612D01*
X162939466Y-71997489D01*
X162939462Y-71997488D01*
X162939458Y-71997487D01*
X162818231Y-71979214D01*
X162687440Y-71959500D01*
X162687435Y-71959500D01*
X162432565Y-71959500D01*
X162432559Y-71959500D01*
X162275609Y-71983157D01*
X162180542Y-71997487D01*
X162180538Y-71997488D01*
X162180539Y-71997488D01*
X162180533Y-71997489D01*
X161936992Y-72072612D01*
X161707373Y-72183190D01*
X161707372Y-72183191D01*
X161496782Y-72326768D01*
X161309952Y-72500121D01*
X161309950Y-72500123D01*
X161151041Y-72699388D01*
X161023608Y-72920109D01*
X160930492Y-73157362D01*
X160930490Y-73157369D01*
X160873777Y-73405845D01*
X160854732Y-73659995D01*
X160854732Y-73660004D01*
X143945268Y-73660004D01*
X143945268Y-73660000D01*
X143926222Y-73405843D01*
X143869508Y-73157363D01*
X143776393Y-72920112D01*
X143648959Y-72699388D01*
X143490050Y-72500123D01*
X143303217Y-72326768D01*
X143092634Y-72183195D01*
X143092630Y-72183193D01*
X143092627Y-72183191D01*
X143092626Y-72183190D01*
X142863006Y-72072612D01*
X142863008Y-72072612D01*
X142619466Y-71997489D01*
X142619462Y-71997488D01*
X142619458Y-71997487D01*
X142498231Y-71979214D01*
X142367440Y-71959500D01*
X142367435Y-71959500D01*
X142112565Y-71959500D01*
X142112559Y-71959500D01*
X141955609Y-71983157D01*
X141860542Y-71997487D01*
X141860538Y-71997488D01*
X141860539Y-71997488D01*
X141860533Y-71997489D01*
X141616992Y-72072612D01*
X141387373Y-72183190D01*
X141387372Y-72183191D01*
X141176782Y-72326768D01*
X140989952Y-72500121D01*
X140989950Y-72500123D01*
X140831041Y-72699388D01*
X140703608Y-72920109D01*
X140610492Y-73157362D01*
X140610490Y-73157369D01*
X140553777Y-73405845D01*
X140534732Y-73659995D01*
X140534732Y-73660004D01*
X63500000Y-73660004D01*
X63500000Y-71200001D01*
X95214532Y-71200001D01*
X95234364Y-71426686D01*
X95234366Y-71426697D01*
X95293258Y-71646488D01*
X95293261Y-71646497D01*
X95389431Y-71852732D01*
X95389432Y-71852734D01*
X95519954Y-72039141D01*
X95680858Y-72200045D01*
X95680861Y-72200047D01*
X95867266Y-72330568D01*
X96073504Y-72426739D01*
X96293308Y-72485635D01*
X96455230Y-72499801D01*
X96519998Y-72505468D01*
X96520000Y-72505468D01*
X96520002Y-72505468D01*
X96576672Y-72500509D01*
X96746692Y-72485635D01*
X96966496Y-72426739D01*
X97172734Y-72330568D01*
X97359139Y-72200047D01*
X97520047Y-72039139D01*
X97650568Y-71852734D01*
X97746739Y-71646496D01*
X97805635Y-71426692D01*
X97825468Y-71200000D01*
X97818469Y-71120004D01*
X104954451Y-71120004D01*
X104974616Y-71389101D01*
X105034664Y-71652188D01*
X105034666Y-71652195D01*
X105113372Y-71852734D01*
X105133257Y-71903398D01*
X105268185Y-72137102D01*
X105404080Y-72307509D01*
X105436442Y-72348089D01*
X105600295Y-72500121D01*
X105634259Y-72531635D01*
X105857226Y-72683651D01*
X106100359Y-72800738D01*
X106358228Y-72880280D01*
X106358229Y-72880280D01*
X106358232Y-72880281D01*
X106625063Y-72920499D01*
X106625068Y-72920499D01*
X106625071Y-72920500D01*
X106625072Y-72920500D01*
X106894928Y-72920500D01*
X106894929Y-72920500D01*
X106894936Y-72920499D01*
X107161767Y-72880281D01*
X107161768Y-72880280D01*
X107161772Y-72880280D01*
X107419641Y-72800738D01*
X107662775Y-72683651D01*
X107885741Y-72531635D01*
X108074163Y-72356805D01*
X108083557Y-72348089D01*
X108083557Y-72348087D01*
X108083561Y-72348085D01*
X108251815Y-72137102D01*
X108386743Y-71903398D01*
X108485334Y-71652195D01*
X108545383Y-71389103D01*
X108564488Y-71134157D01*
X108565549Y-71120004D01*
X109954451Y-71120004D01*
X109974616Y-71389101D01*
X110034664Y-71652188D01*
X110034666Y-71652195D01*
X110113372Y-71852734D01*
X110133257Y-71903398D01*
X110268185Y-72137102D01*
X110404080Y-72307509D01*
X110436442Y-72348089D01*
X110600295Y-72500121D01*
X110634259Y-72531635D01*
X110857226Y-72683651D01*
X111100359Y-72800738D01*
X111358228Y-72880280D01*
X111358229Y-72880280D01*
X111358232Y-72880281D01*
X111625063Y-72920499D01*
X111625068Y-72920499D01*
X111625071Y-72920500D01*
X111625072Y-72920500D01*
X111894928Y-72920500D01*
X111894929Y-72920500D01*
X111894936Y-72920499D01*
X112161767Y-72880281D01*
X112161768Y-72880280D01*
X112161772Y-72880280D01*
X112419641Y-72800738D01*
X112662775Y-72683651D01*
X112885741Y-72531635D01*
X113074163Y-72356805D01*
X113083557Y-72348089D01*
X113083557Y-72348087D01*
X113083561Y-72348085D01*
X113251815Y-72137102D01*
X113386743Y-71903398D01*
X113485334Y-71652195D01*
X113545383Y-71389103D01*
X113564488Y-71134157D01*
X113565549Y-71120004D01*
X113565549Y-71119995D01*
X113547564Y-70880004D01*
X120454732Y-70880004D01*
X120473777Y-71134154D01*
X120496464Y-71233553D01*
X120530492Y-71382637D01*
X120623607Y-71619888D01*
X120751041Y-71840612D01*
X120909950Y-72039877D01*
X121096783Y-72213232D01*
X121307366Y-72356805D01*
X121307371Y-72356807D01*
X121307372Y-72356808D01*
X121307373Y-72356809D01*
X121429328Y-72415538D01*
X121536992Y-72467387D01*
X121536993Y-72467387D01*
X121536996Y-72467389D01*
X121780542Y-72542513D01*
X122032565Y-72580500D01*
X122287435Y-72580500D01*
X122539458Y-72542513D01*
X122783004Y-72467389D01*
X123012634Y-72356805D01*
X123223217Y-72213232D01*
X123410050Y-72039877D01*
X123568959Y-71840612D01*
X123696393Y-71619888D01*
X123789508Y-71382637D01*
X123846222Y-71134157D01*
X123865268Y-70880004D01*
X135455233Y-70880004D01*
X135474273Y-71134079D01*
X135530968Y-71382477D01*
X135530973Y-71382494D01*
X135624058Y-71619671D01*
X135624057Y-71619671D01*
X135751457Y-71840332D01*
X135793452Y-71892993D01*
X136597226Y-71089218D01*
X136635901Y-71182588D01*
X136732075Y-71307925D01*
X136857412Y-71404099D01*
X136950779Y-71442772D01*
X136146813Y-72246737D01*
X136307623Y-72356375D01*
X136307624Y-72356376D01*
X136537176Y-72466921D01*
X136537174Y-72466921D01*
X136780652Y-72542024D01*
X136780658Y-72542026D01*
X137032595Y-72579999D01*
X137032604Y-72580000D01*
X137287396Y-72580000D01*
X137287404Y-72579999D01*
X137539341Y-72542026D01*
X137539347Y-72542024D01*
X137782824Y-72466921D01*
X138012381Y-72356373D01*
X138173185Y-72246737D01*
X137369220Y-71442772D01*
X137462588Y-71404099D01*
X137587925Y-71307925D01*
X137684099Y-71182589D01*
X137722773Y-71089220D01*
X138526545Y-71892993D01*
X138568545Y-71840327D01*
X138695941Y-71619671D01*
X138789026Y-71382494D01*
X138789031Y-71382477D01*
X138845726Y-71134079D01*
X138846781Y-71120004D01*
X168454451Y-71120004D01*
X168474616Y-71389101D01*
X168534664Y-71652188D01*
X168534666Y-71652195D01*
X168613372Y-71852734D01*
X168633257Y-71903398D01*
X168768185Y-72137102D01*
X168904080Y-72307509D01*
X168936442Y-72348089D01*
X169100295Y-72500121D01*
X169134259Y-72531635D01*
X169357226Y-72683651D01*
X169600359Y-72800738D01*
X169858228Y-72880280D01*
X169858229Y-72880280D01*
X169858232Y-72880281D01*
X170125063Y-72920499D01*
X170125068Y-72920499D01*
X170125071Y-72920500D01*
X170125072Y-72920500D01*
X170394928Y-72920500D01*
X170394929Y-72920500D01*
X170394936Y-72920499D01*
X170661767Y-72880281D01*
X170661768Y-72880280D01*
X170661772Y-72880280D01*
X170919641Y-72800738D01*
X171162775Y-72683651D01*
X171385741Y-72531635D01*
X171574163Y-72356805D01*
X171583557Y-72348089D01*
X171583557Y-72348087D01*
X171583561Y-72348085D01*
X171751815Y-72137102D01*
X171886743Y-71903398D01*
X171985334Y-71652195D01*
X172045383Y-71389103D01*
X172064488Y-71134157D01*
X172065549Y-71120004D01*
X173454451Y-71120004D01*
X173474616Y-71389101D01*
X173534664Y-71652188D01*
X173534666Y-71652195D01*
X173613372Y-71852734D01*
X173633257Y-71903398D01*
X173768185Y-72137102D01*
X173904080Y-72307509D01*
X173936442Y-72348089D01*
X174100295Y-72500121D01*
X174134259Y-72531635D01*
X174357226Y-72683651D01*
X174600359Y-72800738D01*
X174858228Y-72880280D01*
X174858229Y-72880280D01*
X174858232Y-72880281D01*
X175125063Y-72920499D01*
X175125068Y-72920499D01*
X175125071Y-72920500D01*
X175125072Y-72920500D01*
X175394928Y-72920500D01*
X175394929Y-72920500D01*
X175394936Y-72920499D01*
X175661767Y-72880281D01*
X175661768Y-72880280D01*
X175661772Y-72880280D01*
X175919641Y-72800738D01*
X176162775Y-72683651D01*
X176385741Y-72531635D01*
X176574163Y-72356805D01*
X176583557Y-72348089D01*
X176583557Y-72348087D01*
X176583561Y-72348085D01*
X176751815Y-72137102D01*
X176886743Y-71903398D01*
X176985334Y-71652195D01*
X177045383Y-71389103D01*
X177064488Y-71134157D01*
X177065549Y-71120004D01*
X177065549Y-71119995D01*
X177047564Y-70880004D01*
X183954732Y-70880004D01*
X183973777Y-71134154D01*
X183996464Y-71233553D01*
X184030492Y-71382637D01*
X184123607Y-71619888D01*
X184251041Y-71840612D01*
X184409950Y-72039877D01*
X184596783Y-72213232D01*
X184807366Y-72356805D01*
X184807371Y-72356807D01*
X184807372Y-72356808D01*
X184807373Y-72356809D01*
X184929328Y-72415538D01*
X185036992Y-72467387D01*
X185036993Y-72467387D01*
X185036996Y-72467389D01*
X185280542Y-72542513D01*
X185532565Y-72580500D01*
X185787435Y-72580500D01*
X186039458Y-72542513D01*
X186283004Y-72467389D01*
X186512634Y-72356805D01*
X186723217Y-72213232D01*
X186910050Y-72039877D01*
X187068959Y-71840612D01*
X187196393Y-71619888D01*
X187289508Y-71382637D01*
X187346222Y-71134157D01*
X187365268Y-70880004D01*
X198955233Y-70880004D01*
X198974273Y-71134079D01*
X199030968Y-71382477D01*
X199030973Y-71382494D01*
X199124058Y-71619671D01*
X199124057Y-71619671D01*
X199251457Y-71840332D01*
X199293452Y-71892993D01*
X199293453Y-71892993D01*
X200097226Y-71089219D01*
X200135901Y-71182588D01*
X200232075Y-71307925D01*
X200357412Y-71404099D01*
X200450779Y-71442772D01*
X199646813Y-72246737D01*
X199807623Y-72356375D01*
X199807624Y-72356376D01*
X200037176Y-72466921D01*
X200037174Y-72466921D01*
X200280652Y-72542024D01*
X200280658Y-72542026D01*
X200532595Y-72579999D01*
X200532604Y-72580000D01*
X200787396Y-72580000D01*
X200787404Y-72579999D01*
X201039341Y-72542026D01*
X201039347Y-72542024D01*
X201282824Y-72466921D01*
X201512381Y-72356373D01*
X201673185Y-72246737D01*
X200869220Y-71442772D01*
X200962588Y-71404099D01*
X201087925Y-71307925D01*
X201184099Y-71182589D01*
X201222773Y-71089220D01*
X202026545Y-71892993D01*
X202068545Y-71840327D01*
X202195941Y-71619671D01*
X202289026Y-71382494D01*
X202289031Y-71382477D01*
X202345726Y-71134079D01*
X202364767Y-70880004D01*
X202364767Y-70879995D01*
X202345726Y-70625920D01*
X202289031Y-70377522D01*
X202289026Y-70377505D01*
X202195941Y-70140328D01*
X202195942Y-70140328D01*
X202068544Y-69919671D01*
X202026546Y-69867006D01*
X201222772Y-70670778D01*
X201184099Y-70577412D01*
X201087925Y-70452075D01*
X200962588Y-70355901D01*
X200869220Y-70317227D01*
X201673185Y-69513261D01*
X201512377Y-69403624D01*
X201512376Y-69403623D01*
X201282823Y-69293078D01*
X201282825Y-69293078D01*
X201039347Y-69217975D01*
X201039341Y-69217973D01*
X200787404Y-69180000D01*
X200532595Y-69180000D01*
X200280658Y-69217973D01*
X200280652Y-69217975D01*
X200037175Y-69293078D01*
X199807624Y-69403623D01*
X199807616Y-69403628D01*
X199646813Y-69513261D01*
X200450779Y-70317227D01*
X200357412Y-70355901D01*
X200232075Y-70452075D01*
X200135901Y-70577411D01*
X200097226Y-70670779D01*
X199293453Y-69867006D01*
X199251455Y-69919670D01*
X199124058Y-70140328D01*
X199030973Y-70377505D01*
X199030968Y-70377522D01*
X198974273Y-70625920D01*
X198955233Y-70879995D01*
X198955233Y-70880004D01*
X187365268Y-70880004D01*
X187365268Y-70880000D01*
X187346222Y-70625843D01*
X187289508Y-70377363D01*
X187196393Y-70140112D01*
X187068959Y-69919388D01*
X186910050Y-69720123D01*
X186723217Y-69546768D01*
X186512634Y-69403195D01*
X186512630Y-69403193D01*
X186512627Y-69403191D01*
X186512626Y-69403190D01*
X186283006Y-69292612D01*
X186283008Y-69292612D01*
X186039466Y-69217489D01*
X186039462Y-69217488D01*
X186039458Y-69217487D01*
X185918231Y-69199214D01*
X185787440Y-69179500D01*
X185787435Y-69179500D01*
X185532565Y-69179500D01*
X185532559Y-69179500D01*
X185375609Y-69203157D01*
X185280542Y-69217487D01*
X185280538Y-69217488D01*
X185280539Y-69217488D01*
X185280533Y-69217489D01*
X185036992Y-69292612D01*
X184807373Y-69403190D01*
X184807372Y-69403191D01*
X184596782Y-69546768D01*
X184409952Y-69720121D01*
X184409950Y-69720123D01*
X184251041Y-69919388D01*
X184123608Y-70140109D01*
X184030492Y-70377362D01*
X184030490Y-70377369D01*
X183973777Y-70625845D01*
X183954732Y-70879995D01*
X183954732Y-70880004D01*
X177047564Y-70880004D01*
X177045383Y-70850898D01*
X177023155Y-70753511D01*
X176985334Y-70587805D01*
X176886743Y-70336602D01*
X176751815Y-70102898D01*
X176583561Y-69891915D01*
X176583560Y-69891914D01*
X176583557Y-69891910D01*
X176385741Y-69708365D01*
X176162775Y-69556349D01*
X176162769Y-69556346D01*
X176162768Y-69556345D01*
X176162767Y-69556344D01*
X175919643Y-69439263D01*
X175919645Y-69439263D01*
X175661773Y-69359720D01*
X175661767Y-69359718D01*
X175394936Y-69319500D01*
X175394929Y-69319500D01*
X175125071Y-69319500D01*
X175125063Y-69319500D01*
X174858232Y-69359718D01*
X174858226Y-69359720D01*
X174600358Y-69439262D01*
X174357230Y-69556346D01*
X174134258Y-69708365D01*
X173936442Y-69891910D01*
X173768185Y-70102898D01*
X173633258Y-70336599D01*
X173633256Y-70336603D01*
X173534666Y-70587804D01*
X173534664Y-70587811D01*
X173474616Y-70850898D01*
X173454451Y-71119995D01*
X173454451Y-71120004D01*
X172065549Y-71120004D01*
X172065549Y-71119995D01*
X172045383Y-70850898D01*
X172023155Y-70753511D01*
X171985334Y-70587805D01*
X171886743Y-70336602D01*
X171751815Y-70102898D01*
X171583561Y-69891915D01*
X171583560Y-69891914D01*
X171583557Y-69891910D01*
X171385741Y-69708365D01*
X171162775Y-69556349D01*
X171162769Y-69556346D01*
X171162768Y-69556345D01*
X171162767Y-69556344D01*
X170919643Y-69439263D01*
X170919645Y-69439263D01*
X170661773Y-69359720D01*
X170661767Y-69359718D01*
X170394936Y-69319500D01*
X170394929Y-69319500D01*
X170125071Y-69319500D01*
X170125063Y-69319500D01*
X169858232Y-69359718D01*
X169858226Y-69359720D01*
X169600358Y-69439262D01*
X169357230Y-69556346D01*
X169134258Y-69708365D01*
X168936442Y-69891910D01*
X168768185Y-70102898D01*
X168633258Y-70336599D01*
X168633256Y-70336603D01*
X168534666Y-70587804D01*
X168534664Y-70587811D01*
X168474616Y-70850898D01*
X168454451Y-71119995D01*
X168454451Y-71120004D01*
X138846781Y-71120004D01*
X138864767Y-70880004D01*
X138864767Y-70879995D01*
X138845726Y-70625920D01*
X138789031Y-70377522D01*
X138789026Y-70377505D01*
X138695941Y-70140328D01*
X138695942Y-70140328D01*
X138568544Y-69919671D01*
X138526546Y-69867006D01*
X137722772Y-70670779D01*
X137684099Y-70577412D01*
X137587925Y-70452075D01*
X137462588Y-70355901D01*
X137369220Y-70317227D01*
X138173185Y-69513261D01*
X138012377Y-69403624D01*
X138012376Y-69403623D01*
X137782823Y-69293078D01*
X137782825Y-69293078D01*
X137539347Y-69217975D01*
X137539341Y-69217973D01*
X137287404Y-69180000D01*
X137032595Y-69180000D01*
X136780658Y-69217973D01*
X136780652Y-69217975D01*
X136537175Y-69293078D01*
X136307624Y-69403623D01*
X136307616Y-69403628D01*
X136146813Y-69513261D01*
X136950779Y-70317227D01*
X136857412Y-70355901D01*
X136732075Y-70452075D01*
X136635901Y-70577411D01*
X136597226Y-70670779D01*
X135793453Y-69867006D01*
X135751455Y-69919670D01*
X135624058Y-70140328D01*
X135530973Y-70377505D01*
X135530968Y-70377522D01*
X135474273Y-70625920D01*
X135455233Y-70879995D01*
X135455233Y-70880004D01*
X123865268Y-70880004D01*
X123865268Y-70880000D01*
X123846222Y-70625843D01*
X123789508Y-70377363D01*
X123696393Y-70140112D01*
X123568959Y-69919388D01*
X123410050Y-69720123D01*
X123223217Y-69546768D01*
X123012634Y-69403195D01*
X123012630Y-69403193D01*
X123012627Y-69403191D01*
X123012626Y-69403190D01*
X122783006Y-69292612D01*
X122783008Y-69292612D01*
X122539466Y-69217489D01*
X122539462Y-69217488D01*
X122539458Y-69217487D01*
X122418231Y-69199214D01*
X122287440Y-69179500D01*
X122287435Y-69179500D01*
X122032565Y-69179500D01*
X122032559Y-69179500D01*
X121875609Y-69203157D01*
X121780542Y-69217487D01*
X121780538Y-69217488D01*
X121780539Y-69217488D01*
X121780533Y-69217489D01*
X121536992Y-69292612D01*
X121307373Y-69403190D01*
X121307372Y-69403191D01*
X121096782Y-69546768D01*
X120909952Y-69720121D01*
X120909950Y-69720123D01*
X120751041Y-69919388D01*
X120623608Y-70140109D01*
X120530492Y-70377362D01*
X120530490Y-70377369D01*
X120473777Y-70625845D01*
X120454732Y-70879995D01*
X120454732Y-70880004D01*
X113547564Y-70880004D01*
X113545383Y-70850898D01*
X113523155Y-70753511D01*
X113485334Y-70587805D01*
X113386743Y-70336602D01*
X113251815Y-70102898D01*
X113083561Y-69891915D01*
X113083560Y-69891914D01*
X113083557Y-69891910D01*
X112885741Y-69708365D01*
X112885741Y-69708364D01*
X112662775Y-69556349D01*
X112662769Y-69556346D01*
X112662768Y-69556345D01*
X112662767Y-69556344D01*
X112419643Y-69439263D01*
X112419645Y-69439263D01*
X112161773Y-69359720D01*
X112161767Y-69359718D01*
X111894936Y-69319500D01*
X111894929Y-69319500D01*
X111625071Y-69319500D01*
X111625063Y-69319500D01*
X111358232Y-69359718D01*
X111358226Y-69359720D01*
X111100358Y-69439262D01*
X110857230Y-69556346D01*
X110634258Y-69708365D01*
X110436442Y-69891910D01*
X110268185Y-70102898D01*
X110133258Y-70336599D01*
X110133256Y-70336603D01*
X110034666Y-70587804D01*
X110034664Y-70587811D01*
X109974616Y-70850898D01*
X109954451Y-71119995D01*
X109954451Y-71120004D01*
X108565549Y-71120004D01*
X108565549Y-71119995D01*
X108545383Y-70850898D01*
X108523155Y-70753511D01*
X108485334Y-70587805D01*
X108386743Y-70336602D01*
X108251815Y-70102898D01*
X108083561Y-69891915D01*
X108083560Y-69891914D01*
X108083557Y-69891910D01*
X107885741Y-69708365D01*
X107885740Y-69708364D01*
X107662775Y-69556349D01*
X107662769Y-69556346D01*
X107662768Y-69556345D01*
X107662767Y-69556344D01*
X107419643Y-69439263D01*
X107419645Y-69439263D01*
X107161773Y-69359720D01*
X107161767Y-69359718D01*
X106894936Y-69319500D01*
X106894929Y-69319500D01*
X106625071Y-69319500D01*
X106625063Y-69319500D01*
X106358232Y-69359718D01*
X106358226Y-69359720D01*
X106100358Y-69439262D01*
X105857230Y-69556346D01*
X105634258Y-69708365D01*
X105436442Y-69891910D01*
X105268185Y-70102898D01*
X105133258Y-70336599D01*
X105133256Y-70336603D01*
X105034666Y-70587804D01*
X105034664Y-70587811D01*
X104974616Y-70850898D01*
X104954451Y-71119995D01*
X104954451Y-71120004D01*
X97818469Y-71120004D01*
X97805635Y-70973308D01*
X97746739Y-70753504D01*
X97650568Y-70547266D01*
X97520047Y-70360861D01*
X97520045Y-70360858D01*
X97359141Y-70199954D01*
X97172734Y-70069432D01*
X97172732Y-70069431D01*
X96966497Y-69973261D01*
X96966488Y-69973258D01*
X96746697Y-69914366D01*
X96746693Y-69914365D01*
X96746692Y-69914365D01*
X96746691Y-69914364D01*
X96746686Y-69914364D01*
X96520002Y-69894532D01*
X96519998Y-69894532D01*
X96293313Y-69914364D01*
X96293302Y-69914366D01*
X96073511Y-69973258D01*
X96073502Y-69973261D01*
X95867267Y-70069431D01*
X95867265Y-70069432D01*
X95680858Y-70199954D01*
X95519954Y-70360858D01*
X95389432Y-70547265D01*
X95389431Y-70547267D01*
X95293261Y-70753502D01*
X95293258Y-70753511D01*
X95234366Y-70973302D01*
X95234364Y-70973313D01*
X95214532Y-71199998D01*
X95214532Y-71200001D01*
X63500000Y-71200001D01*
X63500000Y-60960001D01*
X120614532Y-60960001D01*
X120634364Y-61186686D01*
X120634366Y-61186697D01*
X120693258Y-61406488D01*
X120693261Y-61406497D01*
X120789431Y-61612732D01*
X120789432Y-61612734D01*
X120919954Y-61799141D01*
X121080858Y-61960045D01*
X121080861Y-61960047D01*
X121267266Y-62090568D01*
X121473504Y-62186739D01*
X121693308Y-62245635D01*
X121855230Y-62259801D01*
X121919998Y-62265468D01*
X121920000Y-62265468D01*
X121920002Y-62265468D01*
X121976673Y-62260509D01*
X122146692Y-62245635D01*
X122366496Y-62186739D01*
X122572734Y-62090568D01*
X122759139Y-61960047D01*
X122920047Y-61799139D01*
X123050568Y-61612734D01*
X123146739Y-61406496D01*
X123205635Y-61186692D01*
X123225468Y-60960001D01*
X128234532Y-60960001D01*
X128254364Y-61186686D01*
X128254366Y-61186697D01*
X128313258Y-61406488D01*
X128313261Y-61406497D01*
X128409431Y-61612732D01*
X128409432Y-61612734D01*
X128539954Y-61799141D01*
X128700858Y-61960045D01*
X128700861Y-61960047D01*
X128887266Y-62090568D01*
X129093504Y-62186739D01*
X129313308Y-62245635D01*
X129475230Y-62259801D01*
X129539998Y-62265468D01*
X129540000Y-62265468D01*
X129540002Y-62265468D01*
X129596673Y-62260509D01*
X129766692Y-62245635D01*
X129986496Y-62186739D01*
X130192734Y-62090568D01*
X130379139Y-61960047D01*
X130540047Y-61799139D01*
X130670568Y-61612734D01*
X130766739Y-61406496D01*
X130825635Y-61186692D01*
X130845468Y-60960000D01*
X130825635Y-60733308D01*
X130766739Y-60513504D01*
X130670568Y-60307266D01*
X130540047Y-60120861D01*
X130540045Y-60120858D01*
X130379141Y-59959954D01*
X130192734Y-59829432D01*
X130192732Y-59829431D01*
X129986497Y-59733261D01*
X129986488Y-59733258D01*
X129766697Y-59674366D01*
X129766693Y-59674365D01*
X129766692Y-59674365D01*
X129766691Y-59674364D01*
X129766686Y-59674364D01*
X129540002Y-59654532D01*
X129539998Y-59654532D01*
X129313313Y-59674364D01*
X129313302Y-59674366D01*
X129093511Y-59733258D01*
X129093502Y-59733261D01*
X128887267Y-59829431D01*
X128887265Y-59829432D01*
X128700858Y-59959954D01*
X128539954Y-60120858D01*
X128409432Y-60307265D01*
X128409431Y-60307267D01*
X128313261Y-60513502D01*
X128313258Y-60513511D01*
X128254366Y-60733302D01*
X128254364Y-60733313D01*
X128234532Y-60959998D01*
X128234532Y-60960001D01*
X123225468Y-60960001D01*
X123225468Y-60960000D01*
X123205635Y-60733308D01*
X123146739Y-60513504D01*
X123050568Y-60307266D01*
X122920047Y-60120861D01*
X122920045Y-60120858D01*
X122759141Y-59959954D01*
X122572734Y-59829432D01*
X122572732Y-59829431D01*
X122366497Y-59733261D01*
X122366488Y-59733258D01*
X122146697Y-59674366D01*
X122146693Y-59674365D01*
X122146692Y-59674365D01*
X122146691Y-59674364D01*
X122146686Y-59674364D01*
X121920002Y-59654532D01*
X121919998Y-59654532D01*
X121693313Y-59674364D01*
X121693302Y-59674366D01*
X121473511Y-59733258D01*
X121473502Y-59733261D01*
X121267267Y-59829431D01*
X121267265Y-59829432D01*
X121080858Y-59959954D01*
X120919954Y-60120858D01*
X120789432Y-60307265D01*
X120789431Y-60307267D01*
X120693261Y-60513502D01*
X120693258Y-60513511D01*
X120634366Y-60733302D01*
X120634364Y-60733313D01*
X120614532Y-60959998D01*
X120614532Y-60960001D01*
X63500000Y-60960001D01*
X63500000Y-58420004D01*
X89734732Y-58420004D01*
X89753777Y-58674154D01*
X89753778Y-58674157D01*
X89810492Y-58922637D01*
X89903607Y-59159888D01*
X90031041Y-59380612D01*
X90189950Y-59579877D01*
X90376783Y-59753232D01*
X90587366Y-59896805D01*
X90587371Y-59896807D01*
X90587372Y-59896808D01*
X90587373Y-59896809D01*
X90709328Y-59955538D01*
X90816992Y-60007387D01*
X90816993Y-60007387D01*
X90816996Y-60007389D01*
X91060542Y-60082513D01*
X91312565Y-60120500D01*
X91567435Y-60120500D01*
X91819458Y-60082513D01*
X92063004Y-60007389D01*
X92292634Y-59896805D01*
X92503217Y-59753232D01*
X92690050Y-59579877D01*
X92848959Y-59380612D01*
X92976393Y-59159888D01*
X93069508Y-58922637D01*
X93126222Y-58674157D01*
X93145268Y-58420004D01*
X110054732Y-58420004D01*
X110073777Y-58674154D01*
X110073778Y-58674157D01*
X110130492Y-58922637D01*
X110223607Y-59159888D01*
X110351041Y-59380612D01*
X110509950Y-59579877D01*
X110696783Y-59753232D01*
X110907366Y-59896805D01*
X110907371Y-59896807D01*
X110907372Y-59896808D01*
X110907373Y-59896809D01*
X111029328Y-59955538D01*
X111136992Y-60007387D01*
X111136993Y-60007387D01*
X111136996Y-60007389D01*
X111380542Y-60082513D01*
X111632565Y-60120500D01*
X111887435Y-60120500D01*
X112139458Y-60082513D01*
X112383004Y-60007389D01*
X112612634Y-59896805D01*
X112823217Y-59753232D01*
X113010050Y-59579877D01*
X113168959Y-59380612D01*
X113296393Y-59159888D01*
X113389508Y-58922637D01*
X113446222Y-58674157D01*
X113465268Y-58420004D01*
X158314732Y-58420004D01*
X158333777Y-58674154D01*
X158333778Y-58674157D01*
X158390492Y-58922637D01*
X158483607Y-59159888D01*
X158611041Y-59380612D01*
X158769950Y-59579877D01*
X158956783Y-59753232D01*
X159167366Y-59896805D01*
X159167371Y-59896807D01*
X159167372Y-59896808D01*
X159167373Y-59896809D01*
X159289328Y-59955538D01*
X159396992Y-60007387D01*
X159396993Y-60007387D01*
X159396996Y-60007389D01*
X159640542Y-60082513D01*
X159892565Y-60120500D01*
X160147435Y-60120500D01*
X160399458Y-60082513D01*
X160643004Y-60007389D01*
X160872634Y-59896805D01*
X161083217Y-59753232D01*
X161270050Y-59579877D01*
X161428959Y-59380612D01*
X161556393Y-59159888D01*
X161649508Y-58922637D01*
X161706222Y-58674157D01*
X161725268Y-58420004D01*
X183714732Y-58420004D01*
X183733777Y-58674154D01*
X183733778Y-58674157D01*
X183790492Y-58922637D01*
X183883607Y-59159888D01*
X184011041Y-59380612D01*
X184169950Y-59579877D01*
X184356783Y-59753232D01*
X184567366Y-59896805D01*
X184567371Y-59896807D01*
X184567372Y-59896808D01*
X184567373Y-59896809D01*
X184689328Y-59955538D01*
X184796992Y-60007387D01*
X184796993Y-60007387D01*
X184796996Y-60007389D01*
X185040542Y-60082513D01*
X185292565Y-60120500D01*
X185547435Y-60120500D01*
X185799458Y-60082513D01*
X186043004Y-60007389D01*
X186272634Y-59896805D01*
X186483217Y-59753232D01*
X186670050Y-59579877D01*
X186828959Y-59380612D01*
X186956393Y-59159888D01*
X187049508Y-58922637D01*
X187106222Y-58674157D01*
X187125268Y-58420000D01*
X187106222Y-58165843D01*
X187049508Y-57917363D01*
X186956393Y-57680112D01*
X186828959Y-57459388D01*
X186670050Y-57260123D01*
X186483217Y-57086768D01*
X186272634Y-56943195D01*
X186272630Y-56943193D01*
X186272627Y-56943191D01*
X186272626Y-56943190D01*
X186043006Y-56832612D01*
X186043008Y-56832612D01*
X185799466Y-56757489D01*
X185799462Y-56757488D01*
X185799458Y-56757487D01*
X185678231Y-56739214D01*
X185547440Y-56719500D01*
X185547435Y-56719500D01*
X185292565Y-56719500D01*
X185292559Y-56719500D01*
X185135609Y-56743157D01*
X185040542Y-56757487D01*
X185040538Y-56757488D01*
X185040539Y-56757488D01*
X185040533Y-56757489D01*
X184796992Y-56832612D01*
X184567373Y-56943190D01*
X184567372Y-56943191D01*
X184356782Y-57086768D01*
X184169952Y-57260121D01*
X184169950Y-57260123D01*
X184011041Y-57459388D01*
X183883608Y-57680109D01*
X183790492Y-57917362D01*
X183790490Y-57917369D01*
X183733777Y-58165845D01*
X183714732Y-58419995D01*
X183714732Y-58420004D01*
X161725268Y-58420004D01*
X161725268Y-58420000D01*
X161706222Y-58165843D01*
X161649508Y-57917363D01*
X161556393Y-57680112D01*
X161428959Y-57459388D01*
X161270050Y-57260123D01*
X161083217Y-57086768D01*
X160872634Y-56943195D01*
X160872630Y-56943193D01*
X160872627Y-56943191D01*
X160872626Y-56943190D01*
X160643006Y-56832612D01*
X160643008Y-56832612D01*
X160399466Y-56757489D01*
X160399462Y-56757488D01*
X160399458Y-56757487D01*
X160278231Y-56739214D01*
X160147440Y-56719500D01*
X160147435Y-56719500D01*
X159892565Y-56719500D01*
X159892559Y-56719500D01*
X159735609Y-56743157D01*
X159640542Y-56757487D01*
X159640538Y-56757488D01*
X159640539Y-56757488D01*
X159640533Y-56757489D01*
X159396992Y-56832612D01*
X159167373Y-56943190D01*
X159167372Y-56943191D01*
X158956782Y-57086768D01*
X158769952Y-57260121D01*
X158769950Y-57260123D01*
X158611041Y-57459388D01*
X158483608Y-57680109D01*
X158390492Y-57917362D01*
X158390490Y-57917369D01*
X158333777Y-58165845D01*
X158314732Y-58419995D01*
X158314732Y-58420004D01*
X113465268Y-58420004D01*
X113465268Y-58420000D01*
X113446222Y-58165843D01*
X113389508Y-57917363D01*
X113296393Y-57680112D01*
X113168959Y-57459388D01*
X113010050Y-57260123D01*
X112823217Y-57086768D01*
X112612634Y-56943195D01*
X112612630Y-56943193D01*
X112612627Y-56943191D01*
X112612626Y-56943190D01*
X112383006Y-56832612D01*
X112383008Y-56832612D01*
X112139466Y-56757489D01*
X112139462Y-56757488D01*
X112139458Y-56757487D01*
X112018231Y-56739214D01*
X111887440Y-56719500D01*
X111887435Y-56719500D01*
X111632565Y-56719500D01*
X111632559Y-56719500D01*
X111475609Y-56743157D01*
X111380542Y-56757487D01*
X111380538Y-56757488D01*
X111380539Y-56757488D01*
X111380533Y-56757489D01*
X111136992Y-56832612D01*
X110907373Y-56943190D01*
X110907372Y-56943191D01*
X110696782Y-57086768D01*
X110509952Y-57260121D01*
X110509950Y-57260123D01*
X110351041Y-57459388D01*
X110223608Y-57680109D01*
X110130492Y-57917362D01*
X110130490Y-57917369D01*
X110073777Y-58165845D01*
X110054732Y-58419995D01*
X110054732Y-58420004D01*
X93145268Y-58420004D01*
X93145268Y-58420000D01*
X93126222Y-58165843D01*
X93069508Y-57917363D01*
X92976393Y-57680112D01*
X92848959Y-57459388D01*
X92690050Y-57260123D01*
X92503217Y-57086768D01*
X92292634Y-56943195D01*
X92292630Y-56943193D01*
X92292627Y-56943191D01*
X92292626Y-56943190D01*
X92063006Y-56832612D01*
X92063008Y-56832612D01*
X91819466Y-56757489D01*
X91819462Y-56757488D01*
X91819458Y-56757487D01*
X91698231Y-56739214D01*
X91567440Y-56719500D01*
X91567435Y-56719500D01*
X91312565Y-56719500D01*
X91312559Y-56719500D01*
X91155609Y-56743157D01*
X91060542Y-56757487D01*
X91060538Y-56757488D01*
X91060539Y-56757488D01*
X91060533Y-56757489D01*
X90816992Y-56832612D01*
X90587373Y-56943190D01*
X90587372Y-56943191D01*
X90376782Y-57086768D01*
X90189952Y-57260121D01*
X90189950Y-57260123D01*
X90031041Y-57459388D01*
X89903608Y-57680109D01*
X89810492Y-57917362D01*
X89810490Y-57917369D01*
X89753777Y-58165845D01*
X89734732Y-58419995D01*
X89734732Y-58420004D01*
X63500000Y-58420004D01*
X63500000Y-55960001D01*
X120614532Y-55960001D01*
X120634364Y-56186686D01*
X120634366Y-56186697D01*
X120693258Y-56406488D01*
X120693261Y-56406497D01*
X120789431Y-56612732D01*
X120789432Y-56612734D01*
X120919954Y-56799141D01*
X121080858Y-56960045D01*
X121080861Y-56960047D01*
X121267266Y-57090568D01*
X121473504Y-57186739D01*
X121693308Y-57245635D01*
X121855230Y-57259801D01*
X121919998Y-57265468D01*
X121920000Y-57265468D01*
X121920002Y-57265468D01*
X121976673Y-57260509D01*
X122146692Y-57245635D01*
X122366496Y-57186739D01*
X122572734Y-57090568D01*
X122759139Y-56960047D01*
X122920047Y-56799139D01*
X123050568Y-56612734D01*
X123146739Y-56406496D01*
X123205635Y-56186692D01*
X123225468Y-55960001D01*
X128234532Y-55960001D01*
X128254364Y-56186686D01*
X128254366Y-56186697D01*
X128313258Y-56406488D01*
X128313261Y-56406497D01*
X128409431Y-56612732D01*
X128409432Y-56612734D01*
X128539954Y-56799141D01*
X128700858Y-56960045D01*
X128700861Y-56960047D01*
X128887266Y-57090568D01*
X129093504Y-57186739D01*
X129313308Y-57245635D01*
X129475230Y-57259801D01*
X129539998Y-57265468D01*
X129540000Y-57265468D01*
X129540002Y-57265468D01*
X129596673Y-57260509D01*
X129766692Y-57245635D01*
X129986496Y-57186739D01*
X130192734Y-57090568D01*
X130379139Y-56960047D01*
X130540047Y-56799139D01*
X130670568Y-56612734D01*
X130766739Y-56406496D01*
X130825635Y-56186692D01*
X130845468Y-55960000D01*
X130825635Y-55733308D01*
X130766739Y-55513504D01*
X130670568Y-55307266D01*
X130540047Y-55120861D01*
X130540045Y-55120858D01*
X130379141Y-54959954D01*
X130192734Y-54829432D01*
X130192732Y-54829431D01*
X129986497Y-54733261D01*
X129986488Y-54733258D01*
X129766697Y-54674366D01*
X129766693Y-54674365D01*
X129766692Y-54674365D01*
X129766691Y-54674364D01*
X129766686Y-54674364D01*
X129540002Y-54654532D01*
X129539998Y-54654532D01*
X129313313Y-54674364D01*
X129313302Y-54674366D01*
X129093511Y-54733258D01*
X129093502Y-54733261D01*
X128887267Y-54829431D01*
X128887265Y-54829432D01*
X128700858Y-54959954D01*
X128539954Y-55120858D01*
X128409432Y-55307265D01*
X128409431Y-55307267D01*
X128313261Y-55513502D01*
X128313258Y-55513511D01*
X128254366Y-55733302D01*
X128254364Y-55733313D01*
X128234532Y-55959998D01*
X128234532Y-55960001D01*
X123225468Y-55960001D01*
X123225468Y-55960000D01*
X123205635Y-55733308D01*
X123146739Y-55513504D01*
X123050568Y-55307266D01*
X122920047Y-55120861D01*
X122920045Y-55120858D01*
X122759141Y-54959954D01*
X122572734Y-54829432D01*
X122572732Y-54829431D01*
X122366497Y-54733261D01*
X122366488Y-54733258D01*
X122146697Y-54674366D01*
X122146693Y-54674365D01*
X122146692Y-54674365D01*
X122146691Y-54674364D01*
X122146686Y-54674364D01*
X121920002Y-54654532D01*
X121919998Y-54654532D01*
X121693313Y-54674364D01*
X121693302Y-54674366D01*
X121473511Y-54733258D01*
X121473502Y-54733261D01*
X121267267Y-54829431D01*
X121267265Y-54829432D01*
X121080858Y-54959954D01*
X120919954Y-55120858D01*
X120789432Y-55307265D01*
X120789431Y-55307267D01*
X120693261Y-55513502D01*
X120693258Y-55513511D01*
X120634366Y-55733302D01*
X120634364Y-55733313D01*
X120614532Y-55959998D01*
X120614532Y-55960001D01*
X63500000Y-55960001D01*
X63500000Y-48384000D01*
X63519685Y-48316961D01*
X63572489Y-48271206D01*
X63624000Y-48260000D01*
X225936000Y-48260000D01*
X226003039Y-48279685D01*
G37*
G04 #@! TD.AperFunction*
M02*
