%TF.GenerationSoftware,KiCad,Pcbnew,7.0.6-0*%
%TF.CreationDate,2023-08-07T07:57:15+08:00*%
%TF.ProjectId,aes17_filter_25,61657331-375f-4666-996c-7465725f3235,rev?*%
%TF.SameCoordinates,Original*%
%TF.FileFunction,Drillmap*%
%TF.FilePolarity,Positive*%
%FSLAX45Y45*%
G04 Gerber Fmt 4.5, Leading zero omitted, Abs format (unit mm)*
G04 Created by KiCad (PCBNEW 7.0.6-0) date 2023-08-07 07:57:15*
%MOMM*%
%LPD*%
G01*
G04 APERTURE LIST*
%ADD10C,0.100000*%
%ADD11C,0.200000*%
%ADD12C,0.040000*%
%ADD13C,0.080000*%
%ADD14C,0.110000*%
%ADD15C,0.120000*%
%ADD16C,0.130000*%
%ADD17C,0.160000*%
%ADD18C,0.220000*%
G04 APERTURE END LIST*
D10*
X4826000Y-4572000D02*
X24130000Y-4572000D01*
X24130000Y-13834208D01*
X4826000Y-13834208D01*
X4826000Y-4572000D01*
D11*
D12*
X15728000Y-11664000D02*
X15768000Y-11704000D01*
X15768000Y-11664000D02*
X15728000Y-11704000D01*
D13*
X9692000Y-7120000D02*
G75*
G03*
X9692000Y-7120000I-40000J0D01*
G01*
X9692000Y-7620000D02*
G75*
G03*
X9692000Y-7620000I-40000J0D01*
G01*
X9692000Y-8136000D02*
G75*
G03*
X9692000Y-8136000I-40000J0D01*
G01*
X9692000Y-8636000D02*
G75*
G03*
X9692000Y-8636000I-40000J0D01*
G01*
X12232000Y-5596000D02*
G75*
G03*
X12232000Y-5596000I-40000J0D01*
G01*
X12232000Y-6096000D02*
G75*
G03*
X12232000Y-6096000I-40000J0D01*
G01*
X12232000Y-9652000D02*
G75*
G03*
X12232000Y-9652000I-40000J0D01*
G01*
X12232000Y-10152000D02*
G75*
G03*
X12232000Y-10152000I-40000J0D01*
G01*
X12994000Y-5596000D02*
G75*
G03*
X12994000Y-5596000I-40000J0D01*
G01*
X12994000Y-6096000D02*
G75*
G03*
X12994000Y-6096000I-40000J0D01*
G01*
X12994000Y-9652000D02*
G75*
G03*
X12994000Y-9652000I-40000J0D01*
G01*
X12994000Y-10152000D02*
G75*
G03*
X12994000Y-10152000I-40000J0D01*
G01*
X21122000Y-10922000D02*
G75*
G03*
X21122000Y-10922000I-40000J0D01*
G01*
X21122000Y-12446000D02*
G75*
G03*
X21122000Y-12446000I-40000J0D01*
G01*
X22392000Y-10922000D02*
G75*
G03*
X22392000Y-10922000I-40000J0D01*
G01*
X22392000Y-12446000D02*
G75*
G03*
X22392000Y-12446000I-40000J0D01*
G01*
D10*
X19304000Y-12142000D02*
X19304000Y-12242000D01*
X19254000Y-12192000D02*
X19354000Y-12192000D01*
X19304000Y-12396000D02*
X19304000Y-12496000D01*
X19254000Y-12446000D02*
X19354000Y-12446000D01*
X19558000Y-12142000D02*
X19558000Y-12242000D01*
X19508000Y-12192000D02*
X19608000Y-12192000D01*
X19558000Y-12396000D02*
X19558000Y-12496000D01*
X19508000Y-12446000D02*
X19608000Y-12446000D01*
X21590000Y-11888000D02*
X21590000Y-11988000D01*
X21540000Y-11938000D02*
X21640000Y-11938000D01*
X21590000Y-12142000D02*
X21590000Y-12242000D01*
X21540000Y-12192000D02*
X21640000Y-12192000D01*
X21590000Y-12396000D02*
X21590000Y-12496000D01*
X21540000Y-12446000D02*
X21640000Y-12446000D01*
X21844000Y-11888000D02*
X21844000Y-11988000D01*
X21794000Y-11938000D02*
X21894000Y-11938000D01*
X21844000Y-12142000D02*
X21844000Y-12242000D01*
X21794000Y-12192000D02*
X21894000Y-12192000D01*
X21844000Y-12396000D02*
X21844000Y-12496000D01*
X21794000Y-12446000D02*
X21894000Y-12446000D01*
D14*
X18834891Y-11976891D02*
X18834891Y-11899109D01*
X18757109Y-11899109D01*
X18757109Y-11976891D01*
X18834891Y-11976891D01*
X18834891Y-12992891D02*
X18834891Y-12915109D01*
X18757109Y-12915109D01*
X18757109Y-12992891D01*
X18834891Y-12992891D01*
X20104891Y-11976891D02*
X20104891Y-11899109D01*
X20027109Y-11899109D01*
X20027109Y-11976891D01*
X20104891Y-11976891D01*
X20104891Y-12992891D02*
X20104891Y-12915109D01*
X20027109Y-12915109D01*
X20027109Y-12992891D01*
X20104891Y-12992891D01*
D15*
X7366000Y-8950000D02*
X7426000Y-8890000D01*
X7366000Y-8830000D01*
X7306000Y-8890000D01*
X7366000Y-8950000D01*
X7366000Y-10982000D02*
X7426000Y-10922000D01*
X7366000Y-10862000D01*
X7306000Y-10922000D01*
X7366000Y-10982000D01*
X7747000Y-12315000D02*
X7807000Y-12255000D01*
X7747000Y-12195000D01*
X7687000Y-12255000D01*
X7747000Y-12315000D01*
X8128000Y-8950000D02*
X8188000Y-8890000D01*
X8128000Y-8830000D01*
X8068000Y-8890000D01*
X8128000Y-8950000D01*
X8128000Y-10982000D02*
X8188000Y-10922000D01*
X8128000Y-10862000D01*
X8068000Y-10922000D01*
X8128000Y-10982000D01*
X8572000Y-13332000D02*
X8632000Y-13272000D01*
X8572000Y-13212000D01*
X8512000Y-13272000D01*
X8572000Y-13332000D01*
X9144000Y-5902000D02*
X9204000Y-5842000D01*
X9144000Y-5782000D01*
X9084000Y-5842000D01*
X9144000Y-5902000D01*
X9144000Y-9966000D02*
X9204000Y-9906000D01*
X9144000Y-9846000D01*
X9084000Y-9906000D01*
X9144000Y-9966000D01*
X11176000Y-5902000D02*
X11236000Y-5842000D01*
X11176000Y-5782000D01*
X11116000Y-5842000D01*
X11176000Y-5902000D01*
X11176000Y-9966000D02*
X11236000Y-9906000D01*
X11176000Y-9846000D01*
X11116000Y-9906000D01*
X11176000Y-9966000D01*
X12192000Y-8696000D02*
X12252000Y-8636000D01*
X12192000Y-8576000D01*
X12132000Y-8636000D01*
X12192000Y-8696000D01*
X12216000Y-7148000D02*
X12276000Y-7088000D01*
X12216000Y-7028000D01*
X12156000Y-7088000D01*
X12216000Y-7148000D01*
X13692000Y-8696000D02*
X13752000Y-8636000D01*
X13692000Y-8576000D01*
X13632000Y-8636000D01*
X13692000Y-8696000D01*
X13716000Y-7148000D02*
X13776000Y-7088000D01*
X13716000Y-7028000D01*
X13656000Y-7088000D01*
X13716000Y-7148000D01*
X14220714Y-8391416D02*
X14280714Y-8331416D01*
X14220714Y-8271416D01*
X14160714Y-8331416D01*
X14220714Y-8391416D01*
X14224000Y-7426000D02*
X14284000Y-7366000D01*
X14224000Y-7306000D01*
X14164000Y-7366000D01*
X14224000Y-7426000D01*
X16002000Y-5902000D02*
X16062000Y-5842000D01*
X16002000Y-5782000D01*
X15942000Y-5842000D01*
X16002000Y-5902000D01*
X16002000Y-9966000D02*
X16062000Y-9906000D01*
X16002000Y-9846000D01*
X15942000Y-9906000D01*
X16002000Y-9966000D01*
X16129000Y-12252000D02*
X16189000Y-12192000D01*
X16129000Y-12132000D01*
X16069000Y-12192000D01*
X16129000Y-12252000D01*
X16129000Y-12760000D02*
X16189000Y-12700000D01*
X16129000Y-12640000D01*
X16069000Y-12700000D01*
X16129000Y-12760000D01*
X16252714Y-8391416D02*
X16312714Y-8331416D01*
X16252714Y-8271416D01*
X16192714Y-8331416D01*
X16252714Y-8391416D01*
X16256000Y-7426000D02*
X16316000Y-7366000D01*
X16256000Y-7306000D01*
X16196000Y-7366000D01*
X16256000Y-7426000D01*
X18542000Y-5902000D02*
X18602000Y-5842000D01*
X18542000Y-5782000D01*
X18482000Y-5842000D01*
X18542000Y-5902000D01*
X18542000Y-8696000D02*
X18602000Y-8636000D01*
X18542000Y-8576000D01*
X18482000Y-8636000D01*
X18542000Y-8696000D01*
X18542000Y-9966000D02*
X18602000Y-9906000D01*
X18542000Y-9846000D01*
X18482000Y-9906000D01*
X18542000Y-9966000D01*
X18566000Y-7148000D02*
X18626000Y-7088000D01*
X18566000Y-7028000D01*
X18506000Y-7088000D01*
X18566000Y-7148000D01*
X20042000Y-8696000D02*
X20102000Y-8636000D01*
X20042000Y-8576000D01*
X19982000Y-8636000D01*
X20042000Y-8696000D01*
X20066000Y-7148000D02*
X20126000Y-7088000D01*
X20066000Y-7028000D01*
X20006000Y-7088000D01*
X20066000Y-7148000D01*
X21336000Y-8188000D02*
X21396000Y-8128000D01*
X21336000Y-8068000D01*
X21276000Y-8128000D01*
X21336000Y-8188000D01*
X21336000Y-10220000D02*
X21396000Y-10160000D01*
X21336000Y-10100000D01*
X21276000Y-10160000D01*
X21336000Y-10220000D01*
X22098000Y-8188000D02*
X22158000Y-8128000D01*
X22098000Y-8068000D01*
X22038000Y-8128000D01*
X22098000Y-8188000D01*
X22098000Y-10220000D02*
X22158000Y-10160000D01*
X22098000Y-10100000D01*
X22038000Y-10160000D01*
X22098000Y-10220000D01*
D16*
X10611000Y-7047000D02*
X10741000Y-7177000D01*
X10741000Y-7047000D02*
X10611000Y-7177000D01*
X10741000Y-7112000D02*
G75*
G03*
X10741000Y-7112000I-65000J0D01*
G01*
X10611000Y-8571000D02*
X10741000Y-8701000D01*
X10741000Y-8571000D02*
X10611000Y-8701000D01*
X10741000Y-8636000D02*
G75*
G03*
X10741000Y-8636000I-65000J0D01*
G01*
X11111000Y-7047000D02*
X11241000Y-7177000D01*
X11241000Y-7047000D02*
X11111000Y-7177000D01*
X11241000Y-7112000D02*
G75*
G03*
X11241000Y-7112000I-65000J0D01*
G01*
X11111000Y-8571000D02*
X11241000Y-8701000D01*
X11241000Y-8571000D02*
X11111000Y-8701000D01*
X11241000Y-8636000D02*
G75*
G03*
X11241000Y-8636000I-65000J0D01*
G01*
X16961000Y-7047000D02*
X17091000Y-7177000D01*
X17091000Y-7047000D02*
X16961000Y-7177000D01*
X17091000Y-7112000D02*
G75*
G03*
X17091000Y-7112000I-65000J0D01*
G01*
X16961000Y-8571000D02*
X17091000Y-8701000D01*
X17091000Y-8571000D02*
X16961000Y-8701000D01*
X17091000Y-8636000D02*
G75*
G03*
X17091000Y-8636000I-65000J0D01*
G01*
X17461000Y-7047000D02*
X17591000Y-7177000D01*
X17591000Y-7047000D02*
X17461000Y-7177000D01*
X17591000Y-7112000D02*
G75*
G03*
X17591000Y-7112000I-65000J0D01*
G01*
X17461000Y-8571000D02*
X17591000Y-8701000D01*
X17591000Y-8571000D02*
X17461000Y-8701000D01*
X17591000Y-8636000D02*
G75*
G03*
X17591000Y-8636000I-65000J0D01*
G01*
D17*
X7286000Y-12556500D02*
X7446000Y-12716500D01*
X7446000Y-12556500D02*
X7286000Y-12716500D01*
X7366000Y-12556500D02*
X7366000Y-12716500D01*
X7286000Y-12636500D02*
X7446000Y-12636500D01*
X8048000Y-12620000D02*
X8208000Y-12780000D01*
X8208000Y-12620000D02*
X8048000Y-12780000D01*
X8128000Y-12620000D02*
X8128000Y-12780000D01*
X8048000Y-12700000D02*
X8208000Y-12700000D01*
X15668000Y-12112000D02*
X15828000Y-12272000D01*
X15828000Y-12112000D02*
X15668000Y-12272000D01*
X15748000Y-12112000D02*
X15748000Y-12272000D01*
X15668000Y-12192000D02*
X15828000Y-12192000D01*
X16430000Y-12112000D02*
X16590000Y-12272000D01*
X16590000Y-12112000D02*
X16430000Y-12272000D01*
X16510000Y-12112000D02*
X16510000Y-12272000D01*
X16430000Y-12192000D02*
X16590000Y-12192000D01*
D18*
X10812000Y-11446000D02*
X11032000Y-11666000D01*
X11032000Y-11446000D02*
X10812000Y-11666000D01*
X10999783Y-11633782D02*
X10999783Y-11478217D01*
X10844218Y-11478217D01*
X10844218Y-11633782D01*
X10999783Y-11633782D01*
X12844000Y-11446000D02*
X13064000Y-11666000D01*
X13064000Y-11446000D02*
X12844000Y-11666000D01*
X13031782Y-11633782D02*
X13031782Y-11478217D01*
X12876217Y-11478217D01*
X12876217Y-11633782D01*
X13031782Y-11633782D01*
D11*
X5081777Y-14150691D02*
X5081777Y-13950691D01*
X5081777Y-13950691D02*
X5129396Y-13950691D01*
X5129396Y-13950691D02*
X5157967Y-13960215D01*
X5157967Y-13960215D02*
X5177015Y-13979263D01*
X5177015Y-13979263D02*
X5186539Y-13998310D01*
X5186539Y-13998310D02*
X5196063Y-14036406D01*
X5196063Y-14036406D02*
X5196063Y-14064977D01*
X5196063Y-14064977D02*
X5186539Y-14103072D01*
X5186539Y-14103072D02*
X5177015Y-14122120D01*
X5177015Y-14122120D02*
X5157967Y-14141168D01*
X5157967Y-14141168D02*
X5129396Y-14150691D01*
X5129396Y-14150691D02*
X5081777Y-14150691D01*
X5281777Y-14150691D02*
X5281777Y-14017358D01*
X5281777Y-14055453D02*
X5291301Y-14036406D01*
X5291301Y-14036406D02*
X5300824Y-14026882D01*
X5300824Y-14026882D02*
X5319872Y-14017358D01*
X5319872Y-14017358D02*
X5338920Y-14017358D01*
X5405586Y-14150691D02*
X5405586Y-14017358D01*
X5405586Y-13950691D02*
X5396063Y-13960215D01*
X5396063Y-13960215D02*
X5405586Y-13969739D01*
X5405586Y-13969739D02*
X5415110Y-13960215D01*
X5415110Y-13960215D02*
X5405586Y-13950691D01*
X5405586Y-13950691D02*
X5405586Y-13969739D01*
X5529396Y-14150691D02*
X5510348Y-14141168D01*
X5510348Y-14141168D02*
X5500824Y-14122120D01*
X5500824Y-14122120D02*
X5500824Y-13950691D01*
X5634158Y-14150691D02*
X5615110Y-14141168D01*
X5615110Y-14141168D02*
X5605586Y-14122120D01*
X5605586Y-14122120D02*
X5605586Y-13950691D01*
X5862729Y-14150691D02*
X5862729Y-13950691D01*
X5862729Y-13950691D02*
X5929396Y-14093549D01*
X5929396Y-14093549D02*
X5996062Y-13950691D01*
X5996062Y-13950691D02*
X5996062Y-14150691D01*
X6177015Y-14150691D02*
X6177015Y-14045930D01*
X6177015Y-14045930D02*
X6167491Y-14026882D01*
X6167491Y-14026882D02*
X6148443Y-14017358D01*
X6148443Y-14017358D02*
X6110348Y-14017358D01*
X6110348Y-14017358D02*
X6091301Y-14026882D01*
X6177015Y-14141168D02*
X6157967Y-14150691D01*
X6157967Y-14150691D02*
X6110348Y-14150691D01*
X6110348Y-14150691D02*
X6091301Y-14141168D01*
X6091301Y-14141168D02*
X6081777Y-14122120D01*
X6081777Y-14122120D02*
X6081777Y-14103072D01*
X6081777Y-14103072D02*
X6091301Y-14084025D01*
X6091301Y-14084025D02*
X6110348Y-14074501D01*
X6110348Y-14074501D02*
X6157967Y-14074501D01*
X6157967Y-14074501D02*
X6177015Y-14064977D01*
X6272253Y-14017358D02*
X6272253Y-14217358D01*
X6272253Y-14026882D02*
X6291301Y-14017358D01*
X6291301Y-14017358D02*
X6329396Y-14017358D01*
X6329396Y-14017358D02*
X6348443Y-14026882D01*
X6348443Y-14026882D02*
X6357967Y-14036406D01*
X6357967Y-14036406D02*
X6367491Y-14055453D01*
X6367491Y-14055453D02*
X6367491Y-14112596D01*
X6367491Y-14112596D02*
X6357967Y-14131644D01*
X6357967Y-14131644D02*
X6348443Y-14141168D01*
X6348443Y-14141168D02*
X6329396Y-14150691D01*
X6329396Y-14150691D02*
X6291301Y-14150691D01*
X6291301Y-14150691D02*
X6272253Y-14141168D01*
X6453205Y-14131644D02*
X6462729Y-14141168D01*
X6462729Y-14141168D02*
X6453205Y-14150691D01*
X6453205Y-14150691D02*
X6443682Y-14141168D01*
X6443682Y-14141168D02*
X6453205Y-14131644D01*
X6453205Y-14131644D02*
X6453205Y-14150691D01*
X6453205Y-14026882D02*
X6462729Y-14036406D01*
X6462729Y-14036406D02*
X6453205Y-14045930D01*
X6453205Y-14045930D02*
X6443682Y-14036406D01*
X6443682Y-14036406D02*
X6453205Y-14026882D01*
X6453205Y-14026882D02*
X6453205Y-14045930D01*
D12*
X4781000Y-14459208D02*
X4821000Y-14499208D01*
X4821000Y-14459208D02*
X4781000Y-14499208D01*
D11*
X5119872Y-14370691D02*
X5138920Y-14370691D01*
X5138920Y-14370691D02*
X5157967Y-14380215D01*
X5157967Y-14380215D02*
X5167491Y-14389739D01*
X5167491Y-14389739D02*
X5177015Y-14408787D01*
X5177015Y-14408787D02*
X5186539Y-14446882D01*
X5186539Y-14446882D02*
X5186539Y-14494501D01*
X5186539Y-14494501D02*
X5177015Y-14532596D01*
X5177015Y-14532596D02*
X5167491Y-14551644D01*
X5167491Y-14551644D02*
X5157967Y-14561168D01*
X5157967Y-14561168D02*
X5138920Y-14570691D01*
X5138920Y-14570691D02*
X5119872Y-14570691D01*
X5119872Y-14570691D02*
X5100824Y-14561168D01*
X5100824Y-14561168D02*
X5091301Y-14551644D01*
X5091301Y-14551644D02*
X5081777Y-14532596D01*
X5081777Y-14532596D02*
X5072253Y-14494501D01*
X5072253Y-14494501D02*
X5072253Y-14446882D01*
X5072253Y-14446882D02*
X5081777Y-14408787D01*
X5081777Y-14408787D02*
X5091301Y-14389739D01*
X5091301Y-14389739D02*
X5100824Y-14380215D01*
X5100824Y-14380215D02*
X5119872Y-14370691D01*
X5272253Y-14551644D02*
X5281777Y-14561168D01*
X5281777Y-14561168D02*
X5272253Y-14570691D01*
X5272253Y-14570691D02*
X5262729Y-14561168D01*
X5262729Y-14561168D02*
X5272253Y-14551644D01*
X5272253Y-14551644D02*
X5272253Y-14570691D01*
X5453205Y-14437358D02*
X5453205Y-14570691D01*
X5405586Y-14361168D02*
X5357967Y-14504025D01*
X5357967Y-14504025D02*
X5481777Y-14504025D01*
X5596062Y-14370691D02*
X5615110Y-14370691D01*
X5615110Y-14370691D02*
X5634158Y-14380215D01*
X5634158Y-14380215D02*
X5643682Y-14389739D01*
X5643682Y-14389739D02*
X5653205Y-14408787D01*
X5653205Y-14408787D02*
X5662729Y-14446882D01*
X5662729Y-14446882D02*
X5662729Y-14494501D01*
X5662729Y-14494501D02*
X5653205Y-14532596D01*
X5653205Y-14532596D02*
X5643682Y-14551644D01*
X5643682Y-14551644D02*
X5634158Y-14561168D01*
X5634158Y-14561168D02*
X5615110Y-14570691D01*
X5615110Y-14570691D02*
X5596062Y-14570691D01*
X5596062Y-14570691D02*
X5577015Y-14561168D01*
X5577015Y-14561168D02*
X5567491Y-14551644D01*
X5567491Y-14551644D02*
X5557967Y-14532596D01*
X5557967Y-14532596D02*
X5548444Y-14494501D01*
X5548444Y-14494501D02*
X5548444Y-14446882D01*
X5548444Y-14446882D02*
X5557967Y-14408787D01*
X5557967Y-14408787D02*
X5567491Y-14389739D01*
X5567491Y-14389739D02*
X5577015Y-14380215D01*
X5577015Y-14380215D02*
X5596062Y-14370691D01*
X5786539Y-14370691D02*
X5805586Y-14370691D01*
X5805586Y-14370691D02*
X5824634Y-14380215D01*
X5824634Y-14380215D02*
X5834158Y-14389739D01*
X5834158Y-14389739D02*
X5843682Y-14408787D01*
X5843682Y-14408787D02*
X5853205Y-14446882D01*
X5853205Y-14446882D02*
X5853205Y-14494501D01*
X5853205Y-14494501D02*
X5843682Y-14532596D01*
X5843682Y-14532596D02*
X5834158Y-14551644D01*
X5834158Y-14551644D02*
X5824634Y-14561168D01*
X5824634Y-14561168D02*
X5805586Y-14570691D01*
X5805586Y-14570691D02*
X5786539Y-14570691D01*
X5786539Y-14570691D02*
X5767491Y-14561168D01*
X5767491Y-14561168D02*
X5757967Y-14551644D01*
X5757967Y-14551644D02*
X5748443Y-14532596D01*
X5748443Y-14532596D02*
X5738920Y-14494501D01*
X5738920Y-14494501D02*
X5738920Y-14446882D01*
X5738920Y-14446882D02*
X5748443Y-14408787D01*
X5748443Y-14408787D02*
X5757967Y-14389739D01*
X5757967Y-14389739D02*
X5767491Y-14380215D01*
X5767491Y-14380215D02*
X5786539Y-14370691D01*
X5938920Y-14570691D02*
X5938920Y-14437358D01*
X5938920Y-14456406D02*
X5948443Y-14446882D01*
X5948443Y-14446882D02*
X5967491Y-14437358D01*
X5967491Y-14437358D02*
X5996063Y-14437358D01*
X5996063Y-14437358D02*
X6015110Y-14446882D01*
X6015110Y-14446882D02*
X6024634Y-14465930D01*
X6024634Y-14465930D02*
X6024634Y-14570691D01*
X6024634Y-14465930D02*
X6034158Y-14446882D01*
X6034158Y-14446882D02*
X6053205Y-14437358D01*
X6053205Y-14437358D02*
X6081777Y-14437358D01*
X6081777Y-14437358D02*
X6100824Y-14446882D01*
X6100824Y-14446882D02*
X6110348Y-14465930D01*
X6110348Y-14465930D02*
X6110348Y-14570691D01*
X6205586Y-14570691D02*
X6205586Y-14437358D01*
X6205586Y-14456406D02*
X6215110Y-14446882D01*
X6215110Y-14446882D02*
X6234158Y-14437358D01*
X6234158Y-14437358D02*
X6262729Y-14437358D01*
X6262729Y-14437358D02*
X6281777Y-14446882D01*
X6281777Y-14446882D02*
X6291301Y-14465930D01*
X6291301Y-14465930D02*
X6291301Y-14570691D01*
X6291301Y-14465930D02*
X6300824Y-14446882D01*
X6300824Y-14446882D02*
X6319872Y-14437358D01*
X6319872Y-14437358D02*
X6348443Y-14437358D01*
X6348443Y-14437358D02*
X6367491Y-14446882D01*
X6367491Y-14446882D02*
X6377015Y-14465930D01*
X6377015Y-14465930D02*
X6377015Y-14570691D01*
X6767491Y-14361168D02*
X6596063Y-14618310D01*
X7024634Y-14370691D02*
X7043682Y-14370691D01*
X7043682Y-14370691D02*
X7062729Y-14380215D01*
X7062729Y-14380215D02*
X7072253Y-14389739D01*
X7072253Y-14389739D02*
X7081777Y-14408787D01*
X7081777Y-14408787D02*
X7091301Y-14446882D01*
X7091301Y-14446882D02*
X7091301Y-14494501D01*
X7091301Y-14494501D02*
X7081777Y-14532596D01*
X7081777Y-14532596D02*
X7072253Y-14551644D01*
X7072253Y-14551644D02*
X7062729Y-14561168D01*
X7062729Y-14561168D02*
X7043682Y-14570691D01*
X7043682Y-14570691D02*
X7024634Y-14570691D01*
X7024634Y-14570691D02*
X7005586Y-14561168D01*
X7005586Y-14561168D02*
X6996063Y-14551644D01*
X6996063Y-14551644D02*
X6986539Y-14532596D01*
X6986539Y-14532596D02*
X6977015Y-14494501D01*
X6977015Y-14494501D02*
X6977015Y-14446882D01*
X6977015Y-14446882D02*
X6986539Y-14408787D01*
X6986539Y-14408787D02*
X6996063Y-14389739D01*
X6996063Y-14389739D02*
X7005586Y-14380215D01*
X7005586Y-14380215D02*
X7024634Y-14370691D01*
X7177015Y-14551644D02*
X7186539Y-14561168D01*
X7186539Y-14561168D02*
X7177015Y-14570691D01*
X7177015Y-14570691D02*
X7167491Y-14561168D01*
X7167491Y-14561168D02*
X7177015Y-14551644D01*
X7177015Y-14551644D02*
X7177015Y-14570691D01*
X7310348Y-14370691D02*
X7329396Y-14370691D01*
X7329396Y-14370691D02*
X7348444Y-14380215D01*
X7348444Y-14380215D02*
X7357967Y-14389739D01*
X7357967Y-14389739D02*
X7367491Y-14408787D01*
X7367491Y-14408787D02*
X7377015Y-14446882D01*
X7377015Y-14446882D02*
X7377015Y-14494501D01*
X7377015Y-14494501D02*
X7367491Y-14532596D01*
X7367491Y-14532596D02*
X7357967Y-14551644D01*
X7357967Y-14551644D02*
X7348444Y-14561168D01*
X7348444Y-14561168D02*
X7329396Y-14570691D01*
X7329396Y-14570691D02*
X7310348Y-14570691D01*
X7310348Y-14570691D02*
X7291301Y-14561168D01*
X7291301Y-14561168D02*
X7281777Y-14551644D01*
X7281777Y-14551644D02*
X7272253Y-14532596D01*
X7272253Y-14532596D02*
X7262729Y-14494501D01*
X7262729Y-14494501D02*
X7262729Y-14446882D01*
X7262729Y-14446882D02*
X7272253Y-14408787D01*
X7272253Y-14408787D02*
X7281777Y-14389739D01*
X7281777Y-14389739D02*
X7291301Y-14380215D01*
X7291301Y-14380215D02*
X7310348Y-14370691D01*
X7567491Y-14570691D02*
X7453206Y-14570691D01*
X7510348Y-14570691D02*
X7510348Y-14370691D01*
X7510348Y-14370691D02*
X7491301Y-14399263D01*
X7491301Y-14399263D02*
X7472253Y-14418310D01*
X7472253Y-14418310D02*
X7453206Y-14427834D01*
X7748444Y-14370691D02*
X7653206Y-14370691D01*
X7653206Y-14370691D02*
X7643682Y-14465930D01*
X7643682Y-14465930D02*
X7653206Y-14456406D01*
X7653206Y-14456406D02*
X7672253Y-14446882D01*
X7672253Y-14446882D02*
X7719872Y-14446882D01*
X7719872Y-14446882D02*
X7738920Y-14456406D01*
X7738920Y-14456406D02*
X7748444Y-14465930D01*
X7748444Y-14465930D02*
X7757967Y-14484977D01*
X7757967Y-14484977D02*
X7757967Y-14532596D01*
X7757967Y-14532596D02*
X7748444Y-14551644D01*
X7748444Y-14551644D02*
X7738920Y-14561168D01*
X7738920Y-14561168D02*
X7719872Y-14570691D01*
X7719872Y-14570691D02*
X7672253Y-14570691D01*
X7672253Y-14570691D02*
X7653206Y-14561168D01*
X7653206Y-14561168D02*
X7643682Y-14551644D01*
X7824634Y-14370691D02*
X7957967Y-14370691D01*
X7957967Y-14370691D02*
X7872253Y-14570691D01*
X8024634Y-14370691D02*
X8024634Y-14408787D01*
X8100825Y-14370691D02*
X8100825Y-14408787D01*
X8396063Y-14646882D02*
X8386539Y-14637358D01*
X8386539Y-14637358D02*
X8367491Y-14608787D01*
X8367491Y-14608787D02*
X8357968Y-14589739D01*
X8357968Y-14589739D02*
X8348444Y-14561168D01*
X8348444Y-14561168D02*
X8338920Y-14513549D01*
X8338920Y-14513549D02*
X8338920Y-14475453D01*
X8338920Y-14475453D02*
X8348444Y-14427834D01*
X8348444Y-14427834D02*
X8357968Y-14399263D01*
X8357968Y-14399263D02*
X8367491Y-14380215D01*
X8367491Y-14380215D02*
X8386539Y-14351644D01*
X8386539Y-14351644D02*
X8396063Y-14342120D01*
X8577015Y-14570691D02*
X8462730Y-14570691D01*
X8519872Y-14570691D02*
X8519872Y-14370691D01*
X8519872Y-14370691D02*
X8500825Y-14399263D01*
X8500825Y-14399263D02*
X8481777Y-14418310D01*
X8481777Y-14418310D02*
X8462730Y-14427834D01*
X8815111Y-14570691D02*
X8815111Y-14370691D01*
X8900825Y-14570691D02*
X8900825Y-14465930D01*
X8900825Y-14465930D02*
X8891301Y-14446882D01*
X8891301Y-14446882D02*
X8872253Y-14437358D01*
X8872253Y-14437358D02*
X8843682Y-14437358D01*
X8843682Y-14437358D02*
X8824634Y-14446882D01*
X8824634Y-14446882D02*
X8815111Y-14456406D01*
X9024634Y-14570691D02*
X9005587Y-14561168D01*
X9005587Y-14561168D02*
X8996063Y-14551644D01*
X8996063Y-14551644D02*
X8986539Y-14532596D01*
X8986539Y-14532596D02*
X8986539Y-14475453D01*
X8986539Y-14475453D02*
X8996063Y-14456406D01*
X8996063Y-14456406D02*
X9005587Y-14446882D01*
X9005587Y-14446882D02*
X9024634Y-14437358D01*
X9024634Y-14437358D02*
X9053206Y-14437358D01*
X9053206Y-14437358D02*
X9072253Y-14446882D01*
X9072253Y-14446882D02*
X9081777Y-14456406D01*
X9081777Y-14456406D02*
X9091301Y-14475453D01*
X9091301Y-14475453D02*
X9091301Y-14532596D01*
X9091301Y-14532596D02*
X9081777Y-14551644D01*
X9081777Y-14551644D02*
X9072253Y-14561168D01*
X9072253Y-14561168D02*
X9053206Y-14570691D01*
X9053206Y-14570691D02*
X9024634Y-14570691D01*
X9205587Y-14570691D02*
X9186539Y-14561168D01*
X9186539Y-14561168D02*
X9177015Y-14542120D01*
X9177015Y-14542120D02*
X9177015Y-14370691D01*
X9357968Y-14561168D02*
X9338920Y-14570691D01*
X9338920Y-14570691D02*
X9300825Y-14570691D01*
X9300825Y-14570691D02*
X9281777Y-14561168D01*
X9281777Y-14561168D02*
X9272253Y-14542120D01*
X9272253Y-14542120D02*
X9272253Y-14465930D01*
X9272253Y-14465930D02*
X9281777Y-14446882D01*
X9281777Y-14446882D02*
X9300825Y-14437358D01*
X9300825Y-14437358D02*
X9338920Y-14437358D01*
X9338920Y-14437358D02*
X9357968Y-14446882D01*
X9357968Y-14446882D02*
X9367492Y-14465930D01*
X9367492Y-14465930D02*
X9367492Y-14484977D01*
X9367492Y-14484977D02*
X9272253Y-14504025D01*
X9434158Y-14646882D02*
X9443682Y-14637358D01*
X9443682Y-14637358D02*
X9462730Y-14608787D01*
X9462730Y-14608787D02*
X9472253Y-14589739D01*
X9472253Y-14589739D02*
X9481777Y-14561168D01*
X9481777Y-14561168D02*
X9491301Y-14513549D01*
X9491301Y-14513549D02*
X9491301Y-14475453D01*
X9491301Y-14475453D02*
X9481777Y-14427834D01*
X9481777Y-14427834D02*
X9472253Y-14399263D01*
X9472253Y-14399263D02*
X9462730Y-14380215D01*
X9462730Y-14380215D02*
X9443682Y-14351644D01*
X9443682Y-14351644D02*
X9434158Y-14342120D01*
D13*
X4821000Y-14743208D02*
G75*
G03*
X4821000Y-14743208I-40000J0D01*
G01*
D11*
X5119872Y-14634691D02*
X5138920Y-14634691D01*
X5138920Y-14634691D02*
X5157967Y-14644215D01*
X5157967Y-14644215D02*
X5167491Y-14653739D01*
X5167491Y-14653739D02*
X5177015Y-14672787D01*
X5177015Y-14672787D02*
X5186539Y-14710882D01*
X5186539Y-14710882D02*
X5186539Y-14758501D01*
X5186539Y-14758501D02*
X5177015Y-14796596D01*
X5177015Y-14796596D02*
X5167491Y-14815644D01*
X5167491Y-14815644D02*
X5157967Y-14825168D01*
X5157967Y-14825168D02*
X5138920Y-14834691D01*
X5138920Y-14834691D02*
X5119872Y-14834691D01*
X5119872Y-14834691D02*
X5100824Y-14825168D01*
X5100824Y-14825168D02*
X5091301Y-14815644D01*
X5091301Y-14815644D02*
X5081777Y-14796596D01*
X5081777Y-14796596D02*
X5072253Y-14758501D01*
X5072253Y-14758501D02*
X5072253Y-14710882D01*
X5072253Y-14710882D02*
X5081777Y-14672787D01*
X5081777Y-14672787D02*
X5091301Y-14653739D01*
X5091301Y-14653739D02*
X5100824Y-14644215D01*
X5100824Y-14644215D02*
X5119872Y-14634691D01*
X5272253Y-14815644D02*
X5281777Y-14825168D01*
X5281777Y-14825168D02*
X5272253Y-14834691D01*
X5272253Y-14834691D02*
X5262729Y-14825168D01*
X5262729Y-14825168D02*
X5272253Y-14815644D01*
X5272253Y-14815644D02*
X5272253Y-14834691D01*
X5396063Y-14720406D02*
X5377015Y-14710882D01*
X5377015Y-14710882D02*
X5367491Y-14701358D01*
X5367491Y-14701358D02*
X5357967Y-14682310D01*
X5357967Y-14682310D02*
X5357967Y-14672787D01*
X5357967Y-14672787D02*
X5367491Y-14653739D01*
X5367491Y-14653739D02*
X5377015Y-14644215D01*
X5377015Y-14644215D02*
X5396063Y-14634691D01*
X5396063Y-14634691D02*
X5434158Y-14634691D01*
X5434158Y-14634691D02*
X5453205Y-14644215D01*
X5453205Y-14644215D02*
X5462729Y-14653739D01*
X5462729Y-14653739D02*
X5472253Y-14672787D01*
X5472253Y-14672787D02*
X5472253Y-14682310D01*
X5472253Y-14682310D02*
X5462729Y-14701358D01*
X5462729Y-14701358D02*
X5453205Y-14710882D01*
X5453205Y-14710882D02*
X5434158Y-14720406D01*
X5434158Y-14720406D02*
X5396063Y-14720406D01*
X5396063Y-14720406D02*
X5377015Y-14729930D01*
X5377015Y-14729930D02*
X5367491Y-14739453D01*
X5367491Y-14739453D02*
X5357967Y-14758501D01*
X5357967Y-14758501D02*
X5357967Y-14796596D01*
X5357967Y-14796596D02*
X5367491Y-14815644D01*
X5367491Y-14815644D02*
X5377015Y-14825168D01*
X5377015Y-14825168D02*
X5396063Y-14834691D01*
X5396063Y-14834691D02*
X5434158Y-14834691D01*
X5434158Y-14834691D02*
X5453205Y-14825168D01*
X5453205Y-14825168D02*
X5462729Y-14815644D01*
X5462729Y-14815644D02*
X5472253Y-14796596D01*
X5472253Y-14796596D02*
X5472253Y-14758501D01*
X5472253Y-14758501D02*
X5462729Y-14739453D01*
X5462729Y-14739453D02*
X5453205Y-14729930D01*
X5453205Y-14729930D02*
X5434158Y-14720406D01*
X5596062Y-14634691D02*
X5615110Y-14634691D01*
X5615110Y-14634691D02*
X5634158Y-14644215D01*
X5634158Y-14644215D02*
X5643682Y-14653739D01*
X5643682Y-14653739D02*
X5653205Y-14672787D01*
X5653205Y-14672787D02*
X5662729Y-14710882D01*
X5662729Y-14710882D02*
X5662729Y-14758501D01*
X5662729Y-14758501D02*
X5653205Y-14796596D01*
X5653205Y-14796596D02*
X5643682Y-14815644D01*
X5643682Y-14815644D02*
X5634158Y-14825168D01*
X5634158Y-14825168D02*
X5615110Y-14834691D01*
X5615110Y-14834691D02*
X5596062Y-14834691D01*
X5596062Y-14834691D02*
X5577015Y-14825168D01*
X5577015Y-14825168D02*
X5567491Y-14815644D01*
X5567491Y-14815644D02*
X5557967Y-14796596D01*
X5557967Y-14796596D02*
X5548444Y-14758501D01*
X5548444Y-14758501D02*
X5548444Y-14710882D01*
X5548444Y-14710882D02*
X5557967Y-14672787D01*
X5557967Y-14672787D02*
X5567491Y-14653739D01*
X5567491Y-14653739D02*
X5577015Y-14644215D01*
X5577015Y-14644215D02*
X5596062Y-14634691D01*
X5786539Y-14634691D02*
X5805586Y-14634691D01*
X5805586Y-14634691D02*
X5824634Y-14644215D01*
X5824634Y-14644215D02*
X5834158Y-14653739D01*
X5834158Y-14653739D02*
X5843682Y-14672787D01*
X5843682Y-14672787D02*
X5853205Y-14710882D01*
X5853205Y-14710882D02*
X5853205Y-14758501D01*
X5853205Y-14758501D02*
X5843682Y-14796596D01*
X5843682Y-14796596D02*
X5834158Y-14815644D01*
X5834158Y-14815644D02*
X5824634Y-14825168D01*
X5824634Y-14825168D02*
X5805586Y-14834691D01*
X5805586Y-14834691D02*
X5786539Y-14834691D01*
X5786539Y-14834691D02*
X5767491Y-14825168D01*
X5767491Y-14825168D02*
X5757967Y-14815644D01*
X5757967Y-14815644D02*
X5748443Y-14796596D01*
X5748443Y-14796596D02*
X5738920Y-14758501D01*
X5738920Y-14758501D02*
X5738920Y-14710882D01*
X5738920Y-14710882D02*
X5748443Y-14672787D01*
X5748443Y-14672787D02*
X5757967Y-14653739D01*
X5757967Y-14653739D02*
X5767491Y-14644215D01*
X5767491Y-14644215D02*
X5786539Y-14634691D01*
X5938920Y-14834691D02*
X5938920Y-14701358D01*
X5938920Y-14720406D02*
X5948443Y-14710882D01*
X5948443Y-14710882D02*
X5967491Y-14701358D01*
X5967491Y-14701358D02*
X5996063Y-14701358D01*
X5996063Y-14701358D02*
X6015110Y-14710882D01*
X6015110Y-14710882D02*
X6024634Y-14729930D01*
X6024634Y-14729930D02*
X6024634Y-14834691D01*
X6024634Y-14729930D02*
X6034158Y-14710882D01*
X6034158Y-14710882D02*
X6053205Y-14701358D01*
X6053205Y-14701358D02*
X6081777Y-14701358D01*
X6081777Y-14701358D02*
X6100824Y-14710882D01*
X6100824Y-14710882D02*
X6110348Y-14729930D01*
X6110348Y-14729930D02*
X6110348Y-14834691D01*
X6205586Y-14834691D02*
X6205586Y-14701358D01*
X6205586Y-14720406D02*
X6215110Y-14710882D01*
X6215110Y-14710882D02*
X6234158Y-14701358D01*
X6234158Y-14701358D02*
X6262729Y-14701358D01*
X6262729Y-14701358D02*
X6281777Y-14710882D01*
X6281777Y-14710882D02*
X6291301Y-14729930D01*
X6291301Y-14729930D02*
X6291301Y-14834691D01*
X6291301Y-14729930D02*
X6300824Y-14710882D01*
X6300824Y-14710882D02*
X6319872Y-14701358D01*
X6319872Y-14701358D02*
X6348443Y-14701358D01*
X6348443Y-14701358D02*
X6367491Y-14710882D01*
X6367491Y-14710882D02*
X6377015Y-14729930D01*
X6377015Y-14729930D02*
X6377015Y-14834691D01*
X6767491Y-14625168D02*
X6596063Y-14882310D01*
X7024634Y-14634691D02*
X7043682Y-14634691D01*
X7043682Y-14634691D02*
X7062729Y-14644215D01*
X7062729Y-14644215D02*
X7072253Y-14653739D01*
X7072253Y-14653739D02*
X7081777Y-14672787D01*
X7081777Y-14672787D02*
X7091301Y-14710882D01*
X7091301Y-14710882D02*
X7091301Y-14758501D01*
X7091301Y-14758501D02*
X7081777Y-14796596D01*
X7081777Y-14796596D02*
X7072253Y-14815644D01*
X7072253Y-14815644D02*
X7062729Y-14825168D01*
X7062729Y-14825168D02*
X7043682Y-14834691D01*
X7043682Y-14834691D02*
X7024634Y-14834691D01*
X7024634Y-14834691D02*
X7005586Y-14825168D01*
X7005586Y-14825168D02*
X6996063Y-14815644D01*
X6996063Y-14815644D02*
X6986539Y-14796596D01*
X6986539Y-14796596D02*
X6977015Y-14758501D01*
X6977015Y-14758501D02*
X6977015Y-14710882D01*
X6977015Y-14710882D02*
X6986539Y-14672787D01*
X6986539Y-14672787D02*
X6996063Y-14653739D01*
X6996063Y-14653739D02*
X7005586Y-14644215D01*
X7005586Y-14644215D02*
X7024634Y-14634691D01*
X7177015Y-14815644D02*
X7186539Y-14825168D01*
X7186539Y-14825168D02*
X7177015Y-14834691D01*
X7177015Y-14834691D02*
X7167491Y-14825168D01*
X7167491Y-14825168D02*
X7177015Y-14815644D01*
X7177015Y-14815644D02*
X7177015Y-14834691D01*
X7310348Y-14634691D02*
X7329396Y-14634691D01*
X7329396Y-14634691D02*
X7348444Y-14644215D01*
X7348444Y-14644215D02*
X7357967Y-14653739D01*
X7357967Y-14653739D02*
X7367491Y-14672787D01*
X7367491Y-14672787D02*
X7377015Y-14710882D01*
X7377015Y-14710882D02*
X7377015Y-14758501D01*
X7377015Y-14758501D02*
X7367491Y-14796596D01*
X7367491Y-14796596D02*
X7357967Y-14815644D01*
X7357967Y-14815644D02*
X7348444Y-14825168D01*
X7348444Y-14825168D02*
X7329396Y-14834691D01*
X7329396Y-14834691D02*
X7310348Y-14834691D01*
X7310348Y-14834691D02*
X7291301Y-14825168D01*
X7291301Y-14825168D02*
X7281777Y-14815644D01*
X7281777Y-14815644D02*
X7272253Y-14796596D01*
X7272253Y-14796596D02*
X7262729Y-14758501D01*
X7262729Y-14758501D02*
X7262729Y-14710882D01*
X7262729Y-14710882D02*
X7272253Y-14672787D01*
X7272253Y-14672787D02*
X7281777Y-14653739D01*
X7281777Y-14653739D02*
X7291301Y-14644215D01*
X7291301Y-14644215D02*
X7310348Y-14634691D01*
X7443682Y-14634691D02*
X7567491Y-14634691D01*
X7567491Y-14634691D02*
X7500825Y-14710882D01*
X7500825Y-14710882D02*
X7529396Y-14710882D01*
X7529396Y-14710882D02*
X7548444Y-14720406D01*
X7548444Y-14720406D02*
X7557967Y-14729930D01*
X7557967Y-14729930D02*
X7567491Y-14748977D01*
X7567491Y-14748977D02*
X7567491Y-14796596D01*
X7567491Y-14796596D02*
X7557967Y-14815644D01*
X7557967Y-14815644D02*
X7548444Y-14825168D01*
X7548444Y-14825168D02*
X7529396Y-14834691D01*
X7529396Y-14834691D02*
X7472253Y-14834691D01*
X7472253Y-14834691D02*
X7453206Y-14825168D01*
X7453206Y-14825168D02*
X7443682Y-14815644D01*
X7757967Y-14834691D02*
X7643682Y-14834691D01*
X7700825Y-14834691D02*
X7700825Y-14634691D01*
X7700825Y-14634691D02*
X7681777Y-14663263D01*
X7681777Y-14663263D02*
X7662729Y-14682310D01*
X7662729Y-14682310D02*
X7643682Y-14691834D01*
X7938920Y-14634691D02*
X7843682Y-14634691D01*
X7843682Y-14634691D02*
X7834158Y-14729930D01*
X7834158Y-14729930D02*
X7843682Y-14720406D01*
X7843682Y-14720406D02*
X7862729Y-14710882D01*
X7862729Y-14710882D02*
X7910348Y-14710882D01*
X7910348Y-14710882D02*
X7929396Y-14720406D01*
X7929396Y-14720406D02*
X7938920Y-14729930D01*
X7938920Y-14729930D02*
X7948444Y-14748977D01*
X7948444Y-14748977D02*
X7948444Y-14796596D01*
X7948444Y-14796596D02*
X7938920Y-14815644D01*
X7938920Y-14815644D02*
X7929396Y-14825168D01*
X7929396Y-14825168D02*
X7910348Y-14834691D01*
X7910348Y-14834691D02*
X7862729Y-14834691D01*
X7862729Y-14834691D02*
X7843682Y-14825168D01*
X7843682Y-14825168D02*
X7834158Y-14815644D01*
X8024634Y-14634691D02*
X8024634Y-14672787D01*
X8100825Y-14634691D02*
X8100825Y-14672787D01*
X8396063Y-14910882D02*
X8386539Y-14901358D01*
X8386539Y-14901358D02*
X8367491Y-14872787D01*
X8367491Y-14872787D02*
X8357968Y-14853739D01*
X8357968Y-14853739D02*
X8348444Y-14825168D01*
X8348444Y-14825168D02*
X8338920Y-14777549D01*
X8338920Y-14777549D02*
X8338920Y-14739453D01*
X8338920Y-14739453D02*
X8348444Y-14691834D01*
X8348444Y-14691834D02*
X8357968Y-14663263D01*
X8357968Y-14663263D02*
X8367491Y-14644215D01*
X8367491Y-14644215D02*
X8386539Y-14615644D01*
X8386539Y-14615644D02*
X8396063Y-14606120D01*
X8577015Y-14834691D02*
X8462730Y-14834691D01*
X8519872Y-14834691D02*
X8519872Y-14634691D01*
X8519872Y-14634691D02*
X8500825Y-14663263D01*
X8500825Y-14663263D02*
X8481777Y-14682310D01*
X8481777Y-14682310D02*
X8462730Y-14691834D01*
X8748444Y-14634691D02*
X8710349Y-14634691D01*
X8710349Y-14634691D02*
X8691301Y-14644215D01*
X8691301Y-14644215D02*
X8681777Y-14653739D01*
X8681777Y-14653739D02*
X8662730Y-14682310D01*
X8662730Y-14682310D02*
X8653206Y-14720406D01*
X8653206Y-14720406D02*
X8653206Y-14796596D01*
X8653206Y-14796596D02*
X8662730Y-14815644D01*
X8662730Y-14815644D02*
X8672253Y-14825168D01*
X8672253Y-14825168D02*
X8691301Y-14834691D01*
X8691301Y-14834691D02*
X8729396Y-14834691D01*
X8729396Y-14834691D02*
X8748444Y-14825168D01*
X8748444Y-14825168D02*
X8757968Y-14815644D01*
X8757968Y-14815644D02*
X8767491Y-14796596D01*
X8767491Y-14796596D02*
X8767491Y-14748977D01*
X8767491Y-14748977D02*
X8757968Y-14729930D01*
X8757968Y-14729930D02*
X8748444Y-14720406D01*
X8748444Y-14720406D02*
X8729396Y-14710882D01*
X8729396Y-14710882D02*
X8691301Y-14710882D01*
X8691301Y-14710882D02*
X8672253Y-14720406D01*
X8672253Y-14720406D02*
X8662730Y-14729930D01*
X8662730Y-14729930D02*
X8653206Y-14748977D01*
X9005587Y-14834691D02*
X9005587Y-14634691D01*
X9091301Y-14834691D02*
X9091301Y-14729930D01*
X9091301Y-14729930D02*
X9081777Y-14710882D01*
X9081777Y-14710882D02*
X9062730Y-14701358D01*
X9062730Y-14701358D02*
X9034158Y-14701358D01*
X9034158Y-14701358D02*
X9015111Y-14710882D01*
X9015111Y-14710882D02*
X9005587Y-14720406D01*
X9215111Y-14834691D02*
X9196063Y-14825168D01*
X9196063Y-14825168D02*
X9186539Y-14815644D01*
X9186539Y-14815644D02*
X9177015Y-14796596D01*
X9177015Y-14796596D02*
X9177015Y-14739453D01*
X9177015Y-14739453D02*
X9186539Y-14720406D01*
X9186539Y-14720406D02*
X9196063Y-14710882D01*
X9196063Y-14710882D02*
X9215111Y-14701358D01*
X9215111Y-14701358D02*
X9243682Y-14701358D01*
X9243682Y-14701358D02*
X9262730Y-14710882D01*
X9262730Y-14710882D02*
X9272253Y-14720406D01*
X9272253Y-14720406D02*
X9281777Y-14739453D01*
X9281777Y-14739453D02*
X9281777Y-14796596D01*
X9281777Y-14796596D02*
X9272253Y-14815644D01*
X9272253Y-14815644D02*
X9262730Y-14825168D01*
X9262730Y-14825168D02*
X9243682Y-14834691D01*
X9243682Y-14834691D02*
X9215111Y-14834691D01*
X9396063Y-14834691D02*
X9377015Y-14825168D01*
X9377015Y-14825168D02*
X9367492Y-14806120D01*
X9367492Y-14806120D02*
X9367492Y-14634691D01*
X9548444Y-14825168D02*
X9529396Y-14834691D01*
X9529396Y-14834691D02*
X9491301Y-14834691D01*
X9491301Y-14834691D02*
X9472253Y-14825168D01*
X9472253Y-14825168D02*
X9462730Y-14806120D01*
X9462730Y-14806120D02*
X9462730Y-14729930D01*
X9462730Y-14729930D02*
X9472253Y-14710882D01*
X9472253Y-14710882D02*
X9491301Y-14701358D01*
X9491301Y-14701358D02*
X9529396Y-14701358D01*
X9529396Y-14701358D02*
X9548444Y-14710882D01*
X9548444Y-14710882D02*
X9557968Y-14729930D01*
X9557968Y-14729930D02*
X9557968Y-14748977D01*
X9557968Y-14748977D02*
X9462730Y-14768025D01*
X9634158Y-14825168D02*
X9653206Y-14834691D01*
X9653206Y-14834691D02*
X9691301Y-14834691D01*
X9691301Y-14834691D02*
X9710349Y-14825168D01*
X9710349Y-14825168D02*
X9719873Y-14806120D01*
X9719873Y-14806120D02*
X9719873Y-14796596D01*
X9719873Y-14796596D02*
X9710349Y-14777549D01*
X9710349Y-14777549D02*
X9691301Y-14768025D01*
X9691301Y-14768025D02*
X9662730Y-14768025D01*
X9662730Y-14768025D02*
X9643682Y-14758501D01*
X9643682Y-14758501D02*
X9634158Y-14739453D01*
X9634158Y-14739453D02*
X9634158Y-14729930D01*
X9634158Y-14729930D02*
X9643682Y-14710882D01*
X9643682Y-14710882D02*
X9662730Y-14701358D01*
X9662730Y-14701358D02*
X9691301Y-14701358D01*
X9691301Y-14701358D02*
X9710349Y-14710882D01*
X9786539Y-14910882D02*
X9796063Y-14901358D01*
X9796063Y-14901358D02*
X9815111Y-14872787D01*
X9815111Y-14872787D02*
X9824634Y-14853739D01*
X9824634Y-14853739D02*
X9834158Y-14825168D01*
X9834158Y-14825168D02*
X9843682Y-14777549D01*
X9843682Y-14777549D02*
X9843682Y-14739453D01*
X9843682Y-14739453D02*
X9834158Y-14691834D01*
X9834158Y-14691834D02*
X9824634Y-14663263D01*
X9824634Y-14663263D02*
X9815111Y-14644215D01*
X9815111Y-14644215D02*
X9796063Y-14615644D01*
X9796063Y-14615644D02*
X9786539Y-14606120D01*
D10*
X4771000Y-14957208D02*
X4771000Y-15057208D01*
X4721000Y-15007208D02*
X4821000Y-15007208D01*
D11*
X5186539Y-15098691D02*
X5072253Y-15098691D01*
X5129396Y-15098691D02*
X5129396Y-14898691D01*
X5129396Y-14898691D02*
X5110348Y-14927263D01*
X5110348Y-14927263D02*
X5091301Y-14946310D01*
X5091301Y-14946310D02*
X5072253Y-14955834D01*
X5272253Y-15079644D02*
X5281777Y-15089168D01*
X5281777Y-15089168D02*
X5272253Y-15098691D01*
X5272253Y-15098691D02*
X5262729Y-15089168D01*
X5262729Y-15089168D02*
X5272253Y-15079644D01*
X5272253Y-15079644D02*
X5272253Y-15098691D01*
X5405586Y-14898691D02*
X5424634Y-14898691D01*
X5424634Y-14898691D02*
X5443682Y-14908215D01*
X5443682Y-14908215D02*
X5453205Y-14917739D01*
X5453205Y-14917739D02*
X5462729Y-14936787D01*
X5462729Y-14936787D02*
X5472253Y-14974882D01*
X5472253Y-14974882D02*
X5472253Y-15022501D01*
X5472253Y-15022501D02*
X5462729Y-15060596D01*
X5462729Y-15060596D02*
X5453205Y-15079644D01*
X5453205Y-15079644D02*
X5443682Y-15089168D01*
X5443682Y-15089168D02*
X5424634Y-15098691D01*
X5424634Y-15098691D02*
X5405586Y-15098691D01*
X5405586Y-15098691D02*
X5386539Y-15089168D01*
X5386539Y-15089168D02*
X5377015Y-15079644D01*
X5377015Y-15079644D02*
X5367491Y-15060596D01*
X5367491Y-15060596D02*
X5357967Y-15022501D01*
X5357967Y-15022501D02*
X5357967Y-14974882D01*
X5357967Y-14974882D02*
X5367491Y-14936787D01*
X5367491Y-14936787D02*
X5377015Y-14917739D01*
X5377015Y-14917739D02*
X5386539Y-14908215D01*
X5386539Y-14908215D02*
X5405586Y-14898691D01*
X5596062Y-14898691D02*
X5615110Y-14898691D01*
X5615110Y-14898691D02*
X5634158Y-14908215D01*
X5634158Y-14908215D02*
X5643682Y-14917739D01*
X5643682Y-14917739D02*
X5653205Y-14936787D01*
X5653205Y-14936787D02*
X5662729Y-14974882D01*
X5662729Y-14974882D02*
X5662729Y-15022501D01*
X5662729Y-15022501D02*
X5653205Y-15060596D01*
X5653205Y-15060596D02*
X5643682Y-15079644D01*
X5643682Y-15079644D02*
X5634158Y-15089168D01*
X5634158Y-15089168D02*
X5615110Y-15098691D01*
X5615110Y-15098691D02*
X5596062Y-15098691D01*
X5596062Y-15098691D02*
X5577015Y-15089168D01*
X5577015Y-15089168D02*
X5567491Y-15079644D01*
X5567491Y-15079644D02*
X5557967Y-15060596D01*
X5557967Y-15060596D02*
X5548444Y-15022501D01*
X5548444Y-15022501D02*
X5548444Y-14974882D01*
X5548444Y-14974882D02*
X5557967Y-14936787D01*
X5557967Y-14936787D02*
X5567491Y-14917739D01*
X5567491Y-14917739D02*
X5577015Y-14908215D01*
X5577015Y-14908215D02*
X5596062Y-14898691D01*
X5786539Y-14898691D02*
X5805586Y-14898691D01*
X5805586Y-14898691D02*
X5824634Y-14908215D01*
X5824634Y-14908215D02*
X5834158Y-14917739D01*
X5834158Y-14917739D02*
X5843682Y-14936787D01*
X5843682Y-14936787D02*
X5853205Y-14974882D01*
X5853205Y-14974882D02*
X5853205Y-15022501D01*
X5853205Y-15022501D02*
X5843682Y-15060596D01*
X5843682Y-15060596D02*
X5834158Y-15079644D01*
X5834158Y-15079644D02*
X5824634Y-15089168D01*
X5824634Y-15089168D02*
X5805586Y-15098691D01*
X5805586Y-15098691D02*
X5786539Y-15098691D01*
X5786539Y-15098691D02*
X5767491Y-15089168D01*
X5767491Y-15089168D02*
X5757967Y-15079644D01*
X5757967Y-15079644D02*
X5748443Y-15060596D01*
X5748443Y-15060596D02*
X5738920Y-15022501D01*
X5738920Y-15022501D02*
X5738920Y-14974882D01*
X5738920Y-14974882D02*
X5748443Y-14936787D01*
X5748443Y-14936787D02*
X5757967Y-14917739D01*
X5757967Y-14917739D02*
X5767491Y-14908215D01*
X5767491Y-14908215D02*
X5786539Y-14898691D01*
X5938920Y-15098691D02*
X5938920Y-14965358D01*
X5938920Y-14984406D02*
X5948443Y-14974882D01*
X5948443Y-14974882D02*
X5967491Y-14965358D01*
X5967491Y-14965358D02*
X5996063Y-14965358D01*
X5996063Y-14965358D02*
X6015110Y-14974882D01*
X6015110Y-14974882D02*
X6024634Y-14993930D01*
X6024634Y-14993930D02*
X6024634Y-15098691D01*
X6024634Y-14993930D02*
X6034158Y-14974882D01*
X6034158Y-14974882D02*
X6053205Y-14965358D01*
X6053205Y-14965358D02*
X6081777Y-14965358D01*
X6081777Y-14965358D02*
X6100824Y-14974882D01*
X6100824Y-14974882D02*
X6110348Y-14993930D01*
X6110348Y-14993930D02*
X6110348Y-15098691D01*
X6205586Y-15098691D02*
X6205586Y-14965358D01*
X6205586Y-14984406D02*
X6215110Y-14974882D01*
X6215110Y-14974882D02*
X6234158Y-14965358D01*
X6234158Y-14965358D02*
X6262729Y-14965358D01*
X6262729Y-14965358D02*
X6281777Y-14974882D01*
X6281777Y-14974882D02*
X6291301Y-14993930D01*
X6291301Y-14993930D02*
X6291301Y-15098691D01*
X6291301Y-14993930D02*
X6300824Y-14974882D01*
X6300824Y-14974882D02*
X6319872Y-14965358D01*
X6319872Y-14965358D02*
X6348443Y-14965358D01*
X6348443Y-14965358D02*
X6367491Y-14974882D01*
X6367491Y-14974882D02*
X6377015Y-14993930D01*
X6377015Y-14993930D02*
X6377015Y-15098691D01*
X6767491Y-14889168D02*
X6596063Y-15146310D01*
X7024634Y-14898691D02*
X7043682Y-14898691D01*
X7043682Y-14898691D02*
X7062729Y-14908215D01*
X7062729Y-14908215D02*
X7072253Y-14917739D01*
X7072253Y-14917739D02*
X7081777Y-14936787D01*
X7081777Y-14936787D02*
X7091301Y-14974882D01*
X7091301Y-14974882D02*
X7091301Y-15022501D01*
X7091301Y-15022501D02*
X7081777Y-15060596D01*
X7081777Y-15060596D02*
X7072253Y-15079644D01*
X7072253Y-15079644D02*
X7062729Y-15089168D01*
X7062729Y-15089168D02*
X7043682Y-15098691D01*
X7043682Y-15098691D02*
X7024634Y-15098691D01*
X7024634Y-15098691D02*
X7005586Y-15089168D01*
X7005586Y-15089168D02*
X6996063Y-15079644D01*
X6996063Y-15079644D02*
X6986539Y-15060596D01*
X6986539Y-15060596D02*
X6977015Y-15022501D01*
X6977015Y-15022501D02*
X6977015Y-14974882D01*
X6977015Y-14974882D02*
X6986539Y-14936787D01*
X6986539Y-14936787D02*
X6996063Y-14917739D01*
X6996063Y-14917739D02*
X7005586Y-14908215D01*
X7005586Y-14908215D02*
X7024634Y-14898691D01*
X7177015Y-15079644D02*
X7186539Y-15089168D01*
X7186539Y-15089168D02*
X7177015Y-15098691D01*
X7177015Y-15098691D02*
X7167491Y-15089168D01*
X7167491Y-15089168D02*
X7177015Y-15079644D01*
X7177015Y-15079644D02*
X7177015Y-15098691D01*
X7310348Y-14898691D02*
X7329396Y-14898691D01*
X7329396Y-14898691D02*
X7348444Y-14908215D01*
X7348444Y-14908215D02*
X7357967Y-14917739D01*
X7357967Y-14917739D02*
X7367491Y-14936787D01*
X7367491Y-14936787D02*
X7377015Y-14974882D01*
X7377015Y-14974882D02*
X7377015Y-15022501D01*
X7377015Y-15022501D02*
X7367491Y-15060596D01*
X7367491Y-15060596D02*
X7357967Y-15079644D01*
X7357967Y-15079644D02*
X7348444Y-15089168D01*
X7348444Y-15089168D02*
X7329396Y-15098691D01*
X7329396Y-15098691D02*
X7310348Y-15098691D01*
X7310348Y-15098691D02*
X7291301Y-15089168D01*
X7291301Y-15089168D02*
X7281777Y-15079644D01*
X7281777Y-15079644D02*
X7272253Y-15060596D01*
X7272253Y-15060596D02*
X7262729Y-15022501D01*
X7262729Y-15022501D02*
X7262729Y-14974882D01*
X7262729Y-14974882D02*
X7272253Y-14936787D01*
X7272253Y-14936787D02*
X7281777Y-14917739D01*
X7281777Y-14917739D02*
X7291301Y-14908215D01*
X7291301Y-14908215D02*
X7310348Y-14898691D01*
X7443682Y-14898691D02*
X7567491Y-14898691D01*
X7567491Y-14898691D02*
X7500825Y-14974882D01*
X7500825Y-14974882D02*
X7529396Y-14974882D01*
X7529396Y-14974882D02*
X7548444Y-14984406D01*
X7548444Y-14984406D02*
X7557967Y-14993930D01*
X7557967Y-14993930D02*
X7567491Y-15012977D01*
X7567491Y-15012977D02*
X7567491Y-15060596D01*
X7567491Y-15060596D02*
X7557967Y-15079644D01*
X7557967Y-15079644D02*
X7548444Y-15089168D01*
X7548444Y-15089168D02*
X7529396Y-15098691D01*
X7529396Y-15098691D02*
X7472253Y-15098691D01*
X7472253Y-15098691D02*
X7453206Y-15089168D01*
X7453206Y-15089168D02*
X7443682Y-15079644D01*
X7662729Y-15098691D02*
X7700825Y-15098691D01*
X7700825Y-15098691D02*
X7719872Y-15089168D01*
X7719872Y-15089168D02*
X7729396Y-15079644D01*
X7729396Y-15079644D02*
X7748444Y-15051072D01*
X7748444Y-15051072D02*
X7757967Y-15012977D01*
X7757967Y-15012977D02*
X7757967Y-14936787D01*
X7757967Y-14936787D02*
X7748444Y-14917739D01*
X7748444Y-14917739D02*
X7738920Y-14908215D01*
X7738920Y-14908215D02*
X7719872Y-14898691D01*
X7719872Y-14898691D02*
X7681777Y-14898691D01*
X7681777Y-14898691D02*
X7662729Y-14908215D01*
X7662729Y-14908215D02*
X7653206Y-14917739D01*
X7653206Y-14917739D02*
X7643682Y-14936787D01*
X7643682Y-14936787D02*
X7643682Y-14984406D01*
X7643682Y-14984406D02*
X7653206Y-15003453D01*
X7653206Y-15003453D02*
X7662729Y-15012977D01*
X7662729Y-15012977D02*
X7681777Y-15022501D01*
X7681777Y-15022501D02*
X7719872Y-15022501D01*
X7719872Y-15022501D02*
X7738920Y-15012977D01*
X7738920Y-15012977D02*
X7748444Y-15003453D01*
X7748444Y-15003453D02*
X7757967Y-14984406D01*
X7929396Y-14965358D02*
X7929396Y-15098691D01*
X7881777Y-14889168D02*
X7834158Y-15032025D01*
X7834158Y-15032025D02*
X7957967Y-15032025D01*
X8024634Y-14898691D02*
X8024634Y-14936787D01*
X8100825Y-14898691D02*
X8100825Y-14936787D01*
X8396063Y-15174882D02*
X8386539Y-15165358D01*
X8386539Y-15165358D02*
X8367491Y-15136787D01*
X8367491Y-15136787D02*
X8357968Y-15117739D01*
X8357968Y-15117739D02*
X8348444Y-15089168D01*
X8348444Y-15089168D02*
X8338920Y-15041549D01*
X8338920Y-15041549D02*
X8338920Y-15003453D01*
X8338920Y-15003453D02*
X8348444Y-14955834D01*
X8348444Y-14955834D02*
X8357968Y-14927263D01*
X8357968Y-14927263D02*
X8367491Y-14908215D01*
X8367491Y-14908215D02*
X8386539Y-14879644D01*
X8386539Y-14879644D02*
X8396063Y-14870120D01*
X8577015Y-15098691D02*
X8462730Y-15098691D01*
X8519872Y-15098691D02*
X8519872Y-14898691D01*
X8519872Y-14898691D02*
X8500825Y-14927263D01*
X8500825Y-14927263D02*
X8481777Y-14946310D01*
X8481777Y-14946310D02*
X8462730Y-14955834D01*
X8700825Y-14898691D02*
X8719872Y-14898691D01*
X8719872Y-14898691D02*
X8738920Y-14908215D01*
X8738920Y-14908215D02*
X8748444Y-14917739D01*
X8748444Y-14917739D02*
X8757968Y-14936787D01*
X8757968Y-14936787D02*
X8767491Y-14974882D01*
X8767491Y-14974882D02*
X8767491Y-15022501D01*
X8767491Y-15022501D02*
X8757968Y-15060596D01*
X8757968Y-15060596D02*
X8748444Y-15079644D01*
X8748444Y-15079644D02*
X8738920Y-15089168D01*
X8738920Y-15089168D02*
X8719872Y-15098691D01*
X8719872Y-15098691D02*
X8700825Y-15098691D01*
X8700825Y-15098691D02*
X8681777Y-15089168D01*
X8681777Y-15089168D02*
X8672253Y-15079644D01*
X8672253Y-15079644D02*
X8662730Y-15060596D01*
X8662730Y-15060596D02*
X8653206Y-15022501D01*
X8653206Y-15022501D02*
X8653206Y-14974882D01*
X8653206Y-14974882D02*
X8662730Y-14936787D01*
X8662730Y-14936787D02*
X8672253Y-14917739D01*
X8672253Y-14917739D02*
X8681777Y-14908215D01*
X8681777Y-14908215D02*
X8700825Y-14898691D01*
X9005587Y-15098691D02*
X9005587Y-14898691D01*
X9091301Y-15098691D02*
X9091301Y-14993930D01*
X9091301Y-14993930D02*
X9081777Y-14974882D01*
X9081777Y-14974882D02*
X9062730Y-14965358D01*
X9062730Y-14965358D02*
X9034158Y-14965358D01*
X9034158Y-14965358D02*
X9015111Y-14974882D01*
X9015111Y-14974882D02*
X9005587Y-14984406D01*
X9215111Y-15098691D02*
X9196063Y-15089168D01*
X9196063Y-15089168D02*
X9186539Y-15079644D01*
X9186539Y-15079644D02*
X9177015Y-15060596D01*
X9177015Y-15060596D02*
X9177015Y-15003453D01*
X9177015Y-15003453D02*
X9186539Y-14984406D01*
X9186539Y-14984406D02*
X9196063Y-14974882D01*
X9196063Y-14974882D02*
X9215111Y-14965358D01*
X9215111Y-14965358D02*
X9243682Y-14965358D01*
X9243682Y-14965358D02*
X9262730Y-14974882D01*
X9262730Y-14974882D02*
X9272253Y-14984406D01*
X9272253Y-14984406D02*
X9281777Y-15003453D01*
X9281777Y-15003453D02*
X9281777Y-15060596D01*
X9281777Y-15060596D02*
X9272253Y-15079644D01*
X9272253Y-15079644D02*
X9262730Y-15089168D01*
X9262730Y-15089168D02*
X9243682Y-15098691D01*
X9243682Y-15098691D02*
X9215111Y-15098691D01*
X9396063Y-15098691D02*
X9377015Y-15089168D01*
X9377015Y-15089168D02*
X9367492Y-15070120D01*
X9367492Y-15070120D02*
X9367492Y-14898691D01*
X9548444Y-15089168D02*
X9529396Y-15098691D01*
X9529396Y-15098691D02*
X9491301Y-15098691D01*
X9491301Y-15098691D02*
X9472253Y-15089168D01*
X9472253Y-15089168D02*
X9462730Y-15070120D01*
X9462730Y-15070120D02*
X9462730Y-14993930D01*
X9462730Y-14993930D02*
X9472253Y-14974882D01*
X9472253Y-14974882D02*
X9491301Y-14965358D01*
X9491301Y-14965358D02*
X9529396Y-14965358D01*
X9529396Y-14965358D02*
X9548444Y-14974882D01*
X9548444Y-14974882D02*
X9557968Y-14993930D01*
X9557968Y-14993930D02*
X9557968Y-15012977D01*
X9557968Y-15012977D02*
X9462730Y-15032025D01*
X9634158Y-15089168D02*
X9653206Y-15098691D01*
X9653206Y-15098691D02*
X9691301Y-15098691D01*
X9691301Y-15098691D02*
X9710349Y-15089168D01*
X9710349Y-15089168D02*
X9719873Y-15070120D01*
X9719873Y-15070120D02*
X9719873Y-15060596D01*
X9719873Y-15060596D02*
X9710349Y-15041549D01*
X9710349Y-15041549D02*
X9691301Y-15032025D01*
X9691301Y-15032025D02*
X9662730Y-15032025D01*
X9662730Y-15032025D02*
X9643682Y-15022501D01*
X9643682Y-15022501D02*
X9634158Y-15003453D01*
X9634158Y-15003453D02*
X9634158Y-14993930D01*
X9634158Y-14993930D02*
X9643682Y-14974882D01*
X9643682Y-14974882D02*
X9662730Y-14965358D01*
X9662730Y-14965358D02*
X9691301Y-14965358D01*
X9691301Y-14965358D02*
X9710349Y-14974882D01*
X9786539Y-15174882D02*
X9796063Y-15165358D01*
X9796063Y-15165358D02*
X9815111Y-15136787D01*
X9815111Y-15136787D02*
X9824634Y-15117739D01*
X9824634Y-15117739D02*
X9834158Y-15089168D01*
X9834158Y-15089168D02*
X9843682Y-15041549D01*
X9843682Y-15041549D02*
X9843682Y-15003453D01*
X9843682Y-15003453D02*
X9834158Y-14955834D01*
X9834158Y-14955834D02*
X9824634Y-14927263D01*
X9824634Y-14927263D02*
X9815111Y-14908215D01*
X9815111Y-14908215D02*
X9796063Y-14879644D01*
X9796063Y-14879644D02*
X9786539Y-14870120D01*
D14*
X4804891Y-15310099D02*
X4804891Y-15232316D01*
X4727109Y-15232316D01*
X4727109Y-15310099D01*
X4804891Y-15310099D01*
D11*
X5186539Y-15362691D02*
X5072253Y-15362691D01*
X5129396Y-15362691D02*
X5129396Y-15162691D01*
X5129396Y-15162691D02*
X5110348Y-15191263D01*
X5110348Y-15191263D02*
X5091301Y-15210310D01*
X5091301Y-15210310D02*
X5072253Y-15219834D01*
X5272253Y-15343644D02*
X5281777Y-15353168D01*
X5281777Y-15353168D02*
X5272253Y-15362691D01*
X5272253Y-15362691D02*
X5262729Y-15353168D01*
X5262729Y-15353168D02*
X5272253Y-15343644D01*
X5272253Y-15343644D02*
X5272253Y-15362691D01*
X5472253Y-15362691D02*
X5357967Y-15362691D01*
X5415110Y-15362691D02*
X5415110Y-15162691D01*
X5415110Y-15162691D02*
X5396063Y-15191263D01*
X5396063Y-15191263D02*
X5377015Y-15210310D01*
X5377015Y-15210310D02*
X5357967Y-15219834D01*
X5596062Y-15162691D02*
X5615110Y-15162691D01*
X5615110Y-15162691D02*
X5634158Y-15172215D01*
X5634158Y-15172215D02*
X5643682Y-15181739D01*
X5643682Y-15181739D02*
X5653205Y-15200787D01*
X5653205Y-15200787D02*
X5662729Y-15238882D01*
X5662729Y-15238882D02*
X5662729Y-15286501D01*
X5662729Y-15286501D02*
X5653205Y-15324596D01*
X5653205Y-15324596D02*
X5643682Y-15343644D01*
X5643682Y-15343644D02*
X5634158Y-15353168D01*
X5634158Y-15353168D02*
X5615110Y-15362691D01*
X5615110Y-15362691D02*
X5596062Y-15362691D01*
X5596062Y-15362691D02*
X5577015Y-15353168D01*
X5577015Y-15353168D02*
X5567491Y-15343644D01*
X5567491Y-15343644D02*
X5557967Y-15324596D01*
X5557967Y-15324596D02*
X5548444Y-15286501D01*
X5548444Y-15286501D02*
X5548444Y-15238882D01*
X5548444Y-15238882D02*
X5557967Y-15200787D01*
X5557967Y-15200787D02*
X5567491Y-15181739D01*
X5567491Y-15181739D02*
X5577015Y-15172215D01*
X5577015Y-15172215D02*
X5596062Y-15162691D01*
X5786539Y-15162691D02*
X5805586Y-15162691D01*
X5805586Y-15162691D02*
X5824634Y-15172215D01*
X5824634Y-15172215D02*
X5834158Y-15181739D01*
X5834158Y-15181739D02*
X5843682Y-15200787D01*
X5843682Y-15200787D02*
X5853205Y-15238882D01*
X5853205Y-15238882D02*
X5853205Y-15286501D01*
X5853205Y-15286501D02*
X5843682Y-15324596D01*
X5843682Y-15324596D02*
X5834158Y-15343644D01*
X5834158Y-15343644D02*
X5824634Y-15353168D01*
X5824634Y-15353168D02*
X5805586Y-15362691D01*
X5805586Y-15362691D02*
X5786539Y-15362691D01*
X5786539Y-15362691D02*
X5767491Y-15353168D01*
X5767491Y-15353168D02*
X5757967Y-15343644D01*
X5757967Y-15343644D02*
X5748443Y-15324596D01*
X5748443Y-15324596D02*
X5738920Y-15286501D01*
X5738920Y-15286501D02*
X5738920Y-15238882D01*
X5738920Y-15238882D02*
X5748443Y-15200787D01*
X5748443Y-15200787D02*
X5757967Y-15181739D01*
X5757967Y-15181739D02*
X5767491Y-15172215D01*
X5767491Y-15172215D02*
X5786539Y-15162691D01*
X5938920Y-15362691D02*
X5938920Y-15229358D01*
X5938920Y-15248406D02*
X5948443Y-15238882D01*
X5948443Y-15238882D02*
X5967491Y-15229358D01*
X5967491Y-15229358D02*
X5996063Y-15229358D01*
X5996063Y-15229358D02*
X6015110Y-15238882D01*
X6015110Y-15238882D02*
X6024634Y-15257930D01*
X6024634Y-15257930D02*
X6024634Y-15362691D01*
X6024634Y-15257930D02*
X6034158Y-15238882D01*
X6034158Y-15238882D02*
X6053205Y-15229358D01*
X6053205Y-15229358D02*
X6081777Y-15229358D01*
X6081777Y-15229358D02*
X6100824Y-15238882D01*
X6100824Y-15238882D02*
X6110348Y-15257930D01*
X6110348Y-15257930D02*
X6110348Y-15362691D01*
X6205586Y-15362691D02*
X6205586Y-15229358D01*
X6205586Y-15248406D02*
X6215110Y-15238882D01*
X6215110Y-15238882D02*
X6234158Y-15229358D01*
X6234158Y-15229358D02*
X6262729Y-15229358D01*
X6262729Y-15229358D02*
X6281777Y-15238882D01*
X6281777Y-15238882D02*
X6291301Y-15257930D01*
X6291301Y-15257930D02*
X6291301Y-15362691D01*
X6291301Y-15257930D02*
X6300824Y-15238882D01*
X6300824Y-15238882D02*
X6319872Y-15229358D01*
X6319872Y-15229358D02*
X6348443Y-15229358D01*
X6348443Y-15229358D02*
X6367491Y-15238882D01*
X6367491Y-15238882D02*
X6377015Y-15257930D01*
X6377015Y-15257930D02*
X6377015Y-15362691D01*
X6767491Y-15153168D02*
X6596063Y-15410310D01*
X7024634Y-15162691D02*
X7043682Y-15162691D01*
X7043682Y-15162691D02*
X7062729Y-15172215D01*
X7062729Y-15172215D02*
X7072253Y-15181739D01*
X7072253Y-15181739D02*
X7081777Y-15200787D01*
X7081777Y-15200787D02*
X7091301Y-15238882D01*
X7091301Y-15238882D02*
X7091301Y-15286501D01*
X7091301Y-15286501D02*
X7081777Y-15324596D01*
X7081777Y-15324596D02*
X7072253Y-15343644D01*
X7072253Y-15343644D02*
X7062729Y-15353168D01*
X7062729Y-15353168D02*
X7043682Y-15362691D01*
X7043682Y-15362691D02*
X7024634Y-15362691D01*
X7024634Y-15362691D02*
X7005586Y-15353168D01*
X7005586Y-15353168D02*
X6996063Y-15343644D01*
X6996063Y-15343644D02*
X6986539Y-15324596D01*
X6986539Y-15324596D02*
X6977015Y-15286501D01*
X6977015Y-15286501D02*
X6977015Y-15238882D01*
X6977015Y-15238882D02*
X6986539Y-15200787D01*
X6986539Y-15200787D02*
X6996063Y-15181739D01*
X6996063Y-15181739D02*
X7005586Y-15172215D01*
X7005586Y-15172215D02*
X7024634Y-15162691D01*
X7177015Y-15343644D02*
X7186539Y-15353168D01*
X7186539Y-15353168D02*
X7177015Y-15362691D01*
X7177015Y-15362691D02*
X7167491Y-15353168D01*
X7167491Y-15353168D02*
X7177015Y-15343644D01*
X7177015Y-15343644D02*
X7177015Y-15362691D01*
X7310348Y-15162691D02*
X7329396Y-15162691D01*
X7329396Y-15162691D02*
X7348444Y-15172215D01*
X7348444Y-15172215D02*
X7357967Y-15181739D01*
X7357967Y-15181739D02*
X7367491Y-15200787D01*
X7367491Y-15200787D02*
X7377015Y-15238882D01*
X7377015Y-15238882D02*
X7377015Y-15286501D01*
X7377015Y-15286501D02*
X7367491Y-15324596D01*
X7367491Y-15324596D02*
X7357967Y-15343644D01*
X7357967Y-15343644D02*
X7348444Y-15353168D01*
X7348444Y-15353168D02*
X7329396Y-15362691D01*
X7329396Y-15362691D02*
X7310348Y-15362691D01*
X7310348Y-15362691D02*
X7291301Y-15353168D01*
X7291301Y-15353168D02*
X7281777Y-15343644D01*
X7281777Y-15343644D02*
X7272253Y-15324596D01*
X7272253Y-15324596D02*
X7262729Y-15286501D01*
X7262729Y-15286501D02*
X7262729Y-15238882D01*
X7262729Y-15238882D02*
X7272253Y-15200787D01*
X7272253Y-15200787D02*
X7281777Y-15181739D01*
X7281777Y-15181739D02*
X7291301Y-15172215D01*
X7291301Y-15172215D02*
X7310348Y-15162691D01*
X7548444Y-15229358D02*
X7548444Y-15362691D01*
X7500825Y-15153168D02*
X7453206Y-15296025D01*
X7453206Y-15296025D02*
X7577015Y-15296025D01*
X7634158Y-15162691D02*
X7757967Y-15162691D01*
X7757967Y-15162691D02*
X7691301Y-15238882D01*
X7691301Y-15238882D02*
X7719872Y-15238882D01*
X7719872Y-15238882D02*
X7738920Y-15248406D01*
X7738920Y-15248406D02*
X7748444Y-15257930D01*
X7748444Y-15257930D02*
X7757967Y-15276977D01*
X7757967Y-15276977D02*
X7757967Y-15324596D01*
X7757967Y-15324596D02*
X7748444Y-15343644D01*
X7748444Y-15343644D02*
X7738920Y-15353168D01*
X7738920Y-15353168D02*
X7719872Y-15362691D01*
X7719872Y-15362691D02*
X7662729Y-15362691D01*
X7662729Y-15362691D02*
X7643682Y-15353168D01*
X7643682Y-15353168D02*
X7634158Y-15343644D01*
X7824634Y-15162691D02*
X7948444Y-15162691D01*
X7948444Y-15162691D02*
X7881777Y-15238882D01*
X7881777Y-15238882D02*
X7910348Y-15238882D01*
X7910348Y-15238882D02*
X7929396Y-15248406D01*
X7929396Y-15248406D02*
X7938920Y-15257930D01*
X7938920Y-15257930D02*
X7948444Y-15276977D01*
X7948444Y-15276977D02*
X7948444Y-15324596D01*
X7948444Y-15324596D02*
X7938920Y-15343644D01*
X7938920Y-15343644D02*
X7929396Y-15353168D01*
X7929396Y-15353168D02*
X7910348Y-15362691D01*
X7910348Y-15362691D02*
X7853206Y-15362691D01*
X7853206Y-15362691D02*
X7834158Y-15353168D01*
X7834158Y-15353168D02*
X7824634Y-15343644D01*
X8024634Y-15162691D02*
X8024634Y-15200787D01*
X8100825Y-15162691D02*
X8100825Y-15200787D01*
X8396063Y-15438882D02*
X8386539Y-15429358D01*
X8386539Y-15429358D02*
X8367491Y-15400787D01*
X8367491Y-15400787D02*
X8357968Y-15381739D01*
X8357968Y-15381739D02*
X8348444Y-15353168D01*
X8348444Y-15353168D02*
X8338920Y-15305549D01*
X8338920Y-15305549D02*
X8338920Y-15267453D01*
X8338920Y-15267453D02*
X8348444Y-15219834D01*
X8348444Y-15219834D02*
X8357968Y-15191263D01*
X8357968Y-15191263D02*
X8367491Y-15172215D01*
X8367491Y-15172215D02*
X8386539Y-15143644D01*
X8386539Y-15143644D02*
X8396063Y-15134120D01*
X8557968Y-15229358D02*
X8557968Y-15362691D01*
X8510349Y-15153168D02*
X8462730Y-15296025D01*
X8462730Y-15296025D02*
X8586539Y-15296025D01*
X8815111Y-15362691D02*
X8815111Y-15162691D01*
X8900825Y-15362691D02*
X8900825Y-15257930D01*
X8900825Y-15257930D02*
X8891301Y-15238882D01*
X8891301Y-15238882D02*
X8872253Y-15229358D01*
X8872253Y-15229358D02*
X8843682Y-15229358D01*
X8843682Y-15229358D02*
X8824634Y-15238882D01*
X8824634Y-15238882D02*
X8815111Y-15248406D01*
X9024634Y-15362691D02*
X9005587Y-15353168D01*
X9005587Y-15353168D02*
X8996063Y-15343644D01*
X8996063Y-15343644D02*
X8986539Y-15324596D01*
X8986539Y-15324596D02*
X8986539Y-15267453D01*
X8986539Y-15267453D02*
X8996063Y-15248406D01*
X8996063Y-15248406D02*
X9005587Y-15238882D01*
X9005587Y-15238882D02*
X9024634Y-15229358D01*
X9024634Y-15229358D02*
X9053206Y-15229358D01*
X9053206Y-15229358D02*
X9072253Y-15238882D01*
X9072253Y-15238882D02*
X9081777Y-15248406D01*
X9081777Y-15248406D02*
X9091301Y-15267453D01*
X9091301Y-15267453D02*
X9091301Y-15324596D01*
X9091301Y-15324596D02*
X9081777Y-15343644D01*
X9081777Y-15343644D02*
X9072253Y-15353168D01*
X9072253Y-15353168D02*
X9053206Y-15362691D01*
X9053206Y-15362691D02*
X9024634Y-15362691D01*
X9205587Y-15362691D02*
X9186539Y-15353168D01*
X9186539Y-15353168D02*
X9177015Y-15334120D01*
X9177015Y-15334120D02*
X9177015Y-15162691D01*
X9357968Y-15353168D02*
X9338920Y-15362691D01*
X9338920Y-15362691D02*
X9300825Y-15362691D01*
X9300825Y-15362691D02*
X9281777Y-15353168D01*
X9281777Y-15353168D02*
X9272253Y-15334120D01*
X9272253Y-15334120D02*
X9272253Y-15257930D01*
X9272253Y-15257930D02*
X9281777Y-15238882D01*
X9281777Y-15238882D02*
X9300825Y-15229358D01*
X9300825Y-15229358D02*
X9338920Y-15229358D01*
X9338920Y-15229358D02*
X9357968Y-15238882D01*
X9357968Y-15238882D02*
X9367492Y-15257930D01*
X9367492Y-15257930D02*
X9367492Y-15276977D01*
X9367492Y-15276977D02*
X9272253Y-15296025D01*
X9443682Y-15353168D02*
X9462730Y-15362691D01*
X9462730Y-15362691D02*
X9500825Y-15362691D01*
X9500825Y-15362691D02*
X9519873Y-15353168D01*
X9519873Y-15353168D02*
X9529396Y-15334120D01*
X9529396Y-15334120D02*
X9529396Y-15324596D01*
X9529396Y-15324596D02*
X9519873Y-15305549D01*
X9519873Y-15305549D02*
X9500825Y-15296025D01*
X9500825Y-15296025D02*
X9472253Y-15296025D01*
X9472253Y-15296025D02*
X9453206Y-15286501D01*
X9453206Y-15286501D02*
X9443682Y-15267453D01*
X9443682Y-15267453D02*
X9443682Y-15257930D01*
X9443682Y-15257930D02*
X9453206Y-15238882D01*
X9453206Y-15238882D02*
X9472253Y-15229358D01*
X9472253Y-15229358D02*
X9500825Y-15229358D01*
X9500825Y-15229358D02*
X9519873Y-15238882D01*
X9596063Y-15438882D02*
X9605587Y-15429358D01*
X9605587Y-15429358D02*
X9624634Y-15400787D01*
X9624634Y-15400787D02*
X9634158Y-15381739D01*
X9634158Y-15381739D02*
X9643682Y-15353168D01*
X9643682Y-15353168D02*
X9653206Y-15305549D01*
X9653206Y-15305549D02*
X9653206Y-15267453D01*
X9653206Y-15267453D02*
X9643682Y-15219834D01*
X9643682Y-15219834D02*
X9634158Y-15191263D01*
X9634158Y-15191263D02*
X9624634Y-15172215D01*
X9624634Y-15172215D02*
X9605587Y-15143644D01*
X9605587Y-15143644D02*
X9596063Y-15134120D01*
D15*
X4761000Y-15595208D02*
X4821000Y-15535208D01*
X4761000Y-15475208D01*
X4701000Y-15535208D01*
X4761000Y-15595208D01*
D11*
X5186539Y-15626691D02*
X5072253Y-15626691D01*
X5129396Y-15626691D02*
X5129396Y-15426691D01*
X5129396Y-15426691D02*
X5110348Y-15455263D01*
X5110348Y-15455263D02*
X5091301Y-15474310D01*
X5091301Y-15474310D02*
X5072253Y-15483834D01*
X5272253Y-15607644D02*
X5281777Y-15617168D01*
X5281777Y-15617168D02*
X5272253Y-15626691D01*
X5272253Y-15626691D02*
X5262729Y-15617168D01*
X5262729Y-15617168D02*
X5272253Y-15607644D01*
X5272253Y-15607644D02*
X5272253Y-15626691D01*
X5357967Y-15445739D02*
X5367491Y-15436215D01*
X5367491Y-15436215D02*
X5386539Y-15426691D01*
X5386539Y-15426691D02*
X5434158Y-15426691D01*
X5434158Y-15426691D02*
X5453205Y-15436215D01*
X5453205Y-15436215D02*
X5462729Y-15445739D01*
X5462729Y-15445739D02*
X5472253Y-15464787D01*
X5472253Y-15464787D02*
X5472253Y-15483834D01*
X5472253Y-15483834D02*
X5462729Y-15512406D01*
X5462729Y-15512406D02*
X5348444Y-15626691D01*
X5348444Y-15626691D02*
X5472253Y-15626691D01*
X5596062Y-15426691D02*
X5615110Y-15426691D01*
X5615110Y-15426691D02*
X5634158Y-15436215D01*
X5634158Y-15436215D02*
X5643682Y-15445739D01*
X5643682Y-15445739D02*
X5653205Y-15464787D01*
X5653205Y-15464787D02*
X5662729Y-15502882D01*
X5662729Y-15502882D02*
X5662729Y-15550501D01*
X5662729Y-15550501D02*
X5653205Y-15588596D01*
X5653205Y-15588596D02*
X5643682Y-15607644D01*
X5643682Y-15607644D02*
X5634158Y-15617168D01*
X5634158Y-15617168D02*
X5615110Y-15626691D01*
X5615110Y-15626691D02*
X5596062Y-15626691D01*
X5596062Y-15626691D02*
X5577015Y-15617168D01*
X5577015Y-15617168D02*
X5567491Y-15607644D01*
X5567491Y-15607644D02*
X5557967Y-15588596D01*
X5557967Y-15588596D02*
X5548444Y-15550501D01*
X5548444Y-15550501D02*
X5548444Y-15502882D01*
X5548444Y-15502882D02*
X5557967Y-15464787D01*
X5557967Y-15464787D02*
X5567491Y-15445739D01*
X5567491Y-15445739D02*
X5577015Y-15436215D01*
X5577015Y-15436215D02*
X5596062Y-15426691D01*
X5786539Y-15426691D02*
X5805586Y-15426691D01*
X5805586Y-15426691D02*
X5824634Y-15436215D01*
X5824634Y-15436215D02*
X5834158Y-15445739D01*
X5834158Y-15445739D02*
X5843682Y-15464787D01*
X5843682Y-15464787D02*
X5853205Y-15502882D01*
X5853205Y-15502882D02*
X5853205Y-15550501D01*
X5853205Y-15550501D02*
X5843682Y-15588596D01*
X5843682Y-15588596D02*
X5834158Y-15607644D01*
X5834158Y-15607644D02*
X5824634Y-15617168D01*
X5824634Y-15617168D02*
X5805586Y-15626691D01*
X5805586Y-15626691D02*
X5786539Y-15626691D01*
X5786539Y-15626691D02*
X5767491Y-15617168D01*
X5767491Y-15617168D02*
X5757967Y-15607644D01*
X5757967Y-15607644D02*
X5748443Y-15588596D01*
X5748443Y-15588596D02*
X5738920Y-15550501D01*
X5738920Y-15550501D02*
X5738920Y-15502882D01*
X5738920Y-15502882D02*
X5748443Y-15464787D01*
X5748443Y-15464787D02*
X5757967Y-15445739D01*
X5757967Y-15445739D02*
X5767491Y-15436215D01*
X5767491Y-15436215D02*
X5786539Y-15426691D01*
X5938920Y-15626691D02*
X5938920Y-15493358D01*
X5938920Y-15512406D02*
X5948443Y-15502882D01*
X5948443Y-15502882D02*
X5967491Y-15493358D01*
X5967491Y-15493358D02*
X5996063Y-15493358D01*
X5996063Y-15493358D02*
X6015110Y-15502882D01*
X6015110Y-15502882D02*
X6024634Y-15521930D01*
X6024634Y-15521930D02*
X6024634Y-15626691D01*
X6024634Y-15521930D02*
X6034158Y-15502882D01*
X6034158Y-15502882D02*
X6053205Y-15493358D01*
X6053205Y-15493358D02*
X6081777Y-15493358D01*
X6081777Y-15493358D02*
X6100824Y-15502882D01*
X6100824Y-15502882D02*
X6110348Y-15521930D01*
X6110348Y-15521930D02*
X6110348Y-15626691D01*
X6205586Y-15626691D02*
X6205586Y-15493358D01*
X6205586Y-15512406D02*
X6215110Y-15502882D01*
X6215110Y-15502882D02*
X6234158Y-15493358D01*
X6234158Y-15493358D02*
X6262729Y-15493358D01*
X6262729Y-15493358D02*
X6281777Y-15502882D01*
X6281777Y-15502882D02*
X6291301Y-15521930D01*
X6291301Y-15521930D02*
X6291301Y-15626691D01*
X6291301Y-15521930D02*
X6300824Y-15502882D01*
X6300824Y-15502882D02*
X6319872Y-15493358D01*
X6319872Y-15493358D02*
X6348443Y-15493358D01*
X6348443Y-15493358D02*
X6367491Y-15502882D01*
X6367491Y-15502882D02*
X6377015Y-15521930D01*
X6377015Y-15521930D02*
X6377015Y-15626691D01*
X6767491Y-15417168D02*
X6596063Y-15674310D01*
X7024634Y-15426691D02*
X7043682Y-15426691D01*
X7043682Y-15426691D02*
X7062729Y-15436215D01*
X7062729Y-15436215D02*
X7072253Y-15445739D01*
X7072253Y-15445739D02*
X7081777Y-15464787D01*
X7081777Y-15464787D02*
X7091301Y-15502882D01*
X7091301Y-15502882D02*
X7091301Y-15550501D01*
X7091301Y-15550501D02*
X7081777Y-15588596D01*
X7081777Y-15588596D02*
X7072253Y-15607644D01*
X7072253Y-15607644D02*
X7062729Y-15617168D01*
X7062729Y-15617168D02*
X7043682Y-15626691D01*
X7043682Y-15626691D02*
X7024634Y-15626691D01*
X7024634Y-15626691D02*
X7005586Y-15617168D01*
X7005586Y-15617168D02*
X6996063Y-15607644D01*
X6996063Y-15607644D02*
X6986539Y-15588596D01*
X6986539Y-15588596D02*
X6977015Y-15550501D01*
X6977015Y-15550501D02*
X6977015Y-15502882D01*
X6977015Y-15502882D02*
X6986539Y-15464787D01*
X6986539Y-15464787D02*
X6996063Y-15445739D01*
X6996063Y-15445739D02*
X7005586Y-15436215D01*
X7005586Y-15436215D02*
X7024634Y-15426691D01*
X7177015Y-15607644D02*
X7186539Y-15617168D01*
X7186539Y-15617168D02*
X7177015Y-15626691D01*
X7177015Y-15626691D02*
X7167491Y-15617168D01*
X7167491Y-15617168D02*
X7177015Y-15607644D01*
X7177015Y-15607644D02*
X7177015Y-15626691D01*
X7310348Y-15426691D02*
X7329396Y-15426691D01*
X7329396Y-15426691D02*
X7348444Y-15436215D01*
X7348444Y-15436215D02*
X7357967Y-15445739D01*
X7357967Y-15445739D02*
X7367491Y-15464787D01*
X7367491Y-15464787D02*
X7377015Y-15502882D01*
X7377015Y-15502882D02*
X7377015Y-15550501D01*
X7377015Y-15550501D02*
X7367491Y-15588596D01*
X7367491Y-15588596D02*
X7357967Y-15607644D01*
X7357967Y-15607644D02*
X7348444Y-15617168D01*
X7348444Y-15617168D02*
X7329396Y-15626691D01*
X7329396Y-15626691D02*
X7310348Y-15626691D01*
X7310348Y-15626691D02*
X7291301Y-15617168D01*
X7291301Y-15617168D02*
X7281777Y-15607644D01*
X7281777Y-15607644D02*
X7272253Y-15588596D01*
X7272253Y-15588596D02*
X7262729Y-15550501D01*
X7262729Y-15550501D02*
X7262729Y-15502882D01*
X7262729Y-15502882D02*
X7272253Y-15464787D01*
X7272253Y-15464787D02*
X7281777Y-15445739D01*
X7281777Y-15445739D02*
X7291301Y-15436215D01*
X7291301Y-15436215D02*
X7310348Y-15426691D01*
X7548444Y-15493358D02*
X7548444Y-15626691D01*
X7500825Y-15417168D02*
X7453206Y-15560025D01*
X7453206Y-15560025D02*
X7577015Y-15560025D01*
X7634158Y-15426691D02*
X7767491Y-15426691D01*
X7767491Y-15426691D02*
X7681777Y-15626691D01*
X7834158Y-15445739D02*
X7843682Y-15436215D01*
X7843682Y-15436215D02*
X7862729Y-15426691D01*
X7862729Y-15426691D02*
X7910348Y-15426691D01*
X7910348Y-15426691D02*
X7929396Y-15436215D01*
X7929396Y-15436215D02*
X7938920Y-15445739D01*
X7938920Y-15445739D02*
X7948444Y-15464787D01*
X7948444Y-15464787D02*
X7948444Y-15483834D01*
X7948444Y-15483834D02*
X7938920Y-15512406D01*
X7938920Y-15512406D02*
X7824634Y-15626691D01*
X7824634Y-15626691D02*
X7948444Y-15626691D01*
X8024634Y-15426691D02*
X8024634Y-15464787D01*
X8100825Y-15426691D02*
X8100825Y-15464787D01*
X8396063Y-15702882D02*
X8386539Y-15693358D01*
X8386539Y-15693358D02*
X8367491Y-15664787D01*
X8367491Y-15664787D02*
X8357968Y-15645739D01*
X8357968Y-15645739D02*
X8348444Y-15617168D01*
X8348444Y-15617168D02*
X8338920Y-15569549D01*
X8338920Y-15569549D02*
X8338920Y-15531453D01*
X8338920Y-15531453D02*
X8348444Y-15483834D01*
X8348444Y-15483834D02*
X8357968Y-15455263D01*
X8357968Y-15455263D02*
X8367491Y-15436215D01*
X8367491Y-15436215D02*
X8386539Y-15407644D01*
X8386539Y-15407644D02*
X8396063Y-15398120D01*
X8453206Y-15426691D02*
X8577015Y-15426691D01*
X8577015Y-15426691D02*
X8510349Y-15502882D01*
X8510349Y-15502882D02*
X8538920Y-15502882D01*
X8538920Y-15502882D02*
X8557968Y-15512406D01*
X8557968Y-15512406D02*
X8567491Y-15521930D01*
X8567491Y-15521930D02*
X8577015Y-15540977D01*
X8577015Y-15540977D02*
X8577015Y-15588596D01*
X8577015Y-15588596D02*
X8567491Y-15607644D01*
X8567491Y-15607644D02*
X8557968Y-15617168D01*
X8557968Y-15617168D02*
X8538920Y-15626691D01*
X8538920Y-15626691D02*
X8481777Y-15626691D01*
X8481777Y-15626691D02*
X8462730Y-15617168D01*
X8462730Y-15617168D02*
X8453206Y-15607644D01*
X8653206Y-15445739D02*
X8662730Y-15436215D01*
X8662730Y-15436215D02*
X8681777Y-15426691D01*
X8681777Y-15426691D02*
X8729396Y-15426691D01*
X8729396Y-15426691D02*
X8748444Y-15436215D01*
X8748444Y-15436215D02*
X8757968Y-15445739D01*
X8757968Y-15445739D02*
X8767491Y-15464787D01*
X8767491Y-15464787D02*
X8767491Y-15483834D01*
X8767491Y-15483834D02*
X8757968Y-15512406D01*
X8757968Y-15512406D02*
X8643682Y-15626691D01*
X8643682Y-15626691D02*
X8767491Y-15626691D01*
X9005587Y-15626691D02*
X9005587Y-15426691D01*
X9091301Y-15626691D02*
X9091301Y-15521930D01*
X9091301Y-15521930D02*
X9081777Y-15502882D01*
X9081777Y-15502882D02*
X9062730Y-15493358D01*
X9062730Y-15493358D02*
X9034158Y-15493358D01*
X9034158Y-15493358D02*
X9015111Y-15502882D01*
X9015111Y-15502882D02*
X9005587Y-15512406D01*
X9215111Y-15626691D02*
X9196063Y-15617168D01*
X9196063Y-15617168D02*
X9186539Y-15607644D01*
X9186539Y-15607644D02*
X9177015Y-15588596D01*
X9177015Y-15588596D02*
X9177015Y-15531453D01*
X9177015Y-15531453D02*
X9186539Y-15512406D01*
X9186539Y-15512406D02*
X9196063Y-15502882D01*
X9196063Y-15502882D02*
X9215111Y-15493358D01*
X9215111Y-15493358D02*
X9243682Y-15493358D01*
X9243682Y-15493358D02*
X9262730Y-15502882D01*
X9262730Y-15502882D02*
X9272253Y-15512406D01*
X9272253Y-15512406D02*
X9281777Y-15531453D01*
X9281777Y-15531453D02*
X9281777Y-15588596D01*
X9281777Y-15588596D02*
X9272253Y-15607644D01*
X9272253Y-15607644D02*
X9262730Y-15617168D01*
X9262730Y-15617168D02*
X9243682Y-15626691D01*
X9243682Y-15626691D02*
X9215111Y-15626691D01*
X9396063Y-15626691D02*
X9377015Y-15617168D01*
X9377015Y-15617168D02*
X9367492Y-15598120D01*
X9367492Y-15598120D02*
X9367492Y-15426691D01*
X9548444Y-15617168D02*
X9529396Y-15626691D01*
X9529396Y-15626691D02*
X9491301Y-15626691D01*
X9491301Y-15626691D02*
X9472253Y-15617168D01*
X9472253Y-15617168D02*
X9462730Y-15598120D01*
X9462730Y-15598120D02*
X9462730Y-15521930D01*
X9462730Y-15521930D02*
X9472253Y-15502882D01*
X9472253Y-15502882D02*
X9491301Y-15493358D01*
X9491301Y-15493358D02*
X9529396Y-15493358D01*
X9529396Y-15493358D02*
X9548444Y-15502882D01*
X9548444Y-15502882D02*
X9557968Y-15521930D01*
X9557968Y-15521930D02*
X9557968Y-15540977D01*
X9557968Y-15540977D02*
X9462730Y-15560025D01*
X9634158Y-15617168D02*
X9653206Y-15626691D01*
X9653206Y-15626691D02*
X9691301Y-15626691D01*
X9691301Y-15626691D02*
X9710349Y-15617168D01*
X9710349Y-15617168D02*
X9719873Y-15598120D01*
X9719873Y-15598120D02*
X9719873Y-15588596D01*
X9719873Y-15588596D02*
X9710349Y-15569549D01*
X9710349Y-15569549D02*
X9691301Y-15560025D01*
X9691301Y-15560025D02*
X9662730Y-15560025D01*
X9662730Y-15560025D02*
X9643682Y-15550501D01*
X9643682Y-15550501D02*
X9634158Y-15531453D01*
X9634158Y-15531453D02*
X9634158Y-15521930D01*
X9634158Y-15521930D02*
X9643682Y-15502882D01*
X9643682Y-15502882D02*
X9662730Y-15493358D01*
X9662730Y-15493358D02*
X9691301Y-15493358D01*
X9691301Y-15493358D02*
X9710349Y-15502882D01*
X9786539Y-15702882D02*
X9796063Y-15693358D01*
X9796063Y-15693358D02*
X9815111Y-15664787D01*
X9815111Y-15664787D02*
X9824634Y-15645739D01*
X9824634Y-15645739D02*
X9834158Y-15617168D01*
X9834158Y-15617168D02*
X9843682Y-15569549D01*
X9843682Y-15569549D02*
X9843682Y-15531453D01*
X9843682Y-15531453D02*
X9834158Y-15483834D01*
X9834158Y-15483834D02*
X9824634Y-15455263D01*
X9824634Y-15455263D02*
X9815111Y-15436215D01*
X9815111Y-15436215D02*
X9796063Y-15407644D01*
X9796063Y-15407644D02*
X9786539Y-15398120D01*
D16*
X4691000Y-15734208D02*
X4821000Y-15864208D01*
X4821000Y-15734208D02*
X4691000Y-15864208D01*
X4821000Y-15799208D02*
G75*
G03*
X4821000Y-15799208I-65000J0D01*
G01*
D11*
X5186539Y-15890691D02*
X5072253Y-15890691D01*
X5129396Y-15890691D02*
X5129396Y-15690691D01*
X5129396Y-15690691D02*
X5110348Y-15719263D01*
X5110348Y-15719263D02*
X5091301Y-15738310D01*
X5091301Y-15738310D02*
X5072253Y-15747834D01*
X5272253Y-15871644D02*
X5281777Y-15881168D01*
X5281777Y-15881168D02*
X5272253Y-15890691D01*
X5272253Y-15890691D02*
X5262729Y-15881168D01*
X5262729Y-15881168D02*
X5272253Y-15871644D01*
X5272253Y-15871644D02*
X5272253Y-15890691D01*
X5348444Y-15690691D02*
X5472253Y-15690691D01*
X5472253Y-15690691D02*
X5405586Y-15766882D01*
X5405586Y-15766882D02*
X5434158Y-15766882D01*
X5434158Y-15766882D02*
X5453205Y-15776406D01*
X5453205Y-15776406D02*
X5462729Y-15785930D01*
X5462729Y-15785930D02*
X5472253Y-15804977D01*
X5472253Y-15804977D02*
X5472253Y-15852596D01*
X5472253Y-15852596D02*
X5462729Y-15871644D01*
X5462729Y-15871644D02*
X5453205Y-15881168D01*
X5453205Y-15881168D02*
X5434158Y-15890691D01*
X5434158Y-15890691D02*
X5377015Y-15890691D01*
X5377015Y-15890691D02*
X5357967Y-15881168D01*
X5357967Y-15881168D02*
X5348444Y-15871644D01*
X5596062Y-15690691D02*
X5615110Y-15690691D01*
X5615110Y-15690691D02*
X5634158Y-15700215D01*
X5634158Y-15700215D02*
X5643682Y-15709739D01*
X5643682Y-15709739D02*
X5653205Y-15728787D01*
X5653205Y-15728787D02*
X5662729Y-15766882D01*
X5662729Y-15766882D02*
X5662729Y-15814501D01*
X5662729Y-15814501D02*
X5653205Y-15852596D01*
X5653205Y-15852596D02*
X5643682Y-15871644D01*
X5643682Y-15871644D02*
X5634158Y-15881168D01*
X5634158Y-15881168D02*
X5615110Y-15890691D01*
X5615110Y-15890691D02*
X5596062Y-15890691D01*
X5596062Y-15890691D02*
X5577015Y-15881168D01*
X5577015Y-15881168D02*
X5567491Y-15871644D01*
X5567491Y-15871644D02*
X5557967Y-15852596D01*
X5557967Y-15852596D02*
X5548444Y-15814501D01*
X5548444Y-15814501D02*
X5548444Y-15766882D01*
X5548444Y-15766882D02*
X5557967Y-15728787D01*
X5557967Y-15728787D02*
X5567491Y-15709739D01*
X5567491Y-15709739D02*
X5577015Y-15700215D01*
X5577015Y-15700215D02*
X5596062Y-15690691D01*
X5786539Y-15690691D02*
X5805586Y-15690691D01*
X5805586Y-15690691D02*
X5824634Y-15700215D01*
X5824634Y-15700215D02*
X5834158Y-15709739D01*
X5834158Y-15709739D02*
X5843682Y-15728787D01*
X5843682Y-15728787D02*
X5853205Y-15766882D01*
X5853205Y-15766882D02*
X5853205Y-15814501D01*
X5853205Y-15814501D02*
X5843682Y-15852596D01*
X5843682Y-15852596D02*
X5834158Y-15871644D01*
X5834158Y-15871644D02*
X5824634Y-15881168D01*
X5824634Y-15881168D02*
X5805586Y-15890691D01*
X5805586Y-15890691D02*
X5786539Y-15890691D01*
X5786539Y-15890691D02*
X5767491Y-15881168D01*
X5767491Y-15881168D02*
X5757967Y-15871644D01*
X5757967Y-15871644D02*
X5748443Y-15852596D01*
X5748443Y-15852596D02*
X5738920Y-15814501D01*
X5738920Y-15814501D02*
X5738920Y-15766882D01*
X5738920Y-15766882D02*
X5748443Y-15728787D01*
X5748443Y-15728787D02*
X5757967Y-15709739D01*
X5757967Y-15709739D02*
X5767491Y-15700215D01*
X5767491Y-15700215D02*
X5786539Y-15690691D01*
X5938920Y-15890691D02*
X5938920Y-15757358D01*
X5938920Y-15776406D02*
X5948443Y-15766882D01*
X5948443Y-15766882D02*
X5967491Y-15757358D01*
X5967491Y-15757358D02*
X5996063Y-15757358D01*
X5996063Y-15757358D02*
X6015110Y-15766882D01*
X6015110Y-15766882D02*
X6024634Y-15785930D01*
X6024634Y-15785930D02*
X6024634Y-15890691D01*
X6024634Y-15785930D02*
X6034158Y-15766882D01*
X6034158Y-15766882D02*
X6053205Y-15757358D01*
X6053205Y-15757358D02*
X6081777Y-15757358D01*
X6081777Y-15757358D02*
X6100824Y-15766882D01*
X6100824Y-15766882D02*
X6110348Y-15785930D01*
X6110348Y-15785930D02*
X6110348Y-15890691D01*
X6205586Y-15890691D02*
X6205586Y-15757358D01*
X6205586Y-15776406D02*
X6215110Y-15766882D01*
X6215110Y-15766882D02*
X6234158Y-15757358D01*
X6234158Y-15757358D02*
X6262729Y-15757358D01*
X6262729Y-15757358D02*
X6281777Y-15766882D01*
X6281777Y-15766882D02*
X6291301Y-15785930D01*
X6291301Y-15785930D02*
X6291301Y-15890691D01*
X6291301Y-15785930D02*
X6300824Y-15766882D01*
X6300824Y-15766882D02*
X6319872Y-15757358D01*
X6319872Y-15757358D02*
X6348443Y-15757358D01*
X6348443Y-15757358D02*
X6367491Y-15766882D01*
X6367491Y-15766882D02*
X6377015Y-15785930D01*
X6377015Y-15785930D02*
X6377015Y-15890691D01*
X6767491Y-15681168D02*
X6596063Y-15938310D01*
X7024634Y-15690691D02*
X7043682Y-15690691D01*
X7043682Y-15690691D02*
X7062729Y-15700215D01*
X7062729Y-15700215D02*
X7072253Y-15709739D01*
X7072253Y-15709739D02*
X7081777Y-15728787D01*
X7081777Y-15728787D02*
X7091301Y-15766882D01*
X7091301Y-15766882D02*
X7091301Y-15814501D01*
X7091301Y-15814501D02*
X7081777Y-15852596D01*
X7081777Y-15852596D02*
X7072253Y-15871644D01*
X7072253Y-15871644D02*
X7062729Y-15881168D01*
X7062729Y-15881168D02*
X7043682Y-15890691D01*
X7043682Y-15890691D02*
X7024634Y-15890691D01*
X7024634Y-15890691D02*
X7005586Y-15881168D01*
X7005586Y-15881168D02*
X6996063Y-15871644D01*
X6996063Y-15871644D02*
X6986539Y-15852596D01*
X6986539Y-15852596D02*
X6977015Y-15814501D01*
X6977015Y-15814501D02*
X6977015Y-15766882D01*
X6977015Y-15766882D02*
X6986539Y-15728787D01*
X6986539Y-15728787D02*
X6996063Y-15709739D01*
X6996063Y-15709739D02*
X7005586Y-15700215D01*
X7005586Y-15700215D02*
X7024634Y-15690691D01*
X7177015Y-15871644D02*
X7186539Y-15881168D01*
X7186539Y-15881168D02*
X7177015Y-15890691D01*
X7177015Y-15890691D02*
X7167491Y-15881168D01*
X7167491Y-15881168D02*
X7177015Y-15871644D01*
X7177015Y-15871644D02*
X7177015Y-15890691D01*
X7310348Y-15690691D02*
X7329396Y-15690691D01*
X7329396Y-15690691D02*
X7348444Y-15700215D01*
X7348444Y-15700215D02*
X7357967Y-15709739D01*
X7357967Y-15709739D02*
X7367491Y-15728787D01*
X7367491Y-15728787D02*
X7377015Y-15766882D01*
X7377015Y-15766882D02*
X7377015Y-15814501D01*
X7377015Y-15814501D02*
X7367491Y-15852596D01*
X7367491Y-15852596D02*
X7357967Y-15871644D01*
X7357967Y-15871644D02*
X7348444Y-15881168D01*
X7348444Y-15881168D02*
X7329396Y-15890691D01*
X7329396Y-15890691D02*
X7310348Y-15890691D01*
X7310348Y-15890691D02*
X7291301Y-15881168D01*
X7291301Y-15881168D02*
X7281777Y-15871644D01*
X7281777Y-15871644D02*
X7272253Y-15852596D01*
X7272253Y-15852596D02*
X7262729Y-15814501D01*
X7262729Y-15814501D02*
X7262729Y-15766882D01*
X7262729Y-15766882D02*
X7272253Y-15728787D01*
X7272253Y-15728787D02*
X7281777Y-15709739D01*
X7281777Y-15709739D02*
X7291301Y-15700215D01*
X7291301Y-15700215D02*
X7310348Y-15690691D01*
X7557967Y-15690691D02*
X7462729Y-15690691D01*
X7462729Y-15690691D02*
X7453206Y-15785930D01*
X7453206Y-15785930D02*
X7462729Y-15776406D01*
X7462729Y-15776406D02*
X7481777Y-15766882D01*
X7481777Y-15766882D02*
X7529396Y-15766882D01*
X7529396Y-15766882D02*
X7548444Y-15776406D01*
X7548444Y-15776406D02*
X7557967Y-15785930D01*
X7557967Y-15785930D02*
X7567491Y-15804977D01*
X7567491Y-15804977D02*
X7567491Y-15852596D01*
X7567491Y-15852596D02*
X7557967Y-15871644D01*
X7557967Y-15871644D02*
X7548444Y-15881168D01*
X7548444Y-15881168D02*
X7529396Y-15890691D01*
X7529396Y-15890691D02*
X7481777Y-15890691D01*
X7481777Y-15890691D02*
X7462729Y-15881168D01*
X7462729Y-15881168D02*
X7453206Y-15871644D01*
X7757967Y-15890691D02*
X7643682Y-15890691D01*
X7700825Y-15890691D02*
X7700825Y-15690691D01*
X7700825Y-15690691D02*
X7681777Y-15719263D01*
X7681777Y-15719263D02*
X7662729Y-15738310D01*
X7662729Y-15738310D02*
X7643682Y-15747834D01*
X7834158Y-15709739D02*
X7843682Y-15700215D01*
X7843682Y-15700215D02*
X7862729Y-15690691D01*
X7862729Y-15690691D02*
X7910348Y-15690691D01*
X7910348Y-15690691D02*
X7929396Y-15700215D01*
X7929396Y-15700215D02*
X7938920Y-15709739D01*
X7938920Y-15709739D02*
X7948444Y-15728787D01*
X7948444Y-15728787D02*
X7948444Y-15747834D01*
X7948444Y-15747834D02*
X7938920Y-15776406D01*
X7938920Y-15776406D02*
X7824634Y-15890691D01*
X7824634Y-15890691D02*
X7948444Y-15890691D01*
X8024634Y-15690691D02*
X8024634Y-15728787D01*
X8100825Y-15690691D02*
X8100825Y-15728787D01*
X8396063Y-15966882D02*
X8386539Y-15957358D01*
X8386539Y-15957358D02*
X8367491Y-15928787D01*
X8367491Y-15928787D02*
X8357968Y-15909739D01*
X8357968Y-15909739D02*
X8348444Y-15881168D01*
X8348444Y-15881168D02*
X8338920Y-15833549D01*
X8338920Y-15833549D02*
X8338920Y-15795453D01*
X8338920Y-15795453D02*
X8348444Y-15747834D01*
X8348444Y-15747834D02*
X8357968Y-15719263D01*
X8357968Y-15719263D02*
X8367491Y-15700215D01*
X8367491Y-15700215D02*
X8386539Y-15671644D01*
X8386539Y-15671644D02*
X8396063Y-15662120D01*
X8500825Y-15776406D02*
X8481777Y-15766882D01*
X8481777Y-15766882D02*
X8472253Y-15757358D01*
X8472253Y-15757358D02*
X8462730Y-15738310D01*
X8462730Y-15738310D02*
X8462730Y-15728787D01*
X8462730Y-15728787D02*
X8472253Y-15709739D01*
X8472253Y-15709739D02*
X8481777Y-15700215D01*
X8481777Y-15700215D02*
X8500825Y-15690691D01*
X8500825Y-15690691D02*
X8538920Y-15690691D01*
X8538920Y-15690691D02*
X8557968Y-15700215D01*
X8557968Y-15700215D02*
X8567491Y-15709739D01*
X8567491Y-15709739D02*
X8577015Y-15728787D01*
X8577015Y-15728787D02*
X8577015Y-15738310D01*
X8577015Y-15738310D02*
X8567491Y-15757358D01*
X8567491Y-15757358D02*
X8557968Y-15766882D01*
X8557968Y-15766882D02*
X8538920Y-15776406D01*
X8538920Y-15776406D02*
X8500825Y-15776406D01*
X8500825Y-15776406D02*
X8481777Y-15785930D01*
X8481777Y-15785930D02*
X8472253Y-15795453D01*
X8472253Y-15795453D02*
X8462730Y-15814501D01*
X8462730Y-15814501D02*
X8462730Y-15852596D01*
X8462730Y-15852596D02*
X8472253Y-15871644D01*
X8472253Y-15871644D02*
X8481777Y-15881168D01*
X8481777Y-15881168D02*
X8500825Y-15890691D01*
X8500825Y-15890691D02*
X8538920Y-15890691D01*
X8538920Y-15890691D02*
X8557968Y-15881168D01*
X8557968Y-15881168D02*
X8567491Y-15871644D01*
X8567491Y-15871644D02*
X8577015Y-15852596D01*
X8577015Y-15852596D02*
X8577015Y-15814501D01*
X8577015Y-15814501D02*
X8567491Y-15795453D01*
X8567491Y-15795453D02*
X8557968Y-15785930D01*
X8557968Y-15785930D02*
X8538920Y-15776406D01*
X8815111Y-15890691D02*
X8815111Y-15690691D01*
X8900825Y-15890691D02*
X8900825Y-15785930D01*
X8900825Y-15785930D02*
X8891301Y-15766882D01*
X8891301Y-15766882D02*
X8872253Y-15757358D01*
X8872253Y-15757358D02*
X8843682Y-15757358D01*
X8843682Y-15757358D02*
X8824634Y-15766882D01*
X8824634Y-15766882D02*
X8815111Y-15776406D01*
X9024634Y-15890691D02*
X9005587Y-15881168D01*
X9005587Y-15881168D02*
X8996063Y-15871644D01*
X8996063Y-15871644D02*
X8986539Y-15852596D01*
X8986539Y-15852596D02*
X8986539Y-15795453D01*
X8986539Y-15795453D02*
X8996063Y-15776406D01*
X8996063Y-15776406D02*
X9005587Y-15766882D01*
X9005587Y-15766882D02*
X9024634Y-15757358D01*
X9024634Y-15757358D02*
X9053206Y-15757358D01*
X9053206Y-15757358D02*
X9072253Y-15766882D01*
X9072253Y-15766882D02*
X9081777Y-15776406D01*
X9081777Y-15776406D02*
X9091301Y-15795453D01*
X9091301Y-15795453D02*
X9091301Y-15852596D01*
X9091301Y-15852596D02*
X9081777Y-15871644D01*
X9081777Y-15871644D02*
X9072253Y-15881168D01*
X9072253Y-15881168D02*
X9053206Y-15890691D01*
X9053206Y-15890691D02*
X9024634Y-15890691D01*
X9205587Y-15890691D02*
X9186539Y-15881168D01*
X9186539Y-15881168D02*
X9177015Y-15862120D01*
X9177015Y-15862120D02*
X9177015Y-15690691D01*
X9357968Y-15881168D02*
X9338920Y-15890691D01*
X9338920Y-15890691D02*
X9300825Y-15890691D01*
X9300825Y-15890691D02*
X9281777Y-15881168D01*
X9281777Y-15881168D02*
X9272253Y-15862120D01*
X9272253Y-15862120D02*
X9272253Y-15785930D01*
X9272253Y-15785930D02*
X9281777Y-15766882D01*
X9281777Y-15766882D02*
X9300825Y-15757358D01*
X9300825Y-15757358D02*
X9338920Y-15757358D01*
X9338920Y-15757358D02*
X9357968Y-15766882D01*
X9357968Y-15766882D02*
X9367492Y-15785930D01*
X9367492Y-15785930D02*
X9367492Y-15804977D01*
X9367492Y-15804977D02*
X9272253Y-15824025D01*
X9443682Y-15881168D02*
X9462730Y-15890691D01*
X9462730Y-15890691D02*
X9500825Y-15890691D01*
X9500825Y-15890691D02*
X9519873Y-15881168D01*
X9519873Y-15881168D02*
X9529396Y-15862120D01*
X9529396Y-15862120D02*
X9529396Y-15852596D01*
X9529396Y-15852596D02*
X9519873Y-15833549D01*
X9519873Y-15833549D02*
X9500825Y-15824025D01*
X9500825Y-15824025D02*
X9472253Y-15824025D01*
X9472253Y-15824025D02*
X9453206Y-15814501D01*
X9453206Y-15814501D02*
X9443682Y-15795453D01*
X9443682Y-15795453D02*
X9443682Y-15785930D01*
X9443682Y-15785930D02*
X9453206Y-15766882D01*
X9453206Y-15766882D02*
X9472253Y-15757358D01*
X9472253Y-15757358D02*
X9500825Y-15757358D01*
X9500825Y-15757358D02*
X9519873Y-15766882D01*
X9596063Y-15966882D02*
X9605587Y-15957358D01*
X9605587Y-15957358D02*
X9624634Y-15928787D01*
X9624634Y-15928787D02*
X9634158Y-15909739D01*
X9634158Y-15909739D02*
X9643682Y-15881168D01*
X9643682Y-15881168D02*
X9653206Y-15833549D01*
X9653206Y-15833549D02*
X9653206Y-15795453D01*
X9653206Y-15795453D02*
X9643682Y-15747834D01*
X9643682Y-15747834D02*
X9634158Y-15719263D01*
X9634158Y-15719263D02*
X9624634Y-15700215D01*
X9624634Y-15700215D02*
X9605587Y-15671644D01*
X9605587Y-15671644D02*
X9596063Y-15662120D01*
D17*
X4661000Y-15983208D02*
X4821000Y-16143208D01*
X4821000Y-15983208D02*
X4661000Y-16143208D01*
X4741000Y-15983208D02*
X4741000Y-16143208D01*
X4661000Y-16063208D02*
X4821000Y-16063208D01*
D11*
X5186539Y-16154691D02*
X5072253Y-16154691D01*
X5129396Y-16154691D02*
X5129396Y-15954691D01*
X5129396Y-15954691D02*
X5110348Y-15983263D01*
X5110348Y-15983263D02*
X5091301Y-16002310D01*
X5091301Y-16002310D02*
X5072253Y-16011834D01*
X5272253Y-16135644D02*
X5281777Y-16145168D01*
X5281777Y-16145168D02*
X5272253Y-16154691D01*
X5272253Y-16154691D02*
X5262729Y-16145168D01*
X5262729Y-16145168D02*
X5272253Y-16135644D01*
X5272253Y-16135644D02*
X5272253Y-16154691D01*
X5453205Y-15954691D02*
X5415110Y-15954691D01*
X5415110Y-15954691D02*
X5396063Y-15964215D01*
X5396063Y-15964215D02*
X5386539Y-15973739D01*
X5386539Y-15973739D02*
X5367491Y-16002310D01*
X5367491Y-16002310D02*
X5357967Y-16040406D01*
X5357967Y-16040406D02*
X5357967Y-16116596D01*
X5357967Y-16116596D02*
X5367491Y-16135644D01*
X5367491Y-16135644D02*
X5377015Y-16145168D01*
X5377015Y-16145168D02*
X5396063Y-16154691D01*
X5396063Y-16154691D02*
X5434158Y-16154691D01*
X5434158Y-16154691D02*
X5453205Y-16145168D01*
X5453205Y-16145168D02*
X5462729Y-16135644D01*
X5462729Y-16135644D02*
X5472253Y-16116596D01*
X5472253Y-16116596D02*
X5472253Y-16068977D01*
X5472253Y-16068977D02*
X5462729Y-16049930D01*
X5462729Y-16049930D02*
X5453205Y-16040406D01*
X5453205Y-16040406D02*
X5434158Y-16030882D01*
X5434158Y-16030882D02*
X5396063Y-16030882D01*
X5396063Y-16030882D02*
X5377015Y-16040406D01*
X5377015Y-16040406D02*
X5367491Y-16049930D01*
X5367491Y-16049930D02*
X5357967Y-16068977D01*
X5596062Y-15954691D02*
X5615110Y-15954691D01*
X5615110Y-15954691D02*
X5634158Y-15964215D01*
X5634158Y-15964215D02*
X5643682Y-15973739D01*
X5643682Y-15973739D02*
X5653205Y-15992787D01*
X5653205Y-15992787D02*
X5662729Y-16030882D01*
X5662729Y-16030882D02*
X5662729Y-16078501D01*
X5662729Y-16078501D02*
X5653205Y-16116596D01*
X5653205Y-16116596D02*
X5643682Y-16135644D01*
X5643682Y-16135644D02*
X5634158Y-16145168D01*
X5634158Y-16145168D02*
X5615110Y-16154691D01*
X5615110Y-16154691D02*
X5596062Y-16154691D01*
X5596062Y-16154691D02*
X5577015Y-16145168D01*
X5577015Y-16145168D02*
X5567491Y-16135644D01*
X5567491Y-16135644D02*
X5557967Y-16116596D01*
X5557967Y-16116596D02*
X5548444Y-16078501D01*
X5548444Y-16078501D02*
X5548444Y-16030882D01*
X5548444Y-16030882D02*
X5557967Y-15992787D01*
X5557967Y-15992787D02*
X5567491Y-15973739D01*
X5567491Y-15973739D02*
X5577015Y-15964215D01*
X5577015Y-15964215D02*
X5596062Y-15954691D01*
X5786539Y-15954691D02*
X5805586Y-15954691D01*
X5805586Y-15954691D02*
X5824634Y-15964215D01*
X5824634Y-15964215D02*
X5834158Y-15973739D01*
X5834158Y-15973739D02*
X5843682Y-15992787D01*
X5843682Y-15992787D02*
X5853205Y-16030882D01*
X5853205Y-16030882D02*
X5853205Y-16078501D01*
X5853205Y-16078501D02*
X5843682Y-16116596D01*
X5843682Y-16116596D02*
X5834158Y-16135644D01*
X5834158Y-16135644D02*
X5824634Y-16145168D01*
X5824634Y-16145168D02*
X5805586Y-16154691D01*
X5805586Y-16154691D02*
X5786539Y-16154691D01*
X5786539Y-16154691D02*
X5767491Y-16145168D01*
X5767491Y-16145168D02*
X5757967Y-16135644D01*
X5757967Y-16135644D02*
X5748443Y-16116596D01*
X5748443Y-16116596D02*
X5738920Y-16078501D01*
X5738920Y-16078501D02*
X5738920Y-16030882D01*
X5738920Y-16030882D02*
X5748443Y-15992787D01*
X5748443Y-15992787D02*
X5757967Y-15973739D01*
X5757967Y-15973739D02*
X5767491Y-15964215D01*
X5767491Y-15964215D02*
X5786539Y-15954691D01*
X5938920Y-16154691D02*
X5938920Y-16021358D01*
X5938920Y-16040406D02*
X5948443Y-16030882D01*
X5948443Y-16030882D02*
X5967491Y-16021358D01*
X5967491Y-16021358D02*
X5996063Y-16021358D01*
X5996063Y-16021358D02*
X6015110Y-16030882D01*
X6015110Y-16030882D02*
X6024634Y-16049930D01*
X6024634Y-16049930D02*
X6024634Y-16154691D01*
X6024634Y-16049930D02*
X6034158Y-16030882D01*
X6034158Y-16030882D02*
X6053205Y-16021358D01*
X6053205Y-16021358D02*
X6081777Y-16021358D01*
X6081777Y-16021358D02*
X6100824Y-16030882D01*
X6100824Y-16030882D02*
X6110348Y-16049930D01*
X6110348Y-16049930D02*
X6110348Y-16154691D01*
X6205586Y-16154691D02*
X6205586Y-16021358D01*
X6205586Y-16040406D02*
X6215110Y-16030882D01*
X6215110Y-16030882D02*
X6234158Y-16021358D01*
X6234158Y-16021358D02*
X6262729Y-16021358D01*
X6262729Y-16021358D02*
X6281777Y-16030882D01*
X6281777Y-16030882D02*
X6291301Y-16049930D01*
X6291301Y-16049930D02*
X6291301Y-16154691D01*
X6291301Y-16049930D02*
X6300824Y-16030882D01*
X6300824Y-16030882D02*
X6319872Y-16021358D01*
X6319872Y-16021358D02*
X6348443Y-16021358D01*
X6348443Y-16021358D02*
X6367491Y-16030882D01*
X6367491Y-16030882D02*
X6377015Y-16049930D01*
X6377015Y-16049930D02*
X6377015Y-16154691D01*
X6767491Y-15945168D02*
X6596063Y-16202310D01*
X7024634Y-15954691D02*
X7043682Y-15954691D01*
X7043682Y-15954691D02*
X7062729Y-15964215D01*
X7062729Y-15964215D02*
X7072253Y-15973739D01*
X7072253Y-15973739D02*
X7081777Y-15992787D01*
X7081777Y-15992787D02*
X7091301Y-16030882D01*
X7091301Y-16030882D02*
X7091301Y-16078501D01*
X7091301Y-16078501D02*
X7081777Y-16116596D01*
X7081777Y-16116596D02*
X7072253Y-16135644D01*
X7072253Y-16135644D02*
X7062729Y-16145168D01*
X7062729Y-16145168D02*
X7043682Y-16154691D01*
X7043682Y-16154691D02*
X7024634Y-16154691D01*
X7024634Y-16154691D02*
X7005586Y-16145168D01*
X7005586Y-16145168D02*
X6996063Y-16135644D01*
X6996063Y-16135644D02*
X6986539Y-16116596D01*
X6986539Y-16116596D02*
X6977015Y-16078501D01*
X6977015Y-16078501D02*
X6977015Y-16030882D01*
X6977015Y-16030882D02*
X6986539Y-15992787D01*
X6986539Y-15992787D02*
X6996063Y-15973739D01*
X6996063Y-15973739D02*
X7005586Y-15964215D01*
X7005586Y-15964215D02*
X7024634Y-15954691D01*
X7177015Y-16135644D02*
X7186539Y-16145168D01*
X7186539Y-16145168D02*
X7177015Y-16154691D01*
X7177015Y-16154691D02*
X7167491Y-16145168D01*
X7167491Y-16145168D02*
X7177015Y-16135644D01*
X7177015Y-16135644D02*
X7177015Y-16154691D01*
X7310348Y-15954691D02*
X7329396Y-15954691D01*
X7329396Y-15954691D02*
X7348444Y-15964215D01*
X7348444Y-15964215D02*
X7357967Y-15973739D01*
X7357967Y-15973739D02*
X7367491Y-15992787D01*
X7367491Y-15992787D02*
X7377015Y-16030882D01*
X7377015Y-16030882D02*
X7377015Y-16078501D01*
X7377015Y-16078501D02*
X7367491Y-16116596D01*
X7367491Y-16116596D02*
X7357967Y-16135644D01*
X7357967Y-16135644D02*
X7348444Y-16145168D01*
X7348444Y-16145168D02*
X7329396Y-16154691D01*
X7329396Y-16154691D02*
X7310348Y-16154691D01*
X7310348Y-16154691D02*
X7291301Y-16145168D01*
X7291301Y-16145168D02*
X7281777Y-16135644D01*
X7281777Y-16135644D02*
X7272253Y-16116596D01*
X7272253Y-16116596D02*
X7262729Y-16078501D01*
X7262729Y-16078501D02*
X7262729Y-16030882D01*
X7262729Y-16030882D02*
X7272253Y-15992787D01*
X7272253Y-15992787D02*
X7281777Y-15973739D01*
X7281777Y-15973739D02*
X7291301Y-15964215D01*
X7291301Y-15964215D02*
X7310348Y-15954691D01*
X7548444Y-15954691D02*
X7510348Y-15954691D01*
X7510348Y-15954691D02*
X7491301Y-15964215D01*
X7491301Y-15964215D02*
X7481777Y-15973739D01*
X7481777Y-15973739D02*
X7462729Y-16002310D01*
X7462729Y-16002310D02*
X7453206Y-16040406D01*
X7453206Y-16040406D02*
X7453206Y-16116596D01*
X7453206Y-16116596D02*
X7462729Y-16135644D01*
X7462729Y-16135644D02*
X7472253Y-16145168D01*
X7472253Y-16145168D02*
X7491301Y-16154691D01*
X7491301Y-16154691D02*
X7529396Y-16154691D01*
X7529396Y-16154691D02*
X7548444Y-16145168D01*
X7548444Y-16145168D02*
X7557967Y-16135644D01*
X7557967Y-16135644D02*
X7567491Y-16116596D01*
X7567491Y-16116596D02*
X7567491Y-16068977D01*
X7567491Y-16068977D02*
X7557967Y-16049930D01*
X7557967Y-16049930D02*
X7548444Y-16040406D01*
X7548444Y-16040406D02*
X7529396Y-16030882D01*
X7529396Y-16030882D02*
X7491301Y-16030882D01*
X7491301Y-16030882D02*
X7472253Y-16040406D01*
X7472253Y-16040406D02*
X7462729Y-16049930D01*
X7462729Y-16049930D02*
X7453206Y-16068977D01*
X7634158Y-15954691D02*
X7757967Y-15954691D01*
X7757967Y-15954691D02*
X7691301Y-16030882D01*
X7691301Y-16030882D02*
X7719872Y-16030882D01*
X7719872Y-16030882D02*
X7738920Y-16040406D01*
X7738920Y-16040406D02*
X7748444Y-16049930D01*
X7748444Y-16049930D02*
X7757967Y-16068977D01*
X7757967Y-16068977D02*
X7757967Y-16116596D01*
X7757967Y-16116596D02*
X7748444Y-16135644D01*
X7748444Y-16135644D02*
X7738920Y-16145168D01*
X7738920Y-16145168D02*
X7719872Y-16154691D01*
X7719872Y-16154691D02*
X7662729Y-16154691D01*
X7662729Y-16154691D02*
X7643682Y-16145168D01*
X7643682Y-16145168D02*
X7634158Y-16135644D01*
X7881777Y-15954691D02*
X7900825Y-15954691D01*
X7900825Y-15954691D02*
X7919872Y-15964215D01*
X7919872Y-15964215D02*
X7929396Y-15973739D01*
X7929396Y-15973739D02*
X7938920Y-15992787D01*
X7938920Y-15992787D02*
X7948444Y-16030882D01*
X7948444Y-16030882D02*
X7948444Y-16078501D01*
X7948444Y-16078501D02*
X7938920Y-16116596D01*
X7938920Y-16116596D02*
X7929396Y-16135644D01*
X7929396Y-16135644D02*
X7919872Y-16145168D01*
X7919872Y-16145168D02*
X7900825Y-16154691D01*
X7900825Y-16154691D02*
X7881777Y-16154691D01*
X7881777Y-16154691D02*
X7862729Y-16145168D01*
X7862729Y-16145168D02*
X7853206Y-16135644D01*
X7853206Y-16135644D02*
X7843682Y-16116596D01*
X7843682Y-16116596D02*
X7834158Y-16078501D01*
X7834158Y-16078501D02*
X7834158Y-16030882D01*
X7834158Y-16030882D02*
X7843682Y-15992787D01*
X7843682Y-15992787D02*
X7853206Y-15973739D01*
X7853206Y-15973739D02*
X7862729Y-15964215D01*
X7862729Y-15964215D02*
X7881777Y-15954691D01*
X8024634Y-15954691D02*
X8024634Y-15992787D01*
X8100825Y-15954691D02*
X8100825Y-15992787D01*
X8396063Y-16230882D02*
X8386539Y-16221358D01*
X8386539Y-16221358D02*
X8367491Y-16192787D01*
X8367491Y-16192787D02*
X8357968Y-16173739D01*
X8357968Y-16173739D02*
X8348444Y-16145168D01*
X8348444Y-16145168D02*
X8338920Y-16097549D01*
X8338920Y-16097549D02*
X8338920Y-16059453D01*
X8338920Y-16059453D02*
X8348444Y-16011834D01*
X8348444Y-16011834D02*
X8357968Y-15983263D01*
X8357968Y-15983263D02*
X8367491Y-15964215D01*
X8367491Y-15964215D02*
X8386539Y-15935644D01*
X8386539Y-15935644D02*
X8396063Y-15926120D01*
X8557968Y-16021358D02*
X8557968Y-16154691D01*
X8510349Y-15945168D02*
X8462730Y-16088025D01*
X8462730Y-16088025D02*
X8586539Y-16088025D01*
X8815111Y-16154691D02*
X8815111Y-15954691D01*
X8900825Y-16154691D02*
X8900825Y-16049930D01*
X8900825Y-16049930D02*
X8891301Y-16030882D01*
X8891301Y-16030882D02*
X8872253Y-16021358D01*
X8872253Y-16021358D02*
X8843682Y-16021358D01*
X8843682Y-16021358D02*
X8824634Y-16030882D01*
X8824634Y-16030882D02*
X8815111Y-16040406D01*
X9024634Y-16154691D02*
X9005587Y-16145168D01*
X9005587Y-16145168D02*
X8996063Y-16135644D01*
X8996063Y-16135644D02*
X8986539Y-16116596D01*
X8986539Y-16116596D02*
X8986539Y-16059453D01*
X8986539Y-16059453D02*
X8996063Y-16040406D01*
X8996063Y-16040406D02*
X9005587Y-16030882D01*
X9005587Y-16030882D02*
X9024634Y-16021358D01*
X9024634Y-16021358D02*
X9053206Y-16021358D01*
X9053206Y-16021358D02*
X9072253Y-16030882D01*
X9072253Y-16030882D02*
X9081777Y-16040406D01*
X9081777Y-16040406D02*
X9091301Y-16059453D01*
X9091301Y-16059453D02*
X9091301Y-16116596D01*
X9091301Y-16116596D02*
X9081777Y-16135644D01*
X9081777Y-16135644D02*
X9072253Y-16145168D01*
X9072253Y-16145168D02*
X9053206Y-16154691D01*
X9053206Y-16154691D02*
X9024634Y-16154691D01*
X9205587Y-16154691D02*
X9186539Y-16145168D01*
X9186539Y-16145168D02*
X9177015Y-16126120D01*
X9177015Y-16126120D02*
X9177015Y-15954691D01*
X9357968Y-16145168D02*
X9338920Y-16154691D01*
X9338920Y-16154691D02*
X9300825Y-16154691D01*
X9300825Y-16154691D02*
X9281777Y-16145168D01*
X9281777Y-16145168D02*
X9272253Y-16126120D01*
X9272253Y-16126120D02*
X9272253Y-16049930D01*
X9272253Y-16049930D02*
X9281777Y-16030882D01*
X9281777Y-16030882D02*
X9300825Y-16021358D01*
X9300825Y-16021358D02*
X9338920Y-16021358D01*
X9338920Y-16021358D02*
X9357968Y-16030882D01*
X9357968Y-16030882D02*
X9367492Y-16049930D01*
X9367492Y-16049930D02*
X9367492Y-16068977D01*
X9367492Y-16068977D02*
X9272253Y-16088025D01*
X9443682Y-16145168D02*
X9462730Y-16154691D01*
X9462730Y-16154691D02*
X9500825Y-16154691D01*
X9500825Y-16154691D02*
X9519873Y-16145168D01*
X9519873Y-16145168D02*
X9529396Y-16126120D01*
X9529396Y-16126120D02*
X9529396Y-16116596D01*
X9529396Y-16116596D02*
X9519873Y-16097549D01*
X9519873Y-16097549D02*
X9500825Y-16088025D01*
X9500825Y-16088025D02*
X9472253Y-16088025D01*
X9472253Y-16088025D02*
X9453206Y-16078501D01*
X9453206Y-16078501D02*
X9443682Y-16059453D01*
X9443682Y-16059453D02*
X9443682Y-16049930D01*
X9443682Y-16049930D02*
X9453206Y-16030882D01*
X9453206Y-16030882D02*
X9472253Y-16021358D01*
X9472253Y-16021358D02*
X9500825Y-16021358D01*
X9500825Y-16021358D02*
X9519873Y-16030882D01*
X9596063Y-16230882D02*
X9605587Y-16221358D01*
X9605587Y-16221358D02*
X9624634Y-16192787D01*
X9624634Y-16192787D02*
X9634158Y-16173739D01*
X9634158Y-16173739D02*
X9643682Y-16145168D01*
X9643682Y-16145168D02*
X9653206Y-16097549D01*
X9653206Y-16097549D02*
X9653206Y-16059453D01*
X9653206Y-16059453D02*
X9643682Y-16011834D01*
X9643682Y-16011834D02*
X9634158Y-15983263D01*
X9634158Y-15983263D02*
X9624634Y-15964215D01*
X9624634Y-15964215D02*
X9605587Y-15935644D01*
X9605587Y-15935644D02*
X9596063Y-15926120D01*
X4621000Y-16243208D02*
X4821000Y-16443208D01*
X4821000Y-16243208D02*
X4621000Y-16443208D01*
X4791711Y-16413919D02*
X4791711Y-16272496D01*
X4650289Y-16272496D01*
X4650289Y-16413919D01*
X4791711Y-16413919D01*
X5072253Y-16253739D02*
X5081777Y-16244215D01*
X5081777Y-16244215D02*
X5100824Y-16234691D01*
X5100824Y-16234691D02*
X5148444Y-16234691D01*
X5148444Y-16234691D02*
X5167491Y-16244215D01*
X5167491Y-16244215D02*
X5177015Y-16253739D01*
X5177015Y-16253739D02*
X5186539Y-16272787D01*
X5186539Y-16272787D02*
X5186539Y-16291834D01*
X5186539Y-16291834D02*
X5177015Y-16320406D01*
X5177015Y-16320406D02*
X5062729Y-16434691D01*
X5062729Y-16434691D02*
X5186539Y-16434691D01*
X5272253Y-16415644D02*
X5281777Y-16425168D01*
X5281777Y-16425168D02*
X5272253Y-16434691D01*
X5272253Y-16434691D02*
X5262729Y-16425168D01*
X5262729Y-16425168D02*
X5272253Y-16415644D01*
X5272253Y-16415644D02*
X5272253Y-16434691D01*
X5357967Y-16253739D02*
X5367491Y-16244215D01*
X5367491Y-16244215D02*
X5386539Y-16234691D01*
X5386539Y-16234691D02*
X5434158Y-16234691D01*
X5434158Y-16234691D02*
X5453205Y-16244215D01*
X5453205Y-16244215D02*
X5462729Y-16253739D01*
X5462729Y-16253739D02*
X5472253Y-16272787D01*
X5472253Y-16272787D02*
X5472253Y-16291834D01*
X5472253Y-16291834D02*
X5462729Y-16320406D01*
X5462729Y-16320406D02*
X5348444Y-16434691D01*
X5348444Y-16434691D02*
X5472253Y-16434691D01*
X5596062Y-16234691D02*
X5615110Y-16234691D01*
X5615110Y-16234691D02*
X5634158Y-16244215D01*
X5634158Y-16244215D02*
X5643682Y-16253739D01*
X5643682Y-16253739D02*
X5653205Y-16272787D01*
X5653205Y-16272787D02*
X5662729Y-16310882D01*
X5662729Y-16310882D02*
X5662729Y-16358501D01*
X5662729Y-16358501D02*
X5653205Y-16396596D01*
X5653205Y-16396596D02*
X5643682Y-16415644D01*
X5643682Y-16415644D02*
X5634158Y-16425168D01*
X5634158Y-16425168D02*
X5615110Y-16434691D01*
X5615110Y-16434691D02*
X5596062Y-16434691D01*
X5596062Y-16434691D02*
X5577015Y-16425168D01*
X5577015Y-16425168D02*
X5567491Y-16415644D01*
X5567491Y-16415644D02*
X5557967Y-16396596D01*
X5557967Y-16396596D02*
X5548444Y-16358501D01*
X5548444Y-16358501D02*
X5548444Y-16310882D01*
X5548444Y-16310882D02*
X5557967Y-16272787D01*
X5557967Y-16272787D02*
X5567491Y-16253739D01*
X5567491Y-16253739D02*
X5577015Y-16244215D01*
X5577015Y-16244215D02*
X5596062Y-16234691D01*
X5786539Y-16234691D02*
X5805586Y-16234691D01*
X5805586Y-16234691D02*
X5824634Y-16244215D01*
X5824634Y-16244215D02*
X5834158Y-16253739D01*
X5834158Y-16253739D02*
X5843682Y-16272787D01*
X5843682Y-16272787D02*
X5853205Y-16310882D01*
X5853205Y-16310882D02*
X5853205Y-16358501D01*
X5853205Y-16358501D02*
X5843682Y-16396596D01*
X5843682Y-16396596D02*
X5834158Y-16415644D01*
X5834158Y-16415644D02*
X5824634Y-16425168D01*
X5824634Y-16425168D02*
X5805586Y-16434691D01*
X5805586Y-16434691D02*
X5786539Y-16434691D01*
X5786539Y-16434691D02*
X5767491Y-16425168D01*
X5767491Y-16425168D02*
X5757967Y-16415644D01*
X5757967Y-16415644D02*
X5748443Y-16396596D01*
X5748443Y-16396596D02*
X5738920Y-16358501D01*
X5738920Y-16358501D02*
X5738920Y-16310882D01*
X5738920Y-16310882D02*
X5748443Y-16272787D01*
X5748443Y-16272787D02*
X5757967Y-16253739D01*
X5757967Y-16253739D02*
X5767491Y-16244215D01*
X5767491Y-16244215D02*
X5786539Y-16234691D01*
X5938920Y-16434691D02*
X5938920Y-16301358D01*
X5938920Y-16320406D02*
X5948443Y-16310882D01*
X5948443Y-16310882D02*
X5967491Y-16301358D01*
X5967491Y-16301358D02*
X5996063Y-16301358D01*
X5996063Y-16301358D02*
X6015110Y-16310882D01*
X6015110Y-16310882D02*
X6024634Y-16329930D01*
X6024634Y-16329930D02*
X6024634Y-16434691D01*
X6024634Y-16329930D02*
X6034158Y-16310882D01*
X6034158Y-16310882D02*
X6053205Y-16301358D01*
X6053205Y-16301358D02*
X6081777Y-16301358D01*
X6081777Y-16301358D02*
X6100824Y-16310882D01*
X6100824Y-16310882D02*
X6110348Y-16329930D01*
X6110348Y-16329930D02*
X6110348Y-16434691D01*
X6205586Y-16434691D02*
X6205586Y-16301358D01*
X6205586Y-16320406D02*
X6215110Y-16310882D01*
X6215110Y-16310882D02*
X6234158Y-16301358D01*
X6234158Y-16301358D02*
X6262729Y-16301358D01*
X6262729Y-16301358D02*
X6281777Y-16310882D01*
X6281777Y-16310882D02*
X6291301Y-16329930D01*
X6291301Y-16329930D02*
X6291301Y-16434691D01*
X6291301Y-16329930D02*
X6300824Y-16310882D01*
X6300824Y-16310882D02*
X6319872Y-16301358D01*
X6319872Y-16301358D02*
X6348443Y-16301358D01*
X6348443Y-16301358D02*
X6367491Y-16310882D01*
X6367491Y-16310882D02*
X6377015Y-16329930D01*
X6377015Y-16329930D02*
X6377015Y-16434691D01*
X6767491Y-16225168D02*
X6596063Y-16482310D01*
X7024634Y-16234691D02*
X7043682Y-16234691D01*
X7043682Y-16234691D02*
X7062729Y-16244215D01*
X7062729Y-16244215D02*
X7072253Y-16253739D01*
X7072253Y-16253739D02*
X7081777Y-16272787D01*
X7081777Y-16272787D02*
X7091301Y-16310882D01*
X7091301Y-16310882D02*
X7091301Y-16358501D01*
X7091301Y-16358501D02*
X7081777Y-16396596D01*
X7081777Y-16396596D02*
X7072253Y-16415644D01*
X7072253Y-16415644D02*
X7062729Y-16425168D01*
X7062729Y-16425168D02*
X7043682Y-16434691D01*
X7043682Y-16434691D02*
X7024634Y-16434691D01*
X7024634Y-16434691D02*
X7005586Y-16425168D01*
X7005586Y-16425168D02*
X6996063Y-16415644D01*
X6996063Y-16415644D02*
X6986539Y-16396596D01*
X6986539Y-16396596D02*
X6977015Y-16358501D01*
X6977015Y-16358501D02*
X6977015Y-16310882D01*
X6977015Y-16310882D02*
X6986539Y-16272787D01*
X6986539Y-16272787D02*
X6996063Y-16253739D01*
X6996063Y-16253739D02*
X7005586Y-16244215D01*
X7005586Y-16244215D02*
X7024634Y-16234691D01*
X7177015Y-16415644D02*
X7186539Y-16425168D01*
X7186539Y-16425168D02*
X7177015Y-16434691D01*
X7177015Y-16434691D02*
X7167491Y-16425168D01*
X7167491Y-16425168D02*
X7177015Y-16415644D01*
X7177015Y-16415644D02*
X7177015Y-16434691D01*
X7310348Y-16234691D02*
X7329396Y-16234691D01*
X7329396Y-16234691D02*
X7348444Y-16244215D01*
X7348444Y-16244215D02*
X7357967Y-16253739D01*
X7357967Y-16253739D02*
X7367491Y-16272787D01*
X7367491Y-16272787D02*
X7377015Y-16310882D01*
X7377015Y-16310882D02*
X7377015Y-16358501D01*
X7377015Y-16358501D02*
X7367491Y-16396596D01*
X7367491Y-16396596D02*
X7357967Y-16415644D01*
X7357967Y-16415644D02*
X7348444Y-16425168D01*
X7348444Y-16425168D02*
X7329396Y-16434691D01*
X7329396Y-16434691D02*
X7310348Y-16434691D01*
X7310348Y-16434691D02*
X7291301Y-16425168D01*
X7291301Y-16425168D02*
X7281777Y-16415644D01*
X7281777Y-16415644D02*
X7272253Y-16396596D01*
X7272253Y-16396596D02*
X7262729Y-16358501D01*
X7262729Y-16358501D02*
X7262729Y-16310882D01*
X7262729Y-16310882D02*
X7272253Y-16272787D01*
X7272253Y-16272787D02*
X7281777Y-16253739D01*
X7281777Y-16253739D02*
X7291301Y-16244215D01*
X7291301Y-16244215D02*
X7310348Y-16234691D01*
X7491301Y-16320406D02*
X7472253Y-16310882D01*
X7472253Y-16310882D02*
X7462729Y-16301358D01*
X7462729Y-16301358D02*
X7453206Y-16282310D01*
X7453206Y-16282310D02*
X7453206Y-16272787D01*
X7453206Y-16272787D02*
X7462729Y-16253739D01*
X7462729Y-16253739D02*
X7472253Y-16244215D01*
X7472253Y-16244215D02*
X7491301Y-16234691D01*
X7491301Y-16234691D02*
X7529396Y-16234691D01*
X7529396Y-16234691D02*
X7548444Y-16244215D01*
X7548444Y-16244215D02*
X7557967Y-16253739D01*
X7557967Y-16253739D02*
X7567491Y-16272787D01*
X7567491Y-16272787D02*
X7567491Y-16282310D01*
X7567491Y-16282310D02*
X7557967Y-16301358D01*
X7557967Y-16301358D02*
X7548444Y-16310882D01*
X7548444Y-16310882D02*
X7529396Y-16320406D01*
X7529396Y-16320406D02*
X7491301Y-16320406D01*
X7491301Y-16320406D02*
X7472253Y-16329930D01*
X7472253Y-16329930D02*
X7462729Y-16339453D01*
X7462729Y-16339453D02*
X7453206Y-16358501D01*
X7453206Y-16358501D02*
X7453206Y-16396596D01*
X7453206Y-16396596D02*
X7462729Y-16415644D01*
X7462729Y-16415644D02*
X7472253Y-16425168D01*
X7472253Y-16425168D02*
X7491301Y-16434691D01*
X7491301Y-16434691D02*
X7529396Y-16434691D01*
X7529396Y-16434691D02*
X7548444Y-16425168D01*
X7548444Y-16425168D02*
X7557967Y-16415644D01*
X7557967Y-16415644D02*
X7567491Y-16396596D01*
X7567491Y-16396596D02*
X7567491Y-16358501D01*
X7567491Y-16358501D02*
X7557967Y-16339453D01*
X7557967Y-16339453D02*
X7548444Y-16329930D01*
X7548444Y-16329930D02*
X7529396Y-16320406D01*
X7738920Y-16234691D02*
X7700825Y-16234691D01*
X7700825Y-16234691D02*
X7681777Y-16244215D01*
X7681777Y-16244215D02*
X7672253Y-16253739D01*
X7672253Y-16253739D02*
X7653206Y-16282310D01*
X7653206Y-16282310D02*
X7643682Y-16320406D01*
X7643682Y-16320406D02*
X7643682Y-16396596D01*
X7643682Y-16396596D02*
X7653206Y-16415644D01*
X7653206Y-16415644D02*
X7662729Y-16425168D01*
X7662729Y-16425168D02*
X7681777Y-16434691D01*
X7681777Y-16434691D02*
X7719872Y-16434691D01*
X7719872Y-16434691D02*
X7738920Y-16425168D01*
X7738920Y-16425168D02*
X7748444Y-16415644D01*
X7748444Y-16415644D02*
X7757967Y-16396596D01*
X7757967Y-16396596D02*
X7757967Y-16348977D01*
X7757967Y-16348977D02*
X7748444Y-16329930D01*
X7748444Y-16329930D02*
X7738920Y-16320406D01*
X7738920Y-16320406D02*
X7719872Y-16310882D01*
X7719872Y-16310882D02*
X7681777Y-16310882D01*
X7681777Y-16310882D02*
X7662729Y-16320406D01*
X7662729Y-16320406D02*
X7653206Y-16329930D01*
X7653206Y-16329930D02*
X7643682Y-16348977D01*
X7929396Y-16234691D02*
X7891301Y-16234691D01*
X7891301Y-16234691D02*
X7872253Y-16244215D01*
X7872253Y-16244215D02*
X7862729Y-16253739D01*
X7862729Y-16253739D02*
X7843682Y-16282310D01*
X7843682Y-16282310D02*
X7834158Y-16320406D01*
X7834158Y-16320406D02*
X7834158Y-16396596D01*
X7834158Y-16396596D02*
X7843682Y-16415644D01*
X7843682Y-16415644D02*
X7853206Y-16425168D01*
X7853206Y-16425168D02*
X7872253Y-16434691D01*
X7872253Y-16434691D02*
X7910348Y-16434691D01*
X7910348Y-16434691D02*
X7929396Y-16425168D01*
X7929396Y-16425168D02*
X7938920Y-16415644D01*
X7938920Y-16415644D02*
X7948444Y-16396596D01*
X7948444Y-16396596D02*
X7948444Y-16348977D01*
X7948444Y-16348977D02*
X7938920Y-16329930D01*
X7938920Y-16329930D02*
X7929396Y-16320406D01*
X7929396Y-16320406D02*
X7910348Y-16310882D01*
X7910348Y-16310882D02*
X7872253Y-16310882D01*
X7872253Y-16310882D02*
X7853206Y-16320406D01*
X7853206Y-16320406D02*
X7843682Y-16329930D01*
X7843682Y-16329930D02*
X7834158Y-16348977D01*
X8024634Y-16234691D02*
X8024634Y-16272787D01*
X8100825Y-16234691D02*
X8100825Y-16272787D01*
X8396063Y-16510882D02*
X8386539Y-16501358D01*
X8386539Y-16501358D02*
X8367491Y-16472787D01*
X8367491Y-16472787D02*
X8357968Y-16453739D01*
X8357968Y-16453739D02*
X8348444Y-16425168D01*
X8348444Y-16425168D02*
X8338920Y-16377549D01*
X8338920Y-16377549D02*
X8338920Y-16339453D01*
X8338920Y-16339453D02*
X8348444Y-16291834D01*
X8348444Y-16291834D02*
X8357968Y-16263263D01*
X8357968Y-16263263D02*
X8367491Y-16244215D01*
X8367491Y-16244215D02*
X8386539Y-16215644D01*
X8386539Y-16215644D02*
X8396063Y-16206120D01*
X8462730Y-16253739D02*
X8472253Y-16244215D01*
X8472253Y-16244215D02*
X8491301Y-16234691D01*
X8491301Y-16234691D02*
X8538920Y-16234691D01*
X8538920Y-16234691D02*
X8557968Y-16244215D01*
X8557968Y-16244215D02*
X8567491Y-16253739D01*
X8567491Y-16253739D02*
X8577015Y-16272787D01*
X8577015Y-16272787D02*
X8577015Y-16291834D01*
X8577015Y-16291834D02*
X8567491Y-16320406D01*
X8567491Y-16320406D02*
X8453206Y-16434691D01*
X8453206Y-16434691D02*
X8577015Y-16434691D01*
X8815111Y-16434691D02*
X8815111Y-16234691D01*
X8900825Y-16434691D02*
X8900825Y-16329930D01*
X8900825Y-16329930D02*
X8891301Y-16310882D01*
X8891301Y-16310882D02*
X8872253Y-16301358D01*
X8872253Y-16301358D02*
X8843682Y-16301358D01*
X8843682Y-16301358D02*
X8824634Y-16310882D01*
X8824634Y-16310882D02*
X8815111Y-16320406D01*
X9024634Y-16434691D02*
X9005587Y-16425168D01*
X9005587Y-16425168D02*
X8996063Y-16415644D01*
X8996063Y-16415644D02*
X8986539Y-16396596D01*
X8986539Y-16396596D02*
X8986539Y-16339453D01*
X8986539Y-16339453D02*
X8996063Y-16320406D01*
X8996063Y-16320406D02*
X9005587Y-16310882D01*
X9005587Y-16310882D02*
X9024634Y-16301358D01*
X9024634Y-16301358D02*
X9053206Y-16301358D01*
X9053206Y-16301358D02*
X9072253Y-16310882D01*
X9072253Y-16310882D02*
X9081777Y-16320406D01*
X9081777Y-16320406D02*
X9091301Y-16339453D01*
X9091301Y-16339453D02*
X9091301Y-16396596D01*
X9091301Y-16396596D02*
X9081777Y-16415644D01*
X9081777Y-16415644D02*
X9072253Y-16425168D01*
X9072253Y-16425168D02*
X9053206Y-16434691D01*
X9053206Y-16434691D02*
X9024634Y-16434691D01*
X9205587Y-16434691D02*
X9186539Y-16425168D01*
X9186539Y-16425168D02*
X9177015Y-16406120D01*
X9177015Y-16406120D02*
X9177015Y-16234691D01*
X9357968Y-16425168D02*
X9338920Y-16434691D01*
X9338920Y-16434691D02*
X9300825Y-16434691D01*
X9300825Y-16434691D02*
X9281777Y-16425168D01*
X9281777Y-16425168D02*
X9272253Y-16406120D01*
X9272253Y-16406120D02*
X9272253Y-16329930D01*
X9272253Y-16329930D02*
X9281777Y-16310882D01*
X9281777Y-16310882D02*
X9300825Y-16301358D01*
X9300825Y-16301358D02*
X9338920Y-16301358D01*
X9338920Y-16301358D02*
X9357968Y-16310882D01*
X9357968Y-16310882D02*
X9367492Y-16329930D01*
X9367492Y-16329930D02*
X9367492Y-16348977D01*
X9367492Y-16348977D02*
X9272253Y-16368025D01*
X9443682Y-16425168D02*
X9462730Y-16434691D01*
X9462730Y-16434691D02*
X9500825Y-16434691D01*
X9500825Y-16434691D02*
X9519873Y-16425168D01*
X9519873Y-16425168D02*
X9529396Y-16406120D01*
X9529396Y-16406120D02*
X9529396Y-16396596D01*
X9529396Y-16396596D02*
X9519873Y-16377549D01*
X9519873Y-16377549D02*
X9500825Y-16368025D01*
X9500825Y-16368025D02*
X9472253Y-16368025D01*
X9472253Y-16368025D02*
X9453206Y-16358501D01*
X9453206Y-16358501D02*
X9443682Y-16339453D01*
X9443682Y-16339453D02*
X9443682Y-16329930D01*
X9443682Y-16329930D02*
X9453206Y-16310882D01*
X9453206Y-16310882D02*
X9472253Y-16301358D01*
X9472253Y-16301358D02*
X9500825Y-16301358D01*
X9500825Y-16301358D02*
X9519873Y-16310882D01*
X9596063Y-16510882D02*
X9605587Y-16501358D01*
X9605587Y-16501358D02*
X9624634Y-16472787D01*
X9624634Y-16472787D02*
X9634158Y-16453739D01*
X9634158Y-16453739D02*
X9643682Y-16425168D01*
X9643682Y-16425168D02*
X9653206Y-16377549D01*
X9653206Y-16377549D02*
X9653206Y-16339453D01*
X9653206Y-16339453D02*
X9643682Y-16291834D01*
X9643682Y-16291834D02*
X9634158Y-16263263D01*
X9634158Y-16263263D02*
X9624634Y-16244215D01*
X9624634Y-16244215D02*
X9605587Y-16215644D01*
X9605587Y-16215644D02*
X9596063Y-16206120D01*
M02*
