G04 #@! TF.GenerationSoftware,KiCad,Pcbnew,7.0.6-0*
G04 #@! TF.CreationDate,2023-08-07T07:56:58+08:00*
G04 #@! TF.ProjectId,aes17_filter_25,61657331-375f-4666-996c-7465725f3235,rev?*
G04 #@! TF.SameCoordinates,Original*
G04 #@! TF.FileFunction,Legend,Top*
G04 #@! TF.FilePolarity,Positive*
%FSLAX46Y46*%
G04 Gerber Fmt 4.6, Leading zero omitted, Abs format (unit mm)*
G04 Created by KiCad (PCBNEW 7.0.6-0) date 2023-08-07 07:56:58*
%MOMM*%
%LPD*%
G01*
G04 APERTURE LIST*
%ADD10C,0.300000*%
%ADD11C,0.150000*%
%ADD12C,0.120000*%
%ADD13C,1.700000*%
%ADD14C,3.500000*%
%ADD15C,2.400000*%
%ADD16O,2.400000X2.400000*%
%ADD17C,1.600000*%
%ADD18C,3.400000*%
%ADD19C,2.900000*%
%ADD20C,3.200000*%
%ADD21C,2.600000*%
%ADD22R,2.200000X2.200000*%
%ADD23O,2.200000X2.200000*%
%ADD24O,1.600000X1.600000*%
%ADD25R,1.700000X1.700000*%
%ADD26O,1.700000X1.700000*%
G04 APERTURE END LIST*
D10*
X69134510Y-55680828D02*
X69134510Y-54180828D01*
X69134510Y-54180828D02*
X69634510Y-55252257D01*
X69634510Y-55252257D02*
X70134510Y-54180828D01*
X70134510Y-54180828D02*
X70134510Y-55680828D01*
X71491654Y-55680828D02*
X71491654Y-54895114D01*
X71491654Y-54895114D02*
X71420225Y-54752257D01*
X71420225Y-54752257D02*
X71277368Y-54680828D01*
X71277368Y-54680828D02*
X70991654Y-54680828D01*
X70991654Y-54680828D02*
X70848796Y-54752257D01*
X71491654Y-55609400D02*
X71348796Y-55680828D01*
X71348796Y-55680828D02*
X70991654Y-55680828D01*
X70991654Y-55680828D02*
X70848796Y-55609400D01*
X70848796Y-55609400D02*
X70777368Y-55466542D01*
X70777368Y-55466542D02*
X70777368Y-55323685D01*
X70777368Y-55323685D02*
X70848796Y-55180828D01*
X70848796Y-55180828D02*
X70991654Y-55109400D01*
X70991654Y-55109400D02*
X71348796Y-55109400D01*
X71348796Y-55109400D02*
X71491654Y-55037971D01*
X72063082Y-55680828D02*
X72848797Y-54680828D01*
X72063082Y-54680828D02*
X72848797Y-55680828D01*
X75348797Y-55680828D02*
X74491654Y-55680828D01*
X74920225Y-55680828D02*
X74920225Y-54180828D01*
X74920225Y-54180828D02*
X74777368Y-54395114D01*
X74777368Y-54395114D02*
X74634511Y-54537971D01*
X74634511Y-54537971D02*
X74491654Y-54609400D01*
X76277368Y-54180828D02*
X76420225Y-54180828D01*
X76420225Y-54180828D02*
X76563082Y-54252257D01*
X76563082Y-54252257D02*
X76634511Y-54323685D01*
X76634511Y-54323685D02*
X76705939Y-54466542D01*
X76705939Y-54466542D02*
X76777368Y-54752257D01*
X76777368Y-54752257D02*
X76777368Y-55109400D01*
X76777368Y-55109400D02*
X76705939Y-55395114D01*
X76705939Y-55395114D02*
X76634511Y-55537971D01*
X76634511Y-55537971D02*
X76563082Y-55609400D01*
X76563082Y-55609400D02*
X76420225Y-55680828D01*
X76420225Y-55680828D02*
X76277368Y-55680828D01*
X76277368Y-55680828D02*
X76134511Y-55609400D01*
X76134511Y-55609400D02*
X76063082Y-55537971D01*
X76063082Y-55537971D02*
X75991653Y-55395114D01*
X75991653Y-55395114D02*
X75920225Y-55109400D01*
X75920225Y-55109400D02*
X75920225Y-54752257D01*
X75920225Y-54752257D02*
X75991653Y-54466542D01*
X75991653Y-54466542D02*
X76063082Y-54323685D01*
X76063082Y-54323685D02*
X76134511Y-54252257D01*
X76134511Y-54252257D02*
X76277368Y-54180828D01*
X77705939Y-54180828D02*
X77848796Y-54180828D01*
X77848796Y-54180828D02*
X77991653Y-54252257D01*
X77991653Y-54252257D02*
X78063082Y-54323685D01*
X78063082Y-54323685D02*
X78134510Y-54466542D01*
X78134510Y-54466542D02*
X78205939Y-54752257D01*
X78205939Y-54752257D02*
X78205939Y-55109400D01*
X78205939Y-55109400D02*
X78134510Y-55395114D01*
X78134510Y-55395114D02*
X78063082Y-55537971D01*
X78063082Y-55537971D02*
X77991653Y-55609400D01*
X77991653Y-55609400D02*
X77848796Y-55680828D01*
X77848796Y-55680828D02*
X77705939Y-55680828D01*
X77705939Y-55680828D02*
X77563082Y-55609400D01*
X77563082Y-55609400D02*
X77491653Y-55537971D01*
X77491653Y-55537971D02*
X77420224Y-55395114D01*
X77420224Y-55395114D02*
X77348796Y-55109400D01*
X77348796Y-55109400D02*
X77348796Y-54752257D01*
X77348796Y-54752257D02*
X77420224Y-54466542D01*
X77420224Y-54466542D02*
X77491653Y-54323685D01*
X77491653Y-54323685D02*
X77563082Y-54252257D01*
X77563082Y-54252257D02*
X77705939Y-54180828D01*
X78634510Y-54180828D02*
X79134510Y-55680828D01*
X79134510Y-55680828D02*
X79634510Y-54180828D01*
X81277366Y-55680828D02*
X81277366Y-54180828D01*
X81277366Y-54180828D02*
X81848795Y-54180828D01*
X81848795Y-54180828D02*
X81991652Y-54252257D01*
X81991652Y-54252257D02*
X82063081Y-54323685D01*
X82063081Y-54323685D02*
X82134509Y-54466542D01*
X82134509Y-54466542D02*
X82134509Y-54680828D01*
X82134509Y-54680828D02*
X82063081Y-54823685D01*
X82063081Y-54823685D02*
X81991652Y-54895114D01*
X81991652Y-54895114D02*
X81848795Y-54966542D01*
X81848795Y-54966542D02*
X81277366Y-54966542D01*
X82777366Y-55109400D02*
X83920224Y-55109400D01*
X84634509Y-55680828D02*
X84634509Y-54180828D01*
X84634509Y-54180828D02*
X85205938Y-54180828D01*
X85205938Y-54180828D02*
X85348795Y-54252257D01*
X85348795Y-54252257D02*
X85420224Y-54323685D01*
X85420224Y-54323685D02*
X85491652Y-54466542D01*
X85491652Y-54466542D02*
X85491652Y-54680828D01*
X85491652Y-54680828D02*
X85420224Y-54823685D01*
X85420224Y-54823685D02*
X85348795Y-54895114D01*
X85348795Y-54895114D02*
X85205938Y-54966542D01*
X85205938Y-54966542D02*
X84634509Y-54966542D01*
X69063082Y-52712257D02*
X69777368Y-52712257D01*
X68920225Y-53140828D02*
X69420225Y-51640828D01*
X69420225Y-51640828D02*
X69920225Y-53140828D01*
X70420224Y-52355114D02*
X70920224Y-52355114D01*
X71134510Y-53140828D02*
X70420224Y-53140828D01*
X70420224Y-53140828D02*
X70420224Y-51640828D01*
X70420224Y-51640828D02*
X71134510Y-51640828D01*
X71705939Y-53069400D02*
X71920225Y-53140828D01*
X71920225Y-53140828D02*
X72277367Y-53140828D01*
X72277367Y-53140828D02*
X72420225Y-53069400D01*
X72420225Y-53069400D02*
X72491653Y-52997971D01*
X72491653Y-52997971D02*
X72563082Y-52855114D01*
X72563082Y-52855114D02*
X72563082Y-52712257D01*
X72563082Y-52712257D02*
X72491653Y-52569400D01*
X72491653Y-52569400D02*
X72420225Y-52497971D01*
X72420225Y-52497971D02*
X72277367Y-52426542D01*
X72277367Y-52426542D02*
X71991653Y-52355114D01*
X71991653Y-52355114D02*
X71848796Y-52283685D01*
X71848796Y-52283685D02*
X71777367Y-52212257D01*
X71777367Y-52212257D02*
X71705939Y-52069400D01*
X71705939Y-52069400D02*
X71705939Y-51926542D01*
X71705939Y-51926542D02*
X71777367Y-51783685D01*
X71777367Y-51783685D02*
X71848796Y-51712257D01*
X71848796Y-51712257D02*
X71991653Y-51640828D01*
X71991653Y-51640828D02*
X72348796Y-51640828D01*
X72348796Y-51640828D02*
X72563082Y-51712257D01*
X73991653Y-53140828D02*
X73134510Y-53140828D01*
X73563081Y-53140828D02*
X73563081Y-51640828D01*
X73563081Y-51640828D02*
X73420224Y-51855114D01*
X73420224Y-51855114D02*
X73277367Y-51997971D01*
X73277367Y-51997971D02*
X73134510Y-52069400D01*
X74491652Y-51640828D02*
X75491652Y-51640828D01*
X75491652Y-51640828D02*
X74848795Y-53140828D01*
X77134509Y-51783685D02*
X77205937Y-51712257D01*
X77205937Y-51712257D02*
X77348795Y-51640828D01*
X77348795Y-51640828D02*
X77705937Y-51640828D01*
X77705937Y-51640828D02*
X77848795Y-51712257D01*
X77848795Y-51712257D02*
X77920223Y-51783685D01*
X77920223Y-51783685D02*
X77991652Y-51926542D01*
X77991652Y-51926542D02*
X77991652Y-52069400D01*
X77991652Y-52069400D02*
X77920223Y-52283685D01*
X77920223Y-52283685D02*
X77063080Y-53140828D01*
X77063080Y-53140828D02*
X77991652Y-53140828D01*
X79348794Y-51640828D02*
X78634508Y-51640828D01*
X78634508Y-51640828D02*
X78563080Y-52355114D01*
X78563080Y-52355114D02*
X78634508Y-52283685D01*
X78634508Y-52283685D02*
X78777366Y-52212257D01*
X78777366Y-52212257D02*
X79134508Y-52212257D01*
X79134508Y-52212257D02*
X79277366Y-52283685D01*
X79277366Y-52283685D02*
X79348794Y-52355114D01*
X79348794Y-52355114D02*
X79420223Y-52497971D01*
X79420223Y-52497971D02*
X79420223Y-52855114D01*
X79420223Y-52855114D02*
X79348794Y-52997971D01*
X79348794Y-52997971D02*
X79277366Y-53069400D01*
X79277366Y-53069400D02*
X79134508Y-53140828D01*
X79134508Y-53140828D02*
X78777366Y-53140828D01*
X78777366Y-53140828D02*
X78634508Y-53069400D01*
X78634508Y-53069400D02*
X78563080Y-52997971D01*
X80063079Y-53140828D02*
X80063079Y-51640828D01*
X80205937Y-52569400D02*
X80634508Y-53140828D01*
X80634508Y-52140828D02*
X80063079Y-52712257D01*
X81277365Y-53140828D02*
X81277365Y-51640828D01*
X81277365Y-52355114D02*
X82134508Y-52355114D01*
X82134508Y-53140828D02*
X82134508Y-51640828D01*
X82705937Y-52140828D02*
X83491652Y-52140828D01*
X83491652Y-52140828D02*
X82705937Y-53140828D01*
X82705937Y-53140828D02*
X83491652Y-53140828D01*
D11*
X121744819Y-115893333D02*
X122459104Y-115893333D01*
X122459104Y-115893333D02*
X122601961Y-115940952D01*
X122601961Y-115940952D02*
X122697200Y-116036190D01*
X122697200Y-116036190D02*
X122744819Y-116179047D01*
X122744819Y-116179047D02*
X122744819Y-116274285D01*
X122078152Y-114988571D02*
X122744819Y-114988571D01*
X121697200Y-115226666D02*
X122411485Y-115464761D01*
X122411485Y-115464761D02*
X122411485Y-114845714D01*
X192517142Y-76989580D02*
X192469523Y-77037200D01*
X192469523Y-77037200D02*
X192326666Y-77084819D01*
X192326666Y-77084819D02*
X192231428Y-77084819D01*
X192231428Y-77084819D02*
X192088571Y-77037200D01*
X192088571Y-77037200D02*
X191993333Y-76941961D01*
X191993333Y-76941961D02*
X191945714Y-76846723D01*
X191945714Y-76846723D02*
X191898095Y-76656247D01*
X191898095Y-76656247D02*
X191898095Y-76513390D01*
X191898095Y-76513390D02*
X191945714Y-76322914D01*
X191945714Y-76322914D02*
X191993333Y-76227676D01*
X191993333Y-76227676D02*
X192088571Y-76132438D01*
X192088571Y-76132438D02*
X192231428Y-76084819D01*
X192231428Y-76084819D02*
X192326666Y-76084819D01*
X192326666Y-76084819D02*
X192469523Y-76132438D01*
X192469523Y-76132438D02*
X192517142Y-76180057D01*
X193469523Y-77084819D02*
X192898095Y-77084819D01*
X193183809Y-77084819D02*
X193183809Y-76084819D01*
X193183809Y-76084819D02*
X193088571Y-76227676D01*
X193088571Y-76227676D02*
X192993333Y-76322914D01*
X192993333Y-76322914D02*
X192898095Y-76370533D01*
X194088571Y-76084819D02*
X194183809Y-76084819D01*
X194183809Y-76084819D02*
X194279047Y-76132438D01*
X194279047Y-76132438D02*
X194326666Y-76180057D01*
X194326666Y-76180057D02*
X194374285Y-76275295D01*
X194374285Y-76275295D02*
X194421904Y-76465771D01*
X194421904Y-76465771D02*
X194421904Y-76703866D01*
X194421904Y-76703866D02*
X194374285Y-76894342D01*
X194374285Y-76894342D02*
X194326666Y-76989580D01*
X194326666Y-76989580D02*
X194279047Y-77037200D01*
X194279047Y-77037200D02*
X194183809Y-77084819D01*
X194183809Y-77084819D02*
X194088571Y-77084819D01*
X194088571Y-77084819D02*
X193993333Y-77037200D01*
X193993333Y-77037200D02*
X193945714Y-76989580D01*
X193945714Y-76989580D02*
X193898095Y-76894342D01*
X193898095Y-76894342D02*
X193850476Y-76703866D01*
X193850476Y-76703866D02*
X193850476Y-76465771D01*
X193850476Y-76465771D02*
X193898095Y-76275295D01*
X193898095Y-76275295D02*
X193945714Y-76180057D01*
X193945714Y-76180057D02*
X193993333Y-76132438D01*
X193993333Y-76132438D02*
X194088571Y-76084819D01*
X70617354Y-100726461D02*
X70141163Y-101059794D01*
X70617354Y-101297889D02*
X69617354Y-101297889D01*
X69617354Y-101297889D02*
X69617354Y-100916937D01*
X69617354Y-100916937D02*
X69664973Y-100821699D01*
X69664973Y-100821699D02*
X69712592Y-100774080D01*
X69712592Y-100774080D02*
X69807830Y-100726461D01*
X69807830Y-100726461D02*
X69950687Y-100726461D01*
X69950687Y-100726461D02*
X70045925Y-100774080D01*
X70045925Y-100774080D02*
X70093544Y-100821699D01*
X70093544Y-100821699D02*
X70141163Y-100916937D01*
X70141163Y-100916937D02*
X70141163Y-101297889D01*
X69712592Y-100345508D02*
X69664973Y-100297889D01*
X69664973Y-100297889D02*
X69617354Y-100202651D01*
X69617354Y-100202651D02*
X69617354Y-99964556D01*
X69617354Y-99964556D02*
X69664973Y-99869318D01*
X69664973Y-99869318D02*
X69712592Y-99821699D01*
X69712592Y-99821699D02*
X69807830Y-99774080D01*
X69807830Y-99774080D02*
X69903068Y-99774080D01*
X69903068Y-99774080D02*
X70045925Y-99821699D01*
X70045925Y-99821699D02*
X70617354Y-100393127D01*
X70617354Y-100393127D02*
X70617354Y-99774080D01*
X160956666Y-118374819D02*
X160956666Y-119089104D01*
X160956666Y-119089104D02*
X160909047Y-119231961D01*
X160909047Y-119231961D02*
X160813809Y-119327200D01*
X160813809Y-119327200D02*
X160670952Y-119374819D01*
X160670952Y-119374819D02*
X160575714Y-119374819D01*
X161385238Y-118470057D02*
X161432857Y-118422438D01*
X161432857Y-118422438D02*
X161528095Y-118374819D01*
X161528095Y-118374819D02*
X161766190Y-118374819D01*
X161766190Y-118374819D02*
X161861428Y-118422438D01*
X161861428Y-118422438D02*
X161909047Y-118470057D01*
X161909047Y-118470057D02*
X161956666Y-118565295D01*
X161956666Y-118565295D02*
X161956666Y-118660533D01*
X161956666Y-118660533D02*
X161909047Y-118803390D01*
X161909047Y-118803390D02*
X161337619Y-119374819D01*
X161337619Y-119374819D02*
X161956666Y-119374819D01*
X92879580Y-73866666D02*
X92927200Y-73914285D01*
X92927200Y-73914285D02*
X92974819Y-74057142D01*
X92974819Y-74057142D02*
X92974819Y-74152380D01*
X92974819Y-74152380D02*
X92927200Y-74295237D01*
X92927200Y-74295237D02*
X92831961Y-74390475D01*
X92831961Y-74390475D02*
X92736723Y-74438094D01*
X92736723Y-74438094D02*
X92546247Y-74485713D01*
X92546247Y-74485713D02*
X92403390Y-74485713D01*
X92403390Y-74485713D02*
X92212914Y-74438094D01*
X92212914Y-74438094D02*
X92117676Y-74390475D01*
X92117676Y-74390475D02*
X92022438Y-74295237D01*
X92022438Y-74295237D02*
X91974819Y-74152380D01*
X91974819Y-74152380D02*
X91974819Y-74057142D01*
X91974819Y-74057142D02*
X92022438Y-73914285D01*
X92022438Y-73914285D02*
X92070057Y-73866666D01*
X92070057Y-73485713D02*
X92022438Y-73438094D01*
X92022438Y-73438094D02*
X91974819Y-73342856D01*
X91974819Y-73342856D02*
X91974819Y-73104761D01*
X91974819Y-73104761D02*
X92022438Y-73009523D01*
X92022438Y-73009523D02*
X92070057Y-72961904D01*
X92070057Y-72961904D02*
X92165295Y-72914285D01*
X92165295Y-72914285D02*
X92260533Y-72914285D01*
X92260533Y-72914285D02*
X92403390Y-72961904D01*
X92403390Y-72961904D02*
X92974819Y-73533332D01*
X92974819Y-73533332D02*
X92974819Y-72914285D01*
X224804819Y-90911377D02*
X224328628Y-91244710D01*
X224804819Y-91482805D02*
X223804819Y-91482805D01*
X223804819Y-91482805D02*
X223804819Y-91101853D01*
X223804819Y-91101853D02*
X223852438Y-91006615D01*
X223852438Y-91006615D02*
X223900057Y-90958996D01*
X223900057Y-90958996D02*
X223995295Y-90911377D01*
X223995295Y-90911377D02*
X224138152Y-90911377D01*
X224138152Y-90911377D02*
X224233390Y-90958996D01*
X224233390Y-90958996D02*
X224281009Y-91006615D01*
X224281009Y-91006615D02*
X224328628Y-91101853D01*
X224328628Y-91101853D02*
X224328628Y-91482805D01*
X224804819Y-89958996D02*
X224804819Y-90530424D01*
X224804819Y-90244710D02*
X223804819Y-90244710D01*
X223804819Y-90244710D02*
X223947676Y-90339948D01*
X223947676Y-90339948D02*
X224042914Y-90435186D01*
X224042914Y-90435186D02*
X224090533Y-90530424D01*
X223804819Y-89339948D02*
X223804819Y-89244710D01*
X223804819Y-89244710D02*
X223852438Y-89149472D01*
X223852438Y-89149472D02*
X223900057Y-89101853D01*
X223900057Y-89101853D02*
X223995295Y-89054234D01*
X223995295Y-89054234D02*
X224185771Y-89006615D01*
X224185771Y-89006615D02*
X224423866Y-89006615D01*
X224423866Y-89006615D02*
X224614342Y-89054234D01*
X224614342Y-89054234D02*
X224709580Y-89101853D01*
X224709580Y-89101853D02*
X224757200Y-89149472D01*
X224757200Y-89149472D02*
X224804819Y-89244710D01*
X224804819Y-89244710D02*
X224804819Y-89339948D01*
X224804819Y-89339948D02*
X224757200Y-89435186D01*
X224757200Y-89435186D02*
X224709580Y-89482805D01*
X224709580Y-89482805D02*
X224614342Y-89530424D01*
X224614342Y-89530424D02*
X224423866Y-89578043D01*
X224423866Y-89578043D02*
X224185771Y-89578043D01*
X224185771Y-89578043D02*
X223995295Y-89530424D01*
X223995295Y-89530424D02*
X223900057Y-89482805D01*
X223900057Y-89482805D02*
X223852438Y-89435186D01*
X223852438Y-89435186D02*
X223804819Y-89339948D01*
X172553333Y-54754819D02*
X172220000Y-54278628D01*
X171981905Y-54754819D02*
X171981905Y-53754819D01*
X171981905Y-53754819D02*
X172362857Y-53754819D01*
X172362857Y-53754819D02*
X172458095Y-53802438D01*
X172458095Y-53802438D02*
X172505714Y-53850057D01*
X172505714Y-53850057D02*
X172553333Y-53945295D01*
X172553333Y-53945295D02*
X172553333Y-54088152D01*
X172553333Y-54088152D02*
X172505714Y-54183390D01*
X172505714Y-54183390D02*
X172458095Y-54231009D01*
X172458095Y-54231009D02*
X172362857Y-54278628D01*
X172362857Y-54278628D02*
X171981905Y-54278628D01*
X173124762Y-54183390D02*
X173029524Y-54135771D01*
X173029524Y-54135771D02*
X172981905Y-54088152D01*
X172981905Y-54088152D02*
X172934286Y-53992914D01*
X172934286Y-53992914D02*
X172934286Y-53945295D01*
X172934286Y-53945295D02*
X172981905Y-53850057D01*
X172981905Y-53850057D02*
X173029524Y-53802438D01*
X173029524Y-53802438D02*
X173124762Y-53754819D01*
X173124762Y-53754819D02*
X173315238Y-53754819D01*
X173315238Y-53754819D02*
X173410476Y-53802438D01*
X173410476Y-53802438D02*
X173458095Y-53850057D01*
X173458095Y-53850057D02*
X173505714Y-53945295D01*
X173505714Y-53945295D02*
X173505714Y-53992914D01*
X173505714Y-53992914D02*
X173458095Y-54088152D01*
X173458095Y-54088152D02*
X173410476Y-54135771D01*
X173410476Y-54135771D02*
X173315238Y-54183390D01*
X173315238Y-54183390D02*
X173124762Y-54183390D01*
X173124762Y-54183390D02*
X173029524Y-54231009D01*
X173029524Y-54231009D02*
X172981905Y-54278628D01*
X172981905Y-54278628D02*
X172934286Y-54373866D01*
X172934286Y-54373866D02*
X172934286Y-54564342D01*
X172934286Y-54564342D02*
X172981905Y-54659580D01*
X172981905Y-54659580D02*
X173029524Y-54707200D01*
X173029524Y-54707200D02*
X173124762Y-54754819D01*
X173124762Y-54754819D02*
X173315238Y-54754819D01*
X173315238Y-54754819D02*
X173410476Y-54707200D01*
X173410476Y-54707200D02*
X173458095Y-54659580D01*
X173458095Y-54659580D02*
X173505714Y-54564342D01*
X173505714Y-54564342D02*
X173505714Y-54373866D01*
X173505714Y-54373866D02*
X173458095Y-54278628D01*
X173458095Y-54278628D02*
X173410476Y-54231009D01*
X173410476Y-54231009D02*
X173315238Y-54183390D01*
X90734819Y-131633333D02*
X91449104Y-131633333D01*
X91449104Y-131633333D02*
X91591961Y-131680952D01*
X91591961Y-131680952D02*
X91687200Y-131776190D01*
X91687200Y-131776190D02*
X91734819Y-131919047D01*
X91734819Y-131919047D02*
X91734819Y-132014285D01*
X91734819Y-130633333D02*
X91734819Y-131204761D01*
X91734819Y-130919047D02*
X90734819Y-130919047D01*
X90734819Y-130919047D02*
X90877676Y-131014285D01*
X90877676Y-131014285D02*
X90972914Y-131109523D01*
X90972914Y-131109523D02*
X91020533Y-131204761D01*
X109093333Y-65074819D02*
X108617143Y-65074819D01*
X108617143Y-65074819D02*
X108617143Y-64074819D01*
X109379048Y-64170057D02*
X109426667Y-64122438D01*
X109426667Y-64122438D02*
X109521905Y-64074819D01*
X109521905Y-64074819D02*
X109760000Y-64074819D01*
X109760000Y-64074819D02*
X109855238Y-64122438D01*
X109855238Y-64122438D02*
X109902857Y-64170057D01*
X109902857Y-64170057D02*
X109950476Y-64265295D01*
X109950476Y-64265295D02*
X109950476Y-64360533D01*
X109950476Y-64360533D02*
X109902857Y-64503390D01*
X109902857Y-64503390D02*
X109331429Y-65074819D01*
X109331429Y-65074819D02*
X109950476Y-65074819D01*
X126279580Y-58626666D02*
X126327200Y-58674285D01*
X126327200Y-58674285D02*
X126374819Y-58817142D01*
X126374819Y-58817142D02*
X126374819Y-58912380D01*
X126374819Y-58912380D02*
X126327200Y-59055237D01*
X126327200Y-59055237D02*
X126231961Y-59150475D01*
X126231961Y-59150475D02*
X126136723Y-59198094D01*
X126136723Y-59198094D02*
X125946247Y-59245713D01*
X125946247Y-59245713D02*
X125803390Y-59245713D01*
X125803390Y-59245713D02*
X125612914Y-59198094D01*
X125612914Y-59198094D02*
X125517676Y-59150475D01*
X125517676Y-59150475D02*
X125422438Y-59055237D01*
X125422438Y-59055237D02*
X125374819Y-58912380D01*
X125374819Y-58912380D02*
X125374819Y-58817142D01*
X125374819Y-58817142D02*
X125422438Y-58674285D01*
X125422438Y-58674285D02*
X125470057Y-58626666D01*
X125374819Y-57769523D02*
X125374819Y-57959999D01*
X125374819Y-57959999D02*
X125422438Y-58055237D01*
X125422438Y-58055237D02*
X125470057Y-58102856D01*
X125470057Y-58102856D02*
X125612914Y-58198094D01*
X125612914Y-58198094D02*
X125803390Y-58245713D01*
X125803390Y-58245713D02*
X126184342Y-58245713D01*
X126184342Y-58245713D02*
X126279580Y-58198094D01*
X126279580Y-58198094D02*
X126327200Y-58150475D01*
X126327200Y-58150475D02*
X126374819Y-58055237D01*
X126374819Y-58055237D02*
X126374819Y-57864761D01*
X126374819Y-57864761D02*
X126327200Y-57769523D01*
X126327200Y-57769523D02*
X126279580Y-57721904D01*
X126279580Y-57721904D02*
X126184342Y-57674285D01*
X126184342Y-57674285D02*
X125946247Y-57674285D01*
X125946247Y-57674285D02*
X125851009Y-57721904D01*
X125851009Y-57721904D02*
X125803390Y-57769523D01*
X125803390Y-57769523D02*
X125755771Y-57864761D01*
X125755771Y-57864761D02*
X125755771Y-58055237D01*
X125755771Y-58055237D02*
X125803390Y-58150475D01*
X125803390Y-58150475D02*
X125851009Y-58198094D01*
X125851009Y-58198094D02*
X125946247Y-58245713D01*
X172553333Y-95894819D02*
X172220000Y-95418628D01*
X171981905Y-95894819D02*
X171981905Y-94894819D01*
X171981905Y-94894819D02*
X172362857Y-94894819D01*
X172362857Y-94894819D02*
X172458095Y-94942438D01*
X172458095Y-94942438D02*
X172505714Y-94990057D01*
X172505714Y-94990057D02*
X172553333Y-95085295D01*
X172553333Y-95085295D02*
X172553333Y-95228152D01*
X172553333Y-95228152D02*
X172505714Y-95323390D01*
X172505714Y-95323390D02*
X172458095Y-95371009D01*
X172458095Y-95371009D02*
X172362857Y-95418628D01*
X172362857Y-95418628D02*
X171981905Y-95418628D01*
X172886667Y-94894819D02*
X173553333Y-94894819D01*
X173553333Y-94894819D02*
X173124762Y-95894819D01*
X109093333Y-80314819D02*
X108617143Y-80314819D01*
X108617143Y-80314819D02*
X108617143Y-79314819D01*
X109950476Y-80314819D02*
X109379048Y-80314819D01*
X109664762Y-80314819D02*
X109664762Y-79314819D01*
X109664762Y-79314819D02*
X109569524Y-79457676D01*
X109569524Y-79457676D02*
X109474286Y-79552914D01*
X109474286Y-79552914D02*
X109379048Y-79600533D01*
X185944819Y-125198094D02*
X184944819Y-125198094D01*
X184944819Y-125198094D02*
X184944819Y-124959999D01*
X184944819Y-124959999D02*
X184992438Y-124817142D01*
X184992438Y-124817142D02*
X185087676Y-124721904D01*
X185087676Y-124721904D02*
X185182914Y-124674285D01*
X185182914Y-124674285D02*
X185373390Y-124626666D01*
X185373390Y-124626666D02*
X185516247Y-124626666D01*
X185516247Y-124626666D02*
X185706723Y-124674285D01*
X185706723Y-124674285D02*
X185801961Y-124721904D01*
X185801961Y-124721904D02*
X185897200Y-124817142D01*
X185897200Y-124817142D02*
X185944819Y-124959999D01*
X185944819Y-124959999D02*
X185944819Y-125198094D01*
X185040057Y-124245713D02*
X184992438Y-124198094D01*
X184992438Y-124198094D02*
X184944819Y-124102856D01*
X184944819Y-124102856D02*
X184944819Y-123864761D01*
X184944819Y-123864761D02*
X184992438Y-123769523D01*
X184992438Y-123769523D02*
X185040057Y-123721904D01*
X185040057Y-123721904D02*
X185135295Y-123674285D01*
X185135295Y-123674285D02*
X185230533Y-123674285D01*
X185230533Y-123674285D02*
X185373390Y-123721904D01*
X185373390Y-123721904D02*
X185944819Y-124293332D01*
X185944819Y-124293332D02*
X185944819Y-123674285D01*
X186314819Y-129801904D02*
X185314819Y-129801904D01*
X186314819Y-129230476D02*
X185743390Y-129659047D01*
X185314819Y-129230476D02*
X185886247Y-129801904D01*
X129253333Y-80969580D02*
X129205714Y-81017200D01*
X129205714Y-81017200D02*
X129062857Y-81064819D01*
X129062857Y-81064819D02*
X128967619Y-81064819D01*
X128967619Y-81064819D02*
X128824762Y-81017200D01*
X128824762Y-81017200D02*
X128729524Y-80921961D01*
X128729524Y-80921961D02*
X128681905Y-80826723D01*
X128681905Y-80826723D02*
X128634286Y-80636247D01*
X128634286Y-80636247D02*
X128634286Y-80493390D01*
X128634286Y-80493390D02*
X128681905Y-80302914D01*
X128681905Y-80302914D02*
X128729524Y-80207676D01*
X128729524Y-80207676D02*
X128824762Y-80112438D01*
X128824762Y-80112438D02*
X128967619Y-80064819D01*
X128967619Y-80064819D02*
X129062857Y-80064819D01*
X129062857Y-80064819D02*
X129205714Y-80112438D01*
X129205714Y-80112438D02*
X129253333Y-80160057D01*
X129586667Y-80064819D02*
X130253333Y-80064819D01*
X130253333Y-80064819D02*
X129824762Y-81064819D01*
X125899580Y-99186666D02*
X125947200Y-99234285D01*
X125947200Y-99234285D02*
X125994819Y-99377142D01*
X125994819Y-99377142D02*
X125994819Y-99472380D01*
X125994819Y-99472380D02*
X125947200Y-99615237D01*
X125947200Y-99615237D02*
X125851961Y-99710475D01*
X125851961Y-99710475D02*
X125756723Y-99758094D01*
X125756723Y-99758094D02*
X125566247Y-99805713D01*
X125566247Y-99805713D02*
X125423390Y-99805713D01*
X125423390Y-99805713D02*
X125232914Y-99758094D01*
X125232914Y-99758094D02*
X125137676Y-99710475D01*
X125137676Y-99710475D02*
X125042438Y-99615237D01*
X125042438Y-99615237D02*
X124994819Y-99472380D01*
X124994819Y-99472380D02*
X124994819Y-99377142D01*
X124994819Y-99377142D02*
X125042438Y-99234285D01*
X125042438Y-99234285D02*
X125090057Y-99186666D01*
X125328152Y-98329523D02*
X125994819Y-98329523D01*
X124947200Y-98567618D02*
X125661485Y-98805713D01*
X125661485Y-98805713D02*
X125661485Y-98186666D01*
X210470720Y-90413438D02*
X209994529Y-90746771D01*
X210470720Y-90984866D02*
X209470720Y-90984866D01*
X209470720Y-90984866D02*
X209470720Y-90603914D01*
X209470720Y-90603914D02*
X209518339Y-90508676D01*
X209518339Y-90508676D02*
X209565958Y-90461057D01*
X209565958Y-90461057D02*
X209661196Y-90413438D01*
X209661196Y-90413438D02*
X209804053Y-90413438D01*
X209804053Y-90413438D02*
X209899291Y-90461057D01*
X209899291Y-90461057D02*
X209946910Y-90508676D01*
X209946910Y-90508676D02*
X209994529Y-90603914D01*
X209994529Y-90603914D02*
X209994529Y-90984866D01*
X210470720Y-89937247D02*
X210470720Y-89746771D01*
X210470720Y-89746771D02*
X210423101Y-89651533D01*
X210423101Y-89651533D02*
X210375481Y-89603914D01*
X210375481Y-89603914D02*
X210232624Y-89508676D01*
X210232624Y-89508676D02*
X210042148Y-89461057D01*
X210042148Y-89461057D02*
X209661196Y-89461057D01*
X209661196Y-89461057D02*
X209565958Y-89508676D01*
X209565958Y-89508676D02*
X209518339Y-89556295D01*
X209518339Y-89556295D02*
X209470720Y-89651533D01*
X209470720Y-89651533D02*
X209470720Y-89842009D01*
X209470720Y-89842009D02*
X209518339Y-89937247D01*
X209518339Y-89937247D02*
X209565958Y-89984866D01*
X209565958Y-89984866D02*
X209661196Y-90032485D01*
X209661196Y-90032485D02*
X209899291Y-90032485D01*
X209899291Y-90032485D02*
X209994529Y-89984866D01*
X209994529Y-89984866D02*
X210042148Y-89937247D01*
X210042148Y-89937247D02*
X210089767Y-89842009D01*
X210089767Y-89842009D02*
X210089767Y-89651533D01*
X210089767Y-89651533D02*
X210042148Y-89556295D01*
X210042148Y-89556295D02*
X209994529Y-89508676D01*
X209994529Y-89508676D02*
X209899291Y-89461057D01*
X150587099Y-87145753D02*
X150253766Y-86669562D01*
X150015671Y-87145753D02*
X150015671Y-86145753D01*
X150015671Y-86145753D02*
X150396623Y-86145753D01*
X150396623Y-86145753D02*
X150491861Y-86193372D01*
X150491861Y-86193372D02*
X150539480Y-86240991D01*
X150539480Y-86240991D02*
X150587099Y-86336229D01*
X150587099Y-86336229D02*
X150587099Y-86479086D01*
X150587099Y-86479086D02*
X150539480Y-86574324D01*
X150539480Y-86574324D02*
X150491861Y-86621943D01*
X150491861Y-86621943D02*
X150396623Y-86669562D01*
X150396623Y-86669562D02*
X150015671Y-86669562D01*
X151491861Y-86145753D02*
X151015671Y-86145753D01*
X151015671Y-86145753D02*
X150968052Y-86621943D01*
X150968052Y-86621943D02*
X151015671Y-86574324D01*
X151015671Y-86574324D02*
X151110909Y-86526705D01*
X151110909Y-86526705D02*
X151349004Y-86526705D01*
X151349004Y-86526705D02*
X151444242Y-86574324D01*
X151444242Y-86574324D02*
X151491861Y-86621943D01*
X151491861Y-86621943D02*
X151539480Y-86717181D01*
X151539480Y-86717181D02*
X151539480Y-86955276D01*
X151539480Y-86955276D02*
X151491861Y-87050514D01*
X151491861Y-87050514D02*
X151444242Y-87098134D01*
X151444242Y-87098134D02*
X151349004Y-87145753D01*
X151349004Y-87145753D02*
X151110909Y-87145753D01*
X151110909Y-87145753D02*
X151015671Y-87098134D01*
X151015671Y-87098134D02*
X150968052Y-87050514D01*
X192753333Y-80969580D02*
X192705714Y-81017200D01*
X192705714Y-81017200D02*
X192562857Y-81064819D01*
X192562857Y-81064819D02*
X192467619Y-81064819D01*
X192467619Y-81064819D02*
X192324762Y-81017200D01*
X192324762Y-81017200D02*
X192229524Y-80921961D01*
X192229524Y-80921961D02*
X192181905Y-80826723D01*
X192181905Y-80826723D02*
X192134286Y-80636247D01*
X192134286Y-80636247D02*
X192134286Y-80493390D01*
X192134286Y-80493390D02*
X192181905Y-80302914D01*
X192181905Y-80302914D02*
X192229524Y-80207676D01*
X192229524Y-80207676D02*
X192324762Y-80112438D01*
X192324762Y-80112438D02*
X192467619Y-80064819D01*
X192467619Y-80064819D02*
X192562857Y-80064819D01*
X192562857Y-80064819D02*
X192705714Y-80112438D01*
X192705714Y-80112438D02*
X192753333Y-80160057D01*
X193229524Y-81064819D02*
X193420000Y-81064819D01*
X193420000Y-81064819D02*
X193515238Y-81017200D01*
X193515238Y-81017200D02*
X193562857Y-80969580D01*
X193562857Y-80969580D02*
X193658095Y-80826723D01*
X193658095Y-80826723D02*
X193705714Y-80636247D01*
X193705714Y-80636247D02*
X193705714Y-80255295D01*
X193705714Y-80255295D02*
X193658095Y-80160057D01*
X193658095Y-80160057D02*
X193610476Y-80112438D01*
X193610476Y-80112438D02*
X193515238Y-80064819D01*
X193515238Y-80064819D02*
X193324762Y-80064819D01*
X193324762Y-80064819D02*
X193229524Y-80112438D01*
X193229524Y-80112438D02*
X193181905Y-80160057D01*
X193181905Y-80160057D02*
X193134286Y-80255295D01*
X193134286Y-80255295D02*
X193134286Y-80493390D01*
X193134286Y-80493390D02*
X193181905Y-80588628D01*
X193181905Y-80588628D02*
X193229524Y-80636247D01*
X193229524Y-80636247D02*
X193324762Y-80683866D01*
X193324762Y-80683866D02*
X193515238Y-80683866D01*
X193515238Y-80683866D02*
X193610476Y-80636247D01*
X193610476Y-80636247D02*
X193658095Y-80588628D01*
X193658095Y-80588628D02*
X193705714Y-80493390D01*
X226344819Y-117482857D02*
X225868628Y-117816190D01*
X226344819Y-118054285D02*
X225344819Y-118054285D01*
X225344819Y-118054285D02*
X225344819Y-117673333D01*
X225344819Y-117673333D02*
X225392438Y-117578095D01*
X225392438Y-117578095D02*
X225440057Y-117530476D01*
X225440057Y-117530476D02*
X225535295Y-117482857D01*
X225535295Y-117482857D02*
X225678152Y-117482857D01*
X225678152Y-117482857D02*
X225773390Y-117530476D01*
X225773390Y-117530476D02*
X225821009Y-117578095D01*
X225821009Y-117578095D02*
X225868628Y-117673333D01*
X225868628Y-117673333D02*
X225868628Y-118054285D01*
X226344819Y-116530476D02*
X226344819Y-117101904D01*
X226344819Y-116816190D02*
X225344819Y-116816190D01*
X225344819Y-116816190D02*
X225487676Y-116911428D01*
X225487676Y-116911428D02*
X225582914Y-117006666D01*
X225582914Y-117006666D02*
X225630533Y-117101904D01*
X225440057Y-116149523D02*
X225392438Y-116101904D01*
X225392438Y-116101904D02*
X225344819Y-116006666D01*
X225344819Y-116006666D02*
X225344819Y-115768571D01*
X225344819Y-115768571D02*
X225392438Y-115673333D01*
X225392438Y-115673333D02*
X225440057Y-115625714D01*
X225440057Y-115625714D02*
X225535295Y-115578095D01*
X225535295Y-115578095D02*
X225630533Y-115578095D01*
X225630533Y-115578095D02*
X225773390Y-115625714D01*
X225773390Y-115625714D02*
X226344819Y-116197142D01*
X226344819Y-116197142D02*
X226344819Y-115578095D01*
X203654819Y-125198094D02*
X202654819Y-125198094D01*
X202654819Y-125198094D02*
X202654819Y-124959999D01*
X202654819Y-124959999D02*
X202702438Y-124817142D01*
X202702438Y-124817142D02*
X202797676Y-124721904D01*
X202797676Y-124721904D02*
X202892914Y-124674285D01*
X202892914Y-124674285D02*
X203083390Y-124626666D01*
X203083390Y-124626666D02*
X203226247Y-124626666D01*
X203226247Y-124626666D02*
X203416723Y-124674285D01*
X203416723Y-124674285D02*
X203511961Y-124721904D01*
X203511961Y-124721904D02*
X203607200Y-124817142D01*
X203607200Y-124817142D02*
X203654819Y-124959999D01*
X203654819Y-124959999D02*
X203654819Y-125198094D01*
X203654819Y-123674285D02*
X203654819Y-124245713D01*
X203654819Y-123959999D02*
X202654819Y-123959999D01*
X202654819Y-123959999D02*
X202797676Y-124055237D01*
X202797676Y-124055237D02*
X202892914Y-124150475D01*
X202892914Y-124150475D02*
X202940533Y-124245713D01*
X203214819Y-119641904D02*
X202214819Y-119641904D01*
X203214819Y-119070476D02*
X202643390Y-119499047D01*
X202214819Y-119070476D02*
X202786247Y-119641904D01*
X191117200Y-124523332D02*
X191164819Y-124380475D01*
X191164819Y-124380475D02*
X191164819Y-124142380D01*
X191164819Y-124142380D02*
X191117200Y-124047142D01*
X191117200Y-124047142D02*
X191069580Y-123999523D01*
X191069580Y-123999523D02*
X190974342Y-123951904D01*
X190974342Y-123951904D02*
X190879104Y-123951904D01*
X190879104Y-123951904D02*
X190783866Y-123999523D01*
X190783866Y-123999523D02*
X190736247Y-124047142D01*
X190736247Y-124047142D02*
X190688628Y-124142380D01*
X190688628Y-124142380D02*
X190641009Y-124332856D01*
X190641009Y-124332856D02*
X190593390Y-124428094D01*
X190593390Y-124428094D02*
X190545771Y-124475713D01*
X190545771Y-124475713D02*
X190450533Y-124523332D01*
X190450533Y-124523332D02*
X190355295Y-124523332D01*
X190355295Y-124523332D02*
X190260057Y-124475713D01*
X190260057Y-124475713D02*
X190212438Y-124428094D01*
X190212438Y-124428094D02*
X190164819Y-124332856D01*
X190164819Y-124332856D02*
X190164819Y-124094761D01*
X190164819Y-124094761D02*
X190212438Y-123951904D01*
X190164819Y-123618570D02*
X191164819Y-123380475D01*
X191164819Y-123380475D02*
X190450533Y-123189999D01*
X190450533Y-123189999D02*
X191164819Y-122999523D01*
X191164819Y-122999523D02*
X190164819Y-122761428D01*
X191164819Y-121856666D02*
X191164819Y-122428094D01*
X191164819Y-122142380D02*
X190164819Y-122142380D01*
X190164819Y-122142380D02*
X190307676Y-122237618D01*
X190307676Y-122237618D02*
X190402914Y-122332856D01*
X190402914Y-122332856D02*
X190450533Y-122428094D01*
X172593333Y-65074819D02*
X172117143Y-65074819D01*
X172117143Y-65074819D02*
X172117143Y-64074819D01*
X173355238Y-64408152D02*
X173355238Y-65074819D01*
X173117143Y-64027200D02*
X172879048Y-64741485D01*
X172879048Y-64741485D02*
X173498095Y-64741485D01*
X85307256Y-100814004D02*
X84831065Y-101147337D01*
X85307256Y-101385432D02*
X84307256Y-101385432D01*
X84307256Y-101385432D02*
X84307256Y-101004480D01*
X84307256Y-101004480D02*
X84354875Y-100909242D01*
X84354875Y-100909242D02*
X84402494Y-100861623D01*
X84402494Y-100861623D02*
X84497732Y-100814004D01*
X84497732Y-100814004D02*
X84640589Y-100814004D01*
X84640589Y-100814004D02*
X84735827Y-100861623D01*
X84735827Y-100861623D02*
X84783446Y-100909242D01*
X84783446Y-100909242D02*
X84831065Y-101004480D01*
X84831065Y-101004480D02*
X84831065Y-101385432D01*
X85307256Y-99861623D02*
X85307256Y-100433051D01*
X85307256Y-100147337D02*
X84307256Y-100147337D01*
X84307256Y-100147337D02*
X84450113Y-100242575D01*
X84450113Y-100242575D02*
X84545351Y-100337813D01*
X84545351Y-100337813D02*
X84592970Y-100433051D01*
X133899580Y-58626666D02*
X133947200Y-58674285D01*
X133947200Y-58674285D02*
X133994819Y-58817142D01*
X133994819Y-58817142D02*
X133994819Y-58912380D01*
X133994819Y-58912380D02*
X133947200Y-59055237D01*
X133947200Y-59055237D02*
X133851961Y-59150475D01*
X133851961Y-59150475D02*
X133756723Y-59198094D01*
X133756723Y-59198094D02*
X133566247Y-59245713D01*
X133566247Y-59245713D02*
X133423390Y-59245713D01*
X133423390Y-59245713D02*
X133232914Y-59198094D01*
X133232914Y-59198094D02*
X133137676Y-59150475D01*
X133137676Y-59150475D02*
X133042438Y-59055237D01*
X133042438Y-59055237D02*
X132994819Y-58912380D01*
X132994819Y-58912380D02*
X132994819Y-58817142D01*
X132994819Y-58817142D02*
X133042438Y-58674285D01*
X133042438Y-58674285D02*
X133090057Y-58626666D01*
X132994819Y-57721904D02*
X132994819Y-58198094D01*
X132994819Y-58198094D02*
X133471009Y-58245713D01*
X133471009Y-58245713D02*
X133423390Y-58198094D01*
X133423390Y-58198094D02*
X133375771Y-58102856D01*
X133375771Y-58102856D02*
X133375771Y-57864761D01*
X133375771Y-57864761D02*
X133423390Y-57769523D01*
X133423390Y-57769523D02*
X133471009Y-57721904D01*
X133471009Y-57721904D02*
X133566247Y-57674285D01*
X133566247Y-57674285D02*
X133804342Y-57674285D01*
X133804342Y-57674285D02*
X133899580Y-57721904D01*
X133899580Y-57721904D02*
X133947200Y-57769523D01*
X133947200Y-57769523D02*
X133994819Y-57864761D01*
X133994819Y-57864761D02*
X133994819Y-58102856D01*
X133994819Y-58102856D02*
X133947200Y-58198094D01*
X133947200Y-58198094D02*
X133899580Y-58245713D01*
X151061853Y-70686245D02*
X150728520Y-70210054D01*
X150490425Y-70686245D02*
X150490425Y-69686245D01*
X150490425Y-69686245D02*
X150871377Y-69686245D01*
X150871377Y-69686245D02*
X150966615Y-69733864D01*
X150966615Y-69733864D02*
X151014234Y-69781483D01*
X151014234Y-69781483D02*
X151061853Y-69876721D01*
X151061853Y-69876721D02*
X151061853Y-70019578D01*
X151061853Y-70019578D02*
X151014234Y-70114816D01*
X151014234Y-70114816D02*
X150966615Y-70162435D01*
X150966615Y-70162435D02*
X150871377Y-70210054D01*
X150871377Y-70210054D02*
X150490425Y-70210054D01*
X151918996Y-69686245D02*
X151728520Y-69686245D01*
X151728520Y-69686245D02*
X151633282Y-69733864D01*
X151633282Y-69733864D02*
X151585663Y-69781483D01*
X151585663Y-69781483D02*
X151490425Y-69924340D01*
X151490425Y-69924340D02*
X151442806Y-70114816D01*
X151442806Y-70114816D02*
X151442806Y-70495768D01*
X151442806Y-70495768D02*
X151490425Y-70591006D01*
X151490425Y-70591006D02*
X151538044Y-70638626D01*
X151538044Y-70638626D02*
X151633282Y-70686245D01*
X151633282Y-70686245D02*
X151823758Y-70686245D01*
X151823758Y-70686245D02*
X151918996Y-70638626D01*
X151918996Y-70638626D02*
X151966615Y-70591006D01*
X151966615Y-70591006D02*
X152014234Y-70495768D01*
X152014234Y-70495768D02*
X152014234Y-70257673D01*
X152014234Y-70257673D02*
X151966615Y-70162435D01*
X151966615Y-70162435D02*
X151918996Y-70114816D01*
X151918996Y-70114816D02*
X151823758Y-70067197D01*
X151823758Y-70067197D02*
X151633282Y-70067197D01*
X151633282Y-70067197D02*
X151538044Y-70114816D01*
X151538044Y-70114816D02*
X151490425Y-70162435D01*
X151490425Y-70162435D02*
X151442806Y-70257673D01*
X213644819Y-117482857D02*
X213168628Y-117816190D01*
X213644819Y-118054285D02*
X212644819Y-118054285D01*
X212644819Y-118054285D02*
X212644819Y-117673333D01*
X212644819Y-117673333D02*
X212692438Y-117578095D01*
X212692438Y-117578095D02*
X212740057Y-117530476D01*
X212740057Y-117530476D02*
X212835295Y-117482857D01*
X212835295Y-117482857D02*
X212978152Y-117482857D01*
X212978152Y-117482857D02*
X213073390Y-117530476D01*
X213073390Y-117530476D02*
X213121009Y-117578095D01*
X213121009Y-117578095D02*
X213168628Y-117673333D01*
X213168628Y-117673333D02*
X213168628Y-118054285D01*
X213644819Y-116530476D02*
X213644819Y-117101904D01*
X213644819Y-116816190D02*
X212644819Y-116816190D01*
X212644819Y-116816190D02*
X212787676Y-116911428D01*
X212787676Y-116911428D02*
X212882914Y-117006666D01*
X212882914Y-117006666D02*
X212930533Y-117101904D01*
X213644819Y-115578095D02*
X213644819Y-116149523D01*
X213644819Y-115863809D02*
X212644819Y-115863809D01*
X212644819Y-115863809D02*
X212787676Y-115959047D01*
X212787676Y-115959047D02*
X212882914Y-116054285D01*
X212882914Y-116054285D02*
X212930533Y-116149523D01*
X172593333Y-80314819D02*
X172117143Y-80314819D01*
X172117143Y-80314819D02*
X172117143Y-79314819D01*
X172831429Y-79314819D02*
X173450476Y-79314819D01*
X173450476Y-79314819D02*
X173117143Y-79695771D01*
X173117143Y-79695771D02*
X173260000Y-79695771D01*
X173260000Y-79695771D02*
X173355238Y-79743390D01*
X173355238Y-79743390D02*
X173402857Y-79791009D01*
X173402857Y-79791009D02*
X173450476Y-79886247D01*
X173450476Y-79886247D02*
X173450476Y-80124342D01*
X173450476Y-80124342D02*
X173402857Y-80219580D01*
X173402857Y-80219580D02*
X173355238Y-80267200D01*
X173355238Y-80267200D02*
X173260000Y-80314819D01*
X173260000Y-80314819D02*
X172974286Y-80314819D01*
X172974286Y-80314819D02*
X172879048Y-80267200D01*
X172879048Y-80267200D02*
X172831429Y-80219580D01*
X101424819Y-115893333D02*
X102139104Y-115893333D01*
X102139104Y-115893333D02*
X102281961Y-115940952D01*
X102281961Y-115940952D02*
X102377200Y-116036190D01*
X102377200Y-116036190D02*
X102424819Y-116179047D01*
X102424819Y-116179047D02*
X102424819Y-116274285D01*
X101424819Y-115512380D02*
X101424819Y-114893333D01*
X101424819Y-114893333D02*
X101805771Y-115226666D01*
X101805771Y-115226666D02*
X101805771Y-115083809D01*
X101805771Y-115083809D02*
X101853390Y-114988571D01*
X101853390Y-114988571D02*
X101901009Y-114940952D01*
X101901009Y-114940952D02*
X101996247Y-114893333D01*
X101996247Y-114893333D02*
X102234342Y-114893333D01*
X102234342Y-114893333D02*
X102329580Y-114940952D01*
X102329580Y-114940952D02*
X102377200Y-114988571D01*
X102377200Y-114988571D02*
X102424819Y-115083809D01*
X102424819Y-115083809D02*
X102424819Y-115369523D01*
X102424819Y-115369523D02*
X102377200Y-115464761D01*
X102377200Y-115464761D02*
X102329580Y-115512380D01*
X92879580Y-84026666D02*
X92927200Y-84074285D01*
X92927200Y-84074285D02*
X92974819Y-84217142D01*
X92974819Y-84217142D02*
X92974819Y-84312380D01*
X92974819Y-84312380D02*
X92927200Y-84455237D01*
X92927200Y-84455237D02*
X92831961Y-84550475D01*
X92831961Y-84550475D02*
X92736723Y-84598094D01*
X92736723Y-84598094D02*
X92546247Y-84645713D01*
X92546247Y-84645713D02*
X92403390Y-84645713D01*
X92403390Y-84645713D02*
X92212914Y-84598094D01*
X92212914Y-84598094D02*
X92117676Y-84550475D01*
X92117676Y-84550475D02*
X92022438Y-84455237D01*
X92022438Y-84455237D02*
X91974819Y-84312380D01*
X91974819Y-84312380D02*
X91974819Y-84217142D01*
X91974819Y-84217142D02*
X92022438Y-84074285D01*
X92022438Y-84074285D02*
X92070057Y-84026666D01*
X92974819Y-83074285D02*
X92974819Y-83645713D01*
X92974819Y-83359999D02*
X91974819Y-83359999D01*
X91974819Y-83359999D02*
X92117676Y-83455237D01*
X92117676Y-83455237D02*
X92212914Y-83550475D01*
X92212914Y-83550475D02*
X92260533Y-83645713D01*
X215704267Y-116871477D02*
X215847124Y-116919096D01*
X215847124Y-116919096D02*
X216085219Y-116919096D01*
X216085219Y-116919096D02*
X216180457Y-116871477D01*
X216180457Y-116871477D02*
X216228076Y-116823857D01*
X216228076Y-116823857D02*
X216275695Y-116728619D01*
X216275695Y-116728619D02*
X216275695Y-116633381D01*
X216275695Y-116633381D02*
X216228076Y-116538143D01*
X216228076Y-116538143D02*
X216180457Y-116490524D01*
X216180457Y-116490524D02*
X216085219Y-116442905D01*
X216085219Y-116442905D02*
X215894743Y-116395286D01*
X215894743Y-116395286D02*
X215799505Y-116347667D01*
X215799505Y-116347667D02*
X215751886Y-116300048D01*
X215751886Y-116300048D02*
X215704267Y-116204810D01*
X215704267Y-116204810D02*
X215704267Y-116109572D01*
X215704267Y-116109572D02*
X215751886Y-116014334D01*
X215751886Y-116014334D02*
X215799505Y-115966715D01*
X215799505Y-115966715D02*
X215894743Y-115919096D01*
X215894743Y-115919096D02*
X216132838Y-115919096D01*
X216132838Y-115919096D02*
X216275695Y-115966715D01*
X216609029Y-115919096D02*
X216847124Y-116919096D01*
X216847124Y-116919096D02*
X217037600Y-116204810D01*
X217037600Y-116204810D02*
X217228076Y-116919096D01*
X217228076Y-116919096D02*
X217466172Y-115919096D01*
X217799505Y-116014334D02*
X217847124Y-115966715D01*
X217847124Y-115966715D02*
X217942362Y-115919096D01*
X217942362Y-115919096D02*
X218180457Y-115919096D01*
X218180457Y-115919096D02*
X218275695Y-115966715D01*
X218275695Y-115966715D02*
X218323314Y-116014334D01*
X218323314Y-116014334D02*
X218370933Y-116109572D01*
X218370933Y-116109572D02*
X218370933Y-116204810D01*
X218370933Y-116204810D02*
X218323314Y-116347667D01*
X218323314Y-116347667D02*
X217751886Y-116919096D01*
X217751886Y-116919096D02*
X218370933Y-116919096D01*
X129493333Y-76989580D02*
X129445714Y-77037200D01*
X129445714Y-77037200D02*
X129302857Y-77084819D01*
X129302857Y-77084819D02*
X129207619Y-77084819D01*
X129207619Y-77084819D02*
X129064762Y-77037200D01*
X129064762Y-77037200D02*
X128969524Y-76941961D01*
X128969524Y-76941961D02*
X128921905Y-76846723D01*
X128921905Y-76846723D02*
X128874286Y-76656247D01*
X128874286Y-76656247D02*
X128874286Y-76513390D01*
X128874286Y-76513390D02*
X128921905Y-76322914D01*
X128921905Y-76322914D02*
X128969524Y-76227676D01*
X128969524Y-76227676D02*
X129064762Y-76132438D01*
X129064762Y-76132438D02*
X129207619Y-76084819D01*
X129207619Y-76084819D02*
X129302857Y-76084819D01*
X129302857Y-76084819D02*
X129445714Y-76132438D01*
X129445714Y-76132438D02*
X129493333Y-76180057D01*
X130064762Y-76513390D02*
X129969524Y-76465771D01*
X129969524Y-76465771D02*
X129921905Y-76418152D01*
X129921905Y-76418152D02*
X129874286Y-76322914D01*
X129874286Y-76322914D02*
X129874286Y-76275295D01*
X129874286Y-76275295D02*
X129921905Y-76180057D01*
X129921905Y-76180057D02*
X129969524Y-76132438D01*
X129969524Y-76132438D02*
X130064762Y-76084819D01*
X130064762Y-76084819D02*
X130255238Y-76084819D01*
X130255238Y-76084819D02*
X130350476Y-76132438D01*
X130350476Y-76132438D02*
X130398095Y-76180057D01*
X130398095Y-76180057D02*
X130445714Y-76275295D01*
X130445714Y-76275295D02*
X130445714Y-76322914D01*
X130445714Y-76322914D02*
X130398095Y-76418152D01*
X130398095Y-76418152D02*
X130350476Y-76465771D01*
X130350476Y-76465771D02*
X130255238Y-76513390D01*
X130255238Y-76513390D02*
X130064762Y-76513390D01*
X130064762Y-76513390D02*
X129969524Y-76561009D01*
X129969524Y-76561009D02*
X129921905Y-76608628D01*
X129921905Y-76608628D02*
X129874286Y-76703866D01*
X129874286Y-76703866D02*
X129874286Y-76894342D01*
X129874286Y-76894342D02*
X129921905Y-76989580D01*
X129921905Y-76989580D02*
X129969524Y-77037200D01*
X129969524Y-77037200D02*
X130064762Y-77084819D01*
X130064762Y-77084819D02*
X130255238Y-77084819D01*
X130255238Y-77084819D02*
X130350476Y-77037200D01*
X130350476Y-77037200D02*
X130398095Y-76989580D01*
X130398095Y-76989580D02*
X130445714Y-76894342D01*
X130445714Y-76894342D02*
X130445714Y-76703866D01*
X130445714Y-76703866D02*
X130398095Y-76608628D01*
X130398095Y-76608628D02*
X130350476Y-76561009D01*
X130350476Y-76561009D02*
X130255238Y-76513390D01*
X101433333Y-55504819D02*
X101100000Y-55028628D01*
X100861905Y-55504819D02*
X100861905Y-54504819D01*
X100861905Y-54504819D02*
X101242857Y-54504819D01*
X101242857Y-54504819D02*
X101338095Y-54552438D01*
X101338095Y-54552438D02*
X101385714Y-54600057D01*
X101385714Y-54600057D02*
X101433333Y-54695295D01*
X101433333Y-54695295D02*
X101433333Y-54838152D01*
X101433333Y-54838152D02*
X101385714Y-54933390D01*
X101385714Y-54933390D02*
X101338095Y-54981009D01*
X101338095Y-54981009D02*
X101242857Y-55028628D01*
X101242857Y-55028628D02*
X100861905Y-55028628D01*
X102290476Y-54838152D02*
X102290476Y-55504819D01*
X102052381Y-54457200D02*
X101814286Y-55171485D01*
X101814286Y-55171485D02*
X102433333Y-55171485D01*
X101433333Y-96144819D02*
X101100000Y-95668628D01*
X100861905Y-96144819D02*
X100861905Y-95144819D01*
X100861905Y-95144819D02*
X101242857Y-95144819D01*
X101242857Y-95144819D02*
X101338095Y-95192438D01*
X101338095Y-95192438D02*
X101385714Y-95240057D01*
X101385714Y-95240057D02*
X101433333Y-95335295D01*
X101433333Y-95335295D02*
X101433333Y-95478152D01*
X101433333Y-95478152D02*
X101385714Y-95573390D01*
X101385714Y-95573390D02*
X101338095Y-95621009D01*
X101338095Y-95621009D02*
X101242857Y-95668628D01*
X101242857Y-95668628D02*
X100861905Y-95668628D01*
X101766667Y-95144819D02*
X102385714Y-95144819D01*
X102385714Y-95144819D02*
X102052381Y-95525771D01*
X102052381Y-95525771D02*
X102195238Y-95525771D01*
X102195238Y-95525771D02*
X102290476Y-95573390D01*
X102290476Y-95573390D02*
X102338095Y-95621009D01*
X102338095Y-95621009D02*
X102385714Y-95716247D01*
X102385714Y-95716247D02*
X102385714Y-95954342D01*
X102385714Y-95954342D02*
X102338095Y-96049580D01*
X102338095Y-96049580D02*
X102290476Y-96097200D01*
X102290476Y-96097200D02*
X102195238Y-96144819D01*
X102195238Y-96144819D02*
X101909524Y-96144819D01*
X101909524Y-96144819D02*
X101814286Y-96097200D01*
X101814286Y-96097200D02*
X101766667Y-96049580D01*
X118279580Y-99186666D02*
X118327200Y-99234285D01*
X118327200Y-99234285D02*
X118374819Y-99377142D01*
X118374819Y-99377142D02*
X118374819Y-99472380D01*
X118374819Y-99472380D02*
X118327200Y-99615237D01*
X118327200Y-99615237D02*
X118231961Y-99710475D01*
X118231961Y-99710475D02*
X118136723Y-99758094D01*
X118136723Y-99758094D02*
X117946247Y-99805713D01*
X117946247Y-99805713D02*
X117803390Y-99805713D01*
X117803390Y-99805713D02*
X117612914Y-99758094D01*
X117612914Y-99758094D02*
X117517676Y-99710475D01*
X117517676Y-99710475D02*
X117422438Y-99615237D01*
X117422438Y-99615237D02*
X117374819Y-99472380D01*
X117374819Y-99472380D02*
X117374819Y-99377142D01*
X117374819Y-99377142D02*
X117422438Y-99234285D01*
X117422438Y-99234285D02*
X117470057Y-99186666D01*
X117374819Y-98853332D02*
X117374819Y-98234285D01*
X117374819Y-98234285D02*
X117755771Y-98567618D01*
X117755771Y-98567618D02*
X117755771Y-98424761D01*
X117755771Y-98424761D02*
X117803390Y-98329523D01*
X117803390Y-98329523D02*
X117851009Y-98281904D01*
X117851009Y-98281904D02*
X117946247Y-98234285D01*
X117946247Y-98234285D02*
X118184342Y-98234285D01*
X118184342Y-98234285D02*
X118279580Y-98281904D01*
X118279580Y-98281904D02*
X118327200Y-98329523D01*
X118327200Y-98329523D02*
X118374819Y-98424761D01*
X118374819Y-98424761D02*
X118374819Y-98710475D01*
X118374819Y-98710475D02*
X118327200Y-98805713D01*
X118327200Y-98805713D02*
X118279580Y-98853332D01*
D12*
X123440000Y-129160000D02*
X135640000Y-129160000D01*
X135640000Y-129160000D02*
X135640000Y-122560000D01*
X123440000Y-122560000D02*
X123440000Y-129160000D01*
X135640000Y-121260000D02*
X135640000Y-112360000D01*
X123440000Y-112360000D02*
X123440000Y-121260000D01*
X135640000Y-111160000D02*
X135640000Y-109960000D01*
X123440000Y-109960000D02*
X123440000Y-111160000D01*
X135640000Y-109960000D02*
X123440000Y-109960000D01*
X202280000Y-75500000D02*
X202280000Y-66260000D01*
X202280000Y-75500000D02*
X184040000Y-75500000D01*
X202280000Y-66260000D02*
X184040000Y-66260000D01*
X184040000Y-75500000D02*
X184040000Y-66260000D01*
X73660000Y-107780000D02*
X73660000Y-105130000D01*
X71290000Y-105130000D02*
X76030000Y-105130000D01*
X76030000Y-105130000D02*
X76030000Y-92990000D01*
X71290000Y-92990000D02*
X71290000Y-105130000D01*
X76030000Y-92990000D02*
X71290000Y-92990000D01*
X73660000Y-90340000D02*
X73660000Y-92990000D01*
X148370000Y-133230000D02*
X152070000Y-133230000D01*
X148370000Y-139820000D02*
X148370000Y-133230000D01*
X150170000Y-139820000D02*
X148370000Y-139820000D01*
X150170000Y-139820000D02*
X150170000Y-142520000D01*
X152070000Y-133230000D02*
X152070000Y-127580000D01*
X154870000Y-127580000D02*
X152070000Y-127580000D01*
X154870000Y-127580000D02*
X154870000Y-120380000D01*
X156290000Y-120380000D02*
X154870000Y-120380000D01*
X160590000Y-120380000D02*
X158690000Y-120380000D01*
X161990000Y-120380000D02*
X163890000Y-120380000D01*
X167710000Y-120380000D02*
X166290000Y-120380000D01*
X167710000Y-127580000D02*
X167710000Y-120380000D01*
X167710000Y-127580000D02*
X170510000Y-127580000D01*
X170510000Y-133230000D02*
X170510000Y-127580000D01*
X170510000Y-133230000D02*
X173910000Y-133230000D01*
X172410000Y-139820000D02*
X172410000Y-142520000D01*
X172410000Y-142520000D02*
X150170000Y-142520000D01*
X173910000Y-139820000D02*
X172410000Y-139820000D01*
X173910000Y-139820000D02*
X173910000Y-133230000D01*
X93650000Y-77420000D02*
X99390000Y-77420000D01*
X93650000Y-77420000D02*
X93650000Y-69980000D01*
X99390000Y-77420000D02*
X99390000Y-69980000D01*
X93650000Y-69980000D02*
X99390000Y-69980000D01*
X220980000Y-82720000D02*
X220980000Y-85370000D01*
X223350000Y-85370000D02*
X218610000Y-85370000D01*
X218610000Y-85370000D02*
X218610000Y-97510000D01*
X223350000Y-97510000D02*
X223350000Y-85370000D01*
X218610000Y-97510000D02*
X223350000Y-97510000D01*
X220980000Y-100160000D02*
X220980000Y-97510000D01*
X161460000Y-58420000D02*
X164100000Y-58420000D01*
X164100000Y-55300000D02*
X164100000Y-61540000D01*
X164100000Y-61540000D02*
X181340000Y-61540000D01*
X181340000Y-55300000D02*
X164100000Y-55300000D01*
X181340000Y-61540000D02*
X181340000Y-55300000D01*
X183980000Y-58420000D02*
X181340000Y-58420000D01*
X85590000Y-120080000D02*
X69350000Y-120080000D01*
X88340000Y-127580000D02*
X85590000Y-127580000D01*
X85590000Y-127580000D02*
X85590000Y-120080000D01*
X69350000Y-127580000D02*
X69350000Y-120080000D01*
X69350000Y-127580000D02*
X66600000Y-127580000D01*
X88340000Y-133080000D02*
X88340000Y-127580000D01*
X88340000Y-133080000D02*
X90090000Y-133080000D01*
X66600000Y-133080000D02*
X66600000Y-127580000D01*
X64850000Y-133080000D02*
X66600000Y-133080000D01*
X90090000Y-139820000D02*
X90090000Y-133080000D01*
X90090000Y-139820000D02*
X88590000Y-139820000D01*
X88590000Y-139820000D02*
X88590000Y-142520000D01*
X66350000Y-139820000D02*
X64850000Y-139820000D01*
X66350000Y-139820000D02*
X66350000Y-142520000D01*
X64850000Y-139820000D02*
X64850000Y-133080000D01*
X88590000Y-142520000D02*
X66350000Y-142520000D01*
X114630000Y-71120000D02*
G75*
G03*
X114630000Y-71120000I-5370000J0D01*
G01*
X124790000Y-54740000D02*
X119050000Y-54740000D01*
X124790000Y-54740000D02*
X124790000Y-62180000D01*
X119050000Y-54740000D02*
X119050000Y-62180000D01*
X124790000Y-62180000D02*
X119050000Y-62180000D01*
X161460000Y-99060000D02*
X164850000Y-99060000D01*
X164850000Y-96440000D02*
X164850000Y-101680000D01*
X164850000Y-101680000D02*
X180590000Y-101680000D01*
X180590000Y-96440000D02*
X164850000Y-96440000D01*
X180590000Y-101680000D02*
X180590000Y-96440000D01*
X183980000Y-99060000D02*
X180590000Y-99060000D01*
X114630000Y-86360000D02*
G75*
G03*
X114630000Y-86360000I-5370000J0D01*
G01*
X187960000Y-128200000D02*
X187960000Y-127180000D01*
X186490000Y-127180000D02*
X189430000Y-127180000D01*
X189430000Y-127180000D02*
X189430000Y-121740000D01*
X186490000Y-126400000D02*
X189430000Y-126400000D01*
X186490000Y-126280000D02*
X189430000Y-126280000D01*
X186490000Y-126160000D02*
X189430000Y-126160000D01*
X186490000Y-121740000D02*
X186490000Y-127180000D01*
X189430000Y-121740000D02*
X186490000Y-121740000D01*
X187960000Y-120720000D02*
X187960000Y-121740000D01*
X120300000Y-81740000D02*
X120300000Y-90980000D01*
X120300000Y-81740000D02*
X138540000Y-81740000D01*
X120300000Y-90980000D02*
X138540000Y-90980000D01*
X138540000Y-81740000D02*
X138540000Y-90980000D01*
X126670000Y-102740000D02*
X132410000Y-102740000D01*
X126670000Y-102740000D02*
X126670000Y-95300000D01*
X132410000Y-102740000D02*
X132410000Y-95300000D01*
X126670000Y-95300000D02*
X132410000Y-95300000D01*
X213360000Y-82720000D02*
X213360000Y-85370000D01*
X215730000Y-85370000D02*
X210990000Y-85370000D01*
X210990000Y-85370000D02*
X210990000Y-97510000D01*
X215730000Y-97510000D02*
X215730000Y-85370000D01*
X210990000Y-97510000D02*
X215730000Y-97510000D01*
X213360000Y-100160000D02*
X213360000Y-97510000D01*
X143647136Y-83314162D02*
X146297136Y-83314162D01*
X146297136Y-80944162D02*
X146297136Y-85684162D01*
X146297136Y-85684162D02*
X158437136Y-85684162D01*
X158437136Y-80944162D02*
X146297136Y-80944162D01*
X158437136Y-85684162D02*
X158437136Y-80944162D01*
X161087136Y-83314162D02*
X158437136Y-83314162D01*
X183800000Y-81740000D02*
X183800000Y-90980000D01*
X183800000Y-81740000D02*
X202040000Y-81740000D01*
X183800000Y-90980000D02*
X202040000Y-90980000D01*
X202040000Y-81740000D02*
X202040000Y-90980000D01*
X223520000Y-110260000D02*
X223520000Y-113570000D01*
X224890000Y-113570000D02*
X222150000Y-113570000D01*
X222150000Y-113570000D02*
X222150000Y-120110000D01*
X224890000Y-120110000D02*
X224890000Y-113570000D01*
X222150000Y-120110000D02*
X224890000Y-120110000D01*
X223520000Y-123420000D02*
X223520000Y-120110000D01*
X200660000Y-120720000D02*
X200660000Y-121740000D01*
X202130000Y-121740000D02*
X199190000Y-121740000D01*
X199190000Y-121740000D02*
X199190000Y-127180000D01*
X202130000Y-122520000D02*
X199190000Y-122520000D01*
X202130000Y-122640000D02*
X199190000Y-122640000D01*
X202130000Y-122760000D02*
X199190000Y-122760000D01*
X202130000Y-127180000D02*
X202130000Y-121740000D01*
X199190000Y-127180000D02*
X202130000Y-127180000D01*
X200660000Y-128200000D02*
X200660000Y-127180000D01*
X191710000Y-125790000D02*
X191710000Y-124460000D01*
X193040000Y-125790000D02*
X191710000Y-125790000D01*
X194310000Y-125790000D02*
X196910000Y-125790000D01*
X194310000Y-125790000D02*
X194310000Y-123190000D01*
X196910000Y-125790000D02*
X196910000Y-120590000D01*
X191710000Y-123190000D02*
X191710000Y-120590000D01*
X194310000Y-123190000D02*
X191710000Y-123190000D01*
X191710000Y-120590000D02*
X196910000Y-120590000D01*
X178130000Y-71120000D02*
G75*
G03*
X178130000Y-71120000I-5370000J0D01*
G01*
X81280000Y-107780000D02*
X81280000Y-105130000D01*
X78910000Y-105130000D02*
X83650000Y-105130000D01*
X83650000Y-105130000D02*
X83650000Y-92990000D01*
X78910000Y-92990000D02*
X78910000Y-105130000D01*
X83650000Y-92990000D02*
X78910000Y-92990000D01*
X81280000Y-90340000D02*
X81280000Y-92990000D01*
X132410000Y-54740000D02*
X126670000Y-54740000D01*
X132410000Y-54740000D02*
X132410000Y-62180000D01*
X126670000Y-54740000D02*
X126670000Y-62180000D01*
X132410000Y-62180000D02*
X126670000Y-62180000D01*
X143680000Y-73660000D02*
X146330000Y-73660000D01*
X146330000Y-71290000D02*
X146330000Y-76030000D01*
X146330000Y-76030000D02*
X158470000Y-76030000D01*
X158470000Y-71290000D02*
X146330000Y-71290000D01*
X158470000Y-76030000D02*
X158470000Y-71290000D01*
X161120000Y-73660000D02*
X158470000Y-73660000D01*
X210820000Y-110260000D02*
X210820000Y-113570000D01*
X212190000Y-113570000D02*
X209450000Y-113570000D01*
X209450000Y-113570000D02*
X209450000Y-120110000D01*
X212190000Y-120110000D02*
X212190000Y-113570000D01*
X209450000Y-120110000D02*
X212190000Y-120110000D01*
X210820000Y-123420000D02*
X210820000Y-120110000D01*
X178130000Y-86360000D02*
G75*
G03*
X178130000Y-86360000I-5370000J0D01*
G01*
X103120000Y-129160000D02*
X115320000Y-129160000D01*
X115320000Y-129160000D02*
X115320000Y-122560000D01*
X103120000Y-122560000D02*
X103120000Y-129160000D01*
X115320000Y-121260000D02*
X115320000Y-112360000D01*
X103120000Y-112360000D02*
X103120000Y-121260000D01*
X115320000Y-111160000D02*
X115320000Y-109960000D01*
X103120000Y-109960000D02*
X103120000Y-111160000D01*
X115320000Y-109960000D02*
X103120000Y-109960000D01*
X93650000Y-87580000D02*
X99390000Y-87580000D01*
X93650000Y-87580000D02*
X93650000Y-80140000D01*
X99390000Y-87580000D02*
X99390000Y-80140000D01*
X93650000Y-80140000D02*
X99390000Y-80140000D01*
X214570000Y-118050000D02*
X215900000Y-118050000D01*
X214570000Y-119380000D02*
X214570000Y-118050000D01*
X214570000Y-120650000D02*
X214570000Y-125790000D01*
X214570000Y-120650000D02*
X217170000Y-120650000D01*
X214570000Y-125790000D02*
X219770000Y-125790000D01*
X217170000Y-118050000D02*
X219770000Y-118050000D01*
X217170000Y-120650000D02*
X217170000Y-118050000D01*
X219770000Y-118050000D02*
X219770000Y-125790000D01*
X138780000Y-75500000D02*
X138780000Y-66260000D01*
X138780000Y-75500000D02*
X120540000Y-75500000D01*
X138780000Y-66260000D02*
X120540000Y-66260000D01*
X120540000Y-75500000D02*
X120540000Y-66260000D01*
X92880000Y-58420000D02*
X95530000Y-58420000D01*
X95530000Y-56050000D02*
X95530000Y-60790000D01*
X95530000Y-60790000D02*
X107670000Y-60790000D01*
X107670000Y-56050000D02*
X95530000Y-56050000D01*
X107670000Y-60790000D02*
X107670000Y-56050000D01*
X110320000Y-58420000D02*
X107670000Y-58420000D01*
X92880000Y-99060000D02*
X95530000Y-99060000D01*
X95530000Y-96690000D02*
X95530000Y-101430000D01*
X95530000Y-101430000D02*
X107670000Y-101430000D01*
X107670000Y-96690000D02*
X95530000Y-96690000D01*
X107670000Y-101430000D02*
X107670000Y-96690000D01*
X110320000Y-99060000D02*
X107670000Y-99060000D01*
X119050000Y-102740000D02*
X124790000Y-102740000D01*
X119050000Y-102740000D02*
X119050000Y-95300000D01*
X124790000Y-102740000D02*
X124790000Y-95300000D01*
X119050000Y-95300000D02*
X124790000Y-95300000D01*
%LPC*%
D13*
X124460000Y-121920000D03*
X134620000Y-121920000D03*
X124460000Y-111760000D03*
X134620000Y-111760000D03*
D14*
X129540000Y-115560000D03*
D15*
X200660000Y-70880000D03*
X185660000Y-70880000D03*
X73660000Y-109220000D03*
D16*
X73660000Y-88900000D03*
D17*
X157480000Y-130810000D03*
X165100000Y-135890000D03*
D18*
X157480000Y-121920000D03*
X165100000Y-121920000D03*
D19*
X161290000Y-121920000D03*
X161290000Y-127000000D03*
D20*
X233680000Y-53340000D03*
D17*
X96520000Y-76200000D03*
X96520000Y-71200000D03*
D15*
X220980000Y-81280000D03*
D16*
X220980000Y-101600000D03*
D15*
X160020000Y-58420000D03*
D16*
X185420000Y-58420000D03*
D17*
X73660000Y-130810000D03*
X81280000Y-135890000D03*
D18*
X81280000Y-127000000D03*
X73660000Y-126365000D03*
D19*
X77470000Y-122550000D03*
X85720000Y-132720000D03*
D21*
X106760000Y-71120000D03*
X111760000Y-71120000D03*
D17*
X121920000Y-55960000D03*
X121920000Y-60960000D03*
D15*
X160020000Y-99060000D03*
D16*
X185420000Y-99060000D03*
D21*
X106760000Y-86360000D03*
X111760000Y-86360000D03*
D22*
X187960000Y-129540000D03*
D23*
X187960000Y-119380000D03*
D15*
X121920000Y-86360000D03*
X136920000Y-86360000D03*
D17*
X129540000Y-101520000D03*
X129540000Y-96520000D03*
D15*
X213360000Y-81280000D03*
D16*
X213360000Y-101600000D03*
D15*
X142207136Y-83314162D03*
D16*
X162527136Y-83314162D03*
D15*
X185420000Y-86360000D03*
X200420000Y-86360000D03*
D17*
X223520000Y-109220000D03*
D24*
X223520000Y-124460000D03*
D22*
X200660000Y-119380000D03*
D23*
X200660000Y-129540000D03*
D25*
X193040000Y-124460000D03*
D26*
X195580000Y-121920000D03*
X195580000Y-124460000D03*
X193040000Y-121920000D03*
D20*
X55880000Y-53340000D03*
D21*
X170260000Y-71120000D03*
X175260000Y-71120000D03*
D20*
X55880000Y-129540000D03*
D15*
X81280000Y-109220000D03*
D16*
X81280000Y-88900000D03*
D17*
X129540000Y-55960000D03*
X129540000Y-60960000D03*
D15*
X142240000Y-73660000D03*
D16*
X162560000Y-73660000D03*
D17*
X210820000Y-109220000D03*
D24*
X210820000Y-124460000D03*
D21*
X170260000Y-86360000D03*
X175260000Y-86360000D03*
D13*
X104140000Y-121920000D03*
X114300000Y-121920000D03*
X104140000Y-111760000D03*
X114300000Y-111760000D03*
D14*
X109220000Y-115560000D03*
D17*
X96520000Y-86360000D03*
X96520000Y-81360000D03*
D26*
X215900000Y-124460000D03*
D25*
X215900000Y-119380000D03*
D26*
X215900000Y-121920000D03*
X218440000Y-124460000D03*
X218440000Y-119380000D03*
X218440000Y-121920000D03*
D15*
X137160000Y-70880000D03*
X122160000Y-70880000D03*
X91440000Y-58420000D03*
D16*
X111760000Y-58420000D03*
D15*
X91440000Y-99060000D03*
D16*
X111760000Y-99060000D03*
D20*
X233680000Y-129540000D03*
D17*
X121920000Y-101520000D03*
X121920000Y-96520000D03*
%LPD*%
M02*
