M48
; DRILL file {KiCad 7.0.6-0} date 2023 August 07, Monday 07:57:13
; FORMAT={-:-/ absolute / metric / decimal}
; #@! TF.CreationDate,2023-08-07T07:57:13+08:00
; #@! TF.GenerationSoftware,Kicad,Pcbnew,7.0.6-0
; #@! TF.FileFunction,Plated,1,2,PTH
FMAT,2
METRIC
; #@! TA.AperFunction,Plated,PTH,ViaDrill
T1C0.400
; #@! TA.AperFunction,Plated,PTH,ComponentDrill
T2C0.800
; #@! TA.AperFunction,Plated,PTH,ComponentDrill
T3C1.000
; #@! TA.AperFunction,Plated,PTH,ComponentDrill
T4C1.100
; #@! TA.AperFunction,Plated,PTH,ComponentDrill
T5C1.200
; #@! TA.AperFunction,Plated,PTH,ComponentDrill
T6C1.300
; #@! TA.AperFunction,Plated,PTH,ComponentDrill
T7C1.600
; #@! TA.AperFunction,Plated,PTH,ComponentDrill
T8C2.200
%
G90
G05
T1
X157.48Y-116.84
T2
X96.52Y-71.2
X96.52Y-76.2
X96.52Y-81.36
X96.52Y-86.36
X121.92Y-55.96
X121.92Y-60.96
X121.92Y-96.52
X121.92Y-101.52
X129.54Y-55.96
X129.54Y-60.96
X129.54Y-96.52
X129.54Y-101.52
X210.82Y-109.22
X210.82Y-124.46
X223.52Y-109.22
X223.52Y-124.46
T3
X193.04Y-121.92
X193.04Y-124.46
X195.58Y-121.92
X195.58Y-124.46
X215.9Y-119.38
X215.9Y-121.92
X215.9Y-124.46
X218.44Y-119.38
X218.44Y-121.92
X218.44Y-124.46
T4
X187.96Y-119.38
X187.96Y-129.54
X200.66Y-119.38
X200.66Y-129.54
T5
X73.66Y-88.9
X73.66Y-109.22
X77.47Y-122.55
X81.28Y-88.9
X81.28Y-109.22
X85.72Y-132.72
X91.44Y-58.42
X91.44Y-99.06
X111.76Y-58.42
X111.76Y-99.06
X121.92Y-86.36
X122.16Y-70.88
X136.92Y-86.36
X137.16Y-70.88
X142.207Y-83.314
X142.24Y-73.66
X160.02Y-58.42
X160.02Y-99.06
X161.29Y-121.92
X161.29Y-127.0
X162.527Y-83.314
X162.56Y-73.66
X185.42Y-58.42
X185.42Y-86.36
X185.42Y-99.06
X185.66Y-70.88
X200.42Y-86.36
X200.66Y-70.88
X213.36Y-81.28
X213.36Y-101.6
X220.98Y-81.28
X220.98Y-101.6
T6
X106.76Y-71.12
X106.76Y-86.36
X111.76Y-71.12
X111.76Y-86.36
X170.26Y-71.12
X170.26Y-86.36
X175.26Y-71.12
X175.26Y-86.36
T7
X73.66Y-126.365
X81.28Y-127.0
X157.48Y-121.92
X165.1Y-121.92
T8
X109.22Y-115.56
X129.54Y-115.56
T0
M30
