G04 #@! TF.GenerationSoftware,KiCad,Pcbnew,7.0.6-0*
G04 #@! TF.CreationDate,2023-08-07T07:56:58+08:00*
G04 #@! TF.ProjectId,aes17_filter_25,61657331-375f-4666-996c-7465725f3235,rev?*
G04 #@! TF.SameCoordinates,Original*
G04 #@! TF.FileFunction,Copper,L1,Top*
G04 #@! TF.FilePolarity,Positive*
%FSLAX46Y46*%
G04 Gerber Fmt 4.6, Leading zero omitted, Abs format (unit mm)*
G04 Created by KiCad (PCBNEW 7.0.6-0) date 2023-08-07 07:56:58*
%MOMM*%
%LPD*%
G01*
G04 APERTURE LIST*
G04 #@! TA.AperFunction,WasherPad*
%ADD10C,1.700000*%
G04 #@! TD*
G04 #@! TA.AperFunction,ComponentPad*
%ADD11C,3.500000*%
G04 #@! TD*
G04 #@! TA.AperFunction,ComponentPad*
%ADD12C,2.400000*%
G04 #@! TD*
G04 #@! TA.AperFunction,ComponentPad*
%ADD13O,2.400000X2.400000*%
G04 #@! TD*
G04 #@! TA.AperFunction,ComponentPad*
%ADD14C,3.400000*%
G04 #@! TD*
G04 #@! TA.AperFunction,ComponentPad*
%ADD15C,2.900000*%
G04 #@! TD*
G04 #@! TA.AperFunction,ComponentPad*
%ADD16C,1.600000*%
G04 #@! TD*
G04 #@! TA.AperFunction,ComponentPad*
%ADD17C,2.600000*%
G04 #@! TD*
G04 #@! TA.AperFunction,ComponentPad*
%ADD18R,2.200000X2.200000*%
G04 #@! TD*
G04 #@! TA.AperFunction,ComponentPad*
%ADD19O,2.200000X2.200000*%
G04 #@! TD*
G04 #@! TA.AperFunction,ComponentPad*
%ADD20O,1.600000X1.600000*%
G04 #@! TD*
G04 #@! TA.AperFunction,ComponentPad*
%ADD21R,1.700000X1.700000*%
G04 #@! TD*
G04 #@! TA.AperFunction,ComponentPad*
%ADD22O,1.700000X1.700000*%
G04 #@! TD*
G04 #@! TA.AperFunction,ViaPad*
%ADD23C,1.000000*%
G04 #@! TD*
G04 #@! TA.AperFunction,Conductor*
%ADD24C,2.000000*%
G04 #@! TD*
G04 #@! TA.AperFunction,Conductor*
%ADD25C,1.000000*%
G04 #@! TD*
G04 APERTURE END LIST*
D10*
X124460000Y-121920000D03*
X134620000Y-121920000D03*
X124460000Y-111760000D03*
X134620000Y-111760000D03*
D11*
X129540000Y-115560000D03*
D12*
X200660000Y-70880000D03*
X185660000Y-70880000D03*
X73660000Y-109220000D03*
D13*
X73660000Y-88900000D03*
D14*
X157480000Y-121920000D03*
X165100000Y-121920000D03*
D15*
X161290000Y-121920000D03*
X161290000Y-127000000D03*
D16*
X96520000Y-76200000D03*
X96520000Y-71200000D03*
D12*
X220980000Y-81280000D03*
D13*
X220980000Y-101600000D03*
D12*
X160020000Y-58420000D03*
D13*
X185420000Y-58420000D03*
D14*
X81280000Y-127000000D03*
X73660000Y-126365000D03*
D15*
X77470000Y-122550000D03*
X85720000Y-132720000D03*
D17*
X106760000Y-71120000D03*
X111760000Y-71120000D03*
D16*
X121920000Y-55960000D03*
X121920000Y-60960000D03*
D12*
X160020000Y-99060000D03*
D13*
X185420000Y-99060000D03*
D17*
X106760000Y-86360000D03*
X111760000Y-86360000D03*
D18*
X187960000Y-129540000D03*
D19*
X187960000Y-119380000D03*
D12*
X121920000Y-86360000D03*
X136920000Y-86360000D03*
D16*
X129540000Y-101520000D03*
X129540000Y-96520000D03*
D12*
X213360000Y-81280000D03*
D13*
X213360000Y-101600000D03*
D12*
X142207136Y-83314162D03*
D13*
X162527136Y-83314162D03*
D12*
X185420000Y-86360000D03*
X200420000Y-86360000D03*
D16*
X223520000Y-109220000D03*
D20*
X223520000Y-124460000D03*
D18*
X200660000Y-119380000D03*
D19*
X200660000Y-129540000D03*
D21*
X193040000Y-124460000D03*
D22*
X195580000Y-121920000D03*
X195580000Y-124460000D03*
X193040000Y-121920000D03*
D17*
X170260000Y-71120000D03*
X175260000Y-71120000D03*
D12*
X81280000Y-109220000D03*
D13*
X81280000Y-88900000D03*
D16*
X129540000Y-55960000D03*
X129540000Y-60960000D03*
D12*
X142240000Y-73660000D03*
D13*
X162560000Y-73660000D03*
D16*
X210820000Y-109220000D03*
D20*
X210820000Y-124460000D03*
D17*
X170260000Y-86360000D03*
X175260000Y-86360000D03*
D10*
X104140000Y-121920000D03*
X114300000Y-121920000D03*
X104140000Y-111760000D03*
X114300000Y-111760000D03*
D11*
X109220000Y-115560000D03*
D16*
X96520000Y-86360000D03*
X96520000Y-81360000D03*
D22*
X215900000Y-124460000D03*
D21*
X215900000Y-119380000D03*
D22*
X215900000Y-121920000D03*
X218440000Y-124460000D03*
X218440000Y-119380000D03*
X218440000Y-121920000D03*
D12*
X137160000Y-70880000D03*
X122160000Y-70880000D03*
X91440000Y-58420000D03*
D13*
X111760000Y-58420000D03*
D12*
X91440000Y-99060000D03*
D13*
X111760000Y-99060000D03*
D16*
X121920000Y-101520000D03*
X121920000Y-96520000D03*
D23*
X157480000Y-116840000D03*
D24*
X88900000Y-96520000D02*
X91440000Y-99060000D01*
X88900000Y-86360000D02*
X88900000Y-96520000D01*
X83820000Y-86360000D02*
X88900000Y-86360000D01*
X88900000Y-86360000D02*
X106760000Y-86360000D01*
X81280000Y-88900000D02*
X83820000Y-86360000D01*
X96440000Y-71120000D02*
X96520000Y-71200000D01*
X73660000Y-83820000D02*
X86360000Y-71120000D01*
X86360000Y-71120000D02*
X88900000Y-71120000D01*
X96520000Y-71200000D02*
X96600000Y-71120000D01*
X88900000Y-71120000D02*
X96440000Y-71120000D01*
X73660000Y-88900000D02*
X73660000Y-83820000D01*
X96600000Y-71120000D02*
X106760000Y-71120000D01*
X88900000Y-60960000D02*
X91440000Y-58420000D01*
X88900000Y-71120000D02*
X88900000Y-60960000D01*
X121920000Y-101520000D02*
X114220000Y-101520000D01*
X114220000Y-101520000D02*
X111760000Y-99060000D01*
X129540000Y-101520000D02*
X121920000Y-101520000D01*
X111760000Y-86360000D02*
X121920000Y-86360000D01*
X132585838Y-83314162D02*
X142207136Y-83314162D01*
X129540000Y-86360000D02*
X132585838Y-83314162D01*
X121920000Y-86360000D02*
X129540000Y-86360000D01*
X121920000Y-96520000D02*
X129540000Y-96520000D01*
X121920000Y-86360000D02*
X121920000Y-96520000D01*
X114300000Y-55880000D02*
X129460000Y-55880000D01*
X129460000Y-55880000D02*
X129540000Y-55960000D01*
X111760000Y-58420000D02*
X114300000Y-55880000D01*
X122160000Y-70880000D02*
X129300000Y-70880000D01*
X121920000Y-71120000D02*
X122160000Y-70880000D01*
X129300000Y-70880000D02*
X132080000Y-73660000D01*
X132080000Y-73660000D02*
X142240000Y-73660000D01*
X111760000Y-71120000D02*
X121920000Y-71120000D01*
X129540000Y-60960000D02*
X121920000Y-60960000D01*
X121920000Y-70640000D02*
X122160000Y-70880000D01*
X121920000Y-60960000D02*
X121920000Y-70640000D01*
X175260000Y-88900000D02*
X185420000Y-99060000D01*
X175260000Y-86360000D02*
X175260000Y-88900000D01*
X190500000Y-81280000D02*
X213360000Y-81280000D01*
X185420000Y-86360000D02*
X190500000Y-81280000D01*
X175260000Y-86360000D02*
X185420000Y-86360000D01*
X175260000Y-68580000D02*
X185420000Y-58420000D01*
X175260000Y-71120000D02*
X175260000Y-68580000D01*
X175260000Y-71120000D02*
X185420000Y-71120000D01*
X185660000Y-70880000D02*
X190980000Y-76200000D01*
X215900000Y-76200000D02*
X220980000Y-81280000D01*
X190980000Y-76200000D02*
X215900000Y-76200000D01*
X185420000Y-71120000D02*
X185660000Y-70880000D01*
X195580000Y-121920000D02*
X198120000Y-119380000D01*
X198120000Y-119380000D02*
X200660000Y-119380000D01*
X223520000Y-124460000D02*
X218440000Y-124460000D01*
X200660000Y-129540000D02*
X187960000Y-129540000D01*
X215900000Y-129540000D02*
X200660000Y-129540000D01*
X218440000Y-127000000D02*
X215900000Y-129540000D01*
X187960000Y-129540000D02*
X172720000Y-129540000D01*
D25*
X157480000Y-116840000D02*
X130820000Y-116840000D01*
D24*
X172720000Y-129540000D02*
X165100000Y-121920000D01*
D25*
X130820000Y-116840000D02*
X129540000Y-115560000D01*
D24*
X218440000Y-124460000D02*
X218440000Y-127000000D01*
X193040000Y-121920000D02*
X190500000Y-119380000D01*
X190500000Y-119380000D02*
X187960000Y-119380000D01*
X73660000Y-109220000D02*
X73660000Y-126365000D01*
X77470000Y-122550000D02*
X77470000Y-113030000D01*
X77470000Y-113030000D02*
X81280000Y-109220000D01*
X170260000Y-88820000D02*
X170260000Y-86360000D01*
X160020000Y-99060000D02*
X170260000Y-88820000D01*
X162527136Y-83314162D02*
X167214162Y-83314162D01*
X167214162Y-83314162D02*
X170260000Y-86360000D01*
X167720000Y-73660000D02*
X170260000Y-71120000D01*
X170260000Y-68660000D02*
X160020000Y-58420000D01*
X162560000Y-73660000D02*
X167720000Y-73660000D01*
X170260000Y-71120000D02*
X170260000Y-68660000D01*
X213360000Y-101600000D02*
X215900000Y-104140000D01*
X215900000Y-104140000D02*
X215900000Y-119380000D01*
X218440000Y-104140000D02*
X218440000Y-119380000D01*
X220980000Y-101600000D02*
X218440000Y-104140000D01*
D25*
X210820000Y-119380000D02*
X210820000Y-109220000D01*
X213360000Y-121920000D02*
X210820000Y-119380000D01*
X215900000Y-121920000D02*
X213360000Y-121920000D01*
X218440000Y-121920000D02*
X220980000Y-121920000D01*
X220980000Y-121920000D02*
X223520000Y-119380000D01*
X223520000Y-119380000D02*
X223520000Y-109220000D01*
D24*
X166980000Y-118720000D02*
X163220000Y-118720000D01*
X193040000Y-124460000D02*
X172720000Y-124460000D01*
D25*
X163097651Y-118597651D02*
X163220000Y-118720000D01*
D24*
X163220000Y-118720000D02*
X161290000Y-120650000D01*
X161290000Y-120650000D02*
X161290000Y-121920000D01*
X210820000Y-124460000D02*
X215900000Y-124460000D01*
X172720000Y-124460000D02*
X166980000Y-118720000D01*
X210820000Y-124460000D02*
X195580000Y-124460000D01*
D25*
X161290000Y-121920000D02*
X161290000Y-120847461D01*
X112257651Y-118597651D02*
X163097651Y-118597651D01*
X109220000Y-115560000D02*
X112257651Y-118597651D01*
M02*
